<svg xmlns="http://www.w3.org/2000/svg" width="135.242" height="135.242" viewBox="0 0 135.242 135.242"><g transform="translate(-762.641 -380.344)"><path d="M55.212,2A53.227,53.227,0,0,0,34.5,104.244,53.227,53.227,0,0,0,75.925,6.181,52.877,52.877,0,0,0,55.212,2m0-2A55.212,55.212,0,1,1,0,55.212,55.212,55.212,0,0,1,55.212,0Z" transform="matrix(0.259, 0.966, -0.966, 0.259, 869.303, 380.344)" fill="#fff"/><circle cx="35.856" cy="35.856" r="35.856" transform="matrix(0.259, 0.966, -0.966, 0.259, 855.616, 404.051)" fill="#151515"/><path d="M35.856,1.5A34.365,34.365,0,0,0,22.483,67.512,34.365,34.365,0,0,0,49.228,4.2,34.139,34.139,0,0,0,35.856,1.5m0-1.5A35.856,35.856,0,1,1,0,35.856,35.856,35.856,0,0,1,35.856,0Z" transform="matrix(0.259, 0.966, -0.966, 0.259, 855.616, 404.051)" fill="#fff"/><circle cx="27.856" cy="27.856" r="27.856" transform="matrix(0.259, 0.966, -0.966, 0.259, 849.813, 414)" fill="#151515"/><path d="M27.856,1A26.863,26.863,0,0,0,17.4,52.6,26.863,26.863,0,0,0,38.309,3.11,26.687,26.687,0,0,0,27.856,1m0-1A27.856,27.856,0,1,1,0,27.856,27.856,27.856,0,0,1,27.856,0Z" transform="matrix(0.259, 0.966, -0.966, 0.259, 849.813, 414)" fill="#fff"/><circle cx="2.5" cy="2.5" r="2.5" transform="translate(850 460)" fill="#fff"/><circle cx="2.5" cy="2.5" r="2.5" transform="translate(805 418)" fill="#fff"/></g></svg>