<svg xmlns="http://www.w3.org/2000/svg" xmlns:xlink="http://www.w3.org/1999/xlink" width="87.828" height="87.828" viewBox="0 0 87.828 87.828"><defs><clipPath id="a"><rect width="30.755" height="40.224" fill="#fff"/></clipPath></defs><g transform="translate(-786.348 -404.051)"><circle cx="35.856" cy="35.856" r="35.856" transform="matrix(0.259, 0.966, -0.966, 0.259, 855.616, 404.051)" fill="#151515"/><path d="M35.856,1.5A34.365,34.365,0,0,0,22.483,67.512,34.365,34.365,0,0,0,49.228,4.2,34.139,34.139,0,0,0,35.856,1.5m0-1.5A35.856,35.856,0,1,1,0,35.856,35.856,35.856,0,0,1,35.856,0Z" transform="matrix(0.259, 0.966, -0.966, 0.259, 855.616, 404.051)" fill="#fff"/><circle cx="27.856" cy="27.856" r="27.856" transform="matrix(0.259, 0.966, -0.966, 0.259, 849.813, 414)" fill="#151515"/><path d="M27.856,1A26.863,26.863,0,0,0,17.4,52.6,26.863,26.863,0,0,0,38.309,3.11,26.687,26.687,0,0,0,27.856,1m0-1A27.856,27.856,0,1,1,0,27.856,27.856,27.856,0,0,1,27.856,0Z" transform="matrix(0.259, 0.966, -0.966, 0.259, 849.813, 414)" fill="#fff"/><g transform="translate(813.149 427.853)"><g clip-path="url(#a)"><path d="M20.338,9.284a16.924,16.924,0,0,1,11.4-4.952,19.921,19.921,0,1,0,.007,33.931A16.976,16.976,0,0,1,20.338,9.284Z" transform="translate(-1.185 -1.185)" fill="#fff"/></g></g></g></svg>