<svg xmlns="http://www.w3.org/2000/svg" width="316" height="316" viewBox="0 0 316 316"><g transform="translate(-672 -290)"><g transform="translate(-280.121 316.356) rotate(-8)"><path d="M116.293,117.707l-117-117L.707-.707l117,117Z" transform="translate(1045.107 186.5)" fill="#fff"/><circle cx="22" cy="22" r="22" transform="translate(1023.607 164)" fill="#151515"/><path d="M22,1a21.006,21.006,0,0,0-8.174,40.35A21.006,21.006,0,0,0,30.174,2.65,20.868,20.868,0,0,0,22,1m0-1A22,22,0,1,1,0,22,22,22,0,0,1,22,0Z" transform="translate(1023.607 164)" fill="#fff"/><circle cx="18" cy="18" r="18" transform="translate(1027.607 168)" fill="#151515"/><path d="M18,2A16,16,0,0,0,6.686,29.314,16,16,0,0,0,29.314,6.686,15.9,15.9,0,0,0,18,2m0-2A18,18,0,1,1,0,18,18,18,0,0,1,18,0Z" transform="translate(1027.607 168)" fill="#fff"/><text transform="translate(1025.235 183.909) rotate(-40)" fill="#fff" font-size="20" font-family="hermetic-Regular, hermetic"><tspan x="-7.42" y="21">M</tspan></text></g><path d="M51.5,1.241,1.172,38.194,20.4,98H82.6l19.228-59.806L51.5,1.241M51.5,0,103,37.815,83.329,99H19.671L0,37.815Z" transform="translate(779 393)" fill="#fff"/><g transform="matrix(0.454, 0.891, -0.891, 0.454, 592.701, -642.768)"><path d="M116.293,117.707l-117-117L.707-.707l117,117Z" transform="translate(1045.107 186.5)" fill="#fff"/><circle cx="22" cy="22" r="22" transform="translate(1023.607 164)" fill="#151515"/><path d="M22,1a21.006,21.006,0,0,0-8.174,40.35A21.006,21.006,0,0,0,30.174,2.65,20.868,20.868,0,0,0,22,1m0-1A22,22,0,1,1,0,22,22,22,0,0,1,22,0Z" transform="translate(1023.607 164)" fill="#fff"/><circle cx="18" cy="18" r="18" transform="translate(1027.607 168)" fill="#151515"/><path d="M18,2A16,16,0,0,0,6.686,29.314,16,16,0,0,0,29.314,6.686,15.9,15.9,0,0,0,18,2m0-2A18,18,0,1,1,0,18,18,18,0,0,1,18,0Z" transform="translate(1027.607 168)" fill="#fff"/><text transform="translate(1023.393 182.641) rotate(-40)" fill="#fff" font-size="20" font-family="hermetic-Regular, hermetic"><tspan x="-9.88" y="21">O</tspan></text></g><g transform="translate(1798.981 -115.405) rotate(135)"><path d="M116.293,117.707l-117-117L.707-.707l117,117Z" transform="translate(1045.107 186.5)" fill="#fff"/><circle cx="22" cy="22" r="22" transform="translate(1023.607 164)" fill="#151515"/><path d="M22,1a21.006,21.006,0,0,0-8.174,40.35A21.006,21.006,0,0,0,30.174,2.65,20.868,20.868,0,0,0,22,1m0-1A22,22,0,1,1,0,22,22,22,0,0,1,22,0Z" transform="translate(1023.607 164)" fill="#fff"/><circle cx="18" cy="18" r="18" transform="translate(1027.607 168)" fill="#151515"/><path d="M18,2A16,16,0,0,0,6.686,29.314,16,16,0,0,0,29.314,6.686,15.9,15.9,0,0,0,18,2m0-2A18,18,0,1,1,0,18,18,18,0,0,1,18,0Z" transform="translate(1027.607 168)" fill="#fff"/><text transform="translate(1025.515 184.762) rotate(-40)" fill="#fff" font-size="20" font-family="hermetic-Regular, hermetic"><tspan x="-7.15" y="21">N</tspan></text></g><g transform="translate(1652.056 1205.404) rotate(-152)"><path d="M116.293,117.707l-117-117L.707-.707l117,117Z" transform="translate(1045.107 186.5)" fill="#fff"/><circle cx="22" cy="22" r="22" transform="translate(1023.607 164)" fill="#151515"/><path d="M22,1a21.006,21.006,0,0,0-8.174,40.35A21.006,21.006,0,0,0,30.174,2.65,20.868,20.868,0,0,0,22,1m0-1A22,22,0,1,1,0,22,22,22,0,0,1,22,0Z" transform="translate(1023.607 164)" fill="#fff"/><circle cx="18" cy="18" r="18" transform="translate(1027.607 168)" fill="#151515"/><path d="M18,2A16,16,0,0,0,6.686,29.314,16,16,0,0,0,29.314,6.686,15.9,15.9,0,0,0,18,2m0-2A18,18,0,1,1,0,18,18,18,0,0,1,18,0Z" transform="translate(1027.607 168)" fill="#fff"/><text transform="translate(1027.976 187) rotate(-40)" fill="#fff" font-size="20" font-family="hermetic-Regular, hermetic"><tspan x="-8.5" y="21">K</tspan></text></g><g transform="translate(405.326 1473.73) rotate(-82)"><path d="M116.293,117.707l-117-117L.707-.707l117,117Z" transform="translate(1045.107 186.5)" fill="#fff"/><circle cx="22" cy="22" r="22" transform="translate(1023.607 164)" fill="#151515"/><path d="M22,1a21.006,21.006,0,0,0-8.174,40.35A21.006,21.006,0,0,0,30.174,2.65,20.868,20.868,0,0,0,22,1m0-1A22,22,0,1,1,0,22,22,22,0,0,1,22,0Z" transform="translate(1023.607 164)" fill="#fff"/><circle cx="18" cy="18" r="18" transform="translate(1027.607 168)" fill="#151515"/><path d="M18,2A16,16,0,0,0,6.686,29.314,16,16,0,0,0,29.314,6.686,15.9,15.9,0,0,0,18,2m0-2A18,18,0,1,1,0,18,18,18,0,0,1,18,0Z" transform="translate(1027.607 168)" fill="#fff"/><text transform="translate(1024.662 184.482) rotate(-40)" fill="#fff" font-size="20" font-family="hermetic-Regular, hermetic"><tspan x="-12.83" y="21">Y</tspan></text></g><path d="M151,2a150.111,150.111,0,0,0-30.031,3.027A148.173,148.173,0,0,0,67.694,27.446,149.441,149.441,0,0,0,13.708,93a148.236,148.236,0,0,0-8.681,27.966,150.472,150.472,0,0,0,0,60.062,148.173,148.173,0,0,0,22.418,53.275A149.441,149.441,0,0,0,93,288.292a148.236,148.236,0,0,0,27.966,8.681,150.472,150.472,0,0,0,60.062,0,148.173,148.173,0,0,0,53.275-22.418A149.441,149.441,0,0,0,288.292,209a148.237,148.237,0,0,0,8.681-27.966,150.472,150.472,0,0,0,0-60.062,148.173,148.173,0,0,0-22.418-53.275A149.441,149.441,0,0,0,209,13.708a148.237,148.237,0,0,0-27.966-8.681A150.111,150.111,0,0,0,151,2m0-2A151,151,0,1,1,0,151,151,151,0,0,1,151,0Z" transform="translate(679 297)" fill="#fff"/><path d="M158,1a158.166,158.166,0,0,0-31.642,3.19A156.134,156.134,0,0,0,70.221,27.813,157.461,157.461,0,0,0,13.337,96.889,156.2,156.2,0,0,0,4.19,126.358a158.541,158.541,0,0,0,0,63.284A156.134,156.134,0,0,0,27.813,245.78a157.461,157.461,0,0,0,69.076,56.883,156.2,156.2,0,0,0,29.469,9.148,158.541,158.541,0,0,0,63.284,0,156.134,156.134,0,0,0,56.137-23.623,157.461,157.461,0,0,0,56.883-69.076,156.2,156.2,0,0,0,9.148-29.469,158.541,158.541,0,0,0,0-63.284,156.134,156.134,0,0,0-23.623-56.137,157.461,157.461,0,0,0-69.076-56.883A156.2,156.2,0,0,0,189.642,4.19,158.166,158.166,0,0,0,158,1m0-1A158,158,0,1,1,0,158,158,158,0,0,1,158,0Z" transform="translate(672 290)" fill="#fff"/></g></svg>