<svg xmlns="http://www.w3.org/2000/svg" width="316" height="316" viewBox="0 0 316 316"><g transform="translate(-672 -290)"><g transform="translate(-280.121 316.356) rotate(-8)"><path d="M116.293,117.707l-117-117L.707-.707l117,117Z" transform="translate(1045.107 186.5)" fill="#fff"/><circle cx="22" cy="22" r="22" transform="translate(1023.607 164)" fill="#151515"/><path d="M22,1a21.006,21.006,0,0,0-8.174,40.35A21.006,21.006,0,0,0,30.174,2.65,20.868,20.868,0,0,0,22,1m0-1A22,22,0,1,1,0,22,22,22,0,0,1,22,0Z" transform="translate(1023.607 164)" fill="#fff"/><circle cx="18" cy="18" r="18" transform="translate(1027.607 168)" fill="#151515"/><path d="M18,2A16,16,0,0,0,6.686,29.314,16,16,0,0,0,29.314,6.686,15.9,15.9,0,0,0,18,2m0-2A18,18,0,1,1,0,18,18,18,0,0,1,18,0Z" transform="translate(1027.607 168)" fill="#fff"/><path d="M13.42,12.88a4.538,4.538,0,0,0,1.68-.3,4.445,4.445,0,0,0,1.3-.77,3.275,3.275,0,0,0,.81-1.02,1.906,1.906,0,0,0,.21-1.07,1.488,1.488,0,0,0-.5-.93,2.606,2.606,0,0,0-1.34-.57q-.22-.04-.46-.06t-.48-.02a5.067,5.067,0,0,0-1.61.27,4.539,4.539,0,0,0-1.49.84,4.731,4.731,0,0,0-1.15,1.48,6.225,6.225,0,0,0-.61,2.19l-.02,1.46a6.409,6.409,0,0,0,.32,2.04,5.028,5.028,0,0,0,.93,1.68,4.29,4.29,0,0,0,1.5,1.13,4.75,4.75,0,0,0,2.01.41,7.248,7.248,0,0,0,1.85-.21,4.122,4.122,0,0,0,1.35-.61,3.3,3.3,0,0,0,.92-1,5.592,5.592,0,0,0,.58-1.4l1.7-1.72a12.334,12.334,0,0,1-.7,2.66,6.988,6.988,0,0,1-1.26,2.1,5.435,5.435,0,0,1-1.88,1.37,6.241,6.241,0,0,1-2.56.49,6.294,6.294,0,0,1-3.06-.68,5.771,5.771,0,0,1-1.99-1.75A6.993,6.993,0,0,1,8.4,16.5a11.009,11.009,0,0,1-.32-2.6,10.289,10.289,0,0,1,.38-2.82A6.879,6.879,0,0,1,9.64,8.71a5.828,5.828,0,0,1,2.01-1.64,6.305,6.305,0,0,1,2.87-.61,6.649,6.649,0,0,1,1.92.27,4.527,4.527,0,0,1,1.68.95,4.049,4.049,0,0,1,1.16,1.5,2.85,2.85,0,0,1,.21,1.52,3.158,3.158,0,0,1-.6,1.41,4.846,4.846,0,0,1-1.24,1.17,6.56,6.56,0,0,1-1.73.8,7.068,7.068,0,0,1-2.08.3H10.08l2.34-1.5Z" transform="translate(1025.235 183.909) rotate(-40)" fill="#fff"/></g><path d="M51.5,1.241,1.172,38.194,20.4,98H82.6l19.228-59.806L51.5,1.241M51.5,0,103,37.815,83.329,99H19.671L0,37.815Z" transform="translate(779 393)" fill="#fff"/><g transform="matrix(0.454, 0.891, -0.891, 0.454, 592.701, -642.768)"><path d="M116.293,117.707l-117-117L.707-.707l117,117Z" transform="translate(1045.107 186.5)" fill="#fff"/><circle cx="22" cy="22" r="22" transform="translate(1023.607 164)" fill="#151515"/><path d="M22,1a21.006,21.006,0,0,0-8.174,40.35A21.006,21.006,0,0,0,30.174,2.65,20.868,20.868,0,0,0,22,1m0-1A22,22,0,1,1,0,22,22,22,0,0,1,22,0Z" transform="translate(1023.607 164)" fill="#fff"/><circle cx="18" cy="18" r="18" transform="translate(1027.607 168)" fill="#151515"/><path d="M18,2A16,16,0,0,0,6.686,29.314,16,16,0,0,0,29.314,6.686,15.9,15.9,0,0,0,18,2m0-2A18,18,0,1,1,0,18,18,18,0,0,1,18,0Z" transform="translate(1027.607 168)" fill="#fff"/><path d="M5.62,19.56h.66a.9.9,0,0,0,.77-.31,1.1,1.1,0,0,0,.13-.87,9.175,9.175,0,0,1-.16-1.68,8.9,8.9,0,0,1,.53-3.15,6.794,6.794,0,0,1,1.5-2.4,6.49,6.49,0,0,1,2.36-1.52,8.672,8.672,0,0,1,3.11-.53,8.809,8.809,0,0,1,2.56.4,7,7,0,0,1,2.42,1.3,6.9,6.9,0,0,1,1.81,2.35,8.022,8.022,0,0,1,.71,3.55q0,.42-.03.84a7.245,7.245,0,0,1-.11.84,1.07,1.07,0,0,0,.14.87.925.925,0,0,0,.78.31h.58v1.48H18.44V19.56h.46a1.59,1.59,0,0,0,.99-.27,1.624,1.624,0,0,0,.52-.69,3.1,3.1,0,0,0,.21-.92q.04-.5.04-.98a7.935,7.935,0,0,0-.26-2.08,5.242,5.242,0,0,0-.8-1.71,4.916,4.916,0,0,0-1.35-1.27,5.788,5.788,0,0,0-1.91-.76.409.409,0,0,0-.13-.02h-.13a.9.9,0,0,0-.69.29,1.114,1.114,0,0,0-.27.79v7.62h1.4v1.48H12.44V19.56h1.44V11.94a1.14,1.14,0,0,0-.26-.79.948.948,0,0,0-.82-.28q-.06.01-.14.03a5.9,5.9,0,0,0-1.68.65,4.917,4.917,0,0,0-1.36,1.16,5.311,5.311,0,0,0-.91,1.7,7.241,7.241,0,0,0-.33,2.29,8.315,8.315,0,0,0,.06.97,3.34,3.34,0,0,0,.24.93,1.668,1.668,0,0,0,.54.69,1.562,1.562,0,0,0,.96.27h.4v1.48H5.62Z" transform="translate(1023.393 182.641) rotate(-40)" fill="#fff"/></g><g transform="translate(1798.981 -115.405) rotate(135)"><path d="M116.293,117.707l-117-117L.707-.707l117,117Z" transform="translate(1045.107 186.5)" fill="#fff"/><circle cx="22" cy="22" r="22" transform="translate(1023.607 164)" fill="#151515"/><path d="M22,1a21.006,21.006,0,0,0-8.174,40.35A21.006,21.006,0,0,0,30.174,2.65,20.868,20.868,0,0,0,22,1m0-1A22,22,0,1,1,0,22,22,22,0,0,1,22,0Z" transform="translate(1023.607 164)" fill="#fff"/><circle cx="18" cy="18" r="18" transform="translate(1027.607 168)" fill="#151515"/><path d="M18,2A16,16,0,0,0,6.686,29.314,16,16,0,0,0,29.314,6.686,15.9,15.9,0,0,0,18,2m0-2A18,18,0,1,1,0,18,18,18,0,0,1,18,0Z" transform="translate(1027.607 168)" fill="#fff"/><path d="M8.35,10.76l1.14-3.7a8.3,8.3,0,0,1,1.75-.53,9.838,9.838,0,0,1,1.81-.17,8.022,8.022,0,0,1,3.55.71,6.9,6.9,0,0,1,2.35,1.81,7,7,0,0,1,1.3,2.42,8.809,8.809,0,0,1,.4,2.56,8.672,8.672,0,0,1-.53,3.11,6.49,6.49,0,0,1-1.52,2.36,6.794,6.794,0,0,1-2.4,1.5,8.9,8.9,0,0,1-3.15.53,7.659,7.659,0,0,1-3.58-.8l-.54-1.8a5.311,5.311,0,0,0,.81.46,8.161,8.161,0,0,0,1.01.39,9.5,9.5,0,0,0,1.14.28,6.431,6.431,0,0,0,1.16.11,6.826,6.826,0,0,0,2.61-.45,5.168,5.168,0,0,0,1.81-1.21,5.258,5.258,0,0,0,1.1-1.75,7.271,7.271,0,0,0,.46-2.09H10.17V13.26h8.86a6.891,6.891,0,0,0-.55-2.46,4.883,4.883,0,0,0-1.26-1.72,5.264,5.264,0,0,0-1.85-1.02,7.561,7.561,0,0,0-2.32-.34,8.815,8.815,0,0,0-1.39.11,6.01,6.01,0,0,0-1.29.35l-2.02,2.6Z" transform="translate(1025.515 184.762) rotate(-40)" fill="#fff"/></g><g transform="translate(1652.056 1205.404) rotate(-152)"><path d="M116.293,117.707l-117-117L.707-.707l117,117Z" transform="translate(1045.107 186.5)" fill="#fff"/><circle cx="22" cy="22" r="22" transform="translate(1023.607 164)" fill="#151515"/><path d="M22,1a21.006,21.006,0,0,0-8.174,40.35A21.006,21.006,0,0,0,30.174,2.65,20.868,20.868,0,0,0,22,1m0-1A22,22,0,1,1,0,22,22,22,0,0,1,22,0Z" transform="translate(1023.607 164)" fill="#fff"/><circle cx="18" cy="18" r="18" transform="translate(1027.607 168)" fill="#151515"/><path d="M18,2A16,16,0,0,0,6.686,29.314,16,16,0,0,0,29.314,6.686,15.9,15.9,0,0,0,18,2m0-2A18,18,0,1,1,0,18,18,18,0,0,1,18,0Z" transform="translate(1027.607 168)" fill="#fff"/><path d="M7,14.08a9.417,9.417,0,0,1,.34-2.54A7.485,7.485,0,0,1,8.37,9.31a6.731,6.731,0,0,1,4.17-2.79,1.666,1.666,0,0,0,.9-.51,1.315,1.315,0,0,0,.32-.89V3.34a1.2,1.2,0,0,0-.33-.89,1.2,1.2,0,0,0-.89-.33H10.82V.64h7.56V2.12H16.46a1.2,1.2,0,0,0-.89.33,1.2,1.2,0,0,0-.33.89V5.12a1.315,1.315,0,0,0,.32.89,1.666,1.666,0,0,0,.9.51,6.731,6.731,0,0,1,4.17,2.79,7.485,7.485,0,0,1,1.03,2.23A9.417,9.417,0,0,1,22,14.08,9.294,9.294,0,0,1,21.54,17a7.12,7.12,0,0,1-1.4,2.48A6.8,6.8,0,0,1,17.8,21.2a7.877,7.877,0,0,1-3.3.64,7.893,7.893,0,0,1-3.29-.64,6.779,6.779,0,0,1-2.35-1.72A7.12,7.12,0,0,1,7.46,17,9.294,9.294,0,0,1,7,14.08Zm7.5,6.16a6.762,6.762,0,0,0,2.78-.52,5.334,5.334,0,0,0,3.01-3.35,7.667,7.667,0,0,0,0-4.58,5.334,5.334,0,0,0-3.01-3.35,6.762,6.762,0,0,0-2.78-.52,6.762,6.762,0,0,0-2.78.52,5.334,5.334,0,0,0-3.01,3.35,7.667,7.667,0,0,0,0,4.58,5.334,5.334,0,0,0,3.01,3.35A6.762,6.762,0,0,0,14.5,20.24Z" transform="translate(1027.976 187) rotate(-40)" fill="#fff"/></g><g transform="translate(405.326 1473.73) rotate(-82)"><path d="M116.293,117.707l-117-117L.707-.707l117,117Z" transform="translate(1045.107 186.5)" fill="#fff"/><circle cx="22" cy="22" r="22" transform="translate(1023.607 164)" fill="#151515"/><path d="M22,1a21.006,21.006,0,0,0-8.174,40.35A21.006,21.006,0,0,0,30.174,2.65,20.868,20.868,0,0,0,22,1m0-1A22,22,0,1,1,0,22,22,22,0,0,1,22,0Z" transform="translate(1023.607 164)" fill="#fff"/><circle cx="18" cy="18" r="18" transform="translate(1027.607 168)" fill="#151515"/><path d="M18,2A16,16,0,0,0,6.686,29.314,16,16,0,0,0,29.314,6.686,15.9,15.9,0,0,0,18,2m0-2A18,18,0,1,1,0,18,18,18,0,0,1,18,0Z" transform="translate(1027.607 168)" fill="#fff"/><path d="M15.17,19.52a5.114,5.114,0,0,0,1.54.71,7.409,7.409,0,0,0,2.02.25,6.734,6.734,0,0,0,2.76-.51,5.088,5.088,0,0,0,1.86-1.37,5.465,5.465,0,0,0,1.05-1.96,7.961,7.961,0,0,0,.33-2.3,7.572,7.572,0,0,0-.44-2.71,5.261,5.261,0,0,0-1.23-1.92,4.9,4.9,0,0,0-1.9-1.14,7.644,7.644,0,0,0-2.43-.37,8.191,8.191,0,0,0-1.93.22,5.291,5.291,0,0,0-1.65.7l.02-1.58a8.3,8.3,0,0,1,1.75-.53,9.838,9.838,0,0,1,1.81-.17,8.022,8.022,0,0,1,3.55.71,6.9,6.9,0,0,1,2.35,1.81,7,7,0,0,1,1.3,2.42,8.809,8.809,0,0,1,.4,2.56,8.672,8.672,0,0,1-.53,3.11,6.49,6.49,0,0,1-1.52,2.36,6.794,6.794,0,0,1-2.4,1.5,8.9,8.9,0,0,1-3.15.53,7.659,7.659,0,0,1-3.58-.8Zm-1.32,1.52a7.659,7.659,0,0,1-3.58.8,8.813,8.813,0,0,1-3.14-.53,6.811,6.811,0,0,1-2.39-1.5,6.6,6.6,0,0,1-1.53-2.36,8.528,8.528,0,0,1-.54-3.11,8.809,8.809,0,0,1,.4-2.56,7,7,0,0,1,1.3-2.42A6.9,6.9,0,0,1,6.72,7.55a8.022,8.022,0,0,1,3.55-.71,9.838,9.838,0,0,1,1.81.17,8.3,8.3,0,0,1,1.75.53l.02,1.58a5.291,5.291,0,0,0-1.65-.7,8.191,8.191,0,0,0-1.93-.22,7.644,7.644,0,0,0-2.43.37,4.9,4.9,0,0,0-1.9,1.14,5.261,5.261,0,0,0-1.23,1.92,7.572,7.572,0,0,0-.44,2.71,7.961,7.961,0,0,0,.33,2.3A5.465,5.465,0,0,0,5.65,18.6a5.088,5.088,0,0,0,1.86,1.37,6.734,6.734,0,0,0,2.76.51,7.409,7.409,0,0,0,2.02-.25,5.114,5.114,0,0,0,1.54-.71Zm-.6-6.66a1.237,1.237,0,0,1,.39-.92,1.286,1.286,0,0,1,.93-.38,1.3,1.3,0,0,1,1.3,1.3,1.22,1.22,0,0,1-.38.91,1.27,1.27,0,0,1-.92.37,1.3,1.3,0,0,1-.93-.37A1.205,1.205,0,0,1,13.25,14.38Z" transform="translate(1024.662 184.482) rotate(-40)" fill="#fff"/></g><path d="M151,2a150.111,150.111,0,0,0-30.031,3.027A148.173,148.173,0,0,0,67.694,27.446,149.441,149.441,0,0,0,13.708,93a148.236,148.236,0,0,0-8.681,27.966,150.472,150.472,0,0,0,0,60.062,148.173,148.173,0,0,0,22.418,53.275A149.441,149.441,0,0,0,93,288.292a148.236,148.236,0,0,0,27.966,8.681,150.472,150.472,0,0,0,60.062,0,148.173,148.173,0,0,0,53.275-22.418A149.441,149.441,0,0,0,288.292,209a148.237,148.237,0,0,0,8.681-27.966,150.472,150.472,0,0,0,0-60.062,148.173,148.173,0,0,0-22.418-53.275A149.441,149.441,0,0,0,209,13.708a148.237,148.237,0,0,0-27.966-8.681A150.111,150.111,0,0,0,151,2m0-2A151,151,0,1,1,0,151,151,151,0,0,1,151,0Z" transform="translate(679 297)" fill="#fff"/><path d="M158,1a158.166,158.166,0,0,0-31.642,3.19A156.134,156.134,0,0,0,70.221,27.813,157.461,157.461,0,0,0,13.337,96.889,156.2,156.2,0,0,0,4.19,126.358a158.541,158.541,0,0,0,0,63.284A156.134,156.134,0,0,0,27.813,245.78a157.461,157.461,0,0,0,69.076,56.883,156.2,156.2,0,0,0,29.469,9.148,158.541,158.541,0,0,0,63.284,0,156.134,156.134,0,0,0,56.137-23.623,157.461,157.461,0,0,0,56.883-69.076,156.2,156.2,0,0,0,9.148-29.469,158.541,158.541,0,0,0,0-63.284,156.134,156.134,0,0,0-23.623-56.137,157.461,157.461,0,0,0-69.076-56.883A156.2,156.2,0,0,0,189.642,4.19,158.166,158.166,0,0,0,158,1m0-1A158,158,0,1,1,0,158,158,158,0,0,1,158,0Z" transform="translate(672 290)" fill="#fff"/><circle cx="6" cy="6" r="6" transform="translate(822.632 387)" fill="#151515"/><path d="M6,1a5,5,0,1,0,5,5A5.006,5.006,0,0,0,6,1M6,0A6,6,0,1,1,0,6,6,6,0,0,1,6,0Z" transform="translate(822.632 387)" fill="#fff"/><circle cx="6" cy="6" r="6" transform="translate(876 425)" fill="#151515"/><path d="M6,1a5,5,0,1,0,5,5A5.006,5.006,0,0,0,6,1M6,0A6,6,0,1,1,0,6,6,6,0,0,1,6,0Z" transform="translate(876 425)" fill="#fff"/><circle cx="6" cy="6" r="6" transform="translate(907 449)" fill="#151515"/><path d="M6,1a5,5,0,1,0,5,5A5.006,5.006,0,0,0,6,1M6,0A6,6,0,1,1,0,6,6,6,0,0,1,6,0Z" transform="translate(907 449)" fill="#fff"/><circle cx="6" cy="6" r="6" transform="translate(856 486)" fill="#151515"/><path d="M6,1a5,5,0,1,0,5,5A5.006,5.006,0,0,0,6,1M6,0A6,6,0,1,1,0,6,6,6,0,0,1,6,0Z" transform="translate(856 486)" fill="#fff"/><circle cx="6" cy="6" r="6" transform="translate(844 524)" fill="#151515"/><path d="M6,1a5,5,0,1,0,5,5A5.006,5.006,0,0,0,6,1M6,0A6,6,0,1,1,0,6,6,6,0,0,1,6,0Z" transform="translate(844 524)" fill="#fff"/><circle cx="6" cy="6" r="6" transform="translate(793 486)" fill="#151515"/><path d="M6,1a5,5,0,1,0,5,5A5.006,5.006,0,0,0,6,1M6,0A6,6,0,1,1,0,6,6,6,0,0,1,6,0Z" transform="translate(793 486)" fill="#fff"/><circle cx="6" cy="6" r="6" transform="translate(757 486)" fill="#151515"/><path d="M6,1a5,5,0,1,0,5,5A5.006,5.006,0,0,0,6,1M6,0A6,6,0,1,1,0,6,6,6,0,0,1,6,0Z" transform="translate(757 486)" fill="#fff"/><circle cx="6" cy="6" r="6" transform="translate(775 425)" fill="#151515"/><path d="M6,1a5,5,0,1,0,5,5A5.006,5.006,0,0,0,6,1M6,0A6,6,0,1,1,0,6,6,6,0,0,1,6,0Z" transform="translate(775 425)" fill="#fff"/><circle cx="6" cy="6" r="6" transform="translate(763 388)" fill="#151515"/><path d="M6,1a5,5,0,1,0,5,5A5.006,5.006,0,0,0,6,1M6,0A6,6,0,1,1,0,6,6,6,0,0,1,6,0Z" transform="translate(763 388)" fill="#fff"/><circle cx="6" cy="6" r="6" transform="translate(861 360)" fill="#151515"/><path d="M6,1a5,5,0,1,0,5,5A5.006,5.006,0,0,0,6,1M6,0A6,6,0,1,1,0,6,6,6,0,0,1,6,0Z" transform="translate(861 360)" fill="#fff"/></g></svg>