<svg xmlns="http://www.w3.org/2000/svg" width="35.842" height="31.05" viewBox="0 0 35.842 31.05"><g transform="translate(-479.872 -110.854)"><path d="M29.8,42.293A14.774,14.774,0,1,1,15.023,27.517,14.774,14.774,0,0,1,29.8,42.293Z" transform="translate(481.976 84.087)"/><path d="M15.023,57.817A15.524,15.524,0,1,1,26,53.27,15.421,15.421,0,0,1,15.023,57.817Zm0-29.55a14.026,14.026,0,1,0,9.918,4.109A13.929,13.929,0,0,0,15.023,28.267Z" transform="translate(481.976 84.087)" fill="#fff"/><path d="M9.628,32.207a4.689,4.689,0,1,1-4.69-4.69A4.689,4.689,0,0,1,9.628,32.207Z" transform="translate(504.835 85.087)"/><path d="M4.939,37.646a5.439,5.439,0,1,1,5.44-5.439A5.445,5.445,0,0,1,4.939,37.646Zm0-9.379a3.939,3.939,0,1,0,3.94,3.94A3.944,3.944,0,0,0,4.939,28.267Z" transform="translate(504.835 85.087)" fill="#fff"/><path d="M7.628,31.206a3.689,3.689,0,1,1-3.689-3.689A3.689,3.689,0,0,1,7.628,31.206Z" transform="translate(507.835 98.862)"/><path d="M3.939,35.145a3.939,3.939,0,1,1,3.939-3.939A3.943,3.943,0,0,1,3.939,35.145Zm0-7.378a3.439,3.439,0,1,0,3.439,3.439A3.443,3.443,0,0,0,3.939,27.767Z" transform="translate(507.835 98.862)" fill="#fff"/><path d="M9.628,32.207a4.689,4.689,0,1,1-4.69-4.69A4.689,4.689,0,0,1,9.628,32.207Z" transform="translate(480.372 104.258)"/><path d="M4.939,37.646a5.439,5.439,0,1,1,5.44-5.439A5.445,5.445,0,0,1,4.939,37.646Zm0-9.379a3.939,3.939,0,1,0,3.94,3.94A3.944,3.944,0,0,0,4.939,28.267Z" transform="translate(480.372 104.258)" fill="#fff"/><path d="M12.96,6.37a7.759,7.759,0,0,0,.457,2.858A5.212,5.212,0,0,0,14.6,11.073a4.155,4.155,0,0,0,1.62.99A5.75,5.75,0,0,0,18,12.355a4.564,4.564,0,0,0,3.645-1.507A6.675,6.675,0,0,0,22.95,6.37l.675,1.485A6.7,6.7,0,0,1,23.392,9.7a5.281,5.281,0,0,1-.637,1.432A4.771,4.771,0,0,1,21.81,12.2a5.711,5.711,0,0,1-1.155.75,5.244,5.244,0,0,1,1.155.735,4.7,4.7,0,0,1,.945,1.08,5.382,5.382,0,0,1,.637,1.448,6.716,6.716,0,0,1,.233,1.837L22.95,19.54a6.675,6.675,0,0,0-1.305-4.478A4.564,4.564,0,0,0,18,13.555a5.75,5.75,0,0,0-1.785.292,4.155,4.155,0,0,0-1.62.99,5.212,5.212,0,0,0-1.178,1.845,7.759,7.759,0,0,0-.457,2.858l-.585-1.485a6.26,6.26,0,0,1,.735-3.12,4.788,4.788,0,0,1,2.1-1.98,4.788,4.788,0,0,1-2.1-1.98,6.26,6.26,0,0,1-.735-3.12Z" transform="translate(479 114)" fill="#fff"/></g></svg>