<svg xmlns="http://www.w3.org/2000/svg" width="43" height="79" viewBox="0 0 43 79"><g transform="translate(-33 -570)"><path d="M32.25,0,43,17.5,32.25,35H10.75L0,17.5,10.75,0Z" transform="translate(33 614)"/><path d="M11.869,2,2.347,17.5,11.869,33H31.131l9.521-15.5L31.131,2H11.869M10.75,0h21.5L43,17.5,32.25,35H10.75L0,17.5Z" transform="translate(33 614)" fill="#fff"/><path d="M21,0l7,11.5L21,23H7L0,11.5,7,0Z" transform="translate(43 598) rotate(-90)"/><path d="M7.843,1.5l-6.087,10,6.087,10H20.157l6.087-10-6.087-10H7.843M7,0H21l7,11.5L21,23H7L0,11.5Z" transform="translate(43 598) rotate(-90)" fill="#fff"/><path d="M9.315,13.405V7.735h1.11v1.44a.853.853,0,0,0,.915.915h4.23a.81.81,0,0,0,.653-.255.669.669,0,0,0,.112-.645A4.111,4.111,0,0,0,15.48,7.5,4.685,4.685,0,0,0,14.122,6.43a5.838,5.838,0,0,0-1.7-.57A10.885,10.885,0,0,0,10.515,5.7L12,5.02a6.34,6.34,0,0,1,2.167.36A5.38,5.38,0,0,1,15.915,6.4,5.054,5.054,0,0,1,17.122,8a5.744,5.744,0,0,1,.547,2.093h.705A5.744,5.744,0,0,1,18.923,8,5.054,5.054,0,0,1,20.13,6.4a5.38,5.38,0,0,1,1.747-1.02,6.34,6.34,0,0,1,2.167-.36L25.53,5.7a10.885,10.885,0,0,0-1.9.165,5.838,5.838,0,0,0-1.7.57A4.685,4.685,0,0,0,20.565,7.5,4.111,4.111,0,0,0,19.71,9.19a.669.669,0,0,0,.113.645.81.81,0,0,0,.653.255H24.66a.853.853,0,0,0,.915-.915V7.735h1.11v5.67h-1.11v-1.29a.853.853,0,0,0-.915-.915H20.49a.787.787,0,0,0-.645.255.681.681,0,0,0-.1.645,4.423,4.423,0,0,0,.84,1.695,4.542,4.542,0,0,0,1.343,1.11,5.883,5.883,0,0,0,1.695.6,9.966,9.966,0,0,0,1.912.18l-1.485.585a6.8,6.8,0,0,1-2.22-.345,5.145,5.145,0,0,1-1.748-1,4.815,4.815,0,0,1-1.185-1.6,6.066,6.066,0,0,1-.532-2.13h-.675a6.066,6.066,0,0,1-.532,2.13,4.815,4.815,0,0,1-1.185,1.6,5.145,5.145,0,0,1-1.748,1A6.8,6.8,0,0,1,12,16.27l-1.485-.585a9.966,9.966,0,0,0,1.913-.18,5.883,5.883,0,0,0,1.695-.6,4.543,4.543,0,0,0,1.343-1.11,4.423,4.423,0,0,0,.84-1.695.681.681,0,0,0-.1-.645.787.787,0,0,0-.645-.255H11.34a.853.853,0,0,0-.915.915v1.29Z" transform="translate(37 621)" fill="#fff"/><path d="M7.381,8.337a5.2,5.2,0,0,1,.225-1.529,3.916,3.916,0,0,1,.688-1.314,3.768,3.768,0,0,1,1.161-.957,4.089,4.089,0,0,1,1.633-.457V2.43a.626.626,0,0,0-.671-.671H9.47V.945h4.158v.814H12.573a.626.626,0,0,0-.671.671V4.08a4.089,4.089,0,0,1,1.633.457,3.768,3.768,0,0,1,1.16.957,4,4,0,0,1,.693,1.314,5.082,5.082,0,0,1,.231,1.529,5.136,5.136,0,0,1-.231,1.535A4.049,4.049,0,0,1,14.7,11.2a3.732,3.732,0,0,1-1.16.962A3.969,3.969,0,0,1,11.9,12.6l.11,2.6h-1.1l.187-2.6a4.089,4.089,0,0,1-1.634-.456,3.768,3.768,0,0,1-1.16-.957,4,4,0,0,1-.693-1.314A5.119,5.119,0,0,1,7.381,8.337ZM11.9,11.714a3.349,3.349,0,0,0,1.342-.374,2.981,2.981,0,0,0,.924-.77A3.067,3.067,0,0,0,14.7,9.525a4.243,4.243,0,0,0,0-2.381A3.075,3.075,0,0,0,14.167,6.1a2.917,2.917,0,0,0-.924-.764A3.408,3.408,0,0,0,11.9,4.971ZM8.128,8.337A4.155,4.155,0,0,0,8.3,9.519a3.075,3.075,0,0,0,.534,1.04,2.981,2.981,0,0,0,.924.77A3.349,3.349,0,0,0,11.1,11.7l-.011-6.732a3.389,3.389,0,0,0-1.331.369,2.917,2.917,0,0,0-.924.764A3.075,3.075,0,0,0,8.3,7.143,4.193,4.193,0,0,0,8.128,8.337Z" transform="translate(43 576)" fill="#fff"/></g></svg>