<svg xmlns="http://www.w3.org/2000/svg" xmlns:xlink="http://www.w3.org/1999/xlink" width="23" height="29.579" viewBox="0 0 23 29.579"><defs><clipPath id="a"><rect width="23" height="29.579" fill="#fff"/></clipPath></defs><g transform="translate(-1069.533 -633)"><g transform="translate(1069.533 633)"><g clip-path="url(#a)"><path d="M14.9.978v9.866l.08.185,6.954,16.124a1.037,1.037,0,0,1-.952,1.448H2.017a1.037,1.037,0,0,1-.952-1.448L7.977,11.128l.08-.185V.978ZM15.879,0h-8.8V10.741L.167,26.766a2.015,2.015,0,0,0,1.85,2.813H20.983a2.015,2.015,0,0,0,1.85-2.813L15.879,10.642Z" transform="translate(0)" fill="#fff"/></g></g><path d="M16.958,19.879,11.793,7.9l-6.536.074L.124,19.879A1.5,1.5,0,0,0,1.5,21.968H15.584a1.5,1.5,0,0,0,1.374-2.089" transform="translate(1072.492 638.806)" fill="#fff"/></g></svg>