<svg xmlns="http://www.w3.org/2000/svg" xmlns:xlink="http://www.w3.org/1999/xlink" width="27" height="36.005" viewBox="0 0 27 36.005"><defs><clipPath id="a"><rect width="27" height="36.005" fill="#fff"/></clipPath></defs><g transform="translate(-1069.533 -674)"><g transform="translate(1069.533 674)"><g clip-path="url(#a)"><path d="M17.8,1.578V13.373l.724.325a12.27,12.27,0,0,1,1.911,21.324H6.569A12.27,12.27,0,0,1,8.48,13.7l.724-.325V1.578ZM19.023.351H7.977V12.579A13.5,13.5,0,0,0,6.2,36.249H20.8a13.5,13.5,0,0,0-1.779-23.67Z" transform="translate(0 -0.243)" fill="#fff"/><path d="M0,0H12.273V1.227H0Z" transform="translate(7.364)" fill="#fff"/></g></g><path d="M5567.964-2200.362H5556.1a10.936,10.936,0,0,1-5.035-9.223,10.877,10.877,0,0,1,2.073-6.415h17.787a10.878,10.878,0,0,1,2.073,6.415,10.934,10.934,0,0,1-5.035,9.223Z" transform="translate(-4479 2908)" fill="#fff" stroke="rgba(0,0,0,0)" stroke-miterlimit="10" stroke-width="1"/></g></svg>