<svg xmlns="http://www.w3.org/2000/svg" width="352.068" height="376" viewBox="0 0 352.068 376">
  <g id="Group_1" data-name="Group 1" transform="translate(-146.361 -67.15)" opacity="0.048">
    <path id="Path_2" data-name="Path 2" d="M146.361,372.141l17.771-30.894C142.285,287.4,143.444,234.6,172.655,184.1c29.2-50.475,74.12-78.275,132.01-86.254l17.768-30.7c6.141,10.595,11.994,20.693,17.959,30.985,16.022,1.809,31.8,5.256,46.674,11.72,57.928,25.171,93.774,68.533,105.636,130.769,6.332,33.226,2.267,65.672-10.86,96.891a6.091,6.091,0,0,0,.29,6.23c5.471,9.194,10.712,18.526,16.3,28.263H462.445a175.055,175.055,0,0,1-33.85,34.882c-28.416,21.814-60.373,34.472-96.279,36.053-60.938,2.684-110.006-20.725-147.965-68.172a7.7,7.7,0,0,0-5.2-2.515C168.442,372.025,157.727,372.141,146.361,372.141ZM322.44,76.9,154.878,367.137H490.01ZM163.785,260.542c-.552,21.7,2.117,42.864,9.908,63.669,2.106-2.688,3.247-4.738,2.213-7.951-8.386-26.049-10.065-52.715-3.4-79.149,15.568-61.7,54.562-100.695,116.325-116.673,1.231-.319,2.9-.593,3.482-1.472,2.205-3.333,4.047-6.906,6.207-10.709C188.8,124.16,131.423,240.249,170.22,330.634l2.685-4.664A155.677,155.677,0,0,1,163.785,260.542Zm309.948,69.771h1.055c38.984-92.267-20.825-206.882-128.418-222,1.006,1.826,1.862,3.379,2.684,4.871,2.544.492,4.893.887,7.214,1.4q56.62,12.6,92.651,58.072a159.55,159.55,0,0,1,24.9,151.311C473.148,325.851,473.733,328.186,473.733,330.312ZM193.887,372.746c33.891,39.7,75.883,61.352,127.923,61.523,52.523.173,94.932-21.474,128.1-61.826a7.992,7.992,0,0,0-5.179,2c-7.595,7.175-14.513,15.18-22.672,21.625C386,424.553,344.822,435.553,299.467,429c-39.4-5.693-72.117-24.333-98.11-54.551C199.422,372.2,197.473,371.642,193.887,372.746Zm275.245-50.357,1.741-.1c14.824-46.231,11.6-90.974-13.509-133.12-24.211-40.63-60.256-65.074-106.9-74.783.79,4.129,2.933,5.5,6.276,6.253C443.818,140.33,495.8,231.07,469.028,316.374,468.458,318.19,469.071,320.376,469.133,322.389ZM201.86,372.617c32.891,36.23,72.991,55.247,121.381,54.827,47.259-.412,86.476-19.268,117.482-55.047a8.677,8.677,0,0,0-5.477,2.172c-36.227,37.722-80.438,54.1-132.28,48.095-36.6-4.238-67.528-20.706-92.765-47.623C208.115,372.816,206.034,371.448,201.86,372.617Zm126.817,45.1,1.174-.062v-45.26h-6.367ZM236.944,215.168l-40.475-20.511-.383.688L233.4,221.272ZM315.09,372.351v45.276l1.04.021c1.715-15,3.43-30.008,5.176-45.3ZM189.89,206.115l-.287.693,39.32,22.373c1.2-2.268,2.162-4.077,3.275-6.175Zm264.626,1.054-.352-.743-41.609,16.606,3.455,6.1Zm-47.646,6.157,34.017-28.551-.528-.673L403.41,207.2Zm-165.377-6.065-37.106-23.17-.471.694,34.06,28.579ZM446.686,196.7l-.536-.909-38.258,19.366c1.37,2.268,2.434,4.028,3.664,6.063ZM341.79,416.24l.734-.084c-.947-14.551-1.894-29.1-2.849-43.781H332.72C335.787,387.208,338.789,401.723,341.79,416.24Zm-39.468-.67.815.1c2.959-14.348,5.918-28.7,8.917-43.24h-6.923C304.184,386.985,303.253,401.277,302.322,415.569Zm157.793-196.5-.275-.72-42.733,12.762,3.589,5.949ZM224.391,237.209c1.167-2.284,2.084-4.075,3.16-6.18l-42.61-12.657-.24.7ZM432.66,174.121l-.3-.4-33.65,25.523,3.172,5.314ZM242.846,204.882l3.246-5.677-33.573-25.4-.378.529ZM289.2,414.288l.586.386c4.227-14.007,8.454-28.014,12.765-42.3h-6.8C293.545,386.473,291.37,400.38,289.2,414.288Zm65.3-1.394.872-.194c-2.136-13.516-4.271-27.031-6.377-40.36h-6.785ZM219.626,245.351l3.08-6.014-41.332-8.317-.189.782Zm205.679-.053,38.324-13.507-.221-.789-41.356,8.358ZM221.148,163.889l-.568.532,26.912,32.324,3.375-5.824Zm203.052.518-.631-.449-29.632,26.955,3.42,5.826ZM286.04,372.355c-3.224,12.88-6.4,25.56-9.572,38.239l.661.2c5.113-12.682,10.228-25.364,15.5-38.44Zm66.114-.029,15.035,37.221.814-.28q-4.627-18.474-9.254-36.941ZM217.966,248.165l-40.021-4.422-.12.759,36.71,9.321Zm212.3,5.673,36.545-9.316-.143-.761-39.585,4.375Zm-16.3-97.656-.721-.471-24.327,26.546,3.3,5.48ZM252.632,187.853l3.264-5.6L231.5,155.67l-.653.5Zm11.655,217.461.7.3,17.03-33.231H275.75C271.882,383.495,268.085,394.4,264.287,405.315ZM379.9,405.8l.651-.433-11.514-32.976h-6.243ZM212.619,257.135H175.757l-.084.344,33.633,5.422Zm222.9,5.766,34.324-5.556H432.377C433.691,259.671,434.522,261.14,435.518,262.9Zm-174.2-89.864-19.366-25.27-.674.463,16.952,29.909ZM403.039,149l-.8-.482q-9.337,12.24-18.667,24.469l3.056,5.1ZM374.31,372.335c5.877,9.322,11.334,17.977,16.792,26.632l.8-.443-11.861-26.19Zm-109.605.059c-3.741,8.309-7.431,16.5-11.121,24.7l.958.5,15.928-25.2ZM175.5,270l.1.8,28.26,1.874,2.528-4.893Zm263-2.217,2.672,4.9,28.506-1.94.007-.7ZM392.382,141.144l-.638-.455c-4.624,7.339-9.249,14.677-13.97,22.169.8,1.444,1.525,2.751,2.626,4.736C384.606,158.306,388.495,149.725,392.382,141.144ZM267.126,162.984,253.094,140.8l-.659.393c3.887,8.545,7.773,17.089,11.915,26.194ZM387.074,372.3l15.79,20.684.671-.465L392.071,372.3Zm-134.373-.03-10.884,19.284.822.494,15.046-19.778Zm-55.134-88.649c.641-1.419,1.146-2.539,1.91-4.233l-23.769,3.777.044.456Zm250.087,0h21.081l.046-.51-23.839-3.741Zm-67.1-148.309-.709-.428c-2.6,5.139-5.339,10.22-7.711,15.464-.5,1.1.339,2.8.56,4.219l1.15-.113Q377.2,144.885,380.559,135.315ZM271,154.584l.9.127c.4-1.236,1.495-2.783,1.1-3.659-2.214-4.9-4.788-9.646-7.238-14.444l-.876.4Z" transform="translate(0 0)"/>
    <path id="Path_3" data-name="Path 3" d="M324.621,79.4l167.57,290.233H157.059Zm0,16.261-153.492,265.9h307Zm13.868,12.868c1.056,7.874,130.5,231.978,136.389,236.28ZM177.5,339.349l1.257.788q67.939-113.657,132.336-229.35l-1.219-.7Q243.686,224.717,177.5,339.349ZM484.962,366.9l-.031-1.37H164.406v1.37Z" transform="translate(-2.181 -2.498)" fill="#fff"/>
    <path id="Path_4" data-name="Path 4" d="M166.79,271.069a155.677,155.677,0,0,0,9.12,65.429l-2.685,4.664c-38.8-90.386,18.577-206.474,128.305-222.379-2.161,3.8-4,7.377-6.207,10.709-.582.879-2.251,1.154-3.482,1.472-61.763,15.979-100.757,54.976-116.325,116.673-6.67,26.434-4.991,53.1,3.4,79.15,1.034,3.212-.107,5.263-2.213,7.951C168.906,313.932,166.238,292.765,166.79,271.069Z" transform="translate(-3.005 -10.527)" fill="#fff"/>
    <path id="Path_5" data-name="Path 5" d="M524.956,340.853c0-2.126-.584-4.461.089-6.345a159.549,159.549,0,0,0-24.9-151.311Q464.2,137.655,407.49,125.126c-2.321-.517-4.669-.912-7.214-1.4-.821-1.493-1.678-3.046-2.683-4.871,107.592,15.119,167.4,129.734,128.418,222Z" transform="translate(-51.223 -10.541)" fill="#fff"/>
    <path id="Path_6" data-name="Path 6" d="M206.059,450.87c3.586-1.1,5.535-.546,7.47,1.7,25.993,30.218,58.708,48.858,98.11,54.551,45.355,6.554,86.533-4.447,122.589-32.932,8.158-6.444,15.077-14.449,22.672-21.625a7.994,7.994,0,0,1,5.179-2c-33.164,40.353-75.573,62-128.1,61.826C281.942,512.222,239.95,490.568,206.059,450.87Z" transform="translate(-12.172 -78.124)" fill="#fff"/>
    <path id="Path_7" data-name="Path 7" d="M521.4,334.486c-.061-2.013-.675-4.2-.1-6.015,26.768-85.3-25.211-176.044-112.289-195.735-3.343-.756-5.486-2.125-6.276-6.253,46.645,9.709,82.69,34.153,106.9,74.783,25.114,42.146,28.333,86.889,13.509,133.12Z" transform="translate(-52.271 -12.097)" fill="#fff"/>
    <path id="Path_8" data-name="Path 8" d="M216.074,450.739c4.174-1.169,6.254.2,8.34,2.424,25.238,26.917,56.17,43.385,92.765,47.623,51.842,6,96.053-10.373,132.28-48.095a8.678,8.678,0,0,1,5.477-2.172c-31.005,35.78-70.223,54.636-117.482,55.047C289.065,505.985,248.965,486.969,216.074,450.739Z" transform="translate(-14.214 -78.122)" fill="#fff"/>
    <path id="Path_9" data-name="Path 9" d="M374.039,495.892c-1.72-15.008-3.439-30.016-5.193-45.323h6.367V495.83Z" transform="translate(-45.362 -78.175)" fill="#fff"/>
    <path id="Path_10" data-name="Path 10" d="M249.679,247.823l-3.541,6.1L208.821,228l.383-.688Z" transform="translate(-12.735 -32.655)" fill="#fff"/>
    <path id="Path_11" data-name="Path 11" d="M358.3,450.514h6.216c-1.747,15.289-3.462,30.293-5.176,45.3l-1.04-.021Z" transform="translate(-43.212 -78.163)" fill="#fff"/>
    <path id="Path_12" data-name="Path 12" d="M200.964,241.7l42.307,16.89L240,264.771,200.677,242.4Z" transform="translate(-11.074 -35.59)" fill="#fff"/>
    <path id="Path_13" data-name="Path 13" d="M522.689,242.839,484.184,264.8c-1.178-2.082-2.192-3.871-3.455-6.1L522.338,242.1Z" transform="translate(-68.173 -35.669)" fill="#fff"/>
    <path id="Path_14" data-name="Path 14" d="M472.7,243.278l-3.46-6.125,36.949-23.1.528.674Z" transform="translate(-65.831 -29.952)" fill="#fff"/>
    <path id="Path_15" data-name="Path 15" d="M256.232,237.211l-3.517,6.1-34.06-28.579.471-.694Z" transform="translate(-14.74 -29.949)" fill="#fff"/>
    <path id="Path_16" data-name="Path 16" d="M513.666,229.642l-35.129,24.519-3.664-6.063,38.258-19.365Z" transform="translate(-66.979 -32.945)" fill="#fff"/>
    <path id="Path_17" data-name="Path 17" d="M389.518,494.409c-3-14.516-6-29.032-9.071-43.865H387.4c.955,14.679,1.9,29.23,2.849,43.781Z" transform="translate(-47.727 -78.169)" fill="#fff"/>
    <path id="Path_18" data-name="Path 18" d="M342.265,493.752c.93-14.292,1.861-28.585,2.81-43.143H352c-3,14.543-5.958,28.892-8.917,43.24Z" transform="translate(-39.942 -78.183)" fill="#fff"/>
    <path id="Path_19" data-name="Path 19" d="M529.455,257.789l-39.419,17.991-3.589-5.949,42.733-12.763Z" transform="translate(-69.339 -38.722)" fill="#fff"/>
    <path id="Path_20" data-name="Path 20" d="M234.21,275.938,194.519,257.8l.24-.7,42.61,12.657C236.293,271.862,235.377,273.653,234.21,275.938Z" transform="translate(-9.819 -38.728)" fill="#fff"/>
    <path id="Path_21" data-name="Path 21" d="M497.288,201.414l-30.78,30.434-3.172-5.314,33.65-25.523Z" transform="translate(-64.627 -27.293)" fill="#fff"/>
    <path id="Path_22" data-name="Path 22" d="M259.692,232.2l-30.7-30.546.377-.529,33.574,25.4Z" transform="translate(-16.847 -27.316)" fill="#fff"/>
    <path id="Path_23" data-name="Path 23" d="M325.776,492.457c2.175-13.908,4.35-27.815,6.554-41.917h6.8l-12.765,42.3Z" transform="translate(-36.581 -78.169)" fill="#fff"/>
    <path id="Path_24" data-name="Path 24" d="M404.656,491.055c-4.065-13.414-8.131-26.828-12.29-40.554h6.785c2.106,13.328,4.241,26.844,6.377,40.36Z" transform="translate(-50.157 -78.161)" fill="#fff"/>
    <path id="Path_25" data-name="Path 25" d="M228.545,287.319,190.1,273.77l.19-.782,41.332,8.317Z" transform="translate(-8.919 -41.968)" fill="#fff"/>
    <path id="Path_26" data-name="Path 26" d="M495.911,287.261l-3.253-5.938,41.356-8.358.222.789Z" transform="translate(-70.606 -41.963)" fill="#fff"/>
    <path id="Path_27" data-name="Path 27" d="M240.156,188.664,269.875,215.7l-3.375,5.823L239.588,189.2Z" transform="translate(-19.008 -24.775)" fill="#fff"/>
    <path id="Path_28" data-name="Path 28" d="M487.6,189.2l-26.842,32.332c-1.234-2.1-2.266-3.862-3.42-5.826l29.632-26.955Z" transform="translate(-63.405 -24.793)" fill="#fff"/>
    <path id="Path_29" data-name="Path 29" d="M319.361,450.52h6.59c-5.273,13.076-10.388,25.758-15.5,38.44l-.661-.2C312.963,476.08,316.137,463.4,319.361,450.52Z" transform="translate(-33.321 -78.165)" fill="#fff"/>
    <path id="Path_30" data-name="Path 30" d="M404.858,450.484h6.6q4.625,18.464,9.254,36.941l-.814.279C414.973,475.522,410.051,463.34,404.858,450.484Z" transform="translate(-52.704 -78.157)" fill="#fff"/>
    <path id="Path_31" data-name="Path 31" d="M226.025,293.392l-3.432,5.658-36.709-9.321.12-.759Z" transform="translate(-8.058 -45.226)" fill="#fff"/>
    <path id="Path_32" data-name="Path 32" d="M502.166,299.069l-3.183-5.7,39.585-4.375.143.761Z" transform="translate(-71.896 -45.231)" fill="#fff"/>
    <path id="Path_33" data-name="Path 33" d="M476.092,178.863l-21.748,31.556-3.3-5.48,24.327-26.545Z" transform="translate(-62.121 -22.681)" fill="#fff"/>
    <path id="Path_34" data-name="Path 34" d="M274.27,210.524l-21.785-31.68.653-.5,24.4,26.581Z" transform="translate(-21.637 -22.67)" fill="#fff"/>
    <path id="Path_35" data-name="Path 35" d="M294.489,483.485l11.463-32.935h6.264l-17.029,33.232Z" transform="translate(-30.201 -78.171)" fill="#fff"/>
    <path id="Path_36" data-name="Path 36" d="M435.33,483.974l-17.106-33.409h6.243q5.734,16.421,11.514,32.976Z" transform="translate(-55.43 -78.174)" fill="#fff"/>
    <path id="Path_37" data-name="Path 37" d="M220.126,305.791l-3.313,5.766-33.632-5.422.084-.344Z" transform="translate(-7.507 -48.656)" fill="#fff"/>
    <path id="Path_38" data-name="Path 38" d="M508.767,311.61l-3.14-5.556h37.464Z" transform="translate(-73.25 -48.71)" fill="#fff"/>
    <path id="Path_39" data-name="Path 39" d="M285.626,193.682l-3.087,5.1-16.952-29.909.674-.463Z" transform="translate(-24.309 -20.646)" fill="#fff"/>
    <path id="Path_40" data-name="Path 40" d="M463.789,169.836l-16.413,29.091-3.056-5.1q9.327-12.223,18.667-24.469Z" transform="translate(-60.75 -20.838)" fill="#fff"/>
    <path id="Path_41" data-name="Path 41" d="M432.689,450.494h5.735l11.861,26.19-.8.443C444.023,468.471,438.566,459.816,432.689,450.494Z" transform="translate(-58.379 -78.159)" fill="#fff"/>
    <path id="Path_42" data-name="Path 42" d="M292.165,450.568h5.765L282,475.766l-.958-.5C284.734,467.071,288.424,458.877,292.165,450.568Z" transform="translate(-27.46 -78.174)" fill="#fff"/>
    <path id="Path_43" data-name="Path 43" d="M182.966,321.377l30.888-2.217-2.529,4.893-28.26-1.874Z" transform="translate(-7.463 -51.382)" fill="#fff"/>
    <path id="Path_44" data-name="Path 44" d="M513.318,319.16l31.184,2.255-.007.7-28.506,1.94Z" transform="translate(-74.818 -51.382)" fill="#fff"/>
    <path id="Path_45" data-name="Path 45" d="M451.647,159.977c-3.887,8.581-7.775,17.162-11.983,26.449-1.1-1.985-1.826-3.292-2.626-4.736,4.722-7.491,9.346-14.83,13.97-22.168Z" transform="translate(-59.266 -18.834)" fill="#fff"/>
    <path id="Path_46" data-name="Path 46" d="M294.292,181.847l-2.777,4.406L279.6,160.058l.659-.393Z" transform="translate(-27.166 -18.863)" fill="#fff"/>
    <path id="Path_47" data-name="Path 47" d="M448.722,450.454h5c3.847,6.783,7.656,13.5,11.464,20.219l-.671.465C459.419,464.467,454.327,457.8,448.722,450.454Z" transform="translate(-61.648 -78.151)" fill="#fff"/>
    <path id="Path_48" data-name="Path 48" d="M277.148,450.416h4.984l-15.046,19.778-.822-.494Z" transform="translate(-24.447 -78.143)" fill="#fff"/>
    <path id="Path_49" data-name="Path 49" d="M205.083,337.979H183.268l-.044-.456,23.77-3.777Z" transform="translate(-7.516 -54.356)" fill="#fff"/>
    <path id="Path_50" data-name="Path 50" d="M524.122,337.975l-2.712-4.251,23.839,3.741-.046.51Z" transform="translate(-76.468 -54.351)" fill="#fff"/>
    <path id="Path_51" data-name="Path 51" d="M438.342,152.662q-3.354,9.57-6.71,19.142l-1.149.113c-.221-1.422-1.057-3.122-.56-4.219,2.372-5.244,5.106-10.325,7.711-15.464Z" transform="translate(-57.783 -17.347)" fill="#fff"/>
    <path id="Path_52" data-name="Path 52" d="M301.351,172.372,295.239,154.8l.876-.4c2.451,4.8,5.024,9.54,7.238,14.444.4.876-.7,2.423-1.1,3.659Z" transform="translate(-30.354 -17.789)" fill="#fff"/>
    <path id="Path_53" data-name="Path 53" d="M328.22,99.828l153.511,265.9h-307ZM290.853,314.2a23.961,23.961,0,0,0-1.935-2.4c-6.7-6.467-11.877-14.055-14.226-23.006-1.984-7.557-2.653-15.459-4.062-24.184-.794,2.148-1.874,3.85-2,5.62-.671,9.262-.028,18.429,3.045,27.328l-1.307.395-9.131-26.472c-.6,1.557-1.509,2.817-1.479,4.053.121,5.014.315,10.049.928,15.02.294,2.38.89,5.671,2.538,6.776,8.946,6,18.264,11.443,27.454,17.078,3.422,2.637,5.409-.529,7.257-2.226,3.57-3.279,6.672-7.068,10.448-11.165-2.788,6.169-5.3,11.725-7.936,17.563l4.754,1.667,7.717-11.7-2.753,13.079L317,322.7l1.936-5.008.568.073v5.471h17.991c.173-1.463.285-2.407.435-3.677l2,3.311,6.816-1.524c-.628-3.4-1.179-6.369-1.862-10.06l6.476,9.009,5.039-1.857-7.693-16.628,14.733,15.249c9.685-6.145,18.573-11.843,27.528-17.435a9.561,9.561,0,0,0,4.821-7.722c.432-5.533.84-11.073,1.014-16.618.038-1.2-.958-2.43-1.595-3.921l-7.857,24.014c.24-9.261.539-17.667.634-26.076.033-2.929-.2-2.931-2.711-3.5-.662,7.061-1.33,14.181-2.037,21.713l-21.131-9.533.041-.727h21.265l.137-1.232L361.312,271.2l21.723-4.759-.122-1.024h-24.2c-1.806,18.034-9.561,28.552-22.653,31.231-3.676-8.263-11.887-7.862-15.745.3-14.836-5.062-21.837-15.713-22.323-31.438H275.143l-.114,1,20.786,4.711-21.121,4.79.136,1.208h20.39l.025.7-18.861,8.418.334,1.183,19.742-3.15-16.8,12.384.591.932,19.262-7.228-14.219,15.249.708.837,16.242-9.237c-3.143,5.531-5.821,10.392-8.686,15.141C293.06,313.28,291.775,313.632,290.853,314.2ZM241.9,295.55l-.318.266a20.826,20.826,0,0,0,1.76,2.419c12.478,12.9,25.566,25.069,41.37,33.913,27.8,15.558,56.11,16.825,84.765,2.614a137.68,137.68,0,0,0,48.943-40.349c5.482-7.177,6.288-13.55,2.36-21.471-6.178-12.461-14.983-22.715-25.057-32.06-17.483-16.216-37.735-26.292-61.833-27.56-20.05-1.056-38.1,5.1-54.741,15.9-2.289,1.486-4.46,3.151-6.686,4.734l.6.8c1.527-.979,3.039-1.982,4.583-2.934,21.187-13.048,43.883-18.342,68.42-12.451,33.731,8.1,55.6,31.425,74.036,58.842,2.93,4.357,2.237,6.765-1.645,10.488-4.018,3.854-8.282,7.451-12.3,11.3-11.433,10.946-23.467,21.083-37.532,28.567-18.1,9.631-37.106,13.9-57.514,9.561-20.523-4.363-37.686-15.164-53.508-28.373C252.188,305.244,247.125,300.3,241.9,295.55Zm173.905-13.58a7.752,7.752,0,0,0-.285-1.721c-12.314-22.591-29.719-39.825-53.488-50.127A77.556,77.556,0,0,0,320.9,223.9c-20.04,2.53-37.048,11.526-51.623,25.117-6.679,6.229-12.546,13.329-18.781,20.035l.966,1.055c23.492-22.936,50.514-37.876,84.353-35.017C369.428,237.928,394.411,256.524,415.806,281.97ZM249.649,316.335a119.4,119.4,0,0,0,26.1,21.64c25.62,15.788,52.879,21.262,82.073,11.992,21.669-6.881,39.76-19.6,55.458-35.859,7.435-7.7,13.807-16.094,16.539-26.692A29.085,29.085,0,0,0,430.2,282l-1.11-.092a35.822,35.822,0,0,1-1.5,5.068,24.739,24.739,0,0,1-2.93,4.7c-14.658,19.177-32.005,35.312-53.477,46.657-15.509,8.2-31.974,12.68-49.64,11.369A100.994,100.994,0,0,1,274.97,334C266.263,328.537,258.072,322.25,249.649,316.335Zm.314,12.061-.623.707a25.631,25.631,0,0,0,1.853,2c22.633,19.859,47.422,34.292,79.087,31.751,6.055-.486,12.329.521,18.214-.631,27.905-5.46,50.564-20.281,69.873-40.641a78.107,78.107,0,0,0,16.363-24.706,28.018,28.018,0,0,0,1.023-5.068c-3.407,3.809-5.488,8.018-8.409,11.525-16.98,20.377-36.455,37.689-61.129,48.362-16.519,7.146-33.695,9.886-51.6,7.389-21.694-3.027-40.49-12.645-57.836-25.531C254.494,331.851,252.235,330.114,249.963,328.4Zm163.916-40.211-1.036-.94c-.967.9-1.931,1.8-2.9,2.692a159.767,159.767,0,0,1-38.756,26.772c-17.712,8.549-36.212,12.508-55.884,9.475-18.875-2.911-35.454-11.162-50.908-22-1.63-1.144-3.225-2.341-4.836-3.512l-.571.8c3.391,2.948,6.6,6.143,10.212,8.79A199.027,199.027,0,0,0,287.889,323c21.685,12.368,44.482,15.49,68.364,6.988a119.935,119.935,0,0,0,41.473-25.184C403.392,299.57,408.511,293.743,413.879,288.185Zm-136.437-69.07c49.193-24.995,91.222-11.226,129.518,23.937-7.53-16.483-36.56-35.013-62.849-39.141C320.05,200.133,297.92,206.393,277.442,219.115Zm163.022,80.524-1.113-.16c-17.8,27.7-41.14,49.182-72.156,62.95,7.4,1.165,13.3.043,18.715-3.645,6.338-4.316,13.045-8.137,19.114-12.8,14.688-11.275,26.667-24.918,34.482-41.9A20.563,20.563,0,0,0,440.464,299.639Zm-49.1-82.42.851-.775c-1.655-2.085-2.9-4.817-5.027-6.158-27.733-17.493-57.32-22.551-88.841-12.173-7.522,2.477-14.686,6.039-22.015,9.1l.369,1.447C316.721,188.482,354.771,193.52,391.363,217.219Zm-1.33,144.771.473,1.226c3.075-.466,6.744-.009,9.132-1.544,19.583-12.585,35.019-29.015,44.757-50.391.529-1.161.069-2.774.069-4.177C430.1,329.657,412.372,348.053,390.033,361.99Zm-8.608-162.377.84-1.294c-2.247-1.809-4.246-4.129-6.777-5.348-24.611-11.867-50.118-13.359-76.15-5.64-7.93,2.352-15.562,5.711-23.33,8.608q.205.744.412,1.487C311.839,179.652,346.776,183.255,381.424,199.613ZM319.33,263.464a9.059,9.059,0,0,0,8.953,9.131,9.31,9.31,0,0,0,9.232-9.007,9.031,9.031,0,0,0-9.3-9.18A8.7,8.7,0,0,0,319.33,263.464ZM372.483,184.4l.912-1.227c-1.954-1.443-3.7-3.46-5.894-4.241-27.241-9.713-54.283-8.3-81.09,1.879a8.975,8.975,0,0,0-1.642,1.074C314.411,171.46,343.563,173.19,372.483,184.4Zm77.062,131.981-1.146-.529c-9.7,18.721-23.886,33.561-40,47.031,3.019-.374,5.887-1.064,7.865-2.78a137.524,137.524,0,0,0,31.7-39.931C448.6,318.969,449.025,317.648,449.545,316.382Zm4.787,8.3-.982-.563c-8.231,14.432-19,26.8-31.493,38.306,4.219.943,6.578-.2,8.918-2.669a133.466,133.466,0,0,0,22.13-31.248A34.073,34.073,0,0,0,454.332,324.683ZM286.395,363l.3-.954c-19.082-7.742-35.493-19.475-50.428-33.426a135.475,135.475,0,0,0,43.814,33.5C281.907,363,284.279,362.733,286.395,363Zm172.954-30.115-.658-.177-22.505,29.821c2.056-.083,4.442-.551,5.461-1.988,5.652-7.969,10.994-16.159,16.377-24.317A17.234,17.234,0,0,0,459.348,332.883ZM304.576,165.971a148.131,148.131,0,0,1,60.255,3.712,7.817,7.817,0,0,0-3.821-2.856A119.541,119.541,0,0,0,304.576,165.971ZM259.816,295.1l.631-.465-5.786-17.359-7.05,6.313ZM357.73,157.607c-3.867-6.414-50.108-6.385-58.072-.9A135.654,135.654,0,0,1,357.73,157.607Zm38.88,136.484.677.534,11.8-11-7.085-6.4ZM358.5,265.281l15.855-6.341c-6.5-3.948-11.472.014-16.995.519C357.783,261.631,358.083,263.164,358.5,265.281Zm-75.94-6.358,15.925,6.209c.259-2.235.447-3.848.7-6C293.556,259.49,288.729,254.846,282.557,258.922Zm67.782-114.359a104.605,104.605,0,0,0-43.658,0ZM231.621,337.131c-.037-.383-.1-.057.019.051,9.432,8.285,18.849,16.59,28.378,24.763.873.748,2.475.646,3.751.943Zm81.55-203.393h30.573A67.2,67.2,0,0,0,313.17,133.738ZM448.695,362.61c3.68-.556,13.907-15.476,14.843-21.452Z" transform="translate(-5.784 -6.663)"/>
    <path id="Path_54" data-name="Path 54" d="M384.95,115.991l136.389,236.28C515.453,347.969,386.005,123.865,384.95,115.991Z" transform="translate(-48.645 -9.958)"/>
    <path id="Path_55" data-name="Path 55" d="M182.734,347.207q66.187-114.632,132.374-229.264l1.219.7Q252.024,234.392,183.991,348Z" transform="translate(-7.416 -10.356)"/>
    <path id="Path_56" data-name="Path 56" d="M486.844,440.177H166.287v-1.37H486.813Z" transform="translate(-4.063 -75.776)"/>
    <path id="Path_57" data-name="Path 57" d="M316.455,356.612c.922-.571,2.207-.924,2.705-1.751,2.865-4.749,5.543-9.61,8.686-15.141L311.6,348.958l-.708-.837,14.219-15.249L305.854,340.1l-.591-.932,16.8-12.384-19.742,3.15-.335-1.183,18.861-8.418-.025-.7h-20.39l-.136-1.208,21.121-4.79-20.786-4.711.114-1H323.59c.487,15.725,7.487,26.376,22.323,31.438,3.858-8.161,12.07-8.562,15.746-.3,13.091-2.678,20.846-13.2,22.653-31.23h24.2l.122,1.025-21.724,4.759,22.237,4.818-.137,1.232H387.749l-.041.727,21.13,9.533c.707-7.532,1.375-14.652,2.037-21.713,2.514.568,2.744.57,2.712,3.5-.1,8.409-.394,16.815-.635,26.076l7.858-24.014c.637,1.491,1.632,2.723,1.595,3.921-.174,5.545-.582,11.085-1.014,16.618a9.56,9.56,0,0,1-4.821,7.722c-8.955,5.592-17.843,11.29-27.528,17.435l-14.733-15.249L382,360.845l-5.04,1.857-6.475-9.009c.683,3.691,1.234,6.663,1.862,10.06l-6.816,1.524-2-3.311c-.15,1.271-.262,2.215-.435,3.677H345.105v-5.471l-.568-.073-1.936,5.008-6.836-1.064c.959-4.558,1.837-8.73,2.753-13.08l-7.718,11.7-4.755-1.667c2.638-5.838,5.148-11.394,7.936-17.563-3.776,4.1-6.877,7.887-10.448,11.165-1.848,1.7-3.835,4.863-7.257,2.226Zm80.994-7.532c5.43-4.977,7.87-11.622,10.5-18.389l-22.306-3.99,17.609,12.471-.574,1.145L384.8,334.1l12.317,14.713-17.348-9.228,10.677,17.751Z" transform="translate(-31.386 -49.071)" fill="#fff"/>
    <path id="Path_58" data-name="Path 58" d="M259.022,324.587c5.224,4.75,10.287,9.693,15.7,14.215,15.823,13.21,32.985,24.01,53.508,28.373,20.408,4.339,39.411.07,57.514-9.561,14.065-7.483,26.1-17.62,37.532-28.567,4.021-3.85,8.285-7.447,12.3-11.3,3.882-3.723,4.575-6.131,1.645-10.488-18.436-27.417-40.306-50.743-74.036-58.842-24.536-5.891-47.233-.6-68.42,12.451-1.545.951-3.057,1.955-4.583,2.934l-.6-.8c2.226-1.583,4.4-3.248,6.686-4.734,16.643-10.8,34.69-16.959,54.74-15.9,24.1,1.268,44.35,11.344,61.833,27.56,10.074,9.345,18.879,19.6,25.057,32.06,3.928,7.921,3.122,14.294-2.36,21.471A137.679,137.679,0,0,1,386.6,363.8c-28.655,14.211-56.967,12.945-84.765-2.614-15.8-8.844-28.892-21.009-41.37-33.913a20.826,20.826,0,0,1-1.76-2.418Z" transform="translate(-22.905 -35.699)" fill="#fff"/>
    <path id="Path_59" data-name="Path 59" d="M435.21,313.593c-21.395-25.447-46.378-44.042-79.992-46.882-33.839-2.859-60.86,12.081-84.353,35.017l-.966-1.054c6.235-6.706,12.1-13.806,18.781-20.035,14.575-13.591,31.583-22.587,51.623-25.117a77.557,77.557,0,0,1,41.134,6.224c23.769,10.3,41.173,27.536,53.488,50.127A7.752,7.752,0,0,1,435.21,313.593Z" transform="translate(-25.188 -38.285)" fill="#fff"/>
    <path id="Path_60" data-name="Path 60" d="M268.837,362.966c8.423,5.916,16.613,12.2,25.321,17.664a100.994,100.994,0,0,0,46.577,15.7c17.666,1.312,34.131-3.173,49.64-11.369,21.471-11.345,38.818-27.479,53.476-46.657a24.753,24.753,0,0,0,2.93-4.7,35.749,35.749,0,0,0,1.5-5.068l1.111.091a29.111,29.111,0,0,1-.38,5.418c-2.732,10.6-9.1,18.991-16.539,26.692-15.7,16.261-33.789,28.978-55.458,35.859-29.194,9.27-56.454,3.8-82.074-11.992A119.4,119.4,0,0,1,268.837,362.966Z" transform="translate(-24.971 -53.294)" fill="#fff"/>
    <path id="Path_61" data-name="Path 61" d="M269.071,377.562c2.272,1.718,4.531,3.455,6.819,5.154,17.346,12.886,36.142,22.5,57.836,25.531,17.9,2.5,35.08-.243,51.6-7.389C410,390.184,429.474,372.873,446.453,352.5c2.922-3.507,5-7.715,8.409-11.525a28.011,28.011,0,0,1-1.023,5.068,78.107,78.107,0,0,1-16.363,24.706c-19.309,20.36-41.968,35.181-69.873,40.641-5.885,1.151-12.159.145-18.215.63-31.665,2.541-56.454-11.891-79.087-31.751a25.551,25.551,0,0,1-1.853-2Z" transform="translate(-24.892 -55.829)" fill="#fff"/>
    <path id="Path_62" data-name="Path 62" d="M435.457,336.183c-5.367,5.559-10.487,11.385-16.152,16.62a119.934,119.934,0,0,1-41.473,25.184c-23.882,8.5-46.679,5.38-68.364-6.988a199.185,199.185,0,0,1-18.693-12.738c-3.611-2.647-6.821-5.842-10.212-8.79l.571-.8c1.612,1.172,3.206,2.369,4.836,3.513,15.454,10.838,32.033,19.089,50.908,22,19.672,3.034,38.172-.926,55.884-9.474a159.768,159.768,0,0,0,38.756-26.772c.971-.893,1.936-1.794,2.9-2.692Z" transform="translate(-27.362 -54.661)" fill="#fff"/>
    <path id="Path_63" data-name="Path 63" d="M303.747,245.492c20.478-12.722,42.608-18.983,66.668-15.2,26.289,4.128,55.319,22.657,62.849,39.141C394.969,234.266,352.939,220.5,303.747,245.492Z" transform="translate(-32.089 -33.039)" fill="#fff"/>
    <path id="Path_64" data-name="Path 64" d="M489.755,350.771a20.551,20.551,0,0,1-.958,4.451c-7.815,16.98-19.794,30.623-34.482,41.9-6.069,4.658-12.776,8.479-19.114,12.8-5.416,3.688-11.32,4.811-18.715,3.645,31.017-13.768,54.355-35.25,72.156-62.95Z" transform="translate(-55.075 -57.794)" fill="#fff"/>
    <path id="Path_65" data-name="Path 65" d="M312.451,356.616c-9.19-5.635-18.508-11.079-27.454-17.078-1.648-1.1-2.244-4.4-2.538-6.776-.613-4.972-.807-10.006-.928-15.02-.03-1.236.882-2.5,1.479-4.053,3.225,9.349,6.178,17.911,9.132,26.472l1.307-.395c-3.073-8.9-3.716-18.066-3.045-27.328.128-1.77,1.208-3.472,2-5.62,1.408,8.725,2.078,16.628,4.062,24.184,2.349,8.951,7.526,16.539,14.226,23.006a24.047,24.047,0,0,1,1.935,2.4Z" transform="translate(-27.559 -48.866)" fill="#fff"/>
    <path id="Path_66" data-name="Path 66" d="M417.384,241.02c-36.591-23.7-74.642-28.737-114.664-8.557l-.369-1.447c7.329-3.064,14.493-6.626,22.015-9.1,31.521-10.377,61.108-5.32,88.841,12.173,2.125,1.341,3.372,4.073,5.027,6.158Z" transform="translate(-31.805 -30.463)" fill="#fff"/>
    <path id="Path_67" data-name="Path 67" d="M445.173,415.075c22.34-13.937,40.063-32.333,54.43-54.886,0,1.4.46,3.016-.069,4.177-9.738,21.375-25.173,37.806-44.757,50.391-2.388,1.535-6.058,1.078-9.132,1.543Z" transform="translate(-60.924 -59.747)" fill="#fff"/>
    <path id="Path_68" data-name="Path 68" d="M407.362,220.8c-34.648-16.358-69.585-19.961-105-2.188q-.206-.743-.411-1.487c7.768-2.9,15.4-6.257,23.33-8.608,26.032-7.719,51.539-6.226,76.15,5.64,2.53,1.22,4.53,3.54,6.776,5.348Z" transform="translate(-31.722 -27.851)" fill="#fff"/>
    <path id="Path_69" data-name="Path 69" d="M356.363,303.052A8.7,8.7,0,0,1,365.252,294a9.031,9.031,0,0,1,9.3,9.18,9.31,9.31,0,0,1-9.232,9.007A9.059,9.059,0,0,1,356.363,303.052Z" transform="translate(-42.817 -46.251)" fill="#fff"/>
    <path id="Path_70" data-name="Path 70" d="M400.665,202.977c-28.919-11.211-58.072-12.941-87.713-2.515a8.959,8.959,0,0,1,1.642-1.074c26.806-10.178,53.849-11.591,81.09-1.879,2.19.781,3.94,2.8,5.895,4.241Z" transform="translate(-33.966 -25.239)" fill="#fff"/>
    <path id="Path_71" data-name="Path 71" d="M509.39,371.706c-.521,1.266-.941,2.588-1.579,3.792a137.525,137.525,0,0,1-31.7,39.93c-1.978,1.716-4.846,2.406-7.865,2.78,16.112-13.47,30.3-28.311,40-47.031Z" transform="translate(-65.628 -61.988)" fill="#fff"/>
    <path id="Path_72" data-name="Path 72" d="M517.623,382.125a34.046,34.046,0,0,1-1.427,3.826A133.475,133.475,0,0,1,494.067,417.2c-2.341,2.469-4.7,3.612-8.918,2.669,12.49-11.509,23.261-23.875,31.493-38.307Z" transform="translate(-69.075 -64.105)" fill="#fff"/>
    <path id="Path_73" data-name="Path 73" d="M302.156,421.593c-2.116-.266-4.488,0-6.309-.879a135.477,135.477,0,0,1-43.814-33.5c14.935,13.95,31.346,25.683,50.428,33.426Z" transform="translate(-21.545 -65.257)" fill="#fff"/>
    <path id="Path_74" data-name="Path 74" d="M526.308,392.525a17.234,17.234,0,0,1-1.325,3.339c-5.383,8.158-10.724,16.348-16.377,24.317-1.019,1.437-3.4,1.905-5.461,1.988l22.505-29.821Z" transform="translate(-72.744 -66.304)" fill="#fff"/>
    <path id="Path_75" data-name="Path 75" d="M337.831,182.15a119.543,119.543,0,0,1,56.435.857,7.818,7.818,0,0,1,3.821,2.856A148.132,148.132,0,0,0,337.831,182.15Z" transform="translate(-39.038 -22.843)" fill="#fff"/>
    <path id="Path_76" data-name="Path 76" d="M278.481,340.543l-12.2-11.511,7.049-6.313c2.024,6.074,3.9,11.716,5.786,17.359Z" transform="translate(-24.449 -52.107)" fill="#fff"/>
    <path id="Path_77" data-name="Path 77" d="M389.726,171.145a135.656,135.656,0,0,0-58.073-.9C339.617,164.761,385.858,164.731,389.726,171.145Z" transform="translate(-37.779 -20.201)" fill="#fff"/>
    <path id="Path_78" data-name="Path 78" d="M453.435,339.524c1.733-5.422,3.464-10.844,5.387-16.865l7.085,6.4-11.8,11Z" transform="translate(-62.608 -52.095)" fill="#fff"/>
    <path id="Path_79" data-name="Path 79" d="M405.269,305.586c-.414-2.117-.714-3.649-1.139-5.822,5.522-.506,10.5-4.467,16.995-.519Z" transform="translate(-52.556 -46.968)" fill="#fff"/>
    <path id="Path_80" data-name="Path 80" d="M310.172,299.235c6.172-4.076,11,.568,16.622.213-.25,2.148-.437,3.761-.7,6Z" transform="translate(-33.399 -46.976)" fill="#fff"/>
    <path id="Path_81" data-name="Path 81" d="M384.133,155.43H340.475A104.608,104.608,0,0,1,384.133,155.43Z" transform="translate(-39.577 -17.53)" fill="#fff"/>
    <path id="Path_82" data-name="Path 82" d="M246.178,397.859l32.149,25.757c-1.276-.3-2.878-.194-3.751-.943-9.53-8.173-18.946-16.478-28.378-24.763C246.073,397.8,246.141,397.477,246.178,397.859Z" transform="translate(-20.341 -67.391)" fill="#fff"/>
    <path id="Path_83" data-name="Path 83" d="M348.626,141.972a67.2,67.2,0,0,1,30.573,0Z" transform="translate(-41.239 -14.896)" fill="#fff"/>
    <path id="Path_84" data-name="Path 84" d="M518.859,424.416,533.7,402.964C532.766,408.939,522.539,423.86,518.859,424.416Z" transform="translate(-75.948 -68.468)" fill="#fff"/>
    <path id="Path_85" data-name="Path 85" d="M418.764,353.645l-12.317-14.713,17.874,6.217.574-1.144-17.609-12.471,22.306,3.99c-2.631,6.767-5.07,13.412-10.5,18.389A2.793,2.793,0,0,0,418.764,353.645Z" transform="translate(-53.028 -53.905)"/>
    <path id="Path_86" data-name="Path 86" d="M417.476,356.944a2.783,2.783,0,0,1,.327.268l-7,8.254c-3.941-6.552-7.452-12.389-10.676-17.751Z" transform="translate(-51.74 -57.204)"/>
  </g>
</svg>
