<svg xmlns="http://www.w3.org/2000/svg" width="318.092" height="285.202" viewBox="0 0 318.092 285.202"><g transform="translate(-484 -244.45)"><path d="M42.5.7h-2V-.7h2Zm-5,0h-2V-.7h2Zm-5,0h-2V-.7h2Zm-5,0h-2V-.7h2Zm-5,0h-2V-.7h2Zm-5,0h-2V-.7h2Zm-5,0h-2V-.7h2Zm-5,0h-2V-.7h2Zm-5,0H.5V-.7h2Z" transform="translate(512.372 377.833)" fill="#707070" opacity="0.82"/><path d="M209.028,131.917a104.389,104.389,0,1,1-104.4-104.4A104.388,104.388,0,0,1,209.028,131.917Z" transform="translate(502.917 325.134) rotate(-30)" fill="#fff" opacity="0.203"/><path d="M191.2,123A95.476,95.476,0,1,1,95.716,27.517,95.476,95.476,0,0,1,191.2,123Z" transform="translate(515.092 328.396) rotate(-30)" fill="#fff" opacity="0.615"/><path d="M170.928,112.866A85.339,85.339,0,1,1,85.58,27.517,85.339,85.339,0,0,1,170.928,112.866Z" transform="translate(528.94 332.107) rotate(-30)"/><path d="M85.58,199.7a87.483,87.483,0,0,1-17.5-1.764A86.353,86.353,0,0,1,37.026,184.87a87.075,87.075,0,0,1-31.453-38.2,86.423,86.423,0,0,1-5.059-16.3,87.694,87.694,0,0,1,0-35A86.4,86.4,0,0,1,13.577,64.311a87.074,87.074,0,0,1,38.2-31.467,86.385,86.385,0,0,1,16.3-5.062,87.672,87.672,0,0,1,35.005,0,86.375,86.375,0,0,1,31.059,13.071A87.1,87.1,0,0,1,165.6,79.064a86.426,86.426,0,0,1,5.06,16.3,87.667,87.667,0,0,1,0,35A86.365,86.365,0,0,1,157.6,161.416a87.087,87.087,0,0,1-38.208,31.46,86.433,86.433,0,0,1-16.306,5.061A87.51,87.51,0,0,1,85.58,199.7Zm0-170.685a84.451,84.451,0,0,0-16.9,1.7A83.346,83.346,0,0,0,38.705,43.339,84.1,84.1,0,0,0,8.335,80.232,83.436,83.436,0,0,0,3.453,95.968a84.693,84.693,0,0,0,0,33.794,83.375,83.375,0,0,0,12.61,29.975,84.064,84.064,0,0,0,36.882,30.377A83.393,83.393,0,0,0,68.68,195a84.7,84.7,0,0,0,33.8,0,83.382,83.382,0,0,0,29.981-12.614A84.082,84.082,0,0,0,162.841,145.5a83.4,83.4,0,0,0,4.884-15.734,84.667,84.667,0,0,0,0-33.794A83.387,83.387,0,0,0,155.112,65.99a84.1,84.1,0,0,0-36.891-30.383,83.41,83.41,0,0,0-15.738-4.886A84.478,84.478,0,0,0,85.58,29.017Z" transform="translate(528.94 332.107) rotate(-30)" fill="#fff"/><circle cx="15.5" cy="15.5" r="15.5" transform="translate(484 372)" fill="#fff"/><circle cx="8.5" cy="8.5" r="8.5" transform="translate(490 347)" fill="#fff"/><circle cx="5.5" cy="5.5" r="5.5" transform="translate(493 328)" fill="#fff"/><path d="M48.5,1H0V-1H48.5Z" transform="translate(515.372 382.833)" fill="#707070" opacity="0.82"/><path d="M62,1.5H0v-3H62Z" transform="translate(512.872 387.5)" fill="#fff" opacity="0.82"/></g></svg>