<svg xmlns="http://www.w3.org/2000/svg" xmlns:xlink="http://www.w3.org/1999/xlink" width="60.992" height="70.109" viewBox="0 0 60.992 70.109"><defs><clipPath id="a"><rect width="60.992" height="70.109" fill="none"/></clipPath></defs><path d="M1.315,52.3V18.241L30.807,1.213,60.3,18.241V52.3L30.807,69.324ZM.875,17.818.729,17.9V52.635L30.807,70,60.738,52.718l.146-.084V17.9L30.807.537Z" transform="translate(-0.302 -0.222)" fill="#fff"/><path d="M30.628,1.341,59.937,52.1H1.319ZM.305,52.691H60.951L30.628.17Z" transform="translate(-0.126 -0.07)" fill="#fff"/><path d="M41.216,71.459,25.806,44.772H56.623Zm-14.4-26.1,14.4,24.93,14.392-24.93Z" transform="translate(-10.692 -18.55)" fill="#fff"/><rect width="17.199" height="0.585" transform="matrix(0.864, -0.504, 0.504, 0.864, 45.291, 26.27)" fill="#fff"/><rect width="0.586" height="17.241" transform="translate(0.574 18.102) rotate(-59.818)" fill="#fff"/><rect width="0.586" height="17.061" transform="translate(30.221 52.288)" fill="#fff"/><path d="M30.612,81.346l.507.293.813-1.409-.508-.293Zm-1.692-1.9.813,1.41.508-.293-.814-1.409ZM32.3,78.416l.507.293.814-1.409-.508-.293Zm-5.076-1.9.813,1.409.508-.293-.813-1.409ZM34,75.485l.507.293.813-1.409-.507-.293Zm-8.461-1.9.814,1.409.507-.293-.813-1.409Zm10.153-1.03.507.293.814-1.408-.508-.293Zm-11.844-1.9.813,1.408.508-.292-.813-1.409ZM37.38,69.625l.507.292.813-1.409-.507-.293Zm-15.229-1.9.814,1.409.507-.292-.813-1.41Zm16.92-1.028.507.292.813-1.409-.508-.293Zm-18.611-1.9.813,1.408.507-.292L20.967,64.5Zm20.3-1.029.507.292.814-1.408-.507-.293Zm-22-1.9.814,1.409.507-.293-.813-1.409Zm23.688-1.029.507.293.813-1.409-.508-.293Zm-25.379-1.9.813,1.409.507-.293-.813-1.409ZM44.147,57.9l.507.293.814-1.409-.508-.292ZM15.384,56l.813,1.409.508-.293-.814-1.409Zm30.455-1.028.507.293.813-1.41-.507-.292Zm-32.147-1.9.813,1.409.507-.293L14.2,52.777Zm33.839-1.028.507.293.814-1.409-.508-.292ZM12,50.14l.813,1.409.508-.293-.814-1.409Zm37.223-1.029.507.293.813-1.409-.507-.293Zm-38.915-1.9.813,1.409.508-.292-.813-1.409ZM50.915,46.18l.507.292.813-1.409-.507-.293Zm-42.3-1.9.814,1.409.507-.292-.813-1.409ZM52.607,43.25l.507.293.813-1.409-.507-.293Zm-45.683-1.9.813,1.409.508-.292-.813-1.41ZM54.3,40.319l.507.293L55.62,39.2l-.507-.293Zm-49.067-1.9.814,1.409.507-.293L5.74,38.125Zm50.759-1.029.507.293.813-1.409L56.8,35.98Zm-52.45-1.9L4.354,36.9l.507-.293-.813-1.409Zm54.142-1.029.507.293L59,33.342,58.5,33.05Zm-55.835-1.9.814,1.409.507-.293-.813-1.409Zm57.527-1.029.507.293.813-1.409-.508-.292ZM.357,29.972.97,31.035l.507-.293-.107-.184h.4v-.586Zm3.171.586H5.155v-.586H3.528Zm3.384,0H8.539v-.586H6.912Zm3.383,0h1.627v-.586H10.3Zm3.384,0h1.627v-.586H13.68Zm3.384,0H18.69v-.586H17.064Zm3.384,0h1.626v-.586H20.448Zm3.384,0h1.626v-.586H23.832Zm3.383,0h1.627v-.586H27.215Zm3.384,0h1.627v-.586H30.6Zm3.384,0H35.61v-.586H33.983Zm3.383,0h1.627v-.586H37.367Zm3.384,0h1.627v-.586H40.751Zm3.384,0h1.626v-.586H44.135Zm3.384,0h1.626v-.586H47.519Zm3.384,0h1.626v-.586H50.9Zm3.383,0h1.627v-.586H54.286Zm3.384,0H59.3v-.586H57.67Z" transform="translate(-0.148 -12.418)" fill="#fff"/><path d="M54.9,56.883H53.268V56.3H54.9Zm-3.384,0H49.884V56.3h1.627Zm-3.384,0H46.5V56.3h1.627Zm-3.384,0H43.116V56.3h1.627Zm-3.384,0H39.732V56.3h1.627Zm-3.384,0H36.348V56.3h1.627Zm-3.383,0H32.965V56.3h1.627Zm-3.384,0H29.581V56.3h1.627Zm-3.384,0H25.815l1.067-1.848.507.293-.559.969h.994ZM55.645,56.3l-.813-1.409.507-.293.813,1.409Zm-27.377-2.5-.507-.293.813-1.409.507.293Zm25.686-.435-.814-1.409.508-.293.813,1.409Zm-23.994-2.5-.507-.293.813-1.409.507.293Zm22.3-.435-.813-1.409.507-.293.813,1.409ZM31.652,47.945l-.507-.293.813-1.41.507.293Zm18.918-.435-.813-1.41.507-.293.813,1.41Zm-17.226-2.5-.507-.293.813-1.409.507.293Zm15.534-.435-.813-1.41.507-.293.813,1.41Zm-13.842-2.5-.507-.293.813-1.409.508.293Zm12.15-.435-.813-1.409.507-.293.813,1.409Zm-10.458-2.5-.508-.293.813-1.409.508.293Zm8.766-.435L44.68,37.31l.507-.293L46,38.426Zm-7.074-2.5-.508-.293.813-1.409.507.293Zm5.382-.435-.813-1.409.507-.293.813,1.409Zm-3.69-2.5L39.6,33l.813-1.409.507.293Zm2-.434L41.3,31.449l.507-.293.813,1.409Z" transform="translate(-10.696 -12.909)" fill="#fff"/><path d="M51.6,18.378h.586V16.752H51.6Zm0-3.383h.586V13.368H51.6Zm0-3.384h.586V9.985H51.6Zm0-3.384h.586V6.6H51.6Zm0-3.384h.586V3.217H51.6Zm0-3.383h.586V1.319H51.6Z" transform="translate(-21.379 -0.547)" fill="#fff"/><path d="M.981,82.711l.291.508,1.411-.81L2.391,81.9Zm2.934-1.685.291.508,1.411-.811-.292-.508ZM6.849,79.34l.292.508,1.41-.811L8.26,78.53Zm2.934-1.684.292.507,1.411-.81-.291-.508Zm2.935-1.686.291.508,1.411-.81-.292-.508Zm2.934-1.685.292.508.234-.135-.292-.508Z" transform="translate(-0.406 -30.723)" fill="#fff"/><path d="M92.1,83.236,90.7,82.417l.3-.505,1.406.819Zm-2.924-1.7-1.406-.82.3-.505,1.406.819Zm-2.923-1.7-1.406-.819.3-.505,1.405.819Zm-2.924-1.7-1.406-.819.3-.505,1.406.819Zm-2.923-1.7L79,75.6l.3-.506,1.406.819Zm-2.924-1.7-.234-.136.3-.506.234.137Z" transform="translate(-32.008 -30.691)" fill="#fff"/><g clip-path="url(#a)"><path d="M52.286.721A.721.721,0,1,1,51.564,0a.721.721,0,0,1,.722.722" transform="translate(-21.066 0)" fill="#fff"/><path d="M52.286,30.032a.721.721,0,1,1-.722-.722.721.721,0,0,1,.722.722" transform="translate(-21.066 -12.144)" fill="#fff"/><path d="M52.286,88.732a.721.721,0,1,1-.722-.722.721.721,0,0,1,.722.722" transform="translate(-21.066 -36.465)" fill="#fff"/><path d="M1.443,30.032a.721.721,0,1,1-.722-.722.721.721,0,0,1,.722.722" transform="translate(0 -12.144)" fill="#fff"/><path d="M26.891,44.8a.721.721,0,1,1-.722-.722.721.721,0,0,1,.722.722" transform="translate(-10.544 -18.265)" fill="#fff"/><path d="M1.443,88.732a.721.721,0,1,1-.722-.722.721.721,0,0,1,.722.722" transform="translate(0 -36.465)" fill="#fff"/><path d="M103.121,30.032a.721.721,0,1,1-.722-.722.721.721,0,0,1,.722.722" transform="translate(-42.128 -12.144)" fill="#fff"/><path d="M77.759,44.8a.721.721,0,1,1-.722-.722.721.721,0,0,1,.722.722" transform="translate(-31.62 -18.265)" fill="#fff"/><path d="M26.891,74.028a.721.721,0,1,1-.722-.722.721.721,0,0,1,.722.722" transform="translate(-10.544 -30.373)" fill="#fff"/><path d="M77.759,74.028a.721.721,0,1,1-.722-.722.721.721,0,0,1,.722.722" transform="translate(-31.62 -30.373)" fill="#fff"/><path d="M103.121,88.732a.721.721,0,1,1-.722-.722.721.721,0,0,1,.722.722" transform="translate(-42.128 -36.465)" fill="#fff"/><path d="M52.286,117.965a.721.721,0,1,1-.722-.722.721.721,0,0,1,.722.722" transform="translate(-21.066 -48.577)" fill="#fff"/></g></svg>