<svg xmlns="http://www.w3.org/2000/svg" xmlns:xlink="http://www.w3.org/1999/xlink" width="88.949" height="89.478" viewBox="0 0 88.949 89.478"><defs><clipPath id="a"><rect width="88.949" height="88.946" fill="none"/></clipPath></defs><g transform="translate(-70 -163.925)" opacity="0.8"><path d="M.5,29.494h-1V29h1ZM.5,26h-1V23.2h1Zm0-5.8h-1V17.4h1Zm0-5.8h-1V11.6h1Zm0-5.8h-1V5.8h1Zm0-5.8h-1V0h1Z" transform="translate(114.473 193.917)" fill="#fff"/><path d="M51.037.5h-2.8v-1h2.8Zm-5.8,0h-2.8v-1h2.8Zm-5.8,0h-2.8v-1h2.8Zm-5.8,0h-2.8v-1h2.8Zm-5.8,0h-2.8v-1h2.8Zm-5.8,0h-2.8v-1h2.8Zm-5.8,0h-2.8v-1h2.8Zm-5.8,0h-2.8v-1h2.8Zm-5.8,0h-2.8v-1h2.8Z" transform="translate(88.955 208.615)" fill="#fff"/><path d="M53.488,59.859c-.948,0-1.9-.045-2.843-.133l.094-1c.908.085,1.833.129,2.749.129Zm2.777-.127-.091-1c.912-.084,1.828-.212,2.725-.381l.185.983C58.156,59.513,57.208,59.646,56.265,59.732Zm-8.637-.446c-.928-.184-1.858-.415-2.763-.686l.287-.958c.875.262,1.773.485,2.67.663Zm14.42-.667-.285-.959c.876-.26,1.749-.566,2.6-.909l.375.927C63.858,58.034,62.954,58.35,62.048,58.62ZM41.991,57.576c-.873-.362-1.739-.772-2.574-1.216l.47-.883c.807.43,1.644.825,2.488,1.175ZM67.5,56.392l-.468-.884c.807-.427,1.6-.9,2.368-1.4l.549.836C69.159,55.462,68.334,55.95,67.5,56.392Zm-30.7-1.6c-.785-.526-1.554-1.1-2.286-1.7l.633-.774c.708.579,1.452,1.13,2.21,1.639ZM72.409,53.14l-.631-.776c.709-.577,1.4-1.194,2.05-1.836l.7.713C73.855,51.9,73.142,52.543,72.409,53.14ZM32.256,51.05c-.668-.669-1.311-1.378-1.913-2.107l.771-.636c.582.7,1.2,1.39,1.85,2.038Zm44.335-2.055-.77-.638c.584-.7,1.14-1.444,1.654-2.2l.827.563C77.77,47.5,77.195,48.267,76.591,48.995Zm-48.068-2.5c-.525-.787-1.018-1.608-1.466-2.44l.881-.474c.433.8.909,1.6,1.417,2.358Zm51.364-2.38-.88-.476c.435-.8.836-1.639,1.192-2.48l.921.39C80.753,42.42,80.338,43.283,79.887,44.115ZM25.751,41.3c-.361-.874-.683-1.776-.959-2.68l.957-.291c.266.874.578,1.745.927,2.59Zm56.413-2.615-.956-.294c.268-.873.5-1.77.681-2.665l.98.2C82.679,36.852,82.442,37.78,82.165,38.684Zm-58.11-3.024c-.181-.927-.32-1.874-.413-2.816l1-.1c.09.911.224,1.827.4,2.722Zm59.275-2.749-.995-.1c.091-.907.141-1.831.147-2.748l1,.007C83.475,31.017,83.424,31.973,83.329,32.911ZM24.5,29.8l-1,0c0-.948.049-1.9.139-2.842l1,.1C24.543,27.958,24.5,28.883,24.5,29.8Zm57.858-2.683c-.086-.911-.216-1.828-.387-2.724l.982-.188c.177.927.312,1.875.4,2.818ZM25.061,24.134l-.98-.2c.186-.928.419-1.857.692-2.761l.957.289C25.466,22.34,25.241,23.238,25.061,24.134Zm56.2-2.606c-.262-.875-.57-1.748-.915-2.595l.926-.377c.357.876.675,1.779.947,2.685ZM26.727,18.692l-.923-.386c.364-.872.776-1.737,1.222-2.571l.882.472C27.476,17.013,27.079,17.849,26.727,18.692ZM79.1,16.265c-.429-.806-.9-1.6-1.407-2.365l.834-.551c.522.789,1.011,1.612,1.455,2.446ZM29.429,13.682l-.829-.559c.528-.784,1.1-1.551,1.7-2.282l.773.635C30.493,12.182,29.939,12.924,29.429,13.682Zm46.517-2.156c-.578-.707-1.2-1.4-1.84-2.046l.711-.7c.665.672,1.305,1.384,1.9,2.116ZM33.057,9.294l-.7-.709c.671-.666,1.381-1.308,2.112-1.908l.635.773C34.393,8.029,33.706,8.65,33.057,9.294Zm38.872-1.8c-.705-.582-1.446-1.137-2.2-1.649l.561-.828c.782.53,1.549,1.1,2.279,1.706ZM37.469,5.7l-.553-.833c.788-.523,1.61-1.015,2.443-1.461l.472.882C39.025,4.715,38.23,5.19,37.469,5.7ZM67.2,4.315c-.805-.433-1.64-.832-2.482-1.187l.388-.922c.871.366,1.735.779,2.568,1.228ZM42.5,3.028,42.118,2.1c.875-.359,1.778-.679,2.683-.953l.289.957C44.215,2.371,43.343,2.681,42.5,3.028Zm19.454-.9c-.874-.266-1.771-.493-2.667-.675l.2-.98c.927.188,1.856.423,2.76.7Zm-14-.726-.19-.982C48.688.239,49.636.1,50.578.011l.1,1C49.763,1.095,48.847,1.227,47.951,1.4Zm8.418-.387C55.461.924,54.537.876,53.62.872l0-1c.948,0,1.9.053,2.842.146Z" transform="translate(60.985 164.053)" fill="#fff"/><path d="M53.488,47.114c.948,0,1.9.045,2.843.133l-.094,1c-.908-.085-1.833-.129-2.749-.129Zm-2.776.127.091,1c-.912.084-1.828.212-2.725.381l-.185-.983C48.821,47.46,49.769,47.327,50.712,47.241Zm8.636.446c.928.184,1.858.415,2.763.686l-.287.958c-.875-.262-1.773-.485-2.67-.663Zm-14.419.667.285.959c-.876.26-1.749.566-2.6.909l-.375-.927C43.119,48.939,44.023,48.622,44.929,48.353ZM64.984,49.4c.873.362,1.739.771,2.574,1.216l-.47.883c-.807-.43-1.644-.825-2.488-1.175ZM39.477,50.581l.468.884c-.807.427-1.6.9-2.368,1.4l-.549-.835C37.818,51.51,38.642,51.023,39.477,50.581Zm30.7,1.6c.785.526,1.554,1.1,2.286,1.7l-.633.774c-.708-.579-1.452-1.13-2.21-1.639ZM34.568,53.833l.631.776c-.709.577-1.4,1.194-2.05,1.836l-.7-.713C33.122,55.068,33.835,54.43,34.568,53.833Zm40.153,2.089c.668.669,1.312,1.378,1.913,2.107l-.771.636c-.582-.7-1.2-1.39-1.85-2.037ZM30.386,57.978l.77.638c-.584.7-1.14,1.444-1.654,2.2l-.827-.563C29.206,59.472,29.782,58.706,30.386,57.978Zm48.067,2.5c.525.787,1.019,1.608,1.466,2.44l-.881.474c-.433-.8-.91-1.6-1.417-2.358ZM27.089,62.858l.88.476c-.435.8-.836,1.639-1.192,2.48l-.921-.39C26.224,64.553,26.639,63.69,27.089,62.858Zm54.136,2.815c.361.874.683,1.776.959,2.68l-.957.291c-.266-.874-.578-1.745-.927-2.59ZM24.812,68.289l.956.294c-.268.873-.5,1.77-.681,2.665l-.98-.2C24.3,70.121,24.535,69.193,24.812,68.289Zm58.11,3.023c.181.927.32,1.874.413,2.816l-1,.1c-.09-.911-.224-1.827-.4-2.722Zm-59.275,2.75.995.1c-.091.907-.141,1.831-.147,2.748l-1-.007C23.5,75.956,23.553,75,23.648,74.062Zm58.834,3.11,1,0c0,.948-.049,1.9-.139,2.842l-1-.1C82.435,79.013,82.48,78.089,82.482,77.172ZM24.624,79.857c.086.911.216,1.828.387,2.724l-.982.188c-.177-.927-.312-1.875-.4-2.818Zm57.292,2.98.98.2c-.186.928-.419,1.857-.692,2.761l-.957-.289C81.511,84.631,81.736,83.733,81.916,82.837Zm-56.2,2.607c.262.875.57,1.748.915,2.595l-.926.377c-.357-.876-.675-1.779-.947-2.685Zm54.54,2.836.923.386c-.364.872-.775,1.737-1.222,2.571l-.882-.472C79.5,89.958,79.9,89.122,80.251,88.28ZM27.877,90.708c.429.806.9,1.6,1.407,2.365l-.834.551c-.522-.789-1.011-1.612-1.455-2.446ZM77.549,93.29l.829.559c-.528.784-1.1,1.551-1.7,2.282L75.9,95.5C76.485,94.79,77.039,94.047,77.549,93.29ZM31.031,95.447c.578.707,1.2,1.4,1.84,2.046l-.711.7c-.665-.672-1.305-1.384-1.9-2.116Zm42.889,2.23.7.709c-.671.666-1.381,1.308-2.112,1.908l-.635-.773C72.585,98.942,73.272,98.321,73.921,97.677Zm-38.873,1.8c.705.582,1.447,1.137,2.2,1.649l-.561.828c-.782-.53-1.549-1.1-2.279-1.706Zm34.461,1.794.553.833c-.788.523-1.61,1.015-2.443,1.461l-.472-.882C67.953,102.257,68.747,101.782,69.509,101.276Zm-29.737,1.382c.805.433,1.64.832,2.482,1.187l-.388.922c-.871-.366-1.735-.779-2.568-1.228Zm24.708,1.287.379.925c-.875.359-1.778.679-2.683.953l-.289-.957C62.763,104.6,63.635,104.29,64.481,103.944Zm-19.454.9c.874.266,1.771.493,2.667.675l-.2.98c-.927-.188-1.856-.423-2.76-.7Zm14,.726.19.982c-.927.179-1.875.316-2.817.407l-.1-1C57.215,105.877,58.131,105.745,59.027,105.571Zm-8.418.387c.907.089,1.832.137,2.748.141l0,1c-.948,0-1.9-.053-2.842-.146Z" transform="translate(60.985 146.304)" fill="#fff"/><path d="M62.365,47.126a15.443,15.443,0,0,1,2.061.138l-.134.991a14.44,14.44,0,0,0-1.927-.129Zm-.667.014.043,1a14.34,14.34,0,0,0-1.919.213l-.177-.984A15.342,15.342,0,0,1,61.7,47.14Zm5.739.85a15.212,15.212,0,0,1,1.9.819l-.458.889a14.209,14.209,0,0,0-1.772-.765Zm-10.768.236.374.927A14.233,14.233,0,0,0,55.3,50l-.5-.868A15.237,15.237,0,0,1,56.668,48.226ZM71.929,50.5a15.381,15.381,0,0,1,1.517,1.4l-.727.687A14.378,14.378,0,0,0,71.3,51.277ZM52.29,50.93l.661.75a14.385,14.385,0,0,0-1.359,1.372l-.756-.655A15.387,15.387,0,0,1,52.29,50.93Zm23.044,3.425a15.254,15.254,0,0,1,.966,1.827l-.914.406a14.249,14.249,0,0,0-.9-1.706Zm-26.277.577.872.489a14.227,14.227,0,0,0-.827,1.744l-.931-.366A15.228,15.228,0,0,1,49.057,54.931Zm28.206,4.194a15.288,15.288,0,0,1,.3,2.045l-1,.078a14.284,14.284,0,0,0-.28-1.91Zm-29.922.657.986.169a14.355,14.355,0,0,0-.2,1.921l-1-.034A15.359,15.359,0,0,1,47.341,59.782ZM76.5,64.141l.992.123a15.234,15.234,0,0,1-.393,2.029l-.966-.257A14.23,14.23,0,0,0,76.5,64.141Zm-28.178.619a14.2,14.2,0,0,0,.451,1.877l-.954.3a15.2,15.2,0,0,1-.482-2.01Zm26.786,3.981.894.448a15.288,15.288,0,0,1-1.049,1.78l-.825-.565A14.283,14.283,0,0,0,75.107,68.741Zm-25.192.553a14.314,14.314,0,0,0,1.052,1.619l-.8.6a15.318,15.318,0,0,1-1.126-1.732ZM72.26,72.615l.695.719a15.372,15.372,0,0,1-1.579,1.332l-.592-.806A14.37,14.37,0,0,0,72.26,72.615Zm-19.329.425a14.353,14.353,0,0,0,1.529,1.179l-.556.831a15.356,15.356,0,0,1-1.636-1.262Zm15.359,2.287.416.909a15.2,15.2,0,0,1-1.933.73l-.289-.957A14.191,14.191,0,0,0,68.289,75.326Zm-11.274.248a14.181,14.181,0,0,0,1.834.6l-.246.969A15.181,15.181,0,0,1,56.64,76.5Zm6.628.982.089,1a15.557,15.557,0,0,1-2.065.045l.045-1A14.554,14.554,0,0,0,63.643,76.556Z" transform="translate(52.108 146.299)" fill="#fff"/><rect width="88.949" height="88.946" transform="translate(70 164.193)" fill="none"/><g transform="translate(70 164.193)" clip-path="url(#a)"><path d="M112.566,70.531a1.053,1.053,0,1,1-1.053-1.053,1.053,1.053,0,0,1,1.053,1.053" transform="translate(-41.5 -26.103)" fill="#fff"/><path d="M95.316,70.531a1.053,1.053,0,1,1-1.053-1.053,1.053,1.053,0,0,1,1.053,1.053" transform="translate(-35.019 -26.103)" fill="#fff"/><path d="M71.691,70.531a1.053,1.053,0,1,1-1.053-1.053,1.053,1.053,0,0,1,1.053,1.053" transform="translate(-26.143 -26.103)" fill="#fff"/><path d="M71.691,47.031a1.053,1.053,0,1,1-1.053-1.053,1.053,1.053,0,0,1,1.053,1.053" transform="translate(-26.143 -17.274)" fill="#fff"/><path d="M71.691,94.156A1.053,1.053,0,1,1,70.638,93.1a1.053,1.053,0,0,1,1.053,1.053" transform="translate(-26.143 -34.979)" fill="#fff"/><path d="M30.9,70.531a1.053,1.053,0,1,1-1.053-1.053A1.053,1.053,0,0,1,30.9,70.531" transform="translate(-10.818 -26.103)" fill="#fff"/><path d="M48.025,70.531a1.053,1.053,0,1,1-1.053-1.053,1.053,1.053,0,0,1,1.053,1.053" transform="translate(-17.252 -26.103)" fill="#fff"/></g></g></svg>