<svg xmlns="http://www.w3.org/2000/svg" xmlns:xlink="http://www.w3.org/1999/xlink" width="61.896" height="71.276" viewBox="0 0 61.896 71.276"><defs><clipPath id="a"><rect width="61.896" height="71.276" fill="#fff"/></clipPath></defs><path d="M63.058,54.169H3.229L33.143,2.355Zm-59.2-.362H62.431L33.143,3.078Z" transform="translate(-2.061 -1.503)" fill="#fff"/><path d="M12.573,67.884,2.477,50.4H22.741v.362H3.1L12.886,67.7Z" transform="translate(-1.581 -32.173)" fill="#fff"/><path d="M67.614,163,57.287,145.11l.313-.181,10.016,17.348,10.137-17.359.312.182Z" transform="translate(-36.572 -92.514)" fill="#fff"/><path d="M123.531,67.925l-.314-.18,9.754-16.985H113.344V50.4H133.6Z" transform="translate(-72.358 -32.174)" fill="#fff"/><path d="M59.193,99.995l-15.1-26.157h30.2ZM44.718,74.2,59.193,99.271,73.669,74.2Z" transform="translate(-28.148 -47.138)" fill="#fff"/><path d="M33.069,67.821l-.873-.5.179-.314.873.5Zm-1.816-1.033-.873-.5.179-.314.873.5Zm-1.815-1.034-.873-.5.179-.314.873.5Zm-1.816-1.033-.873-.5.179-.314.873.5Zm-1.816-1.033-.873-.5.179-.314.873.5ZM23.99,62.654l-.873-.5.179-.314.873.5ZM22.175,61.62l-.873-.5.179-.314.873.5Zm-1.816-1.033-.873-.5.179-.315.873.5Zm-1.816-1.033-.873-.5.179-.314.873.5ZM16.727,58.52l-.873-.5.179-.314.873.5Zm-1.815-1.034-.873-.5.179-.314.873.5ZM13.1,56.453l-.873-.5.179-.315.873.5ZM11.28,55.419l-.873-.5.179-.314.873.5ZM9.464,54.386l-.873-.5.179-.314.873.5ZM7.649,53.352l-.873-.5.179-.314.873.5ZM5.833,52.319l-.873-.5.179-.314.873.5ZM4.017,51.285l-.873-.5.179-.314.873.5Z" transform="translate(-2.007 -32.222)" fill="#fff"/><path d="M85.821,67.73l-.178-.315.874-.5.178.315ZM87.639,66.7l-.178-.315.874-.5.178.315Zm1.817-1.031-.178-.315.874-.5.178.315Zm1.817-1.031-.179-.315.874-.5.179.315Zm1.817-1.031-.179-.315.874-.5.179.315Zm1.817-1.031-.179-.315.874-.5.179.315Zm1.817-1.031-.179-.315.874-.5.179.315Zm1.817-1.031-.179-.315.874-.5.179.315Zm1.817-1.031-.179-.315.874-.5.179.315Zm1.817-1.031L102,58.14l.874-.5.179.315Zm1.817-1.031-.178-.315.874-.5.178.315Zm1.818-1.031-.179-.315.874-.5.179.315Zm1.817-1.031-.179-.315.874-.5.179.315Zm1.817-1.031-.179-.315.874-.5.179.315Zm1.817-1.031-.179-.315.874-.5.179.315Zm1.817-1.031-.179-.315.874-.5.179.315Zm1.817-1.031-.179-.315.791-.449.179.315Z" transform="translate(-54.674 -32.224)" fill="#fff"/><path d="M85.353,132.216h.362v-1h-.362Zm0-2.089h.362v-1h-.362Zm0-2.089h.362v-1h-.362Zm0-2.089h.362v-1h-.362Zm0-2.089h.362v-1h-.362Zm0-2.089h.362v-1h-.362Zm0-2.089h.362v-1h-.362Zm0-2.089h.362v-1h-.362Zm0-2.089h.362v-1h-.362Zm0-2.089h.362v-1h-.362Zm0-2.089h.362v-1h-.362Zm0-2.089h.362v-1h-.362Zm0-2.089h.362v-1h-.362Zm0-2.089h.362v-1h-.362Zm0-2.089h.362v-1h-.362Zm0-2.089h.362v-1h-.362Zm0-2.089h.362v-1h-.362Z" transform="translate(-54.489 -62.424)" fill="#fff"/><g clip-path="url(#a)"><path d="M167.893,49.647a.725.725,0,1,1-.725-.725.725.725,0,0,1,.725.725" transform="translate(-106.257 -31.231)" fill="#fff"/><path d="M85.346,96.488a.718.718,0,1,1-.718-.718.718.718,0,0,1,.718.718" transform="translate(-53.568 -61.139)" fill="#fff"/><path d="M85.346,143.8a.718.718,0,1,1-.718-.718.718.718,0,0,1,.718.718" transform="translate(-53.568 -91.343)" fill="#fff"/><path d="M85.288,192.667a.718.718,0,1,1-.718-.718.717.717,0,0,1,.718.718" transform="translate(-53.53 -122.539)" fill="#fff"/><path d="M85.419,2.108A.718.718,0,1,1,84.7,1.39a.718.718,0,0,1,.718.718" transform="translate(-53.614 -0.887)" fill="#fff"/><path d="M44.492,73.083a.718.718,0,1,1-.718-.717.717.717,0,0,1,.718.717" transform="translate(-27.487 -46.198)" fill="#fff"/><path d="M2.806,49.642a.718.718,0,1,1-.718-.718.717.717,0,0,1,.718.718" transform="translate(-0.875 -31.233)" fill="#fff"/><path d="M3.623,143.94a.718.718,0,1,1-.718-.718.717.717,0,0,1,.718.718" transform="translate(-1.396 -91.432)" fill="#fff"/><path d="M167.2,143.85a.718.718,0,1,1-.718-.718.717.717,0,0,1,.718.718" transform="translate(-105.826 -91.374)" fill="#fff"/><path d="M126.173,73.083a.718.718,0,1,1-.718-.717.717.717,0,0,1,.718.717" transform="translate(-79.631 -46.198)" fill="#fff"/><path d="M63.058,54.169H3.229L33.143,2.355Zm-59.2-.362H62.431L33.143,3.078Z" transform="translate(-2.061 -1.503)" fill="#fff"/><path d="M12.573,67.884,2.477,50.4H22.741v.362H3.1L12.886,67.7Z" transform="translate(-1.581 -32.173)" fill="#fff"/><path d="M67.614,163,57.287,145.11l.313-.181,10.016,17.348,10.137-17.359.312.182Z" transform="translate(-36.572 -92.514)" fill="#fff"/><path d="M123.531,67.925l-.314-.18,9.754-16.985H113.344V50.4H133.6Z" transform="translate(-72.358 -32.174)" fill="#fff"/><path d="M59.193,99.995l-15.1-26.157h30.2ZM44.718,74.2,59.193,99.271,73.669,74.2Z" transform="translate(-28.148 -47.138)" fill="#fff"/><path d="M33.069,67.821l-.873-.5.179-.314.873.5Zm-1.816-1.033-.873-.5.179-.314.873.5Zm-1.815-1.034-.873-.5.179-.314.873.5Zm-1.816-1.033-.873-.5.179-.314.873.5Zm-1.816-1.033-.873-.5.179-.314.873.5ZM23.99,62.654l-.873-.5.179-.314.873.5ZM22.175,61.62l-.873-.5.179-.314.873.5Zm-1.816-1.033-.873-.5.179-.315.873.5Zm-1.816-1.033-.873-.5.179-.314.873.5ZM16.727,58.52l-.873-.5.179-.314.873.5Zm-1.815-1.034-.873-.5.179-.314.873.5ZM13.1,56.453l-.873-.5.179-.315.873.5ZM11.28,55.419l-.873-.5.179-.314.873.5ZM9.464,54.386l-.873-.5.179-.314.873.5ZM7.649,53.352l-.873-.5.179-.314.873.5ZM5.833,52.319l-.873-.5.179-.314.873.5ZM4.017,51.285l-.873-.5.179-.314.873.5Z" transform="translate(-2.007 -32.222)" fill="#fff"/><path d="M85.821,67.73l-.178-.315.874-.5.178.315ZM87.639,66.7l-.178-.315.874-.5.178.315Zm1.817-1.031-.178-.315.874-.5.178.315Zm1.817-1.031-.179-.315.874-.5.179.315Zm1.817-1.031-.179-.315.874-.5.179.315Zm1.817-1.031-.179-.315.874-.5.179.315Zm1.817-1.031-.179-.315.874-.5.179.315Zm1.817-1.031-.179-.315.874-.5.179.315Zm1.817-1.031-.179-.315.874-.5.179.315Zm1.817-1.031L102,58.14l.874-.5.179.315Zm1.817-1.031-.178-.315.874-.5.178.315Zm1.818-1.031-.179-.315.874-.5.179.315Zm1.817-1.031-.179-.315.874-.5.179.315Zm1.817-1.031-.179-.315.874-.5.179.315Zm1.817-1.031-.179-.315.874-.5.179.315Zm1.817-1.031-.179-.315.874-.5.179.315Zm1.817-1.031-.179-.315.791-.449.179.315Z" transform="translate(-54.674 -32.224)" fill="#fff"/><path d="M85.716,132.215h-.362v-1h.362Zm0-2.089h-.362v-1h.362Zm0-2.089h-.362v-1h.362Zm0-2.089h-.362v-1h.362Zm0-2.089h-.362v-1h.362Zm0-2.089h-.362v-1h.362Zm0-2.089h-.362v-1h.362Zm0-2.089h-.362v-1h.362Zm0-2.089h-.362v-1h.362Zm0-2.089h-.362v-1h.362Zm0-2.089h-.362v-1h.362Zm0-2.089h-.362v-1h.362Zm0-2.089h-.362v-1h.362Zm0-2.089h-.362v-1h.362Zm0-2.089h-.362v-1h.362Zm0-2.089h-.362v-1h.362Zm0-2.089h-.362v-1h.362Z" transform="translate(-54.489 -62.423)" fill="#fff"/><path d="M167.893,49.647a.725.725,0,1,1-.725-.725.725.725,0,0,1,.725.725" transform="translate(-106.257 -31.231)" fill="#fff"/><path d="M85.346,96.488a.718.718,0,1,1-.718-.718.718.718,0,0,1,.718.718" transform="translate(-53.568 -61.139)" fill="#fff"/><path d="M85.346,143.8a.718.718,0,1,1-.718-.718.718.718,0,0,1,.718.718" transform="translate(-53.568 -91.343)" fill="#fff"/><path d="M85.288,192.667a.718.718,0,1,1-.718-.718.717.717,0,0,1,.718.718" transform="translate(-53.53 -122.539)" fill="#fff"/><path d="M85.419,2.108A.718.718,0,1,1,84.7,1.39a.718.718,0,0,1,.718.718" transform="translate(-53.614 -0.887)" fill="#fff"/><path d="M44.492,73.083a.718.718,0,1,1-.718-.717.717.717,0,0,1,.718.717" transform="translate(-27.487 -46.198)" fill="#fff"/><path d="M2.427,48.767a1.213,1.213,0,1,1-1.214-1.213,1.213,1.213,0,0,1,1.214,1.213" transform="translate(0 -30.358)" fill="#fff"/><path d="M166.886,48.767a1.213,1.213,0,1,1-1.214-1.213,1.213,1.213,0,0,1,1.214,1.213" transform="translate(-104.989 -30.358)" fill="#fff"/><path d="M84.909,191.61A1.213,1.213,0,1,1,83.7,190.4a1.213,1.213,0,0,1,1.214,1.213" transform="translate(-52.656 -121.548)" fill="#fff"/><path d="M84.909,1.213A1.213,1.213,0,1,1,83.7,0a1.213,1.213,0,0,1,1.214,1.213" transform="translate(-52.656)" fill="#fff"/><path d="M84.444,94.425a1.887,1.887,0,1,1-1.887-1.887,1.886,1.886,0,0,1,1.887,1.887" transform="translate(-51.499 -59.076)" fill="#fff"/><path d="M44.029,72.616A1.213,1.213,0,1,1,42.815,71.4a1.213,1.213,0,0,1,1.214,1.213" transform="translate(-26.558 -45.583)" fill="#fff"/><path d="M125.821,72.209A1.213,1.213,0,1,1,124.607,71a1.213,1.213,0,0,1,1.214,1.213" transform="translate(-78.774 -45.323)" fill="#fff"/><path d="M84.925,143.029a1.213,1.213,0,1,1-1.214-1.213,1.213,1.213,0,0,1,1.214,1.213" transform="translate(-52.666 -90.534)" fill="#fff"/><path d="M3.166,142.926a1.213,1.213,0,1,1-1.214-1.213,1.213,1.213,0,0,1,1.214,1.213" transform="translate(-0.472 -90.469)" fill="#fff"/><path d="M166.886,143.065a1.213,1.213,0,1,1-1.214-1.213,1.213,1.213,0,0,1,1.214,1.213" transform="translate(-104.989 -90.557)" fill="#fff"/><path d="M3.623,143.94a.718.718,0,1,1-.718-.718.717.717,0,0,1,.718.718" transform="translate(-1.396 -91.432)" fill="#fff"/><path d="M167.2,143.85a.718.718,0,1,1-.718-.718.717.717,0,0,1,.718.718" transform="translate(-105.826 -91.374)" fill="#fff"/><path d="M126.173,73.083a.718.718,0,1,1-.718-.717.717.717,0,0,1,.718.717" transform="translate(-79.631 -46.198)" fill="#fff"/></g></svg>