<svg xmlns="http://www.w3.org/2000/svg" xmlns:xlink="http://www.w3.org/1999/xlink" width="76.469" height="73.371" viewBox="0 0 76.469 73.371"><defs><clipPath id="a"><rect width="76.469" height="73.371" fill="none"/></clipPath><clipPath id="c"><rect width="5.667" height="5.665" fill="none"/></clipPath><clipPath id="d"><rect width="3.817" height="3.815" fill="none"/></clipPath><clipPath id="e"><rect width="3.816" height="3.815" fill="none"/></clipPath><clipPath id="g"><rect width="3.816" height="3.814" fill="none"/></clipPath><clipPath id="p"><rect width="3.817" height="3.814" fill="none"/></clipPath><clipPath id="u"><rect width="5.27" height="5.27" fill="none"/></clipPath><clipPath id="v"><rect width="7.905" height="7.905" fill="none"/></clipPath><clipPath id="z"><rect width="7.904" height="7.905" fill="none"/></clipPath></defs><g clip-path="url(#a)"><path d="M6.326,48.55l-.479-.418.214-.245.479.418Zm.761-.874-.479-.418.182-.209.48.418Zm.957-1.1-.479-.418.638-.733.479.418ZM9.23,45.217,8.751,44.8l.182-.21.48.418Zm.957-1.1L9.708,43.7l.638-.733.479.418Zm1.185-1.361-.479-.418.182-.209.479.418Zm.957-1.1-.479-.418.638-.733.479.418ZM13.516,40.3l-.479-.418.182-.209.479.418Zm.957-1.1-.479-.418.638-.733.479.418Zm1.185-1.361-.479-.418.183-.209.479.418Zm.958-1.1-.479-.418.638-.733.479.418ZM17.8,35.378l-.48-.418.183-.21.479.418Zm.957-1.1-.479-.418.638-.733.479.418Zm1.185-1.361-.479-.418.182-.21.479.418Zm.957-1.1-.479-.418.638-.733.48.418Zm1.185-1.361-.479-.418.182-.209.479.418Zm.672-1.405-.6-.2.31-.921.6.2Zm.576-1.71-.6-.2.088-.263.6.2Zm.465-1.382-.6-.2.31-.921.6.2Zm.576-1.71-.6-.2.088-.263.6.2Zm.465-1.381-.6-.2.31-.921.6.2Zm.576-1.71-.6-.2.088-.263.6.2Zm.465-1.382-.6-.2.31-.921.6.2Zm.575-1.71-.6-.2.089-.263.6.2Zm.465-1.382-.6-.2.31-.921.6.2Zm.575-1.71-.6-.2.089-.263.6.2Zm.465-1.382-.6-.2.31-.921.6.2Zm.576-1.71-.6-.2.088-.263.6.2ZM29,10.5l-.6-.2.31-.921.6.2Zm.576-1.711-.6-.2.088-.263.6.2Zm.465-1.381-.6-.2.31-.921.6.2Z" transform="translate(-4.157 -4.47)" fill="#fff"/><path d="M82.292,99.063l-.3-.168.193-.347.3.167Zm-.91-.5-.3-.168.192-.348.3.168Zm-.91-.5-.3-.168.192-.348.3.168Zm-.91-.5-.3-.168.192-.348.3.168Zm-.91-.5-.3-.168.192-.348.3.168Zm-.91-.5-.3-.167.192-.348.3.168Zm-.91-.5-.3-.168.192-.347.3.167Zm-.91-.5-.3-.168.192-.348.3.168Zm-.91-.5-.3-.168.192-.348.3.168Zm-.91-.5-.3-.168.192-.348.3.168Zm-.91-.5-.3-.168.192-.348.3.168Zm-.91-.5-.3-.168.192-.347.3.168Zm-.91-.5-.3-.168.192-.347.3.168Zm-.91-.5-.3-.168.192-.348.3.168Zm-.91-.5-.3-.168.192-.348.3.168Zm-.91-.5-.3-.168L68.53,91l.3.168Zm-.91-.5-.3-.168.192-.348.3.168Zm-.91-.5-.3-.168.192-.348.3.168Zm-.91-.5-.3-.168.192-.348.3.168ZM65,89.5l-.3-.168.192-.348.3.168Zm-.91-.5-.3-.168.192-.348.3.168Zm-.91-.5-.3-.168.192-.348.3.168Zm-.91-.5-.3-.168.192-.348.3.168Z" transform="translate(-44.059 -62.198)" fill="#fff"/><path d="M132.684,97.919l-.2-.344.3-.174.2.344Zm.9-.522-.2-.344.3-.174.2.344Zm.9-.522-.2-.344.3-.174.2.344Zm.9-.522-.2-.344.3-.174.2.343Zm.9-.522-.2-.344.3-.174.2.344Zm.9-.522-.2-.344.3-.174.2.344Zm.9-.522-.2-.344.3-.174.2.344Zm.9-.522-.2-.344.3-.174.2.343Zm.9-.522-.2-.344.3-.174.2.344Zm.9-.522-.2-.344.3-.174.2.344Zm.9-.522-.2-.344.3-.174.2.344Zm.9-.522-.2-.344.3-.174.2.343Zm.9-.522-.2-.344.3-.174.2.344Zm.9-.522-.2-.344.3-.174.2.344Zm.9-.522-.2-.344.3-.174.2.344Zm.9-.522-.2-.344.3-.174.2.344Zm.9-.522-.2-.344.3-.174.2.344Zm.9-.522-.2-.344.3-.174.2.344Zm.9-.522-.2-.344.3-.174.2.344Zm.9-.522-.2-.343.3-.174.2.344Zm.9-.522-.2-.344.3-.174.2.343Zm.9-.522-.2-.344.3-.174.2.344Zm.9-.522-.2-.344.3-.174.2.344Z" transform="translate(-94.197 -61.086)" fill="#fff"/><path d="M197.35,47.712l-.181-.211.482-.414.181.21Zm-.95-1.106-.633-.737.483-.414.633.737Zm-1.175-1.369-.181-.21.482-.414.181.211Zm-.95-1.106-.633-.737.483-.414.633.737ZM193.1,42.762l-.181-.211.483-.414.181.211Zm-.949-1.106-.633-.737L192,40.5l.633.737Zm-1.176-1.369-.181-.211.483-.414.181.211Zm-.95-1.106-.633-.737.483-.414.633.737Zm-1.176-1.369-.181-.21.482-.414.181.211Zm-.95-1.106-.633-.737.483-.414.633.737Zm-1.176-1.369-.181-.211.483-.414.181.211Zm-.949-1.106-.633-.737.482-.414.633.738ZM184.6,32.863l-.181-.211.483-.414.181.211Zm-.95-1.106-.633-.737.483-.414.633.737Zm-1.176-1.369-.181-.211.483-.414.181.211Zm-.829-1.311-.32-.917.6-.21.32.918Zm-.594-1.7-.091-.262.6-.209.091.262ZM180.569,26l-.32-.918.6-.209.32.918Zm-.594-1.7-.091-.262.6-.209.091.262Zm-.48-1.376-.32-.917.6-.21.32.918Zm-.594-1.7-.091-.262.6-.209L179.5,21Zm-.48-1.376-.32-.918.6-.21.32.918Zm-.594-1.7-.092-.262.6-.21.092.262Zm-.48-1.376-.32-.918.6-.209.32.917Zm-.594-1.7-.092-.262.6-.209.092.262Zm-.48-1.376-.32-.918.6-.21.32.918Zm-.594-1.7-.091-.262.6-.21.091.262Zm-.48-1.376-.32-.918.6-.209.32.918Zm-.594-1.7-.091-.262.6-.209.091.262Zm-.48-1.376L173.8,6.6l.6-.209.32.917Z" transform="translate(-123.576 -4.542)" fill="#fff"/><path d="M47.423,212.035l-.11-.626.135.622Zm1.187-.207-.11-.626.957-.167.11.626Zm1.778-.311-.11-.626.274-.048.11.626Zm1.436-.251-.11-.626.957-.168.11.626Zm1.778-.311-.11-.626.274-.048.11.626Zm1.436-.251-.11-.626.957-.167.11.626Zm1.778-.311-.11-.626.274-.048.109.626Zm1.436-.251-.109-.626.957-.167.109.626Zm1.778-.311-.11-.626.274-.048.11.626Zm1.436-.251-.11-.626.957-.168.11.626Zm1.777-.311-.109-.626.273-.048.11.626Zm1.436-.251-.11-.626.957-.167.11.626Zm1.778-.311-.11-.626.273-.048.11.626Zm1.436-.251-.11-.626.957-.167.11.626Zm1.778-.311-.11-.626.273-.048.11.626Zm1.436-.251-.11-.626.957-.167.11.626Z" transform="translate(-33.64 -147.25)" fill="#fff"/><path d="M132.466,150.26h-.4v-.347h.4Zm0-1.04h-.4v-.346h.4Zm0-1.04h-.4v-.347h.4Zm0-1.04h-.4v-.347h.4Zm0-1.04h-.4v-.347h.4Zm0-1.04h-.4v-.347h.4Zm0-1.04h-.4v-.347h.4Zm0-1.04h-.4v-.347h.4Zm0-1.04h-.4v-.347h.4Zm0-1.04h-.4v-.347h.4Zm0-1.04h-.4v-.347h.4Zm0-1.04h-.4v-.346h.4Zm0-1.04h-.4v-.347h.4Zm0-1.04h-.4v-.347h.4Zm0-1.04h-.4v-.347h.4Zm0-1.04h-.4v-.347h.4Zm0-1.04h-.4v-.347h.4Zm0-1.04h-.4v-.347h.4Zm0-1.04h-.4V131.2h.4Zm0-1.04h-.4v-.347h.4Zm0-1.04h-.4v-.347h.4Zm0-1.04h-.4v-.347h.4Zm0-1.04h-.4v-.347h.4Z" transform="translate(-93.902 -90.323)" fill="#fff"/><path d="M156.179,212.073l-.955-.177.116-.625.955.177Zm-1.774-.329-.273-.051.116-.625.273.051Zm-1.433-.266-.955-.177.116-.625.955.177Zm-1.774-.329-.273-.051.116-.625.273.051Zm-1.433-.266-.956-.177.116-.625.956.177Zm-1.774-.329-.273-.051.116-.625.273.051Zm-1.433-.266-.955-.177.116-.625.955.177Zm-1.774-.329-.273-.051.116-.625.273.051Zm-1.433-.266-.955-.177.116-.625.955.177Zm-1.774-.329-.273-.051.116-.625.273.051Zm-1.433-.266-.955-.177.116-.625.956.177Zm-1.774-.329-.273-.051.116-.625.273.051Zm-1.433-.266-.956-.177.116-.625.955.177Zm-1.774-.329-.273-.051L135,207.5l.273.051Zm-1.433-.266-.955-.177.116-.625.955.177Z" transform="translate(-94.401 -147.252)" fill="#fff"/><path d="M54.347,75.692h-24.3L17.407,68.616,5.5,47.823V33.669l.043-.074L17.905,12.38l11.8-6.911H54.518L66.65,12.715l.041.071L78.72,33.5V47.49l-.041.073L66.649,68.781Zm-24.139-.636H54.181l12-6.742,11.9-20.992V33.674l-11.9-20.5L54.342,6.1H29.878L18.371,12.844l-12.234,21V47.654L17.871,68.147Z" transform="translate(-3.911 -3.888)" fill="#fff"/><path d="M53.172,69.25l-.316-.552L72.924,57.209V34.68l-23.9-4.94.129-.623,24.409,5.045V57.578Z" transform="translate(-34.854 -20.702)" fill="#fff"/><rect width="24.546" height="0.636" transform="translate(38.347 13.406) rotate(-10.927)" fill="#fff"/><rect width="0.636" height="23.107" transform="translate(38.227 36.966) rotate(-59.833)" fill="#fff"/><path d="M30.01,144.365l-8.032-23.1L5.85,102.892l.478-.419,16.209,18.464.021.059,8.053,23.16Z" transform="translate(-4.16 -72.859)" fill="#fff"/><path d="M173.865,144.128l-.6-.209,8.073-23.219,16.135-18.649.481.416L181.9,121.024Z" transform="translate(-123.192 -72.559)" fill="#fff"/><g clip-path="url(#a)"><g transform="translate(55.726 22.184)" opacity="0.1"><g clip-path="url(#c)"><path d="M198.494,79.6a2.833,2.833,0,1,1-2.834-2.834,2.834,2.834,0,0,1,2.834,2.834" transform="translate(-192.827 -76.764)" fill="#fff"/></g></g><g transform="translate(56.651 23.11)" opacity="0.2"><g clip-path="url(#d)"><path d="M199.845,81.875a1.908,1.908,0,1,1-1.909-1.908,1.909,1.909,0,0,1,1.909,1.908" transform="translate(-196.028 -79.967)" fill="#fff"/></g></g><path d="M201.1,83.983a1.051,1.051,0,1,1-1.051-1.051,1.05,1.05,0,0,1,1.051,1.051" transform="translate(-141.487 -58.965)" fill="#fff"/><g transform="translate(48.598)" opacity="0.1"><g clip-path="url(#e)"><path d="M171.977,1.909A1.908,1.908,0,1,1,170.068,0a1.909,1.909,0,0,1,1.909,1.908" transform="translate(-168.161 -0.001)" fill="#fff"/></g></g><path d="M173.229,4.017a1.051,1.051,0,1,1-1.051-1.051,1.05,1.05,0,0,1,1.051,1.051" transform="translate(-121.673 -2.109)" fill="#fff"/><g transform="translate(24.014)" opacity="0.1"><g clip-path="url(#e)"><path d="M86.912,1.909A1.908,1.908,0,1,1,85,0a1.909,1.909,0,0,1,1.909,1.908" transform="translate(-83.096 -0.001)" fill="#fff"/></g></g><path d="M88.165,4.017a1.05,1.05,0,1,1-1.05-1.051,1.05,1.05,0,0,1,1.05,1.051" transform="translate(-61.192 -2.109)" fill="#fff"/><g transform="translate(12.292 6.835)" opacity="0.1"><g clip-path="url(#g)"><path d="M46.349,25.558a1.908,1.908,0,1,1-1.909-1.908,1.909,1.909,0,0,1,1.909,1.908" transform="translate(-42.533 -23.65)" fill="#fff"/></g></g><path d="M47.6,27.667a1.051,1.051,0,1,1-1.05-1.051,1.05,1.05,0,0,1,1.05,1.051" transform="translate(-32.351 -18.924)" fill="#fff"/><g transform="translate(48.492 69.451)" opacity="0.1"><g clip-path="url(#e)"><path d="M171.611,242.224a1.908,1.908,0,1,1-1.909-1.908,1.909,1.909,0,0,1,1.909,1.908" transform="translate(-167.795 -240.316)" fill="#fff"/></g></g><path d="M172.863,244.333a1.051,1.051,0,1,1-1.051-1.051,1.051,1.051,0,0,1,1.051,1.051" transform="translate(-121.412 -172.974)" fill="#fff"/><g transform="translate(60.572 62.722)" opacity="0.1"><g clip-path="url(#e)"><path d="M213.411,218.942a1.908,1.908,0,1,1-1.909-1.908,1.909,1.909,0,0,1,1.909,1.908" transform="translate(-209.595 -217.034)" fill="#fff"/></g></g><path d="M214.664,221.05A1.051,1.051,0,1,1,213.613,220a1.051,1.051,0,0,1,1.051,1.051" transform="translate(-151.133 -156.42)" fill="#fff"/><g transform="translate(72.599 41.635)" opacity="0.1"><g clip-path="url(#d)"><path d="M255.029,145.974a1.908,1.908,0,1,1-1.909-1.908,1.909,1.909,0,0,1,1.909,1.908" transform="translate(-251.212 -144.066)" fill="#fff"/></g></g><path d="M256.28,148.083a1.05,1.05,0,1,1-1.051-1.051,1.05,1.05,0,0,1,1.051,1.051" transform="translate(-180.722 -104.54)" fill="#fff"/><g transform="translate(72.652 27.806)" opacity="0.1"><g clip-path="url(#d)"><path d="M255.212,98.125a1.908,1.908,0,1,1-1.909-1.908,1.909,1.909,0,0,1,1.909,1.908" transform="translate(-251.395 -96.217)" fill="#fff"/></g></g><path d="M256.465,100.234a1.05,1.05,0,1,1-1.051-1.051,1.051,1.051,0,0,1,1.051,1.051" transform="translate(-180.854 -70.52)" fill="#fff"/><g transform="translate(60.625 7.143)" opacity="0.1"><g clip-path="url(#d)"><path d="M213.595,26.625a1.908,1.908,0,1,1-1.909-1.908,1.909,1.909,0,0,1,1.909,1.908" transform="translate(-209.778 -24.717)" fill="#fff"/></g></g><path d="M214.847,28.734a1.051,1.051,0,1,1-1.051-1.051,1.05,1.05,0,0,1,1.051,1.051" transform="translate(-151.263 -19.683)" fill="#fff"/><g transform="translate(24.279 69.557)" opacity="0.1"><g clip-path="url(#d)"><path d="M87.829,242.591a1.908,1.908,0,1,1-1.909-1.908,1.909,1.909,0,0,1,1.909,1.908" transform="translate(-84.012 -240.683)" fill="#fff"/></g></g><path d="M89.082,244.7a1.051,1.051,0,1,1-1.051-1.051,1.051,1.051,0,0,1,1.051,1.051" transform="translate(-61.844 -173.236)" fill="#fff"/><g transform="translate(11.829 62.563)" opacity="0.1"><g clip-path="url(#e)"><path d="M44.746,218.392a1.908,1.908,0,1,1-1.909-1.908,1.909,1.909,0,0,1,1.909,1.908" transform="translate(-40.93 -216.484)" fill="#fff"/></g></g><path d="M46,220.5a1.051,1.051,0,1,1-1.051-1.051A1.05,1.05,0,0,1,46,220.5" transform="translate(-31.21 -156.03)" fill="#fff"/><g transform="translate(15.089 22.608)" opacity="0.1"><g clip-path="url(#c)"><path d="M57.878,81.063a2.833,2.833,0,1,1-2.834-2.834,2.834,2.834,0,0,1,2.834,2.834" transform="translate(-52.211 -78.229)" fill="#fff"/></g></g><g transform="translate(16.014 23.534)" opacity="0.2"><g clip-path="url(#p)"><path d="M59.228,83.34a1.908,1.908,0,1,1-1.909-1.908,1.909,1.909,0,0,1,1.909,1.908" transform="translate(-55.412 -81.432)" fill="#fff"/></g></g><path d="M60.48,85.449A1.051,1.051,0,1,1,59.43,84.4a1.051,1.051,0,0,1,1.051,1.051" transform="translate(-41.508 -60.007)" fill="#fff"/><g transform="translate(0 27.984)" opacity="0.1"><g clip-path="url(#e)"><path d="M3.816,98.741a1.908,1.908,0,1,1-1.909-1.908,1.909,1.909,0,0,1,1.909,1.908" transform="translate(0 -96.833)" fill="#fff"/></g></g><path d="M5.069,100.849A1.051,1.051,0,1,1,4.018,99.8a1.051,1.051,0,0,1,1.051,1.051" transform="translate(-2.11 -70.957)" fill="#fff"/><g transform="translate(0 41.932)" opacity="0.1"><g clip-path="url(#e)"><path d="M3.816,147A1.908,1.908,0,1,1,1.908,145.1,1.909,1.909,0,0,1,3.816,147" transform="translate(0 -145.096)" fill="#fff"/></g></g><path d="M5.069,149.112a1.051,1.051,0,1,1-1.051-1.051,1.051,1.051,0,0,1,1.051,1.051" transform="translate(-2.11 -105.272)" fill="#fff"/><g transform="translate(35.54 57.312)" opacity="0.1"><g clip-path="url(#c)"><path d="M128.645,201.147a2.833,2.833,0,1,1-2.834-2.834,2.834,2.834,0,0,1,2.834,2.834" transform="translate(-122.978 -198.313)" fill="#fff"/></g></g><g transform="translate(36.465 58.237)" opacity="0.2"><g clip-path="url(#e)"><path d="M130,203.423a1.908,1.908,0,1,1-1.909-1.908A1.909,1.909,0,0,1,130,203.423" transform="translate(-126.179 -201.515)" fill="#fff"/></g></g><path d="M131.248,205.532a1.05,1.05,0,1,1-1.051-1.051,1.05,1.05,0,0,1,1.051,1.051" transform="translate(-91.824 -145.387)" fill="#fff"/><path d="M130.56,123.174a1.55,1.55,0,1,1-1.55-1.55,1.55,1.55,0,0,1,1.55,1.55" transform="translate(-90.625 -86.475)" fill="#fff"/><g transform="translate(35.75 34.064)" opacity="0.2"><g clip-path="url(#u)"><path d="M128.975,120.506a2.635,2.635,0,1,1-2.634-2.635,2.635,2.635,0,0,1,2.634,2.635" transform="translate(-123.705 -117.871)" fill="#fff"/></g></g><g transform="translate(34.433 32.746)" opacity="0.1"><g clip-path="url(#v)"><path d="M127.051,117.264a3.952,3.952,0,1,1-3.952-3.953,3.953,3.953,0,0,1,3.952,3.953" transform="translate(-119.146 -113.311)" fill="#fff"/></g></g><path d="M130.56,43.465a1.55,1.55,0,1,1-1.55-1.55,1.549,1.549,0,0,1,1.55,1.55" transform="translate(-90.625 -29.802)" fill="#fff"/><g transform="translate(35.75 11.028)" opacity="0.2"><g clip-path="url(#u)"><path d="M128.975,40.8a2.635,2.635,0,1,1-2.634-2.635,2.635,2.635,0,0,1,2.634,2.635" transform="translate(-123.705 -38.161)" fill="#fff"/></g></g><g transform="translate(34.433 9.711)" opacity="0.1"><g clip-path="url(#v)"><path d="M127.051,37.555A3.952,3.952,0,1,1,123.1,33.6a3.953,3.953,0,0,1,3.952,3.953" transform="translate(-119.146 -33.602)" fill="#fff"/></g></g><path d="M60.485,163.3a1.55,1.55,0,1,1-1.55-1.55,1.55,1.55,0,0,1,1.55,1.55" transform="translate(-40.801 -115.008)" fill="#fff"/><g transform="translate(15.499 45.661)" opacity="0.2"><g clip-path="url(#u)"><path d="M58.9,160.635A2.635,2.635,0,1,1,56.266,158a2.635,2.635,0,0,1,2.635,2.635" transform="translate(-53.631 -158)" fill="#fff"/></g></g><g transform="translate(14.182 44.344)" opacity="0.1"><g clip-path="url(#z)"><path d="M56.977,157.394a3.952,3.952,0,1,1-3.952-3.953,3.953,3.953,0,0,1,3.952,3.953" transform="translate(-49.072 -153.441)" fill="#fff"/></g></g><path d="M199.818,163.3a1.55,1.55,0,1,1-1.55-1.55,1.55,1.55,0,0,1,1.55,1.55" transform="translate(-139.867 -115.008)" fill="#fff"/><g transform="translate(55.766 45.661)" opacity="0.2"><g clip-path="url(#u)"><path d="M198.234,160.635A2.635,2.635,0,1,1,195.6,158a2.635,2.635,0,0,1,2.635,2.635" transform="translate(-192.964 -158)" fill="#fff"/></g></g><g transform="translate(54.448 44.344)" opacity="0.1"><g clip-path="url(#v)"><path d="M196.31,157.394a3.952,3.952,0,1,1-3.952-3.953,3.953,3.953,0,0,1,3.952,3.953" transform="translate(-188.405 -153.441)" fill="#fff"/></g></g></g></g></svg>