<svg xmlns="http://www.w3.org/2000/svg" width="557.695" height="562.535" viewBox="0 0 557.695 562.535"><g transform="translate(-60 -299.07)"><path d="M556.945,305.882c0,153.7-124.606,278.325-278.378,278.325C124.815,584.207.25,459.587.25,305.882S124.815,27.517,278.567,27.517C432.339,27.517,556.945,152.178,556.945,305.882Z" transform="translate(60.25 276.899)"/><path d="M278.567,584.707a280.946,280.946,0,0,1-56.2-5.665,277.268,277.268,0,0,1-99.705-41.957,279.6,279.6,0,0,1-101-122.676A277.456,277.456,0,0,1,5.413,362.072a281.608,281.608,0,0,1,0-112.38A277.388,277.388,0,0,1,47.357,149.98,279.612,279.612,0,0,1,170.021,48.937a277.371,277.371,0,0,1,52.343-16.253,281.576,281.576,0,0,1,112.414,0A277.342,277.342,0,0,1,434.5,74.652a279.694,279.694,0,0,1,101.03,122.7,277.471,277.471,0,0,1,16.247,52.342,281.523,281.523,0,0,1,0,112.381,277.283,277.283,0,0,1-41.956,99.7A279.654,279.654,0,0,1,387.131,562.794a277.514,277.514,0,0,1-52.353,16.248A281.034,281.034,0,0,1,278.567,584.707Zm0-556.69a279.866,279.866,0,0,0-56,5.647A276.242,276.242,0,0,0,123.219,75.48,278.674,278.674,0,0,0,22.576,197.739,276.522,276.522,0,0,0,6.393,249.892a280.608,280.608,0,0,0,0,111.98,276.314,276.314,0,0,0,41.793,99.341A278.579,278.579,0,0,0,170.41,561.873a276.4,276.4,0,0,0,52.154,16.189,280.663,280.663,0,0,0,112.013,0,276.365,276.365,0,0,0,99.366-41.806A278.628,278.628,0,0,0,534.612,414.02,276.4,276.4,0,0,0,550.8,361.871a280.521,280.521,0,0,0,0-111.98A276.353,276.353,0,0,0,509,150.54,278.686,278.686,0,0,0,386.741,49.857a276.475,276.475,0,0,0-52.164-16.194A279.955,279.955,0,0,0,278.567,28.017Z" transform="translate(60.25 276.899)" fill="#fff"/><path d="M478.236,265.978c0,131.67-106.988,238.426-239.019,238.426C107.2,504.4.25,397.648.25,265.978S107.2,27.517,239.217,27.517C371.248,27.517,478.236,134.308,478.236,265.978Z" transform="translate(98.25 314.983)"/><path d="M239.217,505.9a242.836,242.836,0,0,1-48.471-4.875,239.935,239.935,0,0,1,0-470.136,243.381,243.381,0,0,1,96.948,0,239.928,239.928,0,0,1,0,470.136A242.91,242.91,0,0,1,239.217,505.9Zm0-476.886a239.759,239.759,0,0,0-47.87,4.816,236.406,236.406,0,0,0-84.916,35.661A237.724,237.724,0,0,0,20.405,173.755,235.406,235.406,0,0,0,6.573,218.229a238.769,238.769,0,0,0,0,95.5,235.343,235.343,0,0,0,35.722,84.714,237.773,237.773,0,0,0,415.781-40.244,235.306,235.306,0,0,0,13.836-44.47,238.7,238.7,0,0,0,0-95.5,235.373,235.373,0,0,0-35.732-84.724A237.292,237.292,0,0,0,239.217,29.017Z" transform="translate(98.25 314.983)" fill="#fff"/><g transform="translate(331.9 299.141) rotate(29)"><g transform="translate(0 0.386)"><path d="M34.342,17.173A17.171,17.171,0,1,1,17.169,0,17.171,17.171,0,0,1,34.342,17.173Z" transform="translate(0)"/><path d="M17.169,34.643A17.467,17.467,0,0,1,4.816,4.819,17.476,17.476,0,1,1,17.169,34.643ZM17.169.3A16.873,16.873,0,0,0,5.24,29.1,16.872,16.872,0,1,0,29.1,5.243,16.762,16.762,0,0,0,17.169.3Z" transform="translate(0)" fill="#fff"/></g><g transform="translate(3.265 3.65)"><path d="M27.813,13.908A13.906,13.906,0,1,1,13.9,0,13.906,13.906,0,0,1,27.813,13.908Z" fill="#151515"/><path d="M13.9,28.314A14.407,14.407,0,0,1,3.718,3.721,14.407,14.407,0,1,1,24.093,24.094,14.315,14.315,0,0,1,13.9,28.314ZM13.9.5A13.408,13.408,0,0,0,4.425,23.387,13.407,13.407,0,1,0,23.386,4.428,13.32,13.32,0,0,0,13.9.5Z" fill="#fff"/></g><path d="M11.68,2,1.731,19.246h19.9L11.68,2m0-2,11.68,20.246H0Z" transform="translate(0.71 11.68) rotate(-30)" fill="#fff"/><g transform="translate(11.471 11.422)"><path d="M12.27,6.136A6.135,6.135,0,1,1,6.135,0,6.135,6.135,0,0,1,12.27,6.136Z"/><path d="M6.135,12.771A6.635,6.635,0,1,1,12.77,6.136,6.642,6.642,0,0,1,6.135,12.771ZM6.135.5A5.635,5.635,0,1,0,11.77,6.136,5.642,5.642,0,0,0,6.135.5Z" fill="#fff"/></g></g><g transform="translate(253 315.756)"><g transform="translate(0 0)"><path d="M32.658,43.723A16.2,16.2,0,1,1,16.452,27.517,16.2,16.2,0,0,1,32.658,43.723Z" transform="translate(-0.25 -27.517)"/><path d="M16.452,60.176a16.454,16.454,0,1,1,11.637-4.819A16.344,16.344,0,0,1,16.452,60.176Zm0-32.409a15.956,15.956,0,1,0,11.283,4.674A15.845,15.845,0,0,0,16.452,27.767Z" transform="translate(-0.25 -27.517)" fill="#fff"/></g><g transform="translate(3.699 3.699)"><path d="M24.975,39.881A12.363,12.363,0,1,1,12.611,27.517,12.363,12.363,0,0,1,24.975,39.881Z" transform="translate(-0.25 -27.517)"/><path d="M12.611,52.743a12.863,12.863,0,1,1,9.1-3.767A12.776,12.776,0,0,1,12.611,52.743Zm0-24.726A11.864,11.864,0,1,0,21,31.492,11.782,11.782,0,0,0,12.611,28.017Z" transform="translate(-0.25 -27.517)" fill="#fff"/></g><path d="M18.41,0l6.137,10.082L18.41,20.163H6.137L0,10.082,6.137,0Z" transform="translate(17.611 32.012) rotate(-135)"/><path d="M6.7,1,1.171,10.082,6.7,19.163H17.848l5.528-9.082L17.848,1H6.7M6.137,0H18.41l6.137,10.082L18.41,20.163H6.137L0,10.082Z" transform="translate(17.611 32.012) rotate(-135)" fill="#fff"/><path d="M12.094,0l4.031,6.623-4.031,6.623H4.031L0,6.623,4.031,0Z" transform="translate(17.08 26.588) rotate(-135)"/><path d="M4.312.5.585,6.623l3.727,6.123h7.5l3.727-6.123L11.813.5h-7.5M4.031,0h8.062l4.031,6.623-4.031,6.623H4.031L0,6.623Z" transform="translate(17.08 26.588) rotate(-135)" fill="#fff"/></g><g transform="translate(338.204 824.974) rotate(29)"><path d="M22.911,11.457A11.455,11.455,0,1,1,11.454,0,11.455,11.455,0,0,1,22.911,11.457Z"/><path d="M11.454,23.212A11.756,11.756,0,0,1,3.142,3.144,11.756,11.756,0,1,1,19.768,19.769,11.681,11.681,0,0,1,11.454,23.212ZM11.454.3A11.157,11.157,0,0,0,3.566,19.344,11.156,11.156,0,1,0,19.344,3.568,11.083,11.083,0,0,0,11.454.3Z" fill="#fff"/><g transform="translate(2.178 2.178)"><path d="M18.555,9.279A9.278,9.278,0,1,1,9.277,0,9.278,9.278,0,0,1,18.555,9.279Z" fill="#151515"/><path d="M9.277,19.056a9.778,9.778,0,1,1,9.779-9.777A9.788,9.788,0,0,1,9.277,19.056ZM9.277.5a8.778,8.778,0,1,0,8.779,8.779A8.787,8.787,0,0,0,9.277.5Z" fill="#fff"/></g></g><g transform="translate(381.173 817.294) rotate(29)"><g transform="translate(0)"><path d="M26.854,13.428A13.427,13.427,0,1,1,13.425,0,13.427,13.427,0,0,1,26.854,13.428Z" transform="translate(0 0)"/><path d="M13.425,27.155A13.728,13.728,0,0,1,3.719,3.722,13.727,13.727,0,1,1,23.133,23.134,13.639,13.639,0,0,1,13.425,27.155ZM13.425.3A13.128,13.128,0,0,0,4.144,22.71,13.127,13.127,0,1,0,22.709,4.146,13.042,13.042,0,0,0,13.425.3Z" transform="translate(0 0)" fill="#fff"/></g></g><g transform="translate(420.16 817.294) rotate(29)"><g transform="translate(0 0)"><path d="M11.529,5.765A5.764,5.764,0,1,1,5.764,0,5.764,5.764,0,0,1,11.529,5.765Z" transform="translate(0 0)"/><path d="M5.764,11.829a6.064,6.064,0,1,1,6.065-6.064A6.071,6.071,0,0,1,5.764,11.829ZM5.764.3a5.464,5.464,0,1,0,5.465,5.465A5.47,5.47,0,0,0,5.764.3Z" transform="translate(0 0)" fill="#fff"/></g></g></g></svg>