<svg xmlns="http://www.w3.org/2000/svg" xmlns:xlink="http://www.w3.org/1999/xlink" width="970.678" height="971.678" viewBox="0 0 970.678 971.678"><defs><clipPath id="a"><rect width="75.642" height="72.749" fill="none"/></clipPath><clipPath id="b"><rect width="75.642" height="72.748" fill="none"/></clipPath><clipPath id="c"><rect width="12.636" height="12.634" fill="none"/></clipPath><clipPath id="d"><rect width="12.636" height="12.633" fill="none"/></clipPath><clipPath id="e"><rect width="93.932" height="137.383" fill="none"/></clipPath><clipPath id="g"><rect width="11.922" height="11.919" fill="none"/></clipPath><clipPath id="h"><rect width="11.921" height="11.919" fill="none"/></clipPath><clipPath id="i"><rect width="77.504" height="113.763" fill="none"/></clipPath><clipPath id="k"><rect width="11.921" height="11.92" fill="none"/></clipPath><clipPath id="m"><rect width="91.11" height="78.803" fill="none"/></clipPath><clipPath id="q"><rect width="86.981" height="148.793" fill="none"/></clipPath><clipPath id="v"><rect width="81.679" height="84.55" fill="none"/></clipPath><clipPath id="x"><rect width="13.32" height="13.318" fill="none"/></clipPath><clipPath id="y"><rect width="59.166" height="48.911" fill="none"/></clipPath><clipPath id="z"><rect width="59.166" height="48.91" fill="none"/></clipPath><clipPath id="aa"><rect width="11.922" height="11.92" fill="none"/></clipPath><clipPath id="ab"><rect width="11.923" height="11.921" fill="none"/></clipPath><clipPath id="ac"><rect width="73.861" height="128.717" fill="none"/></clipPath></defs><g transform="translate(68.762 20.303)"><path d="M358.406,745.407a365.549,365.549,0,0,1-36.78-1.857A359.12,359.12,0,0,1,.606,422.508a365.131,365.131,0,0,1,0-73.541A359.112,359.112,0,0,1,321.626,27.875a365.087,365.087,0,0,1,73.565,0A359.2,359.2,0,0,1,716.284,348.968a365.009,365.009,0,0,1,0,73.541A359.18,359.18,0,0,1,395.191,743.55,365.655,365.655,0,0,1,358.406,745.407Zm0-716.39a362.4,362.4,0,0,0-36.477,1.842A356.184,356.184,0,0,0,3.591,349.271a362.136,362.136,0,0,0,0,72.935A356.1,356.1,0,0,0,321.93,740.565a362.218,362.218,0,0,0,72.959,0A356.131,356.131,0,0,0,713.3,422.205a362,362,0,0,0,0-72.934A356.195,356.195,0,0,0,394.888,30.859,362.508,362.508,0,0,0,358.406,29.017Z" transform="translate(58.047 79.827)" fill="#fff"/><path d="M358.406,745.407a365.549,365.549,0,0,1-36.78-1.857A359.12,359.12,0,0,1,.606,422.508a365.131,365.131,0,0,1,0-73.541A359.112,359.112,0,0,1,321.626,27.875a365.087,365.087,0,0,1,73.565,0A359.2,359.2,0,0,1,716.284,348.968a365.009,365.009,0,0,1,0,73.541A359.18,359.18,0,0,1,395.191,743.55,365.655,365.655,0,0,1,358.406,745.407Zm0-716.39a362.4,362.4,0,0,0-36.477,1.842A356.184,356.184,0,0,0,3.591,349.271a362.136,362.136,0,0,0,0,72.935A356.1,356.1,0,0,0,321.93,740.565a362.218,362.218,0,0,0,72.959,0A356.131,356.131,0,0,0,713.3,422.205a362,362,0,0,0,0-72.934A356.195,356.195,0,0,0,394.888,30.859,362.508,362.508,0,0,0,358.406,29.017Z" transform="translate(58.047 79.827)" fill="#fff"/><path d="M5887.848-5220.307l1.16.187,291,47v1.975l-292.16,47.187Zm285.729,48.174-283.729-45.826v91.651Z" transform="translate(-5404.55 5638.132)" fill="#fff"/><path d="M6074.039-5423.577l1.4,1.4-173.221,239.955-68.129-68.129.952-.687ZM5901.967-5185.3l168.223-233.03-233.03,168.223Z" transform="translate(-5404.55 5635.018)" fill="#fff"/><path d="M5820.354-5456.16h1.975L5869.515-5164h-96.349l.187-1.16ZM5867.167-5166l-45.826-283.729L5775.515-5166Z" transform="translate(-5404.55 5563.344)" fill="#fff"/><path d="M5577.819-5423.577l239.955,173.221-68.129,68.129-.687-.952-172.534-239ZM5814.7-5250.108l-233.03-168.223,168.223,233.03Z" transform="translate(-5414.26 5635.132)" fill="#fff"/><path d="M5836-5220.307v96.349l-1.16-.187-291-47v-1.975Zm-2,94v-91.651l-283.729,45.826Z" transform="translate(-5485.702 5638.132)" fill="#fff"/><path d="M5577.82-4918.5l-1.4-1.4,173.221-239.955,68.129,68.129-.952.688Zm172.072-238.276-168.223,233.03,233.03-168.223Z" transform="translate(-5413.724 5638.132)" fill="#fff"/><path d="M5822.328-4814.239h-1.975l-47.187-292.16h96.349l-.187,1.16Zm-46.813-290.16,45.826,283.729,45.826-283.729Z" transform="translate(-5404.55 5638.132)" fill="#fff"/><path d="M6073.934-4917.958,5833.98-5091.18l68.129-68.129.688.952,172.534,239Zm-236.879-173.468,233.03,168.223-168.223-233.03Z" transform="translate(-5404.55 5638.132)" fill="#fff"/><g transform="translate(-160 -55.266)"><path d="M218.173,194.685a85.339,85.339,0,1,1-85.336-85.336A85.339,85.339,0,0,1,218.173,194.685Z" transform="translate(842.243 326.114)"/><path d="M132.837,107.849a87.5,87.5,0,0,1,17.5,1.764,86.369,86.369,0,0,1,31.053,13.065,87.068,87.068,0,0,1,31.459,38.2,86.413,86.413,0,0,1,5.06,16.3,87.7,87.7,0,0,1,0,35,86.388,86.388,0,0,1-13.066,31.058,87.079,87.079,0,0,1-38.2,31.463,86.4,86.4,0,0,1-16.3,5.061,87.679,87.679,0,0,1-35,0A86.37,86.37,0,0,1,84.279,266.7a87.086,87.086,0,0,1-31.46-38.209,86.431,86.431,0,0,1-5.06-16.3,87.7,87.7,0,0,1,0-35,86.363,86.363,0,0,1,13.067-31.055,87.072,87.072,0,0,1,38.206-31.457,86.431,86.431,0,0,1,16.3-5.059A87.514,87.514,0,0,1,132.837,107.849Zm0,170.685a84.463,84.463,0,0,0,16.9-1.7,83.362,83.362,0,0,0,29.975-12.615,84.089,84.089,0,0,0,30.375-36.892,83.43,83.43,0,0,0,4.884-15.738,84.7,84.7,0,0,0,0-33.8,83.366,83.366,0,0,0-12.613-29.976,84.07,84.07,0,0,0-36.886-30.373,83.411,83.411,0,0,0-15.735-4.883,84.705,84.705,0,0,0-33.8,0,83.375,83.375,0,0,0-29.978,12.612,84.065,84.065,0,0,0-30.376,36.885A83.407,83.407,0,0,0,50.7,177.785a84.7,84.7,0,0,0,0,33.8,83.385,83.385,0,0,0,12.613,29.98,84.081,84.081,0,0,0,36.889,30.38,83.409,83.409,0,0,0,15.737,4.885A84.482,84.482,0,0,0,132.837,278.534Z" transform="translate(842.243 326.114)" fill="#fff"/><path d="M218.173,194.685a85.339,85.339,0,1,1-85.336-85.336A85.339,85.339,0,0,1,218.173,194.685Z" transform="translate(45.243 326.114)"/><path d="M132.837,107.849a87.5,87.5,0,0,1,17.5,1.764,86.369,86.369,0,0,1,31.053,13.065,87.068,87.068,0,0,1,31.459,38.2,86.413,86.413,0,0,1,5.06,16.3,87.7,87.7,0,0,1,0,35,86.388,86.388,0,0,1-13.066,31.058,87.079,87.079,0,0,1-38.2,31.463,86.4,86.4,0,0,1-16.3,5.061,87.679,87.679,0,0,1-35,0A86.37,86.37,0,0,1,84.279,266.7a87.086,87.086,0,0,1-31.46-38.209,86.431,86.431,0,0,1-5.06-16.3,87.7,87.7,0,0,1,0-35,86.363,86.363,0,0,1,13.067-31.055,87.072,87.072,0,0,1,38.206-31.457,86.431,86.431,0,0,1,16.3-5.059A87.514,87.514,0,0,1,132.837,107.849Zm0,170.685a84.463,84.463,0,0,0,16.9-1.7,83.362,83.362,0,0,0,29.975-12.615,84.089,84.089,0,0,0,30.375-36.892,83.43,83.43,0,0,0,4.884-15.738,84.7,84.7,0,0,0,0-33.8,83.366,83.366,0,0,0-12.613-29.976,84.07,84.07,0,0,0-36.886-30.373,83.411,83.411,0,0,0-15.735-4.883,84.705,84.705,0,0,0-33.8,0,83.375,83.375,0,0,0-29.978,12.612,84.065,84.065,0,0,0-30.376,36.885A83.407,83.407,0,0,0,50.7,177.785a84.7,84.7,0,0,0,0,33.8,83.385,83.385,0,0,0,12.613,29.98,84.081,84.081,0,0,0,36.889,30.38,83.409,83.409,0,0,0,15.737,4.885A84.482,84.482,0,0,0,132.837,278.534Z" transform="translate(45.243 326.114)" fill="#fff"/><path d="M218.173,194.685a85.339,85.339,0,1,1-85.336-85.336A85.339,85.339,0,0,1,218.173,194.685Z" transform="translate(727.666 46.692)"/><path d="M132.837,107.849a87.5,87.5,0,0,1,17.5,1.764,86.369,86.369,0,0,1,31.053,13.065,87.068,87.068,0,0,1,31.459,38.2,86.413,86.413,0,0,1,5.06,16.3,87.7,87.7,0,0,1,0,35,86.388,86.388,0,0,1-13.066,31.058,87.079,87.079,0,0,1-38.2,31.463,86.4,86.4,0,0,1-16.3,5.061,87.679,87.679,0,0,1-35,0A86.37,86.37,0,0,1,84.279,266.7a87.086,87.086,0,0,1-31.46-38.209,86.431,86.431,0,0,1-5.06-16.3,87.7,87.7,0,0,1,0-35,86.363,86.363,0,0,1,13.067-31.055,87.072,87.072,0,0,1,38.206-31.457,86.431,86.431,0,0,1,16.3-5.059A87.514,87.514,0,0,1,132.837,107.849Zm0,170.685a84.463,84.463,0,0,0,16.9-1.7,83.362,83.362,0,0,0,29.975-12.615,84.089,84.089,0,0,0,30.375-36.892,83.43,83.43,0,0,0,4.884-15.738,84.7,84.7,0,0,0,0-33.8,83.366,83.366,0,0,0-12.613-29.976,84.07,84.07,0,0,0-36.886-30.373,83.411,83.411,0,0,0-15.735-4.883,84.705,84.705,0,0,0-33.8,0,83.375,83.375,0,0,0-29.978,12.612,84.065,84.065,0,0,0-30.376,36.885A83.407,83.407,0,0,0,50.7,177.785a84.7,84.7,0,0,0,0,33.8,83.385,83.385,0,0,0,12.613,29.98,84.081,84.081,0,0,0,36.889,30.38,83.409,83.409,0,0,0,15.737,4.885A84.482,84.482,0,0,0,132.837,278.534Z" transform="translate(727.666 46.692)" fill="#fff"/><path d="M218.173,194.685a85.339,85.339,0,1,1-85.336-85.336A85.339,85.339,0,0,1,218.173,194.685Z" transform="translate(727.666 605.692)"/><path d="M132.837,107.849a87.5,87.5,0,0,1,17.5,1.764,86.369,86.369,0,0,1,31.053,13.065,87.068,87.068,0,0,1,31.459,38.2,86.413,86.413,0,0,1,5.06,16.3,87.7,87.7,0,0,1,0,35,86.388,86.388,0,0,1-13.066,31.058,87.079,87.079,0,0,1-38.2,31.463,86.4,86.4,0,0,1-16.3,5.061,87.679,87.679,0,0,1-35,0A86.37,86.37,0,0,1,84.279,266.7a87.086,87.086,0,0,1-31.46-38.209,86.431,86.431,0,0,1-5.06-16.3,87.7,87.7,0,0,1,0-35,86.363,86.363,0,0,1,13.067-31.055,87.072,87.072,0,0,1,38.206-31.457,86.431,86.431,0,0,1,16.3-5.059A87.514,87.514,0,0,1,132.837,107.849Zm0,170.685a84.463,84.463,0,0,0,16.9-1.7,83.362,83.362,0,0,0,29.975-12.615,84.089,84.089,0,0,0,30.375-36.892,83.43,83.43,0,0,0,4.884-15.738,84.7,84.7,0,0,0,0-33.8,83.366,83.366,0,0,0-12.613-29.976,84.07,84.07,0,0,0-36.886-30.373,83.411,83.411,0,0,0-15.735-4.883,84.705,84.705,0,0,0-33.8,0,83.375,83.375,0,0,0-29.978,12.612,84.065,84.065,0,0,0-30.376,36.885A83.407,83.407,0,0,0,50.7,177.785a84.7,84.7,0,0,0,0,33.8,83.385,83.385,0,0,0,12.613,29.98,84.081,84.081,0,0,0,36.889,30.38,83.409,83.409,0,0,0,15.737,4.885A84.482,84.482,0,0,0,132.837,278.534Z" transform="translate(727.666 605.692)" fill="#fff"/><path d="M218.173,194.685a85.339,85.339,0,1,1-85.336-85.336A85.339,85.339,0,0,1,218.173,194.685Z" transform="translate(443.666 -72.886)"/><path d="M132.837,107.849a87.5,87.5,0,0,1,17.5,1.764,86.369,86.369,0,0,1,31.053,13.065,87.068,87.068,0,0,1,31.459,38.2,86.413,86.413,0,0,1,5.06,16.3,87.7,87.7,0,0,1,0,35,86.388,86.388,0,0,1-13.066,31.058,87.079,87.079,0,0,1-38.2,31.463,86.4,86.4,0,0,1-16.3,5.061,87.679,87.679,0,0,1-35,0A86.37,86.37,0,0,1,84.279,266.7a87.086,87.086,0,0,1-31.46-38.209,86.431,86.431,0,0,1-5.06-16.3,87.7,87.7,0,0,1,0-35,86.363,86.363,0,0,1,13.067-31.055,87.072,87.072,0,0,1,38.206-31.457,86.431,86.431,0,0,1,16.3-5.059A87.514,87.514,0,0,1,132.837,107.849Zm0,170.685a84.463,84.463,0,0,0,16.9-1.7,83.362,83.362,0,0,0,29.975-12.615,84.089,84.089,0,0,0,30.375-36.892,83.43,83.43,0,0,0,4.884-15.738,84.7,84.7,0,0,0,0-33.8,83.366,83.366,0,0,0-12.613-29.976,84.07,84.07,0,0,0-36.886-30.373,83.411,83.411,0,0,0-15.735-4.883,84.705,84.705,0,0,0-33.8,0,83.375,83.375,0,0,0-29.978,12.612,84.065,84.065,0,0,0-30.376,36.885A83.407,83.407,0,0,0,50.7,177.785a84.7,84.7,0,0,0,0,33.8,83.385,83.385,0,0,0,12.613,29.98,84.081,84.081,0,0,0,36.889,30.38,83.409,83.409,0,0,0,15.737,4.885A84.482,84.482,0,0,0,132.837,278.534Z" transform="translate(443.666 -72.886)" fill="#fff"/><path d="M218.173,194.685a85.339,85.339,0,1,1-85.336-85.336A85.339,85.339,0,0,1,218.173,194.685Z" transform="translate(443.666 725.107)"/><path d="M132.837,107.849a87.5,87.5,0,0,1,17.5,1.764,86.369,86.369,0,0,1,31.053,13.065,87.068,87.068,0,0,1,31.459,38.2,86.413,86.413,0,0,1,5.06,16.3,87.7,87.7,0,0,1,0,35,86.388,86.388,0,0,1-13.066,31.058,87.079,87.079,0,0,1-38.2,31.463,86.4,86.4,0,0,1-16.3,5.061,87.679,87.679,0,0,1-35,0A86.37,86.37,0,0,1,84.279,266.7a87.086,87.086,0,0,1-31.46-38.209,86.431,86.431,0,0,1-5.06-16.3,87.7,87.7,0,0,1,0-35,86.363,86.363,0,0,1,13.067-31.055,87.072,87.072,0,0,1,38.206-31.457,86.431,86.431,0,0,1,16.3-5.059A87.514,87.514,0,0,1,132.837,107.849Zm0,170.685a84.463,84.463,0,0,0,16.9-1.7,83.362,83.362,0,0,0,29.975-12.615,84.089,84.089,0,0,0,30.375-36.892,83.43,83.43,0,0,0,4.884-15.738,84.7,84.7,0,0,0,0-33.8,83.366,83.366,0,0,0-12.613-29.976,84.07,84.07,0,0,0-36.886-30.373,83.411,83.411,0,0,0-15.735-4.883,84.705,84.705,0,0,0-33.8,0,83.375,83.375,0,0,0-29.978,12.612,84.065,84.065,0,0,0-30.376,36.885A83.407,83.407,0,0,0,50.7,177.785a84.7,84.7,0,0,0,0,33.8,83.385,83.385,0,0,0,12.613,29.98,84.081,84.081,0,0,0,36.889,30.38,83.409,83.409,0,0,0,15.737,4.885A84.482,84.482,0,0,0,132.837,278.534Z" transform="translate(443.666 725.107)" fill="#fff"/><path d="M218.173,194.685a85.339,85.339,0,1,1-85.336-85.336A85.339,85.339,0,0,1,218.173,194.685Z" transform="translate(160.666 44.691)"/><path d="M132.837,107.849a87.5,87.5,0,0,1,17.5,1.764,86.369,86.369,0,0,1,31.053,13.065,87.068,87.068,0,0,1,31.459,38.2,86.413,86.413,0,0,1,5.06,16.3,87.7,87.7,0,0,1,0,35,86.388,86.388,0,0,1-13.066,31.058,87.079,87.079,0,0,1-38.2,31.463,86.4,86.4,0,0,1-16.3,5.061,87.679,87.679,0,0,1-35,0A86.37,86.37,0,0,1,84.279,266.7a87.086,87.086,0,0,1-31.46-38.209,86.431,86.431,0,0,1-5.06-16.3,87.7,87.7,0,0,1,0-35,86.363,86.363,0,0,1,13.067-31.055,87.072,87.072,0,0,1,38.206-31.457,86.431,86.431,0,0,1,16.3-5.059A87.514,87.514,0,0,1,132.837,107.849Zm0,170.685a84.463,84.463,0,0,0,16.9-1.7,83.362,83.362,0,0,0,29.975-12.615,84.089,84.089,0,0,0,30.375-36.892,83.43,83.43,0,0,0,4.884-15.738,84.7,84.7,0,0,0,0-33.8,83.366,83.366,0,0,0-12.613-29.976,84.07,84.07,0,0,0-36.886-30.373,83.411,83.411,0,0,0-15.735-4.883,84.705,84.705,0,0,0-33.8,0,83.375,83.375,0,0,0-29.978,12.612,84.065,84.065,0,0,0-30.376,36.885A83.407,83.407,0,0,0,50.7,177.785a84.7,84.7,0,0,0,0,33.8,83.385,83.385,0,0,0,12.613,29.98,84.081,84.081,0,0,0,36.889,30.38,83.409,83.409,0,0,0,15.737,4.885A84.482,84.482,0,0,0,132.837,278.534Z" transform="translate(160.666 44.691)" fill="#fff"/><path d="M218.173,194.685a85.339,85.339,0,1,1-85.336-85.336A85.339,85.339,0,0,1,218.173,194.685Z" transform="translate(159.666 605.691)"/><path d="M132.837,107.849a87.5,87.5,0,0,1,17.5,1.764,86.369,86.369,0,0,1,31.053,13.065,87.068,87.068,0,0,1,31.459,38.2,86.413,86.413,0,0,1,5.06,16.3,87.7,87.7,0,0,1,0,35,86.388,86.388,0,0,1-13.066,31.058,87.079,87.079,0,0,1-38.2,31.463,86.4,86.4,0,0,1-16.3,5.061,87.679,87.679,0,0,1-35,0A86.37,86.37,0,0,1,84.279,266.7a87.086,87.086,0,0,1-31.46-38.209,86.431,86.431,0,0,1-5.06-16.3,87.7,87.7,0,0,1,0-35,86.363,86.363,0,0,1,13.067-31.055,87.072,87.072,0,0,1,38.206-31.457,86.431,86.431,0,0,1,16.3-5.059A87.514,87.514,0,0,1,132.837,107.849Zm0,170.685a84.463,84.463,0,0,0,16.9-1.7,83.362,83.362,0,0,0,29.975-12.615,84.089,84.089,0,0,0,30.375-36.892,83.43,83.43,0,0,0,4.884-15.738,84.7,84.7,0,0,0,0-33.8,83.366,83.366,0,0,0-12.613-29.976,84.07,84.07,0,0,0-36.886-30.373,83.411,83.411,0,0,0-15.735-4.883,84.705,84.705,0,0,0-33.8,0,83.375,83.375,0,0,0-29.978,12.612,84.065,84.065,0,0,0-30.376,36.885A83.407,83.407,0,0,0,50.7,177.785a84.7,84.7,0,0,0,0,33.8,83.385,83.385,0,0,0,12.613,29.98,84.081,84.081,0,0,0,36.889,30.38,83.409,83.409,0,0,0,15.737,4.885A84.482,84.482,0,0,0,132.837,278.534Z" transform="translate(159.666 605.691)" fill="#fff"/><g transform="translate(942.839 484.43)"><g transform="translate(0 0)" clip-path="url(#a)"><g transform="translate(0 0)"><g clip-path="url(#b)"><path d="M51.714,42.464a3.054,3.054,0,0,1-2.884-1.916,3.2,3.2,0,0,1-.238-1.232V39.3a3.228,3.228,0,0,1,.233-1.228,3.082,3.082,0,0,1,1.656-1.688,3.192,3.192,0,0,1,1.277-.249,3.864,3.864,0,0,1,.765.07,3.156,3.156,0,0,1,.635.2,3.033,3.033,0,0,1,.533.3,4.243,4.243,0,0,1,.464.384l-.692.8a3.454,3.454,0,0,0-.778-.552,2.042,2.042,0,0,0-.936-.209,1.908,1.908,0,0,0-.808.171,2.029,2.029,0,0,0-.643.463,2.079,2.079,0,0,0-.419.687,2.36,2.36,0,0,0-.149.84V39.3a2.4,2.4,0,0,0,.149.844,2.108,2.108,0,0,0,.419.7,1.988,1.988,0,0,0,.643.468,1.908,1.908,0,0,0,.808.171,2.012,2.012,0,0,0,.962-.215,3.76,3.76,0,0,0,.8-.581l.691.7a4.117,4.117,0,0,1-.493.451,3.245,3.245,0,0,1-.556.34,2.806,2.806,0,0,1-.651.219,3.76,3.76,0,0,1-.782.074" transform="translate(-13.183 -9.803)" fill="#fff"/><path d="M60.394,36.218h1l2.694,6.164H62.947l-.621-1.477h-2.9L58.8,42.382H57.7Zm1.538,3.733L60.875,37.5l-1.05,2.448Z" transform="translate(-15.654 -9.826)" fill="#fff"/><path d="M68.5,36.276h.995l3.272,4.233V36.276h1.068V42.4h-.9l-3.368-4.353V42.4H68.5Z" transform="translate(-18.584 -9.842)" fill="#fff"/><path d="M81.331,42.464a3.1,3.1,0,0,1-1.242-.245,3.043,3.043,0,0,1-1.642-1.671,3.181,3.181,0,0,1-.238-1.232V39.3a3.2,3.2,0,0,1,.233-1.228A3.072,3.072,0,0,1,80.1,36.382a3.187,3.187,0,0,1,1.277-.249,3.869,3.869,0,0,1,.765.07,3.142,3.142,0,0,1,.635.2,3.008,3.008,0,0,1,.533.3,4.167,4.167,0,0,1,.463.384l-.69.8a3.474,3.474,0,0,0-.778-.552,2.042,2.042,0,0,0-.936-.209,1.913,1.913,0,0,0-.808.171,2.017,2.017,0,0,0-.643.463,2.057,2.057,0,0,0-.42.687,2.36,2.36,0,0,0-.149.84V39.3a2.4,2.4,0,0,0,.149.844,2.086,2.086,0,0,0,.42.7,1.977,1.977,0,0,0,.643.468,1.913,1.913,0,0,0,.808.171,2,2,0,0,0,.961-.215,3.745,3.745,0,0,0,.8-.581l.691.7a4.062,4.062,0,0,1-.493.451,3.238,3.238,0,0,1-.555.34,2.812,2.812,0,0,1-.652.219,3.76,3.76,0,0,1-.782.074" transform="translate(-21.218 -9.803)" fill="#fff"/><path d="M88.037,36.276h4.53v.971H89.1v1.574h3.069v.971H89.1v1.635H92.61V42.4H88.037Z" transform="translate(-23.884 -9.842)" fill="#fff"/><path d="M96.676,36.276H99.4a2.98,2.98,0,0,1,1.024.162,2.029,2.029,0,0,1,.743.451,1.753,1.753,0,0,1,.376.584,1.99,1.99,0,0,1,.13.735v.019a1.964,1.964,0,0,1-.109.677,1.792,1.792,0,0,1-.3.534,1.826,1.826,0,0,1-.459.393,2.277,2.277,0,0,1-.59.249L101.87,42.4H100.6l-1.508-2.133H97.743V42.4H96.676Zm2.646,3.034a1.419,1.419,0,0,0,.921-.276.914.914,0,0,0,.341-.751v-.017a.907.907,0,0,0-.333-.761,1.5,1.5,0,0,0-.938-.259h-1.57V39.31Z" transform="translate(-26.228 -9.842)" fill="#fff"/><path d="M27.538,39.118a2.2,2.2,0,1,1-2.963-.948,2.2,2.2,0,0,1,2.963.948" transform="translate(-6.343 -10.289)" fill="#fff"/><path d="M33.066,52.417a2.2,2.2,0,1,1-2.964-.951,2.2,2.2,0,0,1,2.964.951" transform="translate(-7.842 -13.897)" fill="#fff"/><g transform="translate(57.397 55.323)" opacity="0.3"><g clip-path="url(#c)"><path d="M90.7,79.345a6.316,6.316,0,1,1-8.5-2.722,6.313,6.313,0,0,1,8.5,2.722" transform="translate(-78.767 -75.921)" fill="#fff"/></g></g><path d="M89.356,81.5a3.715,3.715,0,1,1-5-1.6,3.716,3.716,0,0,1,5,1.6" transform="translate(-22.338 -21.566)" fill="#fff"/><g transform="translate(0 0)" opacity="0.3"><g clip-path="url(#d)"><path d="M11.933,3.423A6.316,6.316,0,1,1,3.428.7a6.315,6.315,0,0,1,8.505,2.722" transform="translate(0 0)" fill="#fff"/></g></g><path d="M10.589,5.583a3.715,3.715,0,1,1-5-1.6,3.713,3.713,0,0,1,5,1.6" transform="translate(-0.968 -0.968)" fill="#fff"/><path d="M26.532,91.649a3.716,3.716,0,1,1-5-1.6,3.715,3.715,0,0,1,5,1.6" transform="translate(-5.294 -24.318)" fill="#fff"/><path d="M25.237,83.863l-1.25-.226.226-1.25,1.25.226Zm.9-5-1.25-.226.339-1.875,1.25.226Zm41.833-3.1-1.114-.609.609-1.114,1.114.609Zm-5.015-2.742-1.393-.762.609-1.114,1.393.762ZM27.383,71.988l-1.25-.226.282-1.563,1.25.226Zm29.724-2.171L55.435,68.9l.609-1.114,1.672.914Zm-5.015-2.742-1.114-.609.609-1.114,1.114.609ZM28.456,66.05l-1.25-.226.226-1.25,1.25.226Zm18.62-1.717-1.393-.762.609-1.114,1.393.762Zm-5.852-3.2-1.672-.914.609-1.114,1.672.914ZM29.359,61.05l-1.25-.226.339-1.875,1.25.226Zm6.85-2.658-1.114-.609.609-1.114,1.114.609ZM31.194,55.65,29.8,54.889l.609-1.114,1.393.762Z" transform="translate(-6.677 -14.716)" fill="#fff"/><path d="M25.147,42.238l-.5-1.168,1.168-.5.5,1.168ZM22.9,36.98l-.623-1.461,1.168-.5.623,1.461Zm-2.752-6-.914-1.671,1.114-.61.914,1.671Zm-2.743-5.015-.61-1.114,1.114-.61.61,1.114Zm-2.743-5.015L13.9,19.558l1.114-.61.762,1.393Zm-3.2-5.851-.914-1.671,1.114-.61.914,1.671ZM8.722,10.086l-.61-1.114,1.114-.61.61,1.114Z" transform="translate(-2.352 -2.352)" fill="#fff"/></g></g></g></g><g transform="translate(807.818 161.671)"><g transform="translate(-7 8)"><g clip-path="url(#e)"><path d="M4.871,89.945l-1.836,4.7-1.845-4.7H0l2.545,6.164h.944l2.545-6.164Z" transform="translate(0 -24.402)" fill="#fff"/><rect width="1.067" height="6.121" transform="translate(7.581 65.543)" fill="#fff"/><g clip-path="url(#e)"><path d="M14.724,89.945h2.728a2.973,2.973,0,0,1,1.023.162,2.036,2.036,0,0,1,.743.45,1.771,1.771,0,0,1,.376.586,1.979,1.979,0,0,1,.131.735V91.9a1.975,1.975,0,0,1-.109.677,1.75,1.75,0,0,1-.3.534,1.782,1.782,0,0,1-.459.393,2.279,2.279,0,0,1-.59.251l1.653,2.317H18.65l-1.508-2.133H15.791v2.133H14.724Zm2.646,3.034a1.428,1.428,0,0,0,.921-.276.917.917,0,0,0,.342-.751v-.017a.9.9,0,0,0-.334-.76,1.5,1.5,0,0,0-.938-.259h-1.57v2.064Z" transform="translate(-3.995 -24.402)" fill="#fff"/><path d="M26.8,96.131a3.415,3.415,0,0,1-1.3-.239,2.916,2.916,0,0,1-1.644-1.662,3.346,3.346,0,0,1-.227-1.245v-.019a3.224,3.224,0,0,1,.233-1.215,3.1,3.1,0,0,1,.656-1.009,3.137,3.137,0,0,1,2.276-.941,4.365,4.365,0,0,1,.73.058,3.427,3.427,0,0,1,.608.162,3.013,3.013,0,0,1,.529.258,3.879,3.879,0,0,1,.485.354l-.682.813a4.124,4.124,0,0,0-.359-.27,2.274,2.274,0,0,0-.385-.206,2.554,2.554,0,0,0-.442-.131,2.76,2.76,0,0,0-.529-.048,1.78,1.78,0,0,0-.783.176,2.043,2.043,0,0,0-.63.469,2.2,2.2,0,0,0-.42.687,2.283,2.283,0,0,0-.153.833v.017a2.5,2.5,0,0,0,.149.877,1.963,1.963,0,0,0,1.077,1.148,2.086,2.086,0,0,0,.85.165,2.536,2.536,0,0,0,.815-.127,2.274,2.274,0,0,0,.659-.339V93.543H26.75v-.936h2.606v2.572a4.564,4.564,0,0,1-.5.367,3.867,3.867,0,0,1-.595.306,3.711,3.711,0,0,1-.686.2,3.819,3.819,0,0,1-.77.074" transform="translate(-6.41 -24.363)" fill="#fff"/><path d="M36.828,96.132a3.274,3.274,0,0,1-1.294-.25,3.033,3.033,0,0,1-1.006-.678,3.075,3.075,0,0,1-.655-1,3.136,3.136,0,0,1-.237-1.219v-.018a3.146,3.146,0,0,1,.237-1.221,3.066,3.066,0,0,1,.664-1,3.186,3.186,0,0,1,2.309-.941,3.274,3.274,0,0,1,1.294.25,3.063,3.063,0,0,1,1,.678,3.1,3.1,0,0,1,.657,1,3.159,3.159,0,0,1,.236,1.218v.018a3.158,3.158,0,0,1-.236,1.219,3.1,3.1,0,0,1-.665,1.007,3.2,3.2,0,0,1-1.014.686,3.237,3.237,0,0,1-1.294.254m.017-.989a2,2,0,0,0,.831-.171,1.927,1.927,0,0,0,.648-.463,2.133,2.133,0,0,0,.423-.686,2.309,2.309,0,0,0,.152-.839v-.018a2.352,2.352,0,0,0-.152-.845,2.046,2.046,0,0,0-1.084-1.159,2.1,2.1,0,0,0-1.668,0,1.968,1.968,0,0,0-.649.463,2.156,2.156,0,0,0-.423.686,2.317,2.317,0,0,0-.153.839v.018a2.342,2.342,0,0,0,.153.843,2.108,2.108,0,0,0,.427.692,2.069,2.069,0,0,0,.657.467,2,2,0,0,0,.836.174" transform="translate(-9.125 -24.363)" fill="#fff"/><path d="M108.97,37.7a2.077,2.077,0,1,1-2.9-.477,2.077,2.077,0,0,1,2.9.477" transform="translate(-28.542 -9.992)" fill="#fff"/><path d="M76.97,68.2a2.077,2.077,0,1,1-2.9-.477,2.077,2.077,0,0,1,2.9.477" transform="translate(-19.86 -18.266)" fill="#fff"/><path d="M43.471,57.2a2.077,2.077,0,1,1-2.9-.477,2.077,2.077,0,0,1,2.9.477" transform="translate(-10.772 -15.282)" fill="#fff"/><path d="M55.471,127.7a2.077,2.077,0,1,1-2.9-.477,2.077,2.077,0,0,1,2.9.477" transform="translate(-14.027 -34.409)" fill="#fff"/><path d="M84.47,157.2a2.077,2.077,0,1,1-2.9-.477,2.077,2.077,0,0,1,2.9.477" transform="translate(-21.895 -42.412)" fill="#fff"/><path d="M96.97,162.7a2.077,2.077,0,1,1-2.9-.477,2.077,2.077,0,0,1,2.9.477" transform="translate(-25.286 -43.904)" fill="#fff"/><path d="M33.971,165.7a2.077,2.077,0,1,1-2.9-.477,2.077,2.077,0,0,1,2.9.477" transform="translate(-8.194 -44.718)" fill="#fff"/><path d="M104.97,99.7a2.077,2.077,0,1,1-2.9-.477,2.077,2.077,0,0,1,2.9.477" transform="translate(-27.456 -26.812)" fill="#fff"/><g transform="translate(82.011 85.987)" opacity="0.3"><g clip-path="url(#g)"><path d="M123.347,120.485a5.959,5.959,0,1,1-8.314-1.368,5.957,5.957,0,0,1,8.314,1.368" transform="translate(-112.544 -118)" fill="#fff"/></g></g><path d="M122.266,122.829a3.505,3.505,0,1,1-4.89-.8,3.5,3.5,0,0,1,4.89.8" transform="translate(-31.447 -32.927)" fill="#fff"/><g transform="translate(72.781)" opacity="0.3"><g clip-path="url(#h)"><path d="M110.681,2.485a5.959,5.959,0,1,1-8.314-1.368,5.956,5.956,0,0,1,8.314,1.368" transform="translate(-99.878 0)" fill="#fff"/></g></g><path d="M109.6,4.829a3.505,3.505,0,1,1-4.892-.8,3.505,3.505,0,0,1,4.892.8" transform="translate(-28.01 -0.913)" fill="#fff"/><path d="M102.475,60.372a3.505,3.505,0,1,1-4.89-.8,3.505,3.505,0,0,1,4.89.8" transform="translate(-26.078 -15.982)" fill="#fff"/><path d="M71.975,180.372a3.505,3.505,0,1,1-4.89-.8,3.505,3.505,0,0,1,4.89.8" transform="translate(-17.803 -48.538)" fill="#fff"/><path d="M76.6,108.831a3.505,3.505,0,1,1-4.89-.8,3.506,3.506,0,0,1,4.89.8" transform="translate(-19.057 -29.129)" fill="#fff"/><path d="M109.876,95.3,107,94.419l.372-1.214,1.149.352-.154.5.455-.309Zm-6.52-2-1.821-.558.372-1.214,1.821.558Zm-6.679-2.047-1.518-.465.372-1.214,1.518.465Zm8.594-.466-.893-1.313,1.05-.714.893,1.313Zm-14.363-1.3-1.214-.372.372-1.214,1.214.372ZM86.049,88l-1.821-.558.372-1.214,1.821.558ZM79.37,85.95l-1.518-.465.372-1.214,1.518.465Zm22.149-.675L100.447,83.7l1.05-.714,1.072,1.575Zm-25.8-2.624-1.27-.03.03-1.27,1.27.03ZM98.3,80.55l-.714-1.05,1.05-.714.714,1.05Zm-22.46-2.977-1.27-.03.045-1.9,1.27.03Zm19.628-2.228-.13-1.583,1.266-.1.13,1.583ZM76.01,70.588l-1.27-.03.038-1.588,1.27.03ZM94.925,68.7l-.156-1.9,1.266-.1.156,1.9ZM76.153,64.556l-1.27-.03.03-1.27,1.27.03ZM94.456,63l-.1-1.266,1.266-.1.1,1.266ZM76.274,59.476,75,59.446l.045-1.9,1.27.03ZM93.987,57.3l-.13-1.583,1.266-.1.13,1.583ZM76.8,53.746l-.326-1.228,1.535-.407.326,1.228ZM82.632,52.2l-.326-1.228,1.228-.326.326,1.228Zm4.911-1.3-.326-1.228,1.841-.489.326,1.228Zm5.9-.238-.156-1.9,1.266-.1.156,1.9Zm2.148-5.426-1.218-.361.361-1.218,1.218.361Zm1.624-5.481-1.218-.361.451-1.523,1.218.361Zm1.895-6.394L97.889,33l.541-1.827,1.218.361Zm.632-5.809h-1.27v-1.27h1.27Zm0-5.716h-1.27V20.244h1.27Zm0-6.669h-1.27v-1.9h1.27Zm0-5.716h-1.27V8.177h1.27Z" transform="translate(-20.363 -2.219)" fill="#fff"/><path d="M23.661,8.362l-1.812-.589.393-1.208,1.812.589ZM18.225,6.594,17.017,6.2l.393-1.208,1.208.393ZM12.789,4.827l-1.51-.491.393-1.208,1.51.491ZM6.447,2.764,4.636,2.175,5.028.967l1.812.589ZM1.011,1-.2.6.2-.6,1.4-.211Z" transform="translate(31.011 43.124)" fill="#fff"/><path d="M33.609,153.026,32.5,152.4l.625-1.105,1.105.625Zm2.5-4.422-1.105-.625.938-1.658,1.105.625Zm3.44-6.08-1.105-.625.782-1.382,1.105.625Zm2.971-5.252-1.105-.625.625-1.105,1.105.625Zm2.5-4.422-1.105-.625.938-1.658,1.105.625Zm3.44-6.08-1.105-.625.782-1.382,1.105.625Zm4.029-4.076-.815-.974.974-.815.815.974Zm3.9-3.262-.815-.974,1.461-1.223.815.974Zm5.356-4.485-.815-.974,1.218-1.02.815.974Z" transform="translate(-8.968 -30.525)" fill="#fff"/><path d="M70.993,168.409l-1.12-.6.6-1.12,1.12.6Zm2.4-4.481-1.12-.6.9-1.68,1.12.6Zm3.294-6.161-1.12-.6.749-1.4,1.12.6Zm12.661-2.734-.553-.243.26-.59-.48-.31.827-1.282,1.067.688Zm-5.2-2.29-1.744-.767.511-1.162,1.744.767Zm-4.612-.3-1.12-.6.6-1.12,1.12.6Zm13.346-2.886-1.067-.688L92.5,147.8l1.067.688Zm2.754-4.27-1.067-.688,1.033-1.6,1.067.688Zm3.787-5.871-1.067-.688.861-1.335,1.067.688Zm3.271-5.071-1.067-.688.688-1.067,1.067.688Zm2.754-4.27-1.067-.688,1.033-1.6,1.067.688Z" transform="translate(-19.108 -34.232)" fill="#fff"/></g></g></g></g><g transform="translate(537.748 64.924)"><g transform="translate(0 0)" clip-path="url(#i)"><path d="M69.994,104.91h1.068v5.15H74.28v.971H69.994Z" transform="translate(-18.989 -28.462)" fill="#fff"/><path d="M78.023,104.91h4.53v.971H79.089v1.574h3.069v.971H79.089v1.635H82.6v.971H78.023Z" transform="translate(-21.167 -28.462)" fill="#fff"/><g clip-path="url(#i)"><path d="M89.482,111.1a3.271,3.271,0,0,1-1.294-.248,3.042,3.042,0,0,1-1.661-1.68,3.153,3.153,0,0,1-.236-1.22v-.017a3.153,3.153,0,0,1,.236-1.22,3.084,3.084,0,0,1,.664-1.006,3.193,3.193,0,0,1,2.309-.939,3.263,3.263,0,0,1,1.294.249,3.072,3.072,0,0,1,1.006.677,3.1,3.1,0,0,1,.656,1,3.173,3.173,0,0,1,.236,1.221v.017a3.169,3.169,0,0,1-.236,1.22,3.061,3.061,0,0,1-.665,1,3.178,3.178,0,0,1-2.309.941m.017-.987a2,2,0,0,0,.832-.171,1.981,1.981,0,0,0,.648-.464,2.129,2.129,0,0,0,.422-.686,2.284,2.284,0,0,0,.153-.84v-.017a2.312,2.312,0,0,0-.153-.844,2.076,2.076,0,0,0-.426-.691,2.053,2.053,0,0,0-.657-.468,2.028,2.028,0,0,0-2.317.458,2.166,2.166,0,0,0-.422.687,2.308,2.308,0,0,0-.152.839v.017a2.348,2.348,0,0,0,.152.844,2.109,2.109,0,0,0,.426.69,2.081,2.081,0,0,0,.658.469,1.99,1.99,0,0,0,.836.175" transform="translate(-23.411 -28.423)" fill="#fff"/><path d="M65.444.949a2.077,2.077,0,1,1-2.9-.478,2.076,2.076,0,0,1,2.9.478" transform="translate(-16.733 -0.022)" fill="#fff"/><path d="M43.094,36.62a2.077,2.077,0,1,1-2.9-.477,2.078,2.078,0,0,1,2.9.477" transform="translate(-10.669 -9.7)" fill="#fff"/><path d="M13.76,97.954a2.077,2.077,0,1,1-2.9-.477,2.078,2.078,0,0,1,2.9.477" transform="translate(-2.711 -26.34)" fill="#fff"/><path d="M31.76,120.62a2.077,2.077,0,1,1-2.9-.477,2.078,2.078,0,0,1,2.9.477" transform="translate(-7.595 -32.489)" fill="#fff"/><path d="M54.428,51.288a2.077,2.077,0,1,1-2.9-.478,2.075,2.075,0,0,1,2.9.478" transform="translate(-13.744 -13.679)" fill="#fff"/><path d="M77.76,47.288a2.077,2.077,0,1,1-2.9-.478,2.076,2.076,0,0,1,2.9.478" transform="translate(-20.075 -12.594)" fill="#fff"/><g transform="translate(0 101.843)" opacity="0.3"><g clip-path="url(#k)"><path d="M10.8,142.245a5.959,5.959,0,1,1-8.314-1.368,5.959,5.959,0,0,1,8.314,1.368" transform="translate(0 -139.76)" fill="#fff"/></g></g><path d="M9.722,144.589a3.505,3.505,0,1,1-4.89-.8,3.505,3.505,0,0,1,4.89.8" transform="translate(-0.914 -38.83)" fill="#fff"/><g transform="translate(65.583 42.09)" opacity="0.3"><g clip-path="url(#k)"><path d="M100.8,60.245a5.959,5.959,0,1,1-8.314-1.368,5.959,5.959,0,0,1,8.314,1.368" transform="translate(-90 -57.76)" fill="#fff"/></g></g><path d="M99.722,62.589a3.505,3.505,0,1,1-4.89-.8,3.505,3.505,0,0,1,4.89.8" transform="translate(-25.331 -16.584)" fill="#fff"/><path d="M47.265,1.462a3.505,3.505,0,1,1-4.89-.8,3.505,3.505,0,0,1,4.89.8" transform="translate(-11.099 0)" fill="#fff"/><path d="M8.967,119.634,7.7,119.511l.123-1.264,1.264.123Zm1.581-.159-.946-.847,1.059-1.183.946.847Zm-1.089-4.9-1.264-.123.184-1.9,1.264.123Zm5.536-.072-.946-.847,1.27-1.42.946.847Zm3.811-4.26-.946-.847.847-.946.946.847Zm-8.671-2.622L8.87,107.5l.154-1.581,1.264.123Zm12.482-1.638-.946-.847,1.059-1.183.946.847Zm-11.9-4.367L9.454,101.5l.123-1.264,1.264.123Zm16.56-.252-.818-.972,1.458-1.227.818.972Zm4.373-3.68-.818-.972.972-.818.818.972ZM11.21,96.561l-1.264-.123.184-1.9,1.264.123ZM36.025,94l-.818-.972,1.215-1.022.818.972Zm5.1-4.294-.818-.972,1.458-1.227.818.972Zm-29.242-.1-1.264-.123.154-1.581,1.264.123ZM45.5,86.03l-.818-.972.972-.818.818.972ZM13.809,84.6l-.957-.834.834-.957.957.834ZM49.875,82.35l-.818-.972,1.215-1.023.818.972ZM17.147,80.77l-.957-.834L17.441,78.5l.957.834Zm37.83-2.715-.818-.972,1.458-1.227.818.972ZM21.737,75.5l-.957-.834,1.043-1.2.957.834Zm37.614-1.129-.818-.972.972-.818.818.972ZM25.7,70.955l-.957-.834.834-.957.957.834Zm38.023-.26-.818-.972L64.121,68.7l.818.972Zm-34.685-3.57-.957-.834,1.252-1.436.957.834ZM68.827,66.4l-.818-.972L69.466,64.2l.818.972ZM73.2,62.72l-.818-.972.372-.313-.908-.709.782-1,1.5,1.173-.386.495.429.509Zm-39.571-.862-.957-.834,1.043-1.2.957.834ZM68.843,58.38l-1-.782.782-1,1,.782Zm-31.25-1.071-.957-.834.834-.957.957.834Zm26.746-2.448-1.251-.978.782-1,1.251.978ZM40.932,53.478l-.957-.834.91-1.045.958-.164.215,1.252-.512.088Zm6.133-1.65-.215-1.252,1.565-.268.215,1.252Zm5.947-1.02L52.8,49.557l1.252-.215.215,1.252Zm6.072-.053-1.037-.81-.027,0-.005-.03-.189-.148.134-.172-.155-.9.581-.1,1.479,1.156Z" transform="translate(-2.219 -13.367)" fill="#fff"/><path d="M48.731,38.184l-.988-1.243.994-.791.988,1.243ZM44.58,32.965l-1.186-1.491.994-.791,1.186,1.491Zm-1.659-5.027L41.658,27.8l.132-1.263,1.263.132Zm.6-5.685-1.263-.132.166-1.579,1.263.132Zm.7-6.633-1.263-.132.2-1.895,1.263.132Zm.6-5.685L43.546,9.8l.132-1.263,1.263.132Zm.133-5.014-.126-1.264L46.4,3.5l.126,1.264Zm6.636-.663-.126-1.264,1.9-.189.126,1.264Zm5.688-.568-.126-1.264L58.4,2.3l.126,1.264Z" transform="translate(-11.443 -0.795)" fill="#fff"/></g></g></g><g transform="translate(814.945 760.982)"><g transform="translate(0 0)" clip-path="url(#m)"><g clip-path="url(#m)"><path d="M76.277,6.331a3.4,3.4,0,0,1-1.3-.24A2.917,2.917,0,0,1,73.33,4.43,3.35,3.35,0,0,1,73.1,3.184V3.165a3.221,3.221,0,0,1,.233-1.215A3.088,3.088,0,0,1,73.992.941,3.138,3.138,0,0,1,76.268,0,4.289,4.289,0,0,1,77,.058a3.365,3.365,0,0,1,.608.161,3.016,3.016,0,0,1,.529.259,3.947,3.947,0,0,1,.485.353l-.682.813a4.133,4.133,0,0,0-.359-.271,2.271,2.271,0,0,0-.385-.205,2.432,2.432,0,0,0-.442-.131,2.76,2.76,0,0,0-.529-.048,1.78,1.78,0,0,0-.783.176,2.034,2.034,0,0,0-.63.469,2.188,2.188,0,0,0-.42.687,2.28,2.28,0,0,0-.153.833V3.17a2.5,2.5,0,0,0,.149.877,1.975,1.975,0,0,0,.423.692,2,2,0,0,0,.654.457,2.1,2.1,0,0,0,.85.165,2.536,2.536,0,0,0,.815-.128,2.255,2.255,0,0,0,.659-.338V3.743H76.225V2.807h2.606V5.378a4.565,4.565,0,0,1-.5.367,3.743,3.743,0,0,1-.595.306,3.712,3.712,0,0,1-.686.205,3.819,3.819,0,0,1-.77.074" transform="translate(-19.833)" fill="#fff"/><path d="M83.483.144h4.53v.971H84.55V2.689h3.069v.971H84.55V5.294h3.507v.971H83.483Z" transform="translate(-22.649 -0.039)" fill="#fff"/><path d="M92.123.144h1.146l1.863,2.9,1.863-2.9h1.146V6.265H97.072V1.875L95.14,4.761H95.1L93.19,1.893V6.265H92.123Z" transform="translate(-24.993 -0.039)" fill="#fff"/><rect width="1.067" height="6.121" transform="translate(75.219 0.105)" fill="#fff"/><path d="M107.543.144h.995l3.273,4.233V.144h1.067V6.265h-.9L108.61,1.911V6.265h-1.067Z" transform="translate(-29.176 -0.039)" fill="#fff"/><rect width="1.067" height="6.121" transform="translate(85.773 0.105)" fill="#fff"/><path d="M12.742,50.313a2.077,2.077,0,1,1-2.9-.477,2.078,2.078,0,0,1,2.9.477" transform="translate(-2.435 -13.415)" fill="#fff"/><path d="M38.077,60.981a2.077,2.077,0,1,1-2.9-.478,2.077,2.077,0,0,1,2.9.478" transform="translate(-9.309 -16.309)" fill="#fff"/><path d="M23.76,13.307a2.077,2.077,0,1,1-2.9-.477,2.077,2.077,0,0,1,2.9.477" transform="translate(-5.424 -3.375)" fill="#fff"/><path d="M47.094,17.307a2.077,2.077,0,1,1-2.9-.477,2.076,2.076,0,0,1,2.9.477" transform="translate(-11.755 -4.46)" fill="#fff"/><path d="M86.426,40.641a2.077,2.077,0,1,1-2.9-.477,2.078,2.078,0,0,1,2.9.477" transform="translate(-22.426 -10.791)" fill="#fff"/><path d="M87.094,103.307a2.077,2.077,0,1,1-2.9-.477,2.077,2.077,0,0,1,2.9.477" transform="translate(-22.607 -27.792)" fill="#fff"/><path d="M105.76,49.307a2.077,2.077,0,1,1-2.9-.477,2.078,2.078,0,0,1,2.9.477" transform="translate(-27.671 -13.142)" fill="#fff"/><path d="M123.094,48.641a2.077,2.077,0,1,1-2.9-.477,2.077,2.077,0,0,1,2.9.477" transform="translate(-32.373 -12.961)" fill="#fff"/><path d="M35.814,3.414a3.505,3.505,0,1,1-4.892-.8,3.507,3.507,0,0,1,4.892.8" transform="translate(-7.992 -0.53)" fill="#fff"/><g transform="translate(62.668 55.708)" opacity="0.3"><g clip-path="url(#h)"><path d="M96.8,78.934a5.959,5.959,0,1,1-8.314-1.368A5.957,5.957,0,0,1,96.8,78.934" transform="translate(-86 -76.449)" fill="#fff"/></g></g><path d="M95.722,81.278a3.505,3.505,0,1,1-4.89-.8,3.5,3.5,0,0,1,4.89.8" transform="translate(-24.246 -21.654)" fill="#fff"/><g transform="translate(0 20.73)" opacity="0.3"><g clip-path="url(#h)"><path d="M10.8,30.934a5.959,5.959,0,1,1-8.314-1.368A5.957,5.957,0,0,1,10.8,30.934" transform="translate(0 -28.449)" fill="#fff"/></g></g><path d="M9.722,33.278a3.505,3.505,0,1,1-4.89-.8,3.5,3.5,0,0,1,4.89.8" transform="translate(-0.914 -8.632)" fill="#fff"/><path d="M70.622,64.1l-1.187-.451.451-1.187,1.187.451Zm-4.75-1.8-1.781-.677.451-1.187,1.781.677ZM59.342,59.81l-1.484-.564.451-1.187,1.484.564Zm13.429-.234-1.21-.387.581-1.814,1.21.387ZM53.7,57.667l-1.187-.451.451-1.187,1.187.451Zm-4.75-1.8-1.781-.677L47.622,54l1.781.677Zm25.561-1.731-1.21-.387.387-1.21,1.21.387Zm-32.092-.75-1.484-.564.451-1.187,1.484.564ZM36.78,51.239l-1.187-.451.451-1.187,1.187.451Zm-4.75-1.8-1.781-.677L30.7,47.57l1.781.677Zm44.224-.746-1.21-.387.484-1.512,1.21.387ZM25.53,46.819,24.066,46.2l.493-1.17,1.464.616Zm-5.561-2.341-1.17-.493.493-1.17,1.17.493Zm-4.683-1.972-1.756-.739.493-1.171,1.756.739Zm63-.17-1.21-.387.581-1.814,1.21.387Zm-2.335-3.624-1.159-.519.519-1.159,1.159.519ZM9.79,38.245,9.43,36.7l1.237-.288.36,1.547Zm60.946-1.871-1.449-.65.519-1.159,1.449.65Zm-6.086-2.728-.412-.185-1.312-.779.648-1.092,1.25.741.346.155ZM8.422,32.368l-.288-1.237,1.237-.288.288,1.237Zm51.227-1.63-1.092-.648L59.2,29l1.092.648ZM9.43,27.827l-1.047-.719,1.079-1.57,1.047.719Zm45.3-.005-1.366-.81.648-1.092,1.366.81ZM49,24.419l-1.638-.972.648-1.092,1.638.972ZM13.387,22.07l-1.047-.719.9-1.309,1.047.719ZM44.081,21.5l-1.092-.648.648-1.092,1.092.648Zm-4.916-2.916-1.366-.81.648-1.092,1.366.81ZM16.805,17.1l-1.047-.719.719-1.047,1.047.719Zm16.909-2.551L32.4,13.166l.92-.875,1.313,1.381Zm-14.052-1.37-.76-1.018,1.526-1.14.76,1.018ZM29.776,10.4l-.875-.92.92-.875.875.92ZM25.26,9,24.5,7.98l1.272-.95.76,1.018Z" transform="translate(-2.219 -1.835)" fill="#fff"/><path d="M.024,1.12-.024-.149.549-.171.6,1.1ZM5.675.9,5.626-.366l1.9-.073L7.578.83ZM11.387.683,11.338-.586l1.269-.049L12.656.635Z" transform="translate(76.401 36.89)" fill="#fff"/><path d="M.589,15.147l-1.178-.474.474-1.178,1.178.474Zm1.9-4.714L1.308,9.959l.711-1.767L3.2,8.666ZM5.094,3.952,3.916,3.478l.593-1.473,1.178.474Z" transform="translate(62.664 61.892)" fill="#fff"/></g></g></g><g transform="translate(242.271 169.61)"><g transform="translate(0 0)" clip-path="url(#q)"><path d="M30.434,123.336l-1.214-.373.467-1.518,1.214.374Zm-3.536-1-1.073-1.574,1.05-.715,1.073,1.574Zm-3.218-4.724-.715-1.05,1.05-.715.715,1.05Zm8.529-.04-1.214-.373.373-1.214,1.214.374Zm41.793-.1-1.684-.891.594-1.122,1.684.891Zm-5.051-2.675-1.122-.594.594-1.122,1.122.594Zm-48.489-1.905-.894-1.312,1.05-.715.894,1.312Zm13.241-.172-1.214-.373.56-1.821,1.214.373Zm30.2-.6-1.4-.743.594-1.122,1.4.743Zm-47.192-4.742L15.634,105.8l1.05-.715,1.073,1.574Zm42.443-.082-.98-1.634L59.258,105l.98,1.633Zm-18.184-3.133-.477-1.177,1.177-.477.477,1.177Zm-27.478-1.509-.715-1.05,1.05-.715.715,1.05Zm42.721-.26-.653-1.089,1.089-.653.653,1.089Zm-10.534-.139-.477-1.177,1.766-.715.477,1.177Zm6.475-2.623-.477-1.177,1.472-.6.477,1.177Zm-41.88-1.7-.894-1.312,1.05-.715.894,1.312ZM6.515,92.413,5.442,90.839l1.05-.715L7.564,91.7ZM3.3,87.689l-.715-1.05,1.05-.715.715,1.05Zm.239-5.766-1.27-.016.02-1.588,1.27.016ZM13.5,75.675l-1.56-.3.238-1.248,1.56.3Zm-9.883-.42-1.27-.016.023-1.9,1.27.016Zm3.956-.71-1.248-.238.238-1.248,1.248.238Zm7.607-3.492-1.27-.011.016-1.9,1.27.011Zm.048-5.716-1.27-.011.011-1.27,1.27.011Zm.048-5.716-1.27-.011.013-1.588,1.27.011Zm2.31-4.771-.7-1.058,1.586-1.055.7,1.058Zm4.76-3.164-.7-1.058,1.058-.7.7,1.058Zm4.76-3.164-.7-1.058,1.323-.879.7,1.058Zm5.554-3.692-.7-1.058,1.587-1.055.7,1.058Zm4.76-3.164-.7-1.058,1.058-.7.7,1.058ZM42.18,38.5l-.7-1.058,1.322-.879.7,1.058Zm5.531-3.79L46.946,33.7l1.52-1.148.765,1.014Zm4.562-3.444-.765-1.014,1.014-.765.765,1.014Zm4.562-3.444-.765-1.014,1.267-.957.765,1.014ZM62.156,23.8l-.765-1.014,1.52-1.148.765,1.014Zm4.562-3.444-.765-1.014,1.014-.765.765,1.014Zm4.562-3.444L70.514,15.9l1.267-.957.765,1.014ZM76.6,12.9l-.765-1.014,1.52-1.148.765,1.014Zm4.562-3.444L80.4,8.437l1.014-.765.765,1.014Z" transform="translate(-0.774 -2.219)" fill="#fff"/><path d="M48.724,90.381l-.276-1.24,1.86-.413.275,1.24Zm5.58-1.24-.276-1.24,1.24-.275.275,1.24Zm-10.627-.1-1.372-.8.64-1.1,1.372.8ZM59.883,87.9l-.276-1.24,1.55-.344.276,1.24Zm6.51-1.447-.276-1.24,1.86-.413.275,1.24ZM38.464,86l-1.1-.64.64-1.1,1.1.64Zm33.51-.784-.276-1.24,1.24-.276.276,1.24Zm-37.9-1.776-1.646-.96.64-1.1,1.646.96Zm-6.035-3.519-1.372-.8.64-1.1,1.372.8Zm-5.213-3.04-1.1-.64.64-1.1,1.1.64Z" transform="translate(-5.172 -20.062)" fill="#fff"/><g clip-path="url(#q)"><g transform="translate(7.936 47.846)" opacity="0.3"><g clip-path="url(#k)"><path d="M21.692,68.144a5.96,5.96,0,1,1-8.314-1.368,5.958,5.958,0,0,1,8.314,1.368" transform="translate(-10.89 -65.659)" fill="#fff"/></g></g><path d="M48.1,140.2a2.078,2.078,0,1,1-2.9-.477,2.078,2.078,0,0,1,2.9.477" transform="translate(-12.028 -37.8)" fill="#fff"/><path d="M83.766,146.2a2.077,2.077,0,1,1-2.9-.478,2.076,2.076,0,0,1,2.9.478" transform="translate(-21.704 -39.428)" fill="#fff"/><path d="M107.1,158.2a2.077,2.077,0,1,1-2.9-.478,2.076,2.076,0,0,1,2.9.478" transform="translate(-28.034 -42.684)" fill="#fff"/><path d="M58.1,94.2a2.078,2.078,0,1,1-2.9-.477,2.078,2.078,0,0,1,2.9.477" transform="translate(-14.741 -25.32)" fill="#fff"/><path d="M19.765,98.2a2.077,2.077,0,1,1-2.9-.478,2.077,2.077,0,0,1,2.9.478" transform="translate(-4.341 -26.406)" fill="#fff"/><path d="M3.766,112.864a2.078,2.078,0,1,1-2.9-.477,2.079,2.079,0,0,1,2.9.477" transform="translate(0 -30.385)" fill="#fff"/><path d="M4.037,95.27a2.078,2.078,0,1,1-2.9-.477,2.078,2.078,0,0,1,2.9.477" transform="translate(-0.074 -25.612)" fill="#fff"/><path d="M63.1,43.2a2.078,2.078,0,1,1-2.9-.477,2.078,2.078,0,0,1,2.9.477" transform="translate(-16.097 -11.484)" fill="#fff"/><path d="M20.612,70.489a3.505,3.505,0,1,1-4.89-.8,3.5,3.5,0,0,1,4.89.8" transform="translate(-3.868 -18.727)" fill="#fff"/><path d="M75.061,128.165a3.505,3.505,0,1,1-4.89-.8,3.505,3.505,0,0,1,4.89.8" transform="translate(-18.64 -34.374)" fill="#fff"/><path d="M112.727,4.83a3.505,3.505,0,1,1-4.89-.805,3.5,3.5,0,0,1,4.89.805" transform="translate(-28.859 -0.914)" fill="#fff"/><g transform="translate(75.06)" opacity="0.3"><g clip-path="url(#g)"><path d="M113.808,2.484a5.96,5.96,0,1,1-8.314-1.366,5.959,5.959,0,0,1,8.314,1.366" transform="translate(-103.005 0)" fill="#fff"/></g></g><path d="M40.729,164.831a3.506,3.506,0,1,1-4.892-.805,3.506,3.506,0,0,1,4.892.805" transform="translate(-9.325 -44.322)" fill="#fff"/><g transform="translate(22.594 116.593)" opacity="0.3"><g clip-path="url(#h)"><path d="M41.808,162.485a5.959,5.959,0,1,1-8.313-1.366,5.958,5.958,0,0,1,8.313,1.366" transform="translate(-31.006 -160.001)" fill="#fff"/></g></g><path d="M94.1,86.2a2.078,2.078,0,1,1-2.9-.477,2.078,2.078,0,0,1,2.9.477" transform="translate(-24.507 -23.15)" fill="#fff"/><path d="M24.806,195.477h1l2.693,6.165H27.36l-.62-1.478H23.845l-.63,1.478h-1.1Zm1.539,3.734-1.058-2.448-1.049,2.448Z" transform="translate(9.219 -116.057)" fill="#fff"/><path d="M37.6,201.147a3.107,3.107,0,0,1-.857.428,3.494,3.494,0,0,1-2.3-.1,3.044,3.044,0,0,1-1.661-1.679,3.153,3.153,0,0,1-.237-1.22v-.017a3.156,3.156,0,0,1,.237-1.22,3.073,3.073,0,0,1,.664-1.006,3.189,3.189,0,0,1,2.309-.94,3.273,3.273,0,0,1,1.294.249,3.083,3.083,0,0,1,1.006.677,3.118,3.118,0,0,1,.656,1,3.169,3.169,0,0,1,.236,1.22v.017a3.172,3.172,0,0,1-.157,1,2.991,2.991,0,0,1-.463.879l.7.595-.691.77Zm-1.842-.411a1.96,1.96,0,0,0,.567-.079,1.889,1.889,0,0,0,.479-.219l-1.049-.892.691-.787,1.052.962a2.061,2.061,0,0,0,.312-1.146v-.017a2.33,2.33,0,0,0-.152-.844,2.1,2.1,0,0,0-.427-.691,2.056,2.056,0,0,0-.657-.468,2.023,2.023,0,0,0-2.317.459,2.152,2.152,0,0,0-.423.686,2.31,2.31,0,0,0-.152.839v.017a2.33,2.33,0,0,0,.153.844,2.089,2.089,0,0,0,.427.691,2.066,2.066,0,0,0,.659.468,1.991,1.991,0,0,0,.837.175" transform="translate(6.39 -116.034)" fill="#fff"/><path d="M46.187,201.754a3.223,3.223,0,0,1-1.076-.17,2.181,2.181,0,0,1-.822-.512,2.279,2.279,0,0,1-.525-.844,3.4,3.4,0,0,1-.184-1.167v-3.524h1.067v3.48a1.852,1.852,0,0,0,.413,1.3,1.479,1.479,0,0,0,1.143.447,1.505,1.505,0,0,0,1.135-.428,1.776,1.776,0,0,0,.413-1.277v-3.524h1.067v3.472a3.489,3.489,0,0,1-.188,1.2,2.354,2.354,0,0,1-.529.862,2.156,2.156,0,0,1-.826.516,3.29,3.29,0,0,1-1.089.17" transform="translate(3.395 -116.073)" fill="#fff"/><path d="M55.37,195.477h1l2.693,6.165H57.924l-.621-1.478H54.408l-.63,1.478h-1.1Zm1.539,3.734-1.058-2.448L54.8,199.211Z" transform="translate(0.927 -116.057)" fill="#fff"/><path d="M63.477,195.537h2.728a2.973,2.973,0,0,1,1.023.163,2.037,2.037,0,0,1,.743.45,1.768,1.768,0,0,1,.376.585,1.984,1.984,0,0,1,.131.735v.018a1.978,1.978,0,0,1-.109.677,1.768,1.768,0,0,1-.3.534,1.812,1.812,0,0,1-.459.393,2.278,2.278,0,0,1-.59.25l1.653,2.317H67.4l-1.509-2.133h-1.35v2.133H63.477Zm2.646,3.034a1.424,1.424,0,0,0,.921-.276.915.915,0,0,0,.342-.751v-.018a.905.905,0,0,0-.334-.76,1.5,1.5,0,0,0-.938-.259h-1.57v2.064Z" transform="translate(-2.003 -116.073)" fill="#fff"/><rect width="1.067" height="6.121" transform="translate(68.294 79.464)" fill="#fff"/><path d="M79.631,201.754a3.223,3.223,0,0,1-1.076-.17,2.181,2.181,0,0,1-.822-.512,2.279,2.279,0,0,1-.525-.844,3.4,3.4,0,0,1-.184-1.167v-3.524h1.067v3.48a1.852,1.852,0,0,0,.413,1.3,1.479,1.479,0,0,0,1.143.447,1.505,1.505,0,0,0,1.135-.428,1.776,1.776,0,0,0,.413-1.277v-3.524h1.067v3.472a3.489,3.489,0,0,1-.188,1.2,2.354,2.354,0,0,1-.529.862,2.156,2.156,0,0,1-.826.516,3.29,3.29,0,0,1-1.089.17" transform="translate(-5.679 -116.073)" fill="#fff"/><path d="M88.842,201.713a3.859,3.859,0,0,1-1.355-.24,3.7,3.7,0,0,1-1.2-.739l.647-.77a3.759,3.759,0,0,0,.9.59,2.48,2.48,0,0,0,1.032.2,1.334,1.334,0,0,0,.791-.209.655.655,0,0,0,.293-.56v-.017a.71.71,0,0,0-.057-.293.637.637,0,0,0-.211-.24,1.648,1.648,0,0,0-.421-.21,5.964,5.964,0,0,0-.7-.192,6.923,6.923,0,0,1-.872-.258,2.361,2.361,0,0,1-.64-.35,1.348,1.348,0,0,1-.395-.5,1.72,1.72,0,0,1-.136-.717v-.018a1.648,1.648,0,0,1,.585-1.281,2,2,0,0,1,.657-.363,2.579,2.579,0,0,1,.839-.131,3.507,3.507,0,0,1,1.211.2,3.6,3.6,0,0,1,1.01.573L90.25,197a3.768,3.768,0,0,0-.831-.468,2.252,2.252,0,0,0-.831-.162,1.148,1.148,0,0,0-.735.21.638.638,0,0,0-.262.516v.018a.747.747,0,0,0,.061.31.6.6,0,0,0,.224.245,1.889,1.889,0,0,0,.447.205q.285.1.724.2a6.912,6.912,0,0,1,.855.271,2.136,2.136,0,0,1,.618.363,1.435,1.435,0,0,1,.372.5,1.6,1.6,0,0,1,.128.66v.018a1.8,1.8,0,0,1-.16.77,1.641,1.641,0,0,1-.447.577,1.963,1.963,0,0,1-.687.359,3.047,3.047,0,0,1-.882.122" transform="translate(-8.192 -116.041)" fill="#fff"/></g></g></g><g transform="translate(127.482 478.529)"><g transform="translate(0 0)" clip-path="url(#v)"><path d="M0,83.6v6.121H4.285v-.971H1.067V83.6Z" transform="translate(0 -22.681)" fill="#fff"/><rect width="1.067" height="6.121" transform="translate(5.911 60.919)" fill="#fff"/><g transform="translate(0 0)"><g clip-path="url(#v)"><path d="M12.432,83.6h2.741a2.165,2.165,0,0,1,1.6.542,1.382,1.382,0,0,1,.41,1.015v.017a1.552,1.552,0,0,1-.074.5,1.494,1.494,0,0,1-.192.376,1.306,1.306,0,0,1-.277.283,2.244,2.244,0,0,1-.326.211,2.988,2.988,0,0,1,.491.224,1.6,1.6,0,0,1,.383.3,1.228,1.228,0,0,1,.246.412,1.583,1.583,0,0,1,.088.551v.018a1.579,1.579,0,0,1-.162.726,1.441,1.441,0,0,1-.458.524,2.2,2.2,0,0,1-.716.318,3.6,3.6,0,0,1-.925.11H12.432Zm2.531,2.58a1.5,1.5,0,0,0,.836-.2.7.7,0,0,0,.314-.626v-.017a.673.673,0,0,0-.274-.572,1.313,1.313,0,0,0-.8-.206H13.5V86.18Zm.315,2.589a1.544,1.544,0,0,0,.863-.211.7.7,0,0,0,.313-.629v-.019a.7.7,0,0,0-.309-.608,1.683,1.683,0,0,0-.946-.214H13.5v1.68Z" transform="translate(-3.373 -22.681)" fill="#fff"/><path d="M21.695,83.6h2.728a2.973,2.973,0,0,1,1.023.162,2.038,2.038,0,0,1,.743.451,1.765,1.765,0,0,1,.376.584,1.99,1.99,0,0,1,.131.735v.019a1.981,1.981,0,0,1-.109.677,1.784,1.784,0,0,1-.3.534,1.841,1.841,0,0,1-.459.393,2.277,2.277,0,0,1-.59.249l1.653,2.317H25.621l-1.509-2.133h-1.35v2.133H21.695Zm2.646,3.034a1.419,1.419,0,0,0,.921-.276.913.913,0,0,0,.342-.751v-.017a.905.905,0,0,0-.334-.76,1.5,1.5,0,0,0-.938-.259h-1.57v2.064Z" transform="translate(-5.886 -22.681)" fill="#fff"/><path d="M32.944,83.541h1l2.693,6.164H35.5l-.621-1.477H31.982l-.63,1.477h-1.1Zm1.539,3.733-1.058-2.448-1.049,2.448Z" transform="translate(-8.207 -22.665)" fill="#fff"/><path d="M54.5,36.54a2.321,2.321,0,1,1-3.238-.533,2.32,2.32,0,0,1,3.238.533" transform="translate(-13.643 -9.65)" fill="#fff"/><path d="M70.717,94.075a2.321,2.321,0,1,1-3.239-.533,2.318,2.318,0,0,1,3.239.533" transform="translate(-18.044 -25.26)" fill="#fff"/><path d="M69.965,110.628a2.32,2.32,0,1,1-3.238-.533,2.319,2.319,0,0,1,3.238.533" transform="translate(-17.84 -29.75)" fill="#fff"/><path d="M48.9,48.93A2.321,2.321,0,1,1,45.66,48.4a2.321,2.321,0,0,1,3.238.533" transform="translate(-12.125 -13.012)" fill="#fff"/><path d="M32.676,50.083a2.321,2.321,0,1,1-3.239-.533,2.318,2.318,0,0,1,3.239.533" transform="translate(-7.723 -13.325)" fill="#fff"/><g transform="translate(68.359 17.544)" opacity="0.3"><g clip-path="url(#x)"><path d="M105.88,26.852a6.659,6.659,0,1,1-9.29-1.527,6.656,6.656,0,0,1,9.29,1.527" transform="translate(-93.809 -24.076)" fill="#fff"/></g></g><path d="M104.672,29.47a3.917,3.917,0,1,1-5.465-.9,3.919,3.919,0,0,1,5.465.9" transform="translate(-26.471 -7.552)" fill="#fff"/><path d="M67.8,1.633a3.917,3.917,0,1,1-5.464-.9,3.916,3.916,0,0,1,5.464.9" transform="translate(-16.469 0)" fill="#fff"/><path d="M99.259,77.5a3.917,3.917,0,1,1-5.464-.9,3.917,3.917,0,0,1,5.464.9" transform="translate(-25.003 -20.583)" fill="#fff"/><path d="M59.461,83.717l-1.269-.058.086-1.888,1.269.058Zm.259-5.695-1.269-.058L58.51,76.7l1.269.058Zm.26-5.71-1.269-.058.046-1.016,1.134-.613.6,1.117-.5.271Zm4.985-2.986-.6-1.117,1.676-.906.6,1.117Zm5.028-2.718-.6-1.117,1.117-.6.6,1.117Zm5.028-2.718-.6-1.117,1.4-.755.6,1.117Zm5.389-4.2-1.262-.142.213-1.893,1.262.142Zm.64-5.68-1.262-.142.142-1.262,1.262.142Zm.64-5.68-1.262-.142.178-1.578,1.262.142Zm.747-6.627-1.262-.142.213-1.893,1.262.142ZM31.7,40.2l-.09-1.267,1.267-.09.09,1.267Zm5.068-.36-.09-1.267,1.9-.135.09,1.267Zm7.375-1.049-1.157-.523.654-1.447,1.157.523Zm38.934-2.774-1.262-.142.142-1.262,1.262.142Zm-36.45-2.725-1.157-.523.523-1.157,1.157.523Zm37.09-2.955L82.456,30.2l.178-1.578,1.262.142ZM48.651,28.592l-1.188-.449.673-1.782,1.188.449ZM81.6,24.942l-1.52-1.148.765-1.014,1.52,1.148ZM51.12,22.056l-1.188-.449.561-1.486,1.188.449Zm25.92-.558-1.014-.765.765-1.014,1.014.765Zm-4.562-3.444L71.21,17.1l.765-1.014,1.267.957ZM53.251,16.412l-1.188-.449.449-1.188,1.188.449Zm13.9-2.377-1.52-1.148.765-1.014,1.52,1.148ZM55.047,11.658l-1.188-.449.673-1.782,1.188.449Zm7.547-1.068L61.58,9.825l.765-1.014,1.014.765ZM58.032,7.146l-1.267-.957.765-1.014,1.267.957Z" transform="translate(-8.588 -1.458)" fill="#fff"/><path d="M22.2,55.385l-.107-.26,1.174-.485.107.26ZM20.637,51.6l-.485-1.174,1.174-.485.485,1.174ZM18.454,46.32l-.606-1.468,1.174-.485.606,1.468Zm-2.547-6.163L15.18,38.4l1.174-.485.728,1.761Zm-2.183-5.283L13.239,33.7l1.174-.485.485,1.174Zm-2.183-5.283-.606-1.468,1.174-.485.606,1.468ZM8.994,23.428l-.728-1.761,1.174-.485.728,1.761ZM6.811,18.145l-.485-1.174L7.5,16.486l.485,1.174ZM4.628,12.862l-.606-1.468L5.2,10.91,5.8,12.377ZM2.081,6.7,1.354,4.938l1.174-.485.728,1.761ZM-.1,1.416-.587.243.587-.243,1.072.931Z" transform="translate(48.263 4.106)" fill="#fff"/></g></g></g></g><g transform="translate(255.952 776.929)"><g transform="translate(0 0)" clip-path="url(#y)"><path d="M45.309,1.345l1.057,2.448H44.259ZM44.828.06,42.134,6.225h1.1l.63-1.479H46.76l.622,1.479h1.136L45.824.06Z" transform="translate(-11.431 -0.016)" fill="#fff"/><g transform="translate(0 0)"><g clip-path="url(#z)"><path d="M52.934.119h2.728a2.973,2.973,0,0,1,1.023.163,2.025,2.025,0,0,1,.743.45,1.756,1.756,0,0,1,.376.585,1.984,1.984,0,0,1,.13.735V2.07a1.961,1.961,0,0,1-.109.677,1.782,1.782,0,0,1-.3.534,1.811,1.811,0,0,1-.459.393,2.278,2.278,0,0,1-.59.25L58.128,6.24H56.86L55.351,4.107H54V6.24H52.934ZM55.58,3.153a1.424,1.424,0,0,0,.921-.276.916.916,0,0,0,.341-.751V2.108a.9.9,0,0,0-.333-.76,1.5,1.5,0,0,0-.938-.259H54V3.153Z" transform="translate(-14.361 -0.033)" fill="#fff"/><rect width="1.068" height="6.121" transform="translate(45.394 0.087)" fill="#fff"/><path d="M66.614.119h4.53V1.09H67.681V2.664H70.75v.971H67.681V5.27h3.506V6.24H66.614Z" transform="translate(-18.072 -0.033)" fill="#fff"/><path d="M77.255,6.3a3.859,3.859,0,0,1-1.355-.24,3.7,3.7,0,0,1-1.2-.739l.647-.77a3.757,3.757,0,0,0,.9.59,2.482,2.482,0,0,0,1.032.2,1.331,1.331,0,0,0,.791-.209.654.654,0,0,0,.293-.56V4.556a.7.7,0,0,0-.057-.293.63.63,0,0,0-.211-.24,1.63,1.63,0,0,0-.42-.21,6,6,0,0,0-.7-.192,6.927,6.927,0,0,1-.872-.258,2.361,2.361,0,0,1-.64-.35,1.355,1.355,0,0,1-.395-.5,1.72,1.72,0,0,1-.136-.717V1.775A1.642,1.642,0,0,1,75.523.494a2.009,2.009,0,0,1,.657-.363A2.579,2.579,0,0,1,77.019,0,3.51,3.51,0,0,1,78.23.2,3.585,3.585,0,0,1,79.24.77l-.577.813a3.752,3.752,0,0,0-.831-.468A2.254,2.254,0,0,0,77,.953a1.151,1.151,0,0,0-.735.21A.639.639,0,0,0,76,1.679V1.7a.736.736,0,0,0,.062.31.6.6,0,0,0,.224.245,1.862,1.862,0,0,0,.447.2q.285.1.724.2a6.861,6.861,0,0,1,.854.271,2.13,2.13,0,0,1,.619.363,1.435,1.435,0,0,1,.372.5,1.6,1.6,0,0,1,.128.66v.017a1.8,1.8,0,0,1-.16.77,1.65,1.65,0,0,1-.447.577,1.963,1.963,0,0,1-.687.359,3.043,3.043,0,0,1-.882.122" transform="translate(-20.267 0)" fill="#fff"/><path d="M70.591,44.631a2.077,2.077,0,1,1-2.758-1.014,2.076,2.076,0,0,1,2.758,1.014" transform="translate(-18.076 -11.781)" fill="#fff"/><g transform="translate(0 4.09)" opacity="0.3"><g clip-path="url(#aa)"><path d="M11.368,9.07a5.959,5.959,0,1,1-7.91-2.9,5.957,5.957,0,0,1,7.91,2.9" transform="translate(0 -5.614)" fill="#fff"/></g></g><path d="M10.056,11.013A3.505,3.505,0,1,1,5.4,9.307a3.5,3.5,0,0,1,4.653,1.707" transform="translate(-0.914 -2.437)" fill="#fff"/><path d="M53.761,30.05a3.505,3.505,0,1,1-4.653-1.708,3.5,3.5,0,0,1,4.653,1.708" transform="translate(-12.771 -7.601)" fill="#fff"/><g transform="translate(46.019 36.989)" opacity="0.3"><g clip-path="url(#ab)"><path d="M74.521,54.217a5.959,5.959,0,1,1-7.91-2.9,5.958,5.958,0,0,1,7.91,2.9" transform="translate(-63.152 -50.761)" fill="#fff"/></g></g><path d="M73.208,56.161a3.505,3.505,0,1,1-4.653-1.707,3.506,3.506,0,0,1,4.653,1.707" transform="translate(-18.047 -14.685)" fill="#fff"/><path d="M53.571,46.782l-.118-.809,1.257-.184.118.809ZM52.9,42.2l-.184-1.257,1.257-.184.184,1.257Zm-1.246-4.854-1.262-.964.771-1.009,1.262.964Zm-5.3-4.05-1.514-1.157.771-1.009,1.514,1.157Zm-4.542-3.471-1.009-.771.771-1.009,1.009.771Zm-4.774-2.773-1.456-.634.507-1.164,1.456.634Zm-6.114-2.663-1.747-.761.507-1.164,1.747.761Zm-5.24-2.283L24.522,21.6l.507-1.164,1.164.507Zm-5.24-2.283-1.456-.634.507-1.164,1.456.634Zm-6.114-2.663L12.585,16.4l.507-1.164L14.839,16ZM9.091,14.88l-1.164-.507.507-1.164,1.164.507Z" transform="translate(-2.219 -3.742)" fill="#fff"/></g></g></g></g><g transform="translate(531.903 855.44)"><g transform="translate(0 0)" clip-path="url(#ac)"><g clip-path="url(#ac)"><path d="M14.595,119.114a2.077,2.077,0,1,1-2.9-.477,2.077,2.077,0,0,1,2.9.477" transform="translate(-2.938 -32.081)" fill="#fff"/><path d="M30.095,126.614a2.077,2.077,0,1,1-2.9-.477,2.078,2.078,0,0,1,2.9.477" transform="translate(-7.143 -34.115)" fill="#fff"/><path d="M52.763,122.614a2.077,2.077,0,1,1-2.9-.477,2.077,2.077,0,0,1,2.9.477" transform="translate(-13.293 -33.03)" fill="#fff"/><path d="M77.429,106.448a2.077,2.077,0,1,1-2.9-.477,2.077,2.077,0,0,1,2.9.477" transform="translate(-19.985 -28.644)" fill="#fff"/><path d="M90.679,83.364a2.077,2.077,0,1,1-2.9-.477,2.077,2.077,0,0,1,2.9.477" transform="translate(-23.579 -22.382)" fill="#fff"/><path d="M27.429,102.614a2.077,2.077,0,1,1-2.9-.477,2.077,2.077,0,0,1,2.9.477" transform="translate(-6.42 -27.604)" fill="#fff"/><path d="M62.531,1.073a2.216,2.216,0,0,1-.273,3.1,2.217,2.217,0,0,1-3.028-.737A2.215,2.215,0,0,1,59.5.336a2.216,2.216,0,0,1,3.028.737" transform="translate(-15.933 0)" fill="#fff"/><path d="M43.391,85.248a3.505,3.505,0,1,1-4.89-.8,3.505,3.505,0,0,1,4.89.8" transform="translate(-10.048 -22.731)" fill="#fff"/><path d="M64.481,18.053a3.506,3.506,0,1,1-4.892-.8,3.506,3.506,0,0,1,4.892.8" transform="translate(-15.769 -4.501)" fill="#fff"/><g transform="translate(39.902 9.636)" opacity="0.3"><g clip-path="url(#k)"><path d="M65.561,15.709a5.959,5.959,0,1,1-8.314-1.368,5.958,5.958,0,0,1,8.314,1.368" transform="translate(-54.758 -13.223)" fill="#fff"/></g></g><path d="M94.723,102.248a3.506,3.506,0,1,1-4.892-.805,3.506,3.506,0,0,1,4.892.805" transform="translate(-23.974 -27.343)" fill="#fff"/><g transform="translate(61.94 70.989)" opacity="0.3"><g clip-path="url(#g)"><path d="M95.8,99.9a5.96,5.96,0,1,1-8.314-1.366A5.958,5.958,0,0,1,95.8,99.9" transform="translate(-85 -97.418)" fill="#fff"/></g></g><path d="M9.723,137.248a3.506,3.506,0,1,1-4.892-.806,3.506,3.506,0,0,1,4.892.806" transform="translate(-0.914 -36.838)" fill="#fff"/><g transform="translate(0 96.493)" opacity="0.3"><g clip-path="url(#h)"><path d="M10.8,134.9a5.96,5.96,0,1,1-8.314-1.366A5.958,5.958,0,0,1,10.8,134.9" transform="translate(0 -132.418)" fill="#fff"/></g></g><path d="M9.052,102.541,7.83,102.2l.345-1.222,1.222.345Zm1.919-.111-.63-1.1,1.654-.945.63,1.1Zm6.066-3.466-.63-1.1,1.379-.788.63,1.1ZM10.6,97.04,9.382,96.7l.431-1.528,1.222.345Zm11.671-1.07-.63-1.1,1.1-.63.63,1.1ZM26.87,94.6l-.221-1.251,1.876-.331.221,1.251Zm6.88-1.214-.221-1.251,1.564-.276.221,1.251Zm5.942-1.049-.221-1.251.291-.051.6-.391.7,1.062-.815.534ZM12.414,90.621l-1.222-.345.419-1.485.375-.482,1,.78-.222.286Zm31.828-1.008-.7-1.062,1.593-1.044.7,1.062ZM15.328,86.081l-1-.78.78-1,1,.78Zm34.757-.3-.7-1.062,1.328-.87.7,1.062Zm5.047-3.308-.7-1.062,1.062-.7.7,1.062ZM18.838,81.57l-1-.78.975-1.253,1,.78Zm40.492-1.3-.213-1.252,1.878-.319.213,1.252ZM66.216,79.1,66,77.844l1.566-.266.213,1.252ZM23,76.453l-.917-.879L23.4,74.2l.917.879Zm46.164-.5L68.956,74.7l1.252-.211.211,1.252ZM26.958,72.326l-.917-.879.879-.917.917.879Zm41.364-1.381L68,69.066l1.252-.211.317,1.878ZM30.912,68.2,30,67.32l1.1-1.147.917.879ZM67.16,64.056l-.143-.848-.223-.541,1.174-.484.278.673.167.989ZM34.339,62.345l-1.212-.38.57-1.818,1.212.38ZM65.1,58.557l-.484-1.174,1.174-.484.484,1.174ZM36.051,56.891l-1.212-.38.38-1.212,1.212.38ZM63.161,53.86,62.435,52.1l1.174-.484.726,1.761Zm-25.4-2.422-1.212-.38.476-1.515,1.212.38ZM60.5,47.4l-.605-1.468,1.174-.484.605,1.468ZM39.76,45.075l-1.212-.38.57-1.818,1.212.38ZM58.2,41.823l-.484-1.174,1.174-.484.484,1.174Zm-16.726-2.2-1.212-.38.38-1.212,1.212.38Zm14.789-2.5-.726-1.761,1.174-.484.726,1.761ZM43.183,34.168l-1.212-.38.476-1.515,1.212.38Zm10.414-3.5L52.992,29.2l1.174-.484.605,1.468ZM45.18,27.8l-1.212-.38.57-1.818,1.212.38ZM51.3,25.089l-.484-1.174,1.174-.484.484,1.174Zm-4.4-2.738-1.212-.38.38-1.212,1.212.38Zm2.467-1.959-.726-1.761,1.174-.484.726,1.761ZM48.6,16.9l-1.212-.38.049-.156-.081-1.182,1.267-.087.1,1.421ZM47.012,10.11l-.131-1.9,1.267-.087.131,1.9Zm-.392-5.7L46.533,3.14,47.8,3.053l.087,1.267Z" transform="translate(-2.219 -0.84)" fill="#fff"/><path d="M14.62,174.282a3.055,3.055,0,0,1-2.883-1.915,3.2,3.2,0,0,1-.238-1.232v-.018a3.214,3.214,0,0,1,.233-1.228,3.082,3.082,0,0,1,1.656-1.688,3.2,3.2,0,0,1,1.277-.249,3.926,3.926,0,0,1,.765.07,3.1,3.1,0,0,1,.634.2,2.971,2.971,0,0,1,.533.3,4.235,4.235,0,0,1,.463.384l-.691.8a3.431,3.431,0,0,0-.778-.552,2.038,2.038,0,0,0-.936-.21,1.914,1.914,0,0,0-.809.171,2.017,2.017,0,0,0-.643.463,2.09,2.09,0,0,0-.42.686,2.362,2.362,0,0,0-.149.84v.017a2.391,2.391,0,0,0,.149.844,2.115,2.115,0,0,0,.42.7,1.964,1.964,0,0,0,.643.468,1.914,1.914,0,0,0,.809.171,2.011,2.011,0,0,0,.962-.215,3.778,3.778,0,0,0,.8-.581l.691.7a4.062,4.062,0,0,1-.494.45,3.26,3.26,0,0,1-.555.341,2.806,2.806,0,0,1-.651.218,3.767,3.767,0,0,1-.783.074" transform="translate(-3.119 -45.565)" fill="#fff"/><path d="M23.3,168.036h1l2.693,6.165H25.852l-.621-1.478H22.337l-.63,1.478H20.6Zm1.538,3.734-1.057-2.448-1.05,2.448Z" transform="translate(-5.59 -45.588)" fill="#fff"/><path d="M31.4,168.095h2.413a3.044,3.044,0,0,1,.966.144,2.055,2.055,0,0,1,.735.415,1.834,1.834,0,0,1,.463.647,2.106,2.106,0,0,1,.162.839v.017a2.016,2.016,0,0,1-.192.905,1.893,1.893,0,0,1-.526.652,2.366,2.366,0,0,1-.78.4,3.285,3.285,0,0,1-.956.136H32.472v1.967H31.4Zm2.322,3.183a1.432,1.432,0,0,0,.969-.307.993.993,0,0,0,.356-.79v-.017a.972.972,0,0,0-.359-.821,1.545,1.545,0,0,0-.966-.277H32.472v2.212Z" transform="translate(-8.52 -45.604)" fill="#fff"/><path d="M40.021,168.095h2.728a2.973,2.973,0,0,1,1.023.163,2.037,2.037,0,0,1,.743.45,1.768,1.768,0,0,1,.376.585,1.984,1.984,0,0,1,.131.735v.018a1.978,1.978,0,0,1-.109.677,1.766,1.766,0,0,1-.3.534,1.811,1.811,0,0,1-.459.393,2.278,2.278,0,0,1-.59.25l1.653,2.317H43.947l-1.508-2.133H41.088v2.133H40.021Zm2.646,3.034a1.424,1.424,0,0,0,.921-.276.915.915,0,0,0,.342-.751v-.017a.9.9,0,0,0-.334-.76,1.5,1.5,0,0,0-.938-.259h-1.57v2.064Z" transform="translate(-10.858 -45.604)" fill="#fff"/><rect width="1.067" height="6.121" transform="translate(35.984 122.491)" fill="#fff"/><path d="M56.451,174.282a3.058,3.058,0,0,1-2.884-1.915,3.208,3.208,0,0,1-.238-1.232v-.018a3.214,3.214,0,0,1,.233-1.228,3.082,3.082,0,0,1,1.656-1.688,3.2,3.2,0,0,1,1.277-.249,3.926,3.926,0,0,1,.765.07,3.1,3.1,0,0,1,.634.2,2.971,2.971,0,0,1,.533.3,4.235,4.235,0,0,1,.463.384l-.691.8a3.447,3.447,0,0,0-.778-.552,2.038,2.038,0,0,0-.936-.21,1.914,1.914,0,0,0-.809.171,2.017,2.017,0,0,0-.643.463,2.09,2.09,0,0,0-.42.686,2.362,2.362,0,0,0-.149.84v.017a2.391,2.391,0,0,0,.149.844,2.115,2.115,0,0,0,.42.7,1.964,1.964,0,0,0,.643.468,1.914,1.914,0,0,0,.809.171,2.014,2.014,0,0,0,.962-.215,3.778,3.778,0,0,0,.8-.581l.691.7a4.062,4.062,0,0,1-.494.45,3.26,3.26,0,0,1-.555.341,2.806,2.806,0,0,1-.651.218,3.767,3.767,0,0,1-.783.074" transform="translate(-14.468 -45.565)" fill="#fff"/><path d="M65.977,174.282a3.273,3.273,0,0,1-1.294-.248,3.074,3.074,0,0,1-1.006-.678,3.107,3.107,0,0,1-.656-1,3.169,3.169,0,0,1-.236-1.22v-.017a3.169,3.169,0,0,1,.236-1.22,3.087,3.087,0,0,1,.665-1.006,3.186,3.186,0,0,1,1.014-.686,3.224,3.224,0,0,1,1.294-.254,3.273,3.273,0,0,1,1.294.249,3.083,3.083,0,0,1,1.006.677,3.124,3.124,0,0,1,.656,1,3.173,3.173,0,0,1,.236,1.221v.018a3.169,3.169,0,0,1-.236,1.22,3.076,3.076,0,0,1-.665,1,3.188,3.188,0,0,1-1.014.687,3.224,3.224,0,0,1-1.294.253m.017-.987a2,2,0,0,0,.831-.171,1.96,1.96,0,0,0,.649-.463,2.152,2.152,0,0,0,.423-.686,2.3,2.3,0,0,0,.152-.839v-.017a2.33,2.33,0,0,0-.152-.844,2.1,2.1,0,0,0-.427-.691,2.064,2.064,0,0,0-.657-.468,2.025,2.025,0,0,0-2.317.458,2.163,2.163,0,0,0-.423.687,2.31,2.31,0,0,0-.152.839v.018a2.345,2.345,0,0,0,.152.844,2.1,2.1,0,0,0,.427.691,2.059,2.059,0,0,0,.657.468,1.99,1.99,0,0,0,.836.175" transform="translate(-17.034 -45.565)" fill="#fff"/><path d="M73.957,168.095h2.728a2.974,2.974,0,0,1,1.023.163,2.037,2.037,0,0,1,.743.45,1.768,1.768,0,0,1,.376.585,1.984,1.984,0,0,1,.131.735v.018a1.978,1.978,0,0,1-.109.677,1.767,1.767,0,0,1-.3.534,1.811,1.811,0,0,1-.459.393,2.277,2.277,0,0,1-.59.25l1.653,2.317H77.883l-1.508-2.133H75.024v2.133H73.957Zm2.646,3.034a1.424,1.424,0,0,0,.921-.276.915.915,0,0,0,.342-.751v-.017a.9.9,0,0,0-.334-.76,1.5,1.5,0,0,0-.938-.259h-1.57v2.064Z" transform="translate(-20.064 -45.604)" fill="#fff"/><path d="M83.233,168.095h.995l3.273,4.233v-4.233h1.067v6.121h-.9L84.3,169.862v4.354H83.233Z" transform="translate(-22.581 -45.604)" fill="#fff"/></g></g></g></g><path d="M556.945,303.245c0,152.248-124.606,275.687-278.378,275.687C124.815,578.932.25,455.493.25,303.245S124.815,27.517,278.567,27.517C432.339,27.517,556.945,151,556.945,303.245Z" transform="translate(138.902 154.615)"/></g></svg>