<svg xmlns="http://www.w3.org/2000/svg" width="480.986" height="480.99" viewBox="0 0 480.986 480.99"><g transform="translate(-97 -341)"><path d="M478.236,266.53c0,131.975-106.988,238.977-239.019,238.977C107.2,505.507.25,398.5.25,266.53S107.2,27.517,239.217,27.517C371.248,27.517,478.236,134.555,478.236,266.53Z" transform="translate(98.25 314.983)"/><path d="M239.217,507.007a242.294,242.294,0,0,1-48.471-4.886,239.134,239.134,0,0,1-85.993-36.187,241.148,241.148,0,0,1-87.11-105.8A239.31,239.31,0,0,1,3.634,314.99a242.871,242.871,0,0,1,0-96.922,239.245,239.245,0,0,1,36.175-86A241.15,241.15,0,0,1,145.6,44.922,239.225,239.225,0,0,1,190.746,30.9a242.834,242.834,0,0,1,96.95,0,239.2,239.2,0,0,1,86.01,36.2,241.226,241.226,0,0,1,87.132,105.822,239.316,239.316,0,0,1,14.013,45.145,242.8,242.8,0,0,1,0,96.922,239.155,239.155,0,0,1-36.186,85.99,241.186,241.186,0,0,1-105.816,87.127A239.35,239.35,0,0,1,287.7,502.121,242.37,242.37,0,0,1,239.217,507.007Zm0-477.99a239.22,239.22,0,0,0-47.87,4.827,236.114,236.114,0,0,0-84.915,35.743,238.2,238.2,0,0,0-86.027,104.5A236.356,236.356,0,0,0,6.573,218.669a239.871,239.871,0,0,0,0,95.72A236.183,236.183,0,0,0,42.3,399.3a238.124,238.124,0,0,0,104.474,86.044,236.261,236.261,0,0,0,44.578,13.838,239.909,239.909,0,0,0,95.747,0,236.223,236.223,0,0,0,84.932-35.734,238.166,238.166,0,0,0,86.049-104.486,236.255,236.255,0,0,0,13.837-44.574,239.8,239.8,0,0,0,0-95.72,236.217,236.217,0,0,0-35.733-84.922,238.213,238.213,0,0,0-104.5-86.062,236.307,236.307,0,0,0-44.586-13.842A239.3,239.3,0,0,0,239.217,29.017Z" transform="translate(98.25 314.983)" fill="#fff"/><path d="M205.5,2.026,1.718,361H409.282L205.5,2.026M205.5,0,411,362H0Z" transform="translate(132 343)" fill="#fff"/><path d="M163.5,2.015,1.724,285H325.276L163.5,2.015M163.5,0,327,286H0Z" transform="translate(174 391)" fill="#fff"/><path d="M116.5,4.033,3.445,202H229.555L116.5,4.033M116.5,0,233,204H0Z" transform="translate(221 457.967)" fill="#fff"/><path d="M5559.889-5063.423H5389.963L5305-5226.2l84.963-162.78h169.925l84.963,162.78-84.963,162.78Zm-165.926-318.591h0L5313-5226.2l80.962,155.811h161.926l80.964-155.811-80.964-155.811Z" transform="translate(-5138 5808.982)"/><path d="M5559.283-5064.423l84.441-161.78-84.441-161.78H5390.569l-84.441,161.78,84.441,161.78h168.713m-165.928-318.591H5556.5l.28.539,81.2,156.272-.24.461-81.244,156.35H5393.355l-.28-.539-81.2-156.272.24-.461,81.242-156.35m166.534,319.591H5389.963L5305-5226.2l84.963-162.78h169.925l84.963,162.78Zm-165.926-318.591L5313-5226.2l80.962,155.811h161.926l80.964-155.811-80.964-155.811Z" transform="translate(-5138 5808.982)" fill="#fff"/><path d="M67.5,2A65.185,65.185,0,0,0,30.88,13.185,65.7,65.7,0,0,0,7.146,42.005a65.411,65.411,0,0,0,6.039,62.115,65.7,65.7,0,0,0,28.82,23.733,65.411,65.411,0,0,0,62.115-6.039,65.7,65.7,0,0,0,23.733-28.82,65.411,65.411,0,0,0-6.039-62.115A65.7,65.7,0,0,0,92.995,7.146,65.088,65.088,0,0,0,67.5,2m0-2A67.5,67.5,0,1,1,0,67.5,67.5,67.5,0,0,1,67.5,0Z" transform="translate(271 527.072)" fill="#fff"/><path d="M82.178,2,2.254,155.812,82.178,309.623h159.5L321.6,155.812,241.674,2H82.178M80.963,0H242.889l80.963,155.812L242.889,311.623H80.963L0,155.812Z" transform="translate(175 426.968)" fill="#fff"/><circle cx="18" cy="18" r="18" transform="translate(235 415.275)"/><path d="M18,2A16,16,0,0,0,6.686,29.314,16,16,0,0,0,29.314,6.686,15.9,15.9,0,0,0,18,2m0-2A18,18,0,1,1,0,18,18,18,0,0,1,18,0Z" transform="translate(235 415.275)" fill="#fff"/><circle cx="18" cy="18" r="18" transform="translate(400 415.275)"/><path d="M18,2A16,16,0,0,0,6.686,29.314,16,16,0,0,0,29.314,6.686,15.9,15.9,0,0,0,18,2m0-2A18,18,0,1,1,0,18,18,18,0,0,1,18,0Z" transform="translate(400 415.275)" fill="#fff"/><circle cx="18" cy="18" r="18" transform="translate(400 714.247)"/><path d="M18,2A16,16,0,0,0,6.686,29.314,16,16,0,0,0,29.314,6.686,15.9,15.9,0,0,0,18,2m0-2A18,18,0,1,1,0,18,18,18,0,0,1,18,0Z" transform="translate(400 714.247)" fill="#fff"/><circle cx="18" cy="18" r="18" transform="translate(235 714.247)"/><path d="M18,2A16,16,0,0,0,6.686,29.314,16,16,0,0,0,29.314,6.686,15.9,15.9,0,0,0,18,2m0-2A18,18,0,1,1,0,18,18,18,0,0,1,18,0Z" transform="translate(235 714.247)" fill="#fff"/><circle cx="18" cy="18" r="18" transform="translate(157 564.761)"/><path d="M18,2A16,16,0,0,0,6.686,29.314,16,16,0,0,0,29.314,6.686,15.9,15.9,0,0,0,18,2m0-2A18,18,0,1,1,0,18,18,18,0,0,1,18,0Z" transform="translate(157 564.761)" fill="#fff"/><circle cx="18" cy="18" r="18" transform="translate(481 564.761)"/><path d="M18,2A16,16,0,0,0,6.686,29.314,16,16,0,0,0,29.314,6.686,15.9,15.9,0,0,0,18,2m0-2A18,18,0,1,1,0,18,18,18,0,0,1,18,0Z" transform="translate(481 564.761)" fill="#fff"/><path d="M38.719,23.792a8.624,8.624,0,0,1-3.124-.847,7.371,7.371,0,0,1-2.343-1.815,7.875,7.875,0,0,1-1.463-2.618,10.032,10.032,0,0,1-.506-3.234,10.223,10.223,0,0,1,.506-3.212,7.832,7.832,0,0,1,1.54-2.728,7.457,7.457,0,0,1,2.585-1.892,9.682,9.682,0,0,1,7.249,0,7.482,7.482,0,0,1,2.574,1.892,7.832,7.832,0,0,1,1.54,2.728,10.223,10.223,0,0,1,.506,3.212,10.032,10.032,0,0,1-.506,3.234,7.875,7.875,0,0,1-1.463,2.618,7.371,7.371,0,0,1-2.343,1.815,8.623,8.623,0,0,1-3.124.847v1.122h4.422V23.55h1.3v4.114h-1.3V26.278H41.425a1.079,1.079,0,0,0-.781.286,1.048,1.048,0,0,0-.3.792,1.065,1.065,0,0,0,.3.77,1.036,1.036,0,0,0,.781.308H43.8v1.628H35.485V28.434h2.156a1.079,1.079,0,1,0,0-2.156H34.319v1.386h-1.3V23.55h1.3v1.364h4.4Zm.814-1.738a7.438,7.438,0,0,0,3.058-.572A5.867,5.867,0,0,0,45.9,17.8a8.433,8.433,0,0,0,0-5.038,5.867,5.867,0,0,0-3.311-3.685,8.46,8.46,0,0,0-6.116,0,5.867,5.867,0,0,0-3.311,3.685,8.433,8.433,0,0,0,0,5.038,5.867,5.867,0,0,0,3.311,3.685A7.438,7.438,0,0,0,39.533,22.054Zm10.45-.638h.726a.986.986,0,0,0,.847-.341,1.208,1.208,0,0,0,.143-.957,10.093,10.093,0,0,1-.176-1.848,9.785,9.785,0,0,1,.583-3.465,7.474,7.474,0,0,1,1.65-2.64,7.139,7.139,0,0,1,2.6-1.672,9.539,9.539,0,0,1,3.421-.583,9.69,9.69,0,0,1,2.816.44,7.7,7.7,0,0,1,2.662,1.43,7.588,7.588,0,0,1,1.991,2.585,8.825,8.825,0,0,1,.781,3.905q0,.462-.033.924a7.969,7.969,0,0,1-.121.924,1.177,1.177,0,0,0,.154.957,1.018,1.018,0,0,0,.858.341h.638v1.628H64.085V21.416h.506a1.749,1.749,0,0,0,1.089-.3,1.786,1.786,0,0,0,.572-.759,3.406,3.406,0,0,0,.231-1.012q.044-.55.044-1.078a8.729,8.729,0,0,0-.286-2.288,5.767,5.767,0,0,0-.88-1.881,5.408,5.408,0,0,0-1.485-1.4,6.367,6.367,0,0,0-2.1-.836.45.45,0,0,0-.143-.022h-.143a.991.991,0,0,0-.759.319,1.225,1.225,0,0,0-.3.869v8.382h1.54v1.628H57.485V21.416h1.584V13.034a1.254,1.254,0,0,0-.286-.869,1.043,1.043,0,0,0-.9-.308q-.066.011-.154.033a6.493,6.493,0,0,0-1.848.715,5.409,5.409,0,0,0-1.5,1.276,5.843,5.843,0,0,0-1,1.87,7.965,7.965,0,0,0-.363,2.519,9.146,9.146,0,0,0,.066,1.067,3.674,3.674,0,0,0,.264,1.023,1.835,1.835,0,0,0,.594.759,1.718,1.718,0,0,0,1.056.3h.44v1.628H49.983ZM79.969,6.742a8.664,8.664,0,0,1,3.63.7,7.482,7.482,0,0,1,2.574,1.892,7.832,7.832,0,0,1,1.54,2.728,10.223,10.223,0,0,1,.506,3.212,10.032,10.032,0,0,1-.506,3.234A7.875,7.875,0,0,1,86.25,21.13a7.371,7.371,0,0,1-2.343,1.815,8.624,8.624,0,0,1-3.124.847v1.122h4.422V23.55h1.3v4.114h-1.3V26.278H74.755v1.386h-1.3V23.55h1.3v1.364h4.4V23.792a8.623,8.623,0,0,1-3.124-.847,7.371,7.371,0,0,1-2.343-1.815,7.875,7.875,0,0,1-1.463-2.618,10.032,10.032,0,0,1-.506-3.234,10.223,10.223,0,0,1,.506-3.212,7.832,7.832,0,0,1,1.54-2.728A7.457,7.457,0,0,1,76.35,7.446,8.683,8.683,0,0,1,79.969,6.742Zm0,15.312a7.438,7.438,0,0,0,3.058-.572A5.867,5.867,0,0,0,86.338,17.8a8.433,8.433,0,0,0,0-5.038,5.867,5.867,0,0,0-3.311-3.685,8.46,8.46,0,0,0-6.116,0A5.867,5.867,0,0,0,73.6,12.759a8.433,8.433,0,0,0,0,5.038,5.867,5.867,0,0,0,3.311,3.685A7.438,7.438,0,0,0,79.969,22.054Zm10.45-1.232.374.264a5.933,5.933,0,0,0,1.716.627,9.3,9.3,0,0,0,1.848.187,7.408,7.408,0,0,0,3.036-.561,5.6,5.6,0,0,0,2.046-1.507,6.011,6.011,0,0,0,1.155-2.156,8.757,8.757,0,0,0,.363-2.53,8.33,8.33,0,0,0-.484-2.981,5.787,5.787,0,0,0-1.353-2.112A5.388,5.388,0,0,0,97.03,8.8a8.409,8.409,0,0,0-2.673-.407q-.242,0-.5.011t-.5.033a1.316,1.316,0,0,0-.946.495,1.65,1.65,0,0,0-.374,1.089v1.914H90.419V7.666h.022a9.125,9.125,0,0,1,1.925-.583A10.822,10.822,0,0,1,94.357,6.9a8.825,8.825,0,0,1,3.9.781,7.588,7.588,0,0,1,2.585,1.991,7.7,7.7,0,0,1,1.43,2.662,9.69,9.69,0,0,1,.44,2.816,9.539,9.539,0,0,1-.583,3.421,7.139,7.139,0,0,1-1.672,2.6,7.474,7.474,0,0,1-2.64,1.65,9.785,9.785,0,0,1-3.465.583,9.515,9.515,0,0,1-2.31-.264V25.09H90.419Z" transform="matrix(0.469, -0.883, 0.883, 0.469, 147.108, 545.466)" fill="#fff"/><path d="M36.31,9.958A7.33,7.33,0,0,0,33.8,8.242,8.681,8.681,0,0,0,30.37,7.6a9.7,9.7,0,0,0-3.454.583,7.493,7.493,0,0,0-2.629,1.65,7.259,7.259,0,0,0-1.683,2.6,9.38,9.38,0,0,0-.594,3.421,9.69,9.69,0,0,0,.44,2.816,7.7,7.7,0,0,0,1.43,2.662,7.588,7.588,0,0,0,2.585,1.991,8.825,8.825,0,0,0,3.9.781,10.98,10.98,0,0,0,2.563-.308,7.635,7.635,0,0,0,2.354-.99,6.244,6.244,0,0,0,1.8-1.76A5.741,5.741,0,0,0,38,18.406L36.882,16.69a6.338,6.338,0,0,1-.748,2.728,6.094,6.094,0,0,1-1.562,1.837,6.006,6.006,0,0,1-2.035,1.034,7.833,7.833,0,0,1-2.167.319A8.409,8.409,0,0,1,27.7,22.2a5.388,5.388,0,0,1-2.09-1.254,5.787,5.787,0,0,1-1.353-2.112,8.33,8.33,0,0,1-.484-2.981,8.757,8.757,0,0,1,.363-2.53,6.011,6.011,0,0,1,1.155-2.156,5.6,5.6,0,0,1,2.046-1.507A7.408,7.408,0,0,1,30.37,9.1a7.558,7.558,0,0,1,2.838.473,5.045,5.045,0,0,1,1.936,1.353Zm3.894.22.374-.264a5.933,5.933,0,0,1,1.716-.627A9.3,9.3,0,0,1,44.142,9.1a7.408,7.408,0,0,1,3.036.561,5.6,5.6,0,0,1,2.046,1.507,6.011,6.011,0,0,1,1.155,2.156,8.757,8.757,0,0,1,.363,2.53,8.33,8.33,0,0,1-.484,2.981A5.787,5.787,0,0,1,48.9,20.947a5.388,5.388,0,0,1-2.09,1.254,8.409,8.409,0,0,1-2.673.407q-.242,0-.495-.011t-.495-.033a1.316,1.316,0,0,1-.946-.495,1.65,1.65,0,0,1-.374-1.089V19.066H40.2v4.268h.022a9.125,9.125,0,0,0,1.925.583,10.822,10.822,0,0,0,1.991.187,8.825,8.825,0,0,0,3.905-.781,7.588,7.588,0,0,0,2.585-1.991,7.7,7.7,0,0,0,1.43-2.662,9.69,9.69,0,0,0,.44-2.816,9.539,9.539,0,0,0-.583-3.421,7.139,7.139,0,0,0-1.672-2.6,7.474,7.474,0,0,0-2.64-1.65A9.785,9.785,0,0,0,44.142,7.6a9.515,9.515,0,0,0-2.31.264V5.91H40.2Zm14.5,5.676a8.664,8.664,0,0,0,.7,3.63A7.482,7.482,0,0,0,57.3,22.058a7.832,7.832,0,0,0,2.728,1.54,10.448,10.448,0,0,0,6.424,0,7.832,7.832,0,0,0,2.728-1.54,7.482,7.482,0,0,0,1.892-2.574,8.664,8.664,0,0,0,.7-3.63,8.683,8.683,0,0,0-.7-3.619A7.457,7.457,0,0,0,69.178,9.65,7.832,7.832,0,0,0,66.45,8.11a10.448,10.448,0,0,0-6.424,0A7.832,7.832,0,0,0,57.3,9.65a7.457,7.457,0,0,0-1.892,2.585A8.683,8.683,0,0,0,54.7,15.854Zm1.76,0a7.438,7.438,0,0,1,.572-3.058,5.867,5.867,0,0,1,3.685-3.311,8.433,8.433,0,0,1,5.038,0A5.867,5.867,0,0,1,69.442,12.8a7.438,7.438,0,0,1,.572,3.058,7.438,7.438,0,0,1-.572,3.058,5.867,5.867,0,0,1-3.685,3.311,8.433,8.433,0,0,1-5.038,0,5.867,5.867,0,0,1-3.685-3.311A7.438,7.438,0,0,1,56.462,15.854Zm5.3-.044a1.361,1.361,0,0,0,.429,1.012,1.415,1.415,0,0,0,1.023.418,1.427,1.427,0,0,0,1.43-1.43,1.342,1.342,0,0,0-.418-1,1.4,1.4,0,0,0-1.012-.407,1.435,1.435,0,0,0-1.023.407A1.326,1.326,0,0,0,61.764,15.81Zm14.388,5.7a9.182,9.182,0,0,0,4.576-1.078,7.023,7.023,0,0,0,2.9-3.08,7.173,7.173,0,0,0,2.409,2.772,8.076,8.076,0,0,0,3.707,1.3,1.612,1.612,0,0,1,.99.462,1.355,1.355,0,0,1,.352.968v.616h1.628V18.252H91.09v.682a1.254,1.254,0,0,1-.286.869,1.043,1.043,0,0,1-.9.308q-.066-.011-.154-.033a7.277,7.277,0,0,1-2.574-1.056,5.836,5.836,0,0,1-1.606-1.628,6,6,0,0,1-.825-1.991,10.11,10.11,0,0,1-.231-2.145,6.694,6.694,0,0,1,2.211-5.346Q88.934,6,93.29,6l-2.178-.99a9.82,9.82,0,0,0-2.706.341,7.745,7.745,0,0,0-2.1.935,6.864,6.864,0,0,0-1.573,1.4,8.959,8.959,0,0,0-1.1,1.683,8.17,8.17,0,0,0-1.078-1.683,6.771,6.771,0,0,0-1.584-1.4,7.894,7.894,0,0,0-2.123-.935,9.85,9.85,0,0,0-2.695-.341L73.974,6q4.356,0,6.567,1.914a6.694,6.694,0,0,1,2.211,5.346,8.433,8.433,0,0,1-.429,2.618,6.094,6.094,0,0,1-1.452,2.376,7.645,7.645,0,0,1-2.706,1.727,11.38,11.38,0,0,1-4.191.671ZM95.49,15.722A10.223,10.223,0,0,0,96,18.934a7.832,7.832,0,0,0,1.54,2.728,7.457,7.457,0,0,0,2.585,1.892,9.682,9.682,0,0,0,7.249,0,7.482,7.482,0,0,0,2.574-1.892,7.832,7.832,0,0,0,1.54-2.728,10.223,10.223,0,0,0,.506-3.212,10.359,10.359,0,0,0-.374-2.794,8.233,8.233,0,0,0-1.133-2.453A7.4,7.4,0,0,0,105.9,7.406a1.833,1.833,0,0,1-.99-.561,1.446,1.446,0,0,1-.352-.979V3.908a1.323,1.323,0,0,1,.363-.979,1.323,1.323,0,0,1,.979-.363h2.112V.938H99.692V2.566h1.892a1.323,1.323,0,0,1,.979.363,1.323,1.323,0,0,1,.363.979V5.866a1.446,1.446,0,0,1-.352.979,1.833,1.833,0,0,1-.99.561A7.4,7.4,0,0,0,97,10.475a8.233,8.233,0,0,0-1.133,2.453A10.359,10.359,0,0,0,95.49,15.722Zm1.5,0a8.327,8.327,0,0,1,.385-2.519,5.867,5.867,0,0,1,3.311-3.685,8.46,8.46,0,0,1,6.116,0,5.867,5.867,0,0,1,3.311,3.685,8.433,8.433,0,0,1,0,5.038,5.867,5.867,0,0,1-3.311,3.685,8.46,8.46,0,0,1-6.116,0,5.867,5.867,0,0,1-3.311-3.685A8.327,8.327,0,0,1,96.986,15.722Z" transform="translate(498.769 560.82) rotate(-118)" fill="#fff"/><path d="M36.838,7.208a8.623,8.623,0,0,0-3.124.847A7.371,7.371,0,0,0,31.371,9.87a7.875,7.875,0,0,0-1.463,2.618,10.032,10.032,0,0,0-.506,3.234,10.223,10.223,0,0,0,.506,3.212,7.832,7.832,0,0,0,1.54,2.728,7.457,7.457,0,0,0,2.585,1.892,8.683,8.683,0,0,0,3.619.7,8.664,8.664,0,0,0,3.63-.7,7.482,7.482,0,0,0,2.574-1.892,7.832,7.832,0,0,0,1.54-2.728,10.223,10.223,0,0,0,.506-3.212,10.032,10.032,0,0,0-.506-3.234A7.875,7.875,0,0,0,43.933,9.87,7.371,7.371,0,0,0,41.59,8.055a8.623,8.623,0,0,0-3.124-.847V6.086h4.422V7.45h1.3V3.336h-1.3V4.722H39.544a1.079,1.079,0,0,1-.781-.286,1.048,1.048,0,0,1-.3-.792,1.065,1.065,0,0,1,.3-.77,1.036,1.036,0,0,1,.781-.308H41.92V.938H33.6V2.566H35.76a1.02,1.02,0,0,1,1.078,1.078A1.02,1.02,0,0,1,35.76,4.722H32.438V3.336h-1.3V7.45h1.3V6.086h4.4Zm.814,1.738a7.438,7.438,0,0,1,3.058.572A5.867,5.867,0,0,1,44.021,13.2a8.433,8.433,0,0,1,0,5.038,5.867,5.867,0,0,1-3.311,3.685,7.438,7.438,0,0,1-3.058.572,7.438,7.438,0,0,1-3.058-.572,5.867,5.867,0,0,1-3.311-3.685,8.433,8.433,0,0,1,0-5.038,5.867,5.867,0,0,1,3.311-3.685A7.438,7.438,0,0,1,37.652,8.946ZM49.73,20.122V18.01a1.251,1.251,0,0,1,1.342-1.342H53.03a1.446,1.446,0,0,1,.979.352,1.833,1.833,0,0,1,.561.99A7.4,7.4,0,0,0,57.639,22.6a8.233,8.233,0,0,0,2.453,1.133,10.359,10.359,0,0,0,2.794.374A10.223,10.223,0,0,0,66.1,23.6a7.832,7.832,0,0,0,2.728-1.54,7.482,7.482,0,0,0,1.892-2.574,8.664,8.664,0,0,0,.7-3.63,8.683,8.683,0,0,0-.7-3.619A7.457,7.457,0,0,0,68.826,9.65,7.832,7.832,0,0,0,66.1,8.11,10.223,10.223,0,0,0,62.886,7.6a10.359,10.359,0,0,0-2.794.374,8.233,8.233,0,0,0-2.453,1.133A7.4,7.4,0,0,0,54.57,13.7a1.833,1.833,0,0,1-.561.99,1.446,1.446,0,0,1-.979.352H51.072A1.251,1.251,0,0,1,49.73,13.7V11.806H48.1v8.316ZM62.886,9.1a8.327,8.327,0,0,1,2.519.385A5.867,5.867,0,0,1,69.09,12.8a7.438,7.438,0,0,1,.572,3.058,7.438,7.438,0,0,1-.572,3.058A5.867,5.867,0,0,1,65.4,22.223a8.433,8.433,0,0,1-5.038,0,5.867,5.867,0,0,1-3.685-3.311,7.438,7.438,0,0,1-.572-3.058,7.438,7.438,0,0,1,.572-3.058,5.867,5.867,0,0,1,3.685-3.311A8.327,8.327,0,0,1,62.886,9.1Zm10.736,6.226a10.393,10.393,0,0,0,.451,3.058,7.832,7.832,0,0,0,1.375,2.629,7.535,7.535,0,0,0,2.321,1.914,8.178,8.178,0,0,0,3.267.913v3.3a1.251,1.251,0,0,1-1.342,1.342H77.8V30.11h8.316V28.482H84.006a1.251,1.251,0,0,1-1.342-1.342v-3.3a8.178,8.178,0,0,0,3.267-.913,7.535,7.535,0,0,0,2.321-1.914,7.991,7.991,0,0,0,1.386-2.629,10.164,10.164,0,0,0,.462-3.058,10.271,10.271,0,0,0-.462-3.069,8.1,8.1,0,0,0-1.386-2.651,7.464,7.464,0,0,0-2.321-1.925,7.938,7.938,0,0,0-3.267-.891l.22-5.192h-2.2l.374,5.192a8.178,8.178,0,0,0-3.267.913A7.535,7.535,0,0,0,75.47,9.617a7.991,7.991,0,0,0-1.386,2.629A10.237,10.237,0,0,0,73.622,15.326Zm9.042-6.754a6.7,6.7,0,0,1,2.684.748A5.962,5.962,0,0,1,87.2,10.86a6.135,6.135,0,0,1,1.067,2.09,8.486,8.486,0,0,1,0,4.763A6.15,6.15,0,0,1,87.2,19.792a5.833,5.833,0,0,1-1.848,1.529,6.817,6.817,0,0,1-2.684.737Zm-7.546,6.754a8.309,8.309,0,0,1,.341-2.365,6.15,6.15,0,0,1,1.067-2.079,5.962,5.962,0,0,1,1.848-1.54,6.7,6.7,0,0,1,2.684-.748l-.022,13.464a6.778,6.778,0,0,1-2.662-.737,5.833,5.833,0,0,1-1.848-1.529,6.15,6.15,0,0,1-1.067-2.079A8.386,8.386,0,0,1,75.118,15.326ZM92.3,10.178l.374-.264a5.933,5.933,0,0,1,1.716-.627A9.3,9.3,0,0,1,96.238,9.1a7.408,7.408,0,0,1,3.036.561,5.6,5.6,0,0,1,2.046,1.507,6.011,6.011,0,0,1,1.155,2.156,8.757,8.757,0,0,1,.363,2.53,8.33,8.33,0,0,1-.484,2.981A5.787,5.787,0,0,1,101,20.947a5.388,5.388,0,0,1-2.09,1.254,8.409,8.409,0,0,1-2.673.407q-.242,0-.5-.011t-.5-.033a1.316,1.316,0,0,1-.946-.495,1.65,1.65,0,0,1-.374-1.089V19.066H92.3v4.268h.022a9.125,9.125,0,0,0,1.925.583,10.822,10.822,0,0,0,1.991.187,8.825,8.825,0,0,0,3.9-.781,7.588,7.588,0,0,0,2.585-1.991,7.7,7.7,0,0,0,1.43-2.662,9.69,9.69,0,0,0,.44-2.816,9.539,9.539,0,0,0-.583-3.421,7.139,7.139,0,0,0-1.672-2.6,7.474,7.474,0,0,0-2.64-1.65A9.785,9.785,0,0,0,96.238,7.6a9.515,9.515,0,0,0-2.31.264V5.91H92.3Z" transform="translate(266 747.559)" fill="#fff"/><g transform="translate(622.149 -109.199) rotate(45)"><path d="M-1.079,18.054a.421.421,0,0,1-.421-.421V-1.079A.421.421,0,0,1-1.079-1.5a.421.421,0,0,1,.421.421V17.632A.421.421,0,0,1-1.079,18.054Z" transform="translate(451.853 731.208)" fill="#fff"/><path d="M15.627-.657H-1.079A.421.421,0,0,1-1.5-1.079.421.421,0,0,1-1.079-1.5H15.627a.421.421,0,0,1,.421.421A.421.421,0,0,1,15.627-.657Z" transform="translate(443.5 740.563)" fill="#fff"/></g><g transform="translate(67.038 345.56)"><path d="M9.185.718H.359A.359.359,0,0,1,.359,0H9.185a.359.359,0,1,1,0,.718Z" transform="translate(112.818 242.291) rotate(-90)" fill="#fff"/><g transform="translate(93.45 228.394)"><path d="M6.3,12.905a6.543,6.543,0,0,1-3.878-1.26A6.7,6.7,0,0,1,.983,10.22,6.829,6.829,0,0,1,.02,8.4.359.359,0,1,1,.7,8.161,6.112,6.112,0,0,0,1.56,9.792a5.978,5.978,0,0,0,1.282,1.273,5.891,5.891,0,0,0,7.631-.607,5.918,5.918,0,0,0-.665-8.936A5.641,5.641,0,0,0,8.226.7.359.359,0,1,1,8.452.018a6.358,6.358,0,0,1,1.783.926,6.633,6.633,0,0,1-1.359,11.44A6.581,6.581,0,0,1,6.3,12.905Z" transform="translate(0 9.136) rotate(-45)" fill="#fff"/><path d="M.359,16.662A.359.359,0,0,1,0,16.3V.359a.359.359,0,1,1,.718,0V16.3A.359.359,0,0,1,.359,16.662Z" transform="translate(8.122 9.54) rotate(-90)" fill="#fff"/></g></g><g transform="translate(818.975 -14.669) rotate(90)"><path d="M-1.046,19.548a.454.454,0,0,1-.454-.454V-1.046A.454.454,0,0,1-1.046-1.5a.454.454,0,0,1,.454.454v20.14A.454.454,0,0,1-1.046,19.548Z" transform="translate(594.484 310.699)" fill="#fff"/><path d="M-1.046,19.548a.454.454,0,0,1-.454-.454V-1.046A.454.454,0,0,1-1.046-1.5a.454.454,0,0,1,.454.454v20.14A.454.454,0,0,1-1.046,19.548Z" transform="translate(603.476 310.699)" fill="#fff"/><path d="M16.936-.593H-1.046A.454.454,0,0,1-1.5-1.046.454.454,0,0,1-1.046-1.5H16.936a.454.454,0,0,1,.454.454A.454.454,0,0,1,16.936-.593Z" transform="translate(589.809 325.444)" fill="#fff"/><path d="M16.936-.593H-1.046A.454.454,0,0,1-1.5-1.046.454.454,0,0,1-1.046-1.5H16.936a.454.454,0,0,1,.454.454A.454.454,0,0,1,16.936-.593Z" transform="translate(589.809 322.567)" fill="#fff"/></g><g transform="translate(68.757 -175.237) rotate(45)"><path d="M-1.133,15.533a.367.367,0,0,1-.367-.367v-16.3A.367.367,0,0,1-1.133-1.5a.367.367,0,0,1,.367.367v16.3A.367.367,0,0,1-1.133,15.533Z" transform="translate(671.177 175.538)" fill="#fff"/><path d="M-1.133,15.533a.367.367,0,0,1-.367-.367v-16.3A.367.367,0,0,1-1.133-1.5a.367.367,0,0,1,.367.367v16.3A.367.367,0,0,1-1.133,15.533Z" transform="translate(678.454 175.538)" fill="#fff"/><path d="M-1.133,15.533a.367.367,0,0,1-.367-.367v-16.3A.367.367,0,0,1-1.133-1.5a.367.367,0,0,1,.367.367v16.3A.367.367,0,0,1-1.133,15.533Z" transform="translate(685.73 175.538)" fill="#fff"/><path d="M-1.133,6.574a.366.366,0,0,1-.255-.1A.367.367,0,0,1-1.4,5.952l7.1-7.34A.367.367,0,0,1,6.218-1.4a.367.367,0,0,1,.009.519l-7.1,7.34A.366.366,0,0,1-1.133,6.574Z" transform="translate(678.561 175.478)" fill="#fff"/><path d="M17-.766H-1.133A.367.367,0,0,1-1.5-1.133.367.367,0,0,1-1.133-1.5H17a.367.367,0,0,1,.367.367A.367.367,0,0,1,17-.766Z" transform="translate(669.387 189.217)" fill="#fff"/><path d="M6.011,6.716A.366.366,0,0,1,5.746,6.6L-1.4-.88A.367.367,0,0,1-1.386-1.4a.367.367,0,0,1,.519.012L6.277,6.1a.367.367,0,0,1-.265.62Z" transform="translate(671.22 175.478)" fill="#fff"/><path d="M-1.133,15.533a.367.367,0,0,1-.367-.367v-16.3A.367.367,0,0,1-1.133-1.5a.367.367,0,0,1,.367.367v16.3A.367.367,0,0,1-1.133,15.533Z" transform="translate(678.454 175.538)" fill="#fff"/><path d="M-1.133,15.533a.367.367,0,0,1-.367-.367v-16.3A.367.367,0,0,1-1.133-1.5a.367.367,0,0,1,.367.367v16.3A.367.367,0,0,1-1.133,15.533Z" transform="translate(685.73 175.538)" fill="#fff"/><path d="M-1.133,6.574a.366.366,0,0,1-.255-.1A.367.367,0,0,1-1.4,5.952l7.1-7.34A.367.367,0,0,1,6.218-1.4a.367.367,0,0,1,.009.519l-7.1,7.34A.366.366,0,0,1-1.133,6.574Z" transform="translate(678.561 175.478)" fill="#fff"/><path d="M17-.766H-1.133A.367.367,0,0,1-1.5-1.133.367.367,0,0,1-1.133-1.5H17a.367.367,0,0,1,.367.367A.367.367,0,0,1,17-.766Z" transform="translate(669.387 189.217)" fill="#fff"/><path d="M6.011,6.716A.366.366,0,0,1,5.746,6.6L-1.4-.88A.367.367,0,0,1-1.386-1.4a.367.367,0,0,1,.519.012L6.277,6.1a.367.367,0,0,1-.265.62Z" transform="translate(671.22 175.478)" fill="#fff"/></g><g transform="translate(-79 122.284)"><path d="M10.1,1.625,1.377,17h17.45L10.1,1.625M10.1,0,20.2,17.806H0Z" transform="translate(317.123 309.605) rotate(-45)" fill="#fff"/><path d="M16.3.8H.4A.4.4,0,1,1,.4,0H16.3a.4.4,0,1,1,0,.8Z" transform="translate(323.373 314.378) rotate(-45)" fill="#fff"/></g><path d="M7.2,1.158.981,12.114H13.412L7.2,1.158M7.2,0l7.2,12.685H0Z" transform="translate(252.957 720.23) rotate(45)" fill="#fff"/><g transform="translate(140.576 468.868)" opacity="0.135"><path d="M432.689,450.494H434.4l3.542,7.82-.24.132Z" transform="translate(-218.263 -292.217)" fill="#fff"/><path d="M220.56,99.828l45.838,79.4h-91.67ZM209.4,163.84a7.147,7.147,0,0,0-.578-.716,14.824,14.824,0,0,1-4.248-6.87c-.592-2.256-.792-4.616-1.213-7.221a7.066,7.066,0,0,0-.6,1.678,20.218,20.218,0,0,0,.909,8.16l-.39.118-2.727-7.9a3.866,3.866,0,0,0-.442,1.21c.036,1.5.094,3,.277,4.485.088.711.266,1.693.758,2.023,2.671,1.791,5.453,3.417,8.2,5.1,1.022.787,1.615-.158,2.167-.665,1.066-.979,1.992-2.11,3.12-3.334l-2.37,5.244,1.42.5,2.3-3.493-.822,3.905,2.041.318.578-1.5.169.022v1.634h5.372c.052-.437.085-.719.13-1.1l.6.989,2.035-.455-.556-3,1.934,2.69,1.5-.554-2.3-4.965,4.4,4.553c2.892-1.835,5.546-3.536,8.22-5.206a2.855,2.855,0,0,0,1.44-2.306c.129-1.652.251-3.306.3-4.962.011-.358-.286-.726-.476-1.171l-2.346,7.171c.072-2.765.161-5.275.189-7.786.01-.875-.059-.875-.81-1.045-.2,2.108-.4,4.234-.608,6.483l-6.309-2.847.012-.217h6.35l.041-.368L230.442,151l6.487-1.421-.036-.306h-7.227c-.539,5.385-2.855,8.526-6.764,9.325-1.1-2.467-3.55-2.348-4.7.089-4.43-1.511-6.52-4.692-6.666-9.387h-6.822l-.034.3,6.207,1.407-6.307,1.43.041.361h6.088l.008.21-5.632,2.514.1.353,5.895-.941-5.017,3.7.177.278,5.752-2.158-4.246,4.553.211.25,4.85-2.758c-.939,1.651-1.738,3.1-2.594,4.521C210.062,163.564,209.678,163.669,209.4,163.84Zm-14.617-5.57-.1.079a6.218,6.218,0,0,0,.526.722A54.564,54.564,0,0,0,207.569,169.2c8.3,4.646,16.754,5.024,25.311.78a41.111,41.111,0,0,0,14.614-12.048,5.45,5.45,0,0,0,.7-6.411,33.312,33.312,0,0,0-7.482-9.573c-5.221-4.842-11.268-7.851-18.463-8.229a26.91,26.91,0,0,0-16.345,4.749c-.683.444-1.332.941-2,1.413l.18.24c.456-.292.907-.592,1.369-.876,6.326-3.9,13.1-5.477,20.43-3.718,10.072,2.418,16.6,9.383,22.107,17.57.875,1.3.668,2.02-.491,3.132-1.2,1.151-2.473,2.225-3.674,3.374a51.151,51.151,0,0,1-11.207,8.53c-5.405,2.876-11.08,4.151-17.173,2.855-6.128-1.3-11.253-4.528-15.977-8.472C197.857,161.165,196.345,159.689,194.786,158.27Zm51.928-4.055a2.313,2.313,0,0,0-.085-.514,32.778,32.778,0,0,0-15.971-14.968,23.158,23.158,0,0,0-12.282-1.858,27.28,27.28,0,0,0-15.415,7.5c-1.994,1.86-3.746,3.98-5.608,5.982l.288.315c7.015-6.849,15.083-11.31,25.188-10.456C232.865,141.064,240.325,146.617,246.713,154.215ZM197.1,164.476a35.652,35.652,0,0,0,7.794,6.462c7.65,4.714,15.79,6.349,24.507,3.581a39.664,39.664,0,0,0,16.56-10.707,18.077,18.077,0,0,0,4.938-7.97,8.687,8.687,0,0,0,.113-1.618l-.332-.027a10.691,10.691,0,0,1-.447,1.513,7.385,7.385,0,0,1-.875,1.4,48.874,48.874,0,0,1-15.968,13.932,27.024,27.024,0,0,1-14.822,3.395,30.157,30.157,0,0,1-13.908-4.689C202.06,168.12,199.614,166.243,197.1,164.476Zm.094,3.6-.186.211a7.641,7.641,0,0,0,.553.6c6.758,5.93,14.16,10.239,23.615,9.481,1.808-.145,3.682.155,5.439-.188,8.332-1.63,15.1-6.056,20.864-12.135a23.323,23.323,0,0,0,4.886-7.377,8.365,8.365,0,0,0,.305-1.513c-1.017,1.137-1.639,2.394-2.511,3.441-5.07,6.085-10.885,11.254-18.253,14.441A28.3,28.3,0,0,1,216.5,177.24c-6.478-.9-12.09-3.776-17.27-7.623C198.546,169.109,197.871,168.591,197.193,168.078Zm48.945-12.007-.309-.281c-.289.268-.577.537-.867.8a47.706,47.706,0,0,1-11.573,7.994,27.879,27.879,0,0,1-16.687,2.829,35.941,35.941,0,0,1-15.2-6.569c-.487-.342-.963-.7-1.444-1.049l-.17.24c1.012.88,1.971,1.834,3.049,2.625a59.42,59.42,0,0,0,5.582,3.8c6.475,3.693,13.282,4.625,20.413,2.087a35.811,35.811,0,0,0,12.384-7.52C243.007,159.471,244.535,157.731,246.138,156.071ZM205.4,135.447c14.689-7.463,27.239-3.352,38.674,7.147-2.249-4.922-10.917-10.455-18.767-11.687C218.121,129.779,211.513,131.648,205.4,135.447Zm48.678,24.044-.332-.048a48.64,48.64,0,0,1-21.546,18.8,7.314,7.314,0,0,0,5.588-1.089c1.892-1.289,3.9-2.43,5.707-3.821a33.31,33.31,0,0,0,10.3-12.511A6.14,6.14,0,0,0,254.076,159.491Zm-14.661-24.61.254-.232a7.579,7.579,0,0,0-1.5-1.839c-8.281-5.223-17.116-6.734-26.528-3.635-2.246.74-4.385,1.8-6.574,2.718l.11.432C217.127,126.3,228.488,127.8,239.415,134.881Zm-.4,43.228.141.366c.918-.139,2.014,0,2.727-.461a34.992,34.992,0,0,0,13.364-15.047,3.287,3.287,0,0,0,.02-1.247A51.366,51.366,0,0,1,239.017,178.109Zm-2.57-48.486.251-.387a11.656,11.656,0,0,0-2.023-1.6,30.652,30.652,0,0,0-22.738-1.684c-2.368.7-4.647,1.705-6.966,2.57l.123.444C215.669,123.663,226.1,124.739,236.447,129.623Zm-18.541,19.066a2.705,2.705,0,0,0,2.673,2.727,2.78,2.78,0,0,0,2.757-2.69,2.7,2.7,0,0,0-2.776-2.741A2.6,2.6,0,0,0,217.906,148.689Zm15.871-23.608.272-.366a7.813,7.813,0,0,0-1.76-1.266,34.028,34.028,0,0,0-24.213.561,2.677,2.677,0,0,0-.49.321C216.437,121.217,225.142,121.734,233.777,125.081Zm23.011,39.409-.342-.158c-2.9,5.59-7.132,10.021-11.943,14.043a4.377,4.377,0,0,0,2.348-.83,41.066,41.066,0,0,0,9.466-11.923C256.507,165.263,256.632,164.869,256.788,164.49Zm1.429,2.479-.293-.168a47.846,47.846,0,0,1-9.4,11.438,2.47,2.47,0,0,0,2.663-.8,39.852,39.852,0,0,0,6.608-9.331A10.188,10.188,0,0,0,258.217,166.969ZM208.071,178.41l.091-.285a49.217,49.217,0,0,1-15.058-9.981,40.454,40.454,0,0,0,13.083,10A6.283,6.283,0,0,0,208.071,178.41Zm51.644-8.992-.2-.053-6.72,8.9a2.149,2.149,0,0,0,1.631-.594c1.688-2.38,3.283-4.825,4.89-7.261A5.145,5.145,0,0,0,259.715,169.418ZM213.5,119.578a44.232,44.232,0,0,1,17.992,1.108,2.334,2.334,0,0,0-1.141-.853A35.7,35.7,0,0,0,213.5,119.578Zm-13.365,38.557.188-.139-1.728-5.183-2.1,1.885Zm29.237-41.054c-1.155-1.915-14.962-1.907-17.34-.269A40.506,40.506,0,0,1,229.372,117.081Zm11.609,40.754.2.16,3.522-3.285-2.115-1.91Zm-11.38-8.6,4.734-1.893c-1.94-1.179-3.426,0-5.075.155Zm-22.676-1.9,4.755,1.854.208-1.791C210.21,147.5,208.768,146.116,206.925,147.333Zm20.24-34.147a31.235,31.235,0,0,0-13.036,0Zm-35.449,57.5c-.011-.114-.031-.017.006.015,2.816,2.474,5.628,4.954,8.474,7.394.261.223.739.193,1.12.281Zm24.351-60.733H225.2A20.067,20.067,0,0,0,216.067,109.954Zm40.467,68.341c1.1-.166,4.153-4.621,4.432-6.406Z" transform="translate(-21.624 -24.91)"/><path d="M146.361,158.22l5.306-9.225c-6.523-16.078-6.177-31.844,2.545-46.923S176.345,78.7,193.63,76.316l5.305-9.166L204.3,76.4a48.346,48.346,0,0,1,13.937,3.5c17.3,7.516,28,20.464,31.543,39.047a49.464,49.464,0,0,1-3.243,28.931,1.819,1.819,0,0,0,.087,1.86c1.634,2.745,3.2,5.532,4.866,8.439H240.743A52.27,52.27,0,0,1,230.635,168.6a49.969,49.969,0,0,1-28.749,10.765c-18.2.8-32.848-6.188-44.182-20.356a2.3,2.3,0,0,0-1.553-.751C152.954,158.185,149.755,158.22,146.361,158.22Zm52.577-88.157L148.9,156.725h100.07ZM151.564,124.9a49.776,49.776,0,0,0,2.959,19.011,2.317,2.317,0,0,0,.661-2.374,42.326,42.326,0,0,1-1.014-23.634c4.649-18.423,16.292-30.067,34.734-34.838.368-.1.866-.177,1.04-.44.658-1,1.208-2.062,1.853-3.2-32.765,4.749-49.9,39.413-38.312,66.4l.8-1.393A46.484,46.484,0,0,1,151.564,124.9Zm92.55,20.833h.315c11.641-27.551-6.218-61.775-38.345-66.289l.8,1.455c.76.147,1.461.265,2.154.419A47.355,47.355,0,0,1,236.7,98.654a47.641,47.641,0,0,1,7.436,45.181A5.956,5.956,0,0,0,244.113,145.73ZM160.552,158.4c10.12,11.854,22.659,18.319,38.2,18.371,15.683.052,28.346-6.412,38.249-18.461a2.387,2.387,0,0,0-1.546.6c-2.268,2.143-4.334,4.533-6.77,6.457a47.565,47.565,0,0,1-65.9-6.455A1.8,1.8,0,0,0,160.552,158.4Zm82.188-15.037.52-.03c4.426-13.8,3.465-27.165-4.034-39.749-7.229-12.132-17.992-19.431-31.92-22.33a2.1,2.1,0,0,0,1.874,1.867,45.928,45.928,0,0,1,33.529,58.446A5.767,5.767,0,0,0,242.74,143.364Zm-79.807,15c9.821,10.818,21.795,16.5,36.244,16.371,14.111-.123,25.822-5.753,35.08-16.437a2.591,2.591,0,0,0-1.635.648c-10.817,11.264-24.018,16.153-39.5,14.361a44.09,44.09,0,0,1-27.7-14.22A2.157,2.157,0,0,0,162.933,158.362ZM200.8,171.829l.351-.019V158.3h-1.9Zm-27.391-60.481-12.086-6.125-.114.205,11.143,7.742Zm23.334,46.934V171.8l.31.006c.512-4.48,1.024-8.96,1.546-13.526Zm-37.384-49.638-.086.207,11.741,6.681.978-1.844Zm79.017.315-.105-.222L225.846,113.7l1.032,1.822ZM224.148,110.8l10.157-8.525-.158-.2-11.033,6.9Zm-49.381-1.811-11.08-6.919-.141.207,10.17,8.534Zm61.27-3.154-.16-.271-11.424,5.782,1.094,1.81Zm-31.322,65.555.219-.025c-.283-4.345-.566-8.69-.851-13.073h-2.077Zm-11.785-.2.243.029,2.663-12.911H193.77Zm47.117-58.675-.082-.215-12.76,3.811,1.072,1.776Zm-70.387,5.417.943-1.845L157.881,112.3l-.072.209Zm62.189-18.838-.09-.12-10.048,7.621.947,1.587Zm-56.678,9.185.969-1.7L166.116,99l-.113.158Zm13.84,62.528.175.115L193,158.288h-2.029C190.31,162.5,189.66,166.652,189.011,170.8Zm19.5-.416.26-.058-1.9-12.051h-2.026ZM168.238,120.36l.92-1.8-12.342-2.483-.057.233Zm61.415-.016,11.443-4.033-.066-.236-12.349,2.5ZM168.692,96.036l-.17.159,8.036,9.652,1.008-1.739Zm60.631.155-.188-.134-8.848,8.049,1.021,1.74Zm-41.254,62.093L185.211,169.7l.2.06,4.629-11.478Zm19.741-.009,4.49,11.114.243-.083-2.763-11.031ZM167.742,121.2l-11.95-1.32-.036.227,10.961,2.783Zm63.393,1.694,10.912-2.782-.043-.227-11.82,1.306Zm-4.867-29.16-.215-.14-7.264,7.926.985,1.636Zm-48.175,9.457.975-1.673-7.285-7.937-.195.15Zm3.48,64.933.208.089,5.085-9.923H185Zm34.522.145.194-.129-3.438-9.846h-1.864Zm-49.95-44.391H155.138l-.025.1,10.043,1.619ZM232.7,125.6l10.249-1.659H231.765ZM180.687,98.767,174.9,91.222l-.2.138,5.062,8.931ZM223,91.589l-.239-.144-5.574,7.306.913,1.524Zm-8.578,66.688,5.014,7.952.24-.132-3.542-7.82ZM181.7,158.3l-3.321,7.374.286.15,4.756-7.524Zm-26.636-30.576.03.239,8.439.56.755-1.461Zm78.53-.662.8,1.463,8.512-.579,0-.21ZM219.822,89.244l-.191-.136-4.171,6.619.784,1.414Zm-37.4,6.522-4.19-6.624-.2.117,3.558,7.822Zm35.816,62.5,4.715,6.176.2-.139-3.423-6.037Zm-40.124-.009-3.25,5.758.246.147,4.493-5.906Zm-16.463-26.471.571-1.264-7.1,1.128.013.136Zm74.676,0h6.295l.014-.152-7.118-1.117ZM216.292,87.5l-.212-.128c-.778,1.534-1.594,3.052-2.3,4.617-.148.328.1.835.167,1.26l.343-.034Zm-32.715,5.754.27.038c.121-.369.446-.831.328-1.093-.661-1.464-1.43-2.88-2.161-4.313l-.262.119Z" transform="translate(0 0)"/><path d="M207.093,79.4l50.036,86.663H157.059Zm0,4.856-45.832,79.4h91.67Zm4.141,3.842c.315,2.351,38.968,69.268,40.726,70.553Zm-48.07,68.922.375.235q20.286-33.938,39.515-68.484l-.364-.21Zm91.808,8.226-.009-.409H159.253v.409Z" transform="translate(-8.155 -9.339)" fill="#fff"/><path d="M162.8,164.255a46.486,46.486,0,0,0,2.723,19.537l-.8,1.393c-11.585-26.989,5.547-61.653,38.312-66.4-.645,1.136-1.2,2.2-1.853,3.2-.174.262-.672.344-1.04.44-18.442,4.771-30.086,16.416-34.734,34.838a42.326,42.326,0,0,0,1.014,23.634,2.317,2.317,0,0,1-.661,2.374A49.777,49.777,0,0,1,162.8,164.255Z" transform="translate(-11.235 -39.359)" fill="#fff"/><path d="M435.623,185.14a5.955,5.955,0,0,1,.027-1.895,47.641,47.641,0,0,0-7.436-45.181,47.355,47.355,0,0,0-27.666-17.34c-.693-.154-1.394-.272-2.154-.419l-.8-1.455c32.127,4.514,49.986,38.738,38.345,66.289Z" transform="translate(-191.51 -39.411)" fill="#fff"/><path d="M206.059,450.485a1.8,1.8,0,0,1,2.23.508,47.564,47.564,0,0,0,65.9,6.455c2.436-1.924,4.5-4.315,6.77-6.457a2.387,2.387,0,0,1,1.546-.6c-9.9,12.049-22.566,18.513-38.249,18.461C228.718,468.8,216.179,462.339,206.059,450.485Z" transform="translate(-45.507 -292.085)" fill="#fff"/><path d="M438.169,188.592a5.77,5.77,0,0,1-.031-1.8,45.928,45.928,0,0,0-33.529-58.446,2.1,2.1,0,0,1-1.874-1.867c13.928,2.9,24.691,10.2,31.92,22.33,7.5,12.585,8.46,25.945,4.034,39.749Z" transform="translate(-195.429 -45.229)" fill="#fff"/><path d="M216.074,450.439a2.157,2.157,0,0,1,2.49.724,44.09,44.09,0,0,0,27.7,14.22c15.48,1.792,28.681-3.1,39.5-14.361a2.592,2.592,0,0,1,1.636-.648c-9.258,10.684-20.968,16.314-35.08,16.437C237.869,466.936,225.9,461.257,216.074,450.439Z" transform="translate(-53.141 -292.077)" fill="#fff"/><path d="M370.4,464.1l-1.551-13.533h1.9v13.515Z" transform="translate(-169.596 -292.274)" fill="#fff"/><path d="M221.021,233.437l-1.057,1.823-11.143-7.742.114-.205Z" transform="translate(-47.612 -122.089)" fill="#fff"/><path d="M358.3,450.514h1.856c-.522,4.565-1.034,9.046-1.546,13.526l-.31-.006Z" transform="translate(-161.559 -292.232)" fill="#fff"/><path d="M200.763,241.7l12.633,5.043-.978,1.844-11.741-6.681Z" transform="translate(-41.404 -133.06)" fill="#fff"/><path d="M493.258,242.318l-11.5,6.559-1.032-1.822,12.424-4.959Z" transform="translate(-254.883 -133.358)" fill="#fff"/><path d="M470.274,222.78l-1.033-1.829,11.033-6.9.158.2Z" transform="translate(-246.126 -111.982)" fill="#fff"/><path d="M229.876,220.96l-1.05,1.822-10.17-8.534.141-.207Z" transform="translate(-55.109 -111.973)" fill="#fff"/><path d="M486.456,229l-10.49,7.321-1.094-1.81,11.424-5.782Z" transform="translate(-250.418 -123.172)" fill="#fff"/><path d="M383.156,463.642l-2.708-13.1h2.077c.285,4.383.568,8.728.851,13.073Z" transform="translate(-178.44 -292.255)" fill="#fff"/><path d="M342.265,463.491l.839-12.882h2.067l-2.663,12.911Z" transform="translate(-149.334 -292.304)" fill="#fff"/><path d="M499.289,257.284l-11.771,5.372-1.072-1.776,12.76-3.811Z" transform="translate(-259.242 -144.772)" fill="#fff"/><path d="M206.371,262.725l-11.852-5.415.072-.209,12.723,3.78Z" transform="translate(-36.71 -144.796)" fill="#fff"/><path d="M473.474,201.131l-9.191,9.087-.947-1.587,10.048-7.621Z" transform="translate(-241.625 -102.04)" fill="#fff"/><path d="M238.156,210.4l-9.168-9.121.113-.158,10.025,7.584Z" transform="translate(-62.985 -102.125)" fill="#fff"/><path d="M325.776,463.056l1.957-12.516h2.029l-3.812,12.632Z" transform="translate(-136.765 -292.251)" fill="#fff"/><path d="M396.036,462.61l-3.67-12.109h2.026l1.9,12.051Z" transform="translate(-187.525 -292.222)" fill="#fff"/><path d="M201.582,277.267,190.1,273.221l.057-.233,12.342,2.483Z" transform="translate(-33.345 -156.907)" fill="#fff"/><path d="M493.629,277.234l-.972-1.773,12.349-2.5.066.236Z" transform="translate(-263.975 -156.889)" fill="#fff"/><path d="M239.757,188.664l8.874,8.072-1.008,1.739-8.036-9.652Z" transform="translate(-71.065 -92.628)" fill="#fff"/><path d="M466.378,188.885l-8.015,9.654-1.021-1.74,8.848-8.049Z" transform="translate(-237.055 -92.694)" fill="#fff"/><path d="M312.647,450.52h1.968L309.986,462l-.2-.06Z" transform="translate(-124.578 -292.236)" fill="#fff"/><path d="M404.858,450.484h1.969l2.763,11.031-.243.083Z" transform="translate(-197.048 -292.209)" fill="#fff"/><path d="M197.869,290.29l-1.025,1.689L185.883,289.2l.036-.227Z" transform="translate(-30.127 -169.09)" fill="#fff"/><path d="M499.933,292l-.95-1.7,11.82-1.306.043.227Z" transform="translate(-268.798 -169.106)" fill="#fff"/><path d="M458.523,178.533l-6.494,9.422-.985-1.636,7.264-7.926Z" transform="translate(-232.255 -84.799)" fill="#fff"/><path d="M258.99,187.95l-6.5-9.459.195-.151,7.285,7.937Z" transform="translate(-80.897 -84.758)" fill="#fff"/><path d="M294.489,460.385l3.423-9.834h1.87l-5.085,9.923Z" transform="translate(-112.915 -292.26)" fill="#fff"/><path d="M423.332,460.541l-5.108-9.976h1.864l3.438,9.846Z" transform="translate(-207.237 -292.271)" fill="#fff"/><path d="M194.212,305.791l-.989,1.722-10.043-1.619.025-.1Z" transform="translate(-28.066 -181.912)" fill="#fff"/><path d="M506.565,307.713l-.938-1.659h11.187Z" transform="translate(-273.862 -182.112)" fill="#fff"/><path d="M271.571,175.958l-.922,1.523-5.062-8.931.2-.138Z" transform="translate(-90.884 -77.19)" fill="#fff"/><path d="M450.133,169.5l-4.9,8.686-.913-1.524,5.574-7.306Z" transform="translate(-227.129 -77.908)" fill="#fff"/><path d="M284.365,450.568h1.721l-4.756,7.524-.286-.15Z" transform="translate(-102.667 -292.273)" fill="#fff"/><path d="M182.966,319.822l9.223-.662-.755,1.461-8.438-.56Z" transform="translate(-27.903 -192.103)" fill="#fff"/><path d="M513.318,319.16l9.312.673,0,.21-8.512.579Z" transform="translate(-279.725 -192.103)" fill="#fff"/><path d="M441.4,159.658l-3.578,7.9-.784-1.414,4.172-6.619Z" transform="translate(-221.579 -70.414)" fill="#fff"/><path d="M283.988,166.289l-.829,1.316-3.558-7.822.2-.117Z" transform="translate(-101.567 -70.523)" fill="#fff"/><path d="M448.722,450.454h1.492l3.423,6.037-.2.139Z" transform="translate(-230.484 -292.186)" fill="#fff"/><path d="M269.514,450.416H271l-4.493,5.906-.246-.147Z" transform="translate(-91.4 -292.157)" fill="#fff"/><path d="M189.751,335.01h-6.514l-.013-.136,7.1-1.128Z" transform="translate(-28.1 -203.222)" fill="#fff"/><path d="M522.221,334.993l-.81-1.269,7.118,1.117-.014.152Z" transform="translate(-285.894 -203.205)" fill="#fff"/><path d="M432.328,152.362l-2,5.716-.343.034c-.066-.425-.316-.932-.167-1.26.708-1.566,1.525-3.083,2.3-4.617Z" transform="translate(-216.036 -64.858)" fill="#fff"/><path d="M297.064,159.764l-1.825-5.248.262-.119c.732,1.433,1.5,2.849,2.161,4.313.118.261-.208.723-.328,1.093Z" transform="translate(-113.487 -66.507)" fill="#fff"/><path d="M384.95,115.991l40.726,70.553C423.918,185.259,385.265,118.342,384.95,115.991Z" transform="translate(-181.872 -37.231)"/><path d="M182.734,186.4l39.527-68.458.364.21q-19.2,34.562-39.515,68.484Z" transform="translate(-27.726 -38.719)"/><path d="M262,439.216H166.287v-.409H262Z" transform="translate(-15.189 -283.308)"/><path d="M305.121,322.4c.275-.171.659-.276.808-.523.856-1.418,1.655-2.869,2.594-4.521l-4.85,2.758-.211-.25,4.246-4.553-5.752,2.158-.177-.278,5.016-3.7-5.895.941-.1-.353,5.632-2.514-.008-.21h-6.088l-.041-.361,6.307-1.43-6.207-1.407.034-.3h6.822c.145,4.7,2.236,7.876,6.666,9.387,1.152-2.437,3.6-2.557,4.7-.089,3.909-.8,6.225-3.94,6.764-9.325h7.227l.036.306-6.487,1.421,6.64,1.439-.041.368h-6.35l-.012.217,6.309,2.847c.211-2.249.411-4.375.608-6.484.751.169.82.17.81,1.045-.029,2.511-.118,5.021-.189,7.786l2.346-7.17c.19.445.487.813.476,1.171-.052,1.656-.174,3.31-.3,4.962a2.854,2.854,0,0,1-1.44,2.306c-2.674,1.67-5.328,3.371-8.22,5.206l-4.4-4.553,2.3,4.965-1.5.554-1.934-2.69c.2,1.1.369,1.989.556,3l-2.035.455-.6-.989c-.045.379-.078.661-.13,1.1h-5.372v-1.634l-.169-.022-.578,1.5-2.041-.318.822-3.905-2.3,3.493-1.42-.5,2.37-5.244c-1.128,1.224-2.054,2.355-3.12,3.334-.552.507-1.145,1.452-2.167.665Zm24.185-2.249c1.621-1.486,2.35-3.47,3.135-5.491l-6.661-1.191,5.258,3.724-.171.342-5.337-1.857,3.678,4.393-5.18-2.756,3.188,5.3Z" transform="translate(-117.342 -183.465)" fill="#fff"/><path d="M258.8,266.829c1.56,1.418,3.072,2.894,4.689,4.244,4.725,3.944,9.849,7.169,15.977,8.472,6.094,1.3,11.768.021,17.173-2.855a51.151,51.151,0,0,0,11.207-8.53c1.2-1.15,2.474-2.224,3.674-3.374,1.159-1.112,1.366-1.831.491-3.132-5.5-8.187-12.035-15.152-22.107-17.57-7.326-1.759-14.1-.178-20.43,3.718-.461.284-.913.584-1.369.876l-.18-.24c.665-.473,1.313-.97,2-1.413a26.91,26.91,0,0,1,16.345-4.749c7.2.379,13.243,3.387,18.463,8.229a33.315,33.315,0,0,1,7.482,9.573,5.45,5.45,0,0,1-.7,6.411,41.111,41.111,0,0,1-14.614,12.048c-8.556,4.243-17.01,3.865-25.311-.78a54.563,54.563,0,0,1-12.353-10.126,6.22,6.22,0,0,1-.526-.722Z" transform="translate(-85.637 -133.469)" fill="#fff"/><path d="M319.261,272.442c-6.388-7.6-13.848-13.151-23.885-14-10.1-.854-18.173,3.607-25.188,10.456l-.288-.315c1.862-2,3.614-4.122,5.608-5.982a27.281,27.281,0,0,1,15.415-7.5A23.158,23.158,0,0,1,303.2,256.96a32.779,32.779,0,0,1,15.971,14.968A2.314,2.314,0,0,1,319.261,272.442Z" transform="translate(-94.172 -143.136)" fill="#fff"/><path d="M268.837,338.818c2.515,1.767,4.961,3.644,7.561,5.275a30.157,30.157,0,0,0,13.908,4.689,27.023,27.023,0,0,0,14.822-3.395A48.873,48.873,0,0,0,321.1,331.455a7.383,7.383,0,0,0,.875-1.4,10.69,10.69,0,0,0,.447-1.513l.332.027a8.69,8.69,0,0,1-.113,1.618,18.077,18.077,0,0,1-4.938,7.97,39.664,39.664,0,0,1-16.56,10.707c-8.717,2.768-16.857,1.133-24.507-3.581A35.65,35.65,0,0,1,268.837,338.818Z" transform="translate(-93.361 -199.252)" fill="#fff"/><path d="M268.634,351.9c.678.513,1.353,1.032,2.036,1.539,5.179,3.848,10.792,6.72,17.27,7.623a28.3,28.3,0,0,0,15.407-2.206c7.368-3.187,13.183-8.356,18.253-14.441.872-1.047,1.494-2.3,2.511-3.441a8.361,8.361,0,0,1-.306,1.513,23.323,23.323,0,0,1-4.886,7.377c-5.766,6.079-12.531,10.5-20.864,12.135-1.757.344-3.631.043-5.439.188-9.455.759-16.857-3.551-23.615-9.481a7.659,7.659,0,0,1-.553-.6Z" transform="translate(-93.065 -208.729)" fill="#fff"/><path d="M326.814,335.524c-1.6,1.66-3.131,3.4-4.823,4.963a35.813,35.813,0,0,1-12.384,7.52c-7.131,2.539-13.938,1.607-20.413-2.087a59.422,59.422,0,0,1-5.582-3.8c-1.078-.79-2.037-1.744-3.049-2.625l.17-.24c.481.35.957.707,1.444,1.049a35.94,35.94,0,0,0,15.2,6.569,27.879,27.879,0,0,0,16.687-2.829,47.706,47.706,0,0,0,11.573-7.994c.29-.267.578-.536.867-.8Z" transform="translate(-102.3 -204.363)" fill="#fff"/><path d="M303.747,234.062c6.115-3.8,12.723-5.668,19.907-4.54,7.85,1.233,16.518,6.765,18.767,11.687C330.986,230.71,318.436,226.6,303.747,234.062Z" transform="translate(-119.973 -123.525)" fill="#fff"/><path d="M438.364,350.659a6.144,6.144,0,0,1-.286,1.329,33.309,33.309,0,0,1-10.3,12.511c-1.812,1.391-3.815,2.532-5.707,3.821a7.314,7.314,0,0,1-5.588,1.089,48.64,48.64,0,0,0,21.546-18.8Z" transform="translate(-205.912 -216.077)" fill="#fff"/><path d="M290.763,321.687c-2.744-1.683-5.526-3.308-8.2-5.1-.492-.33-.67-1.313-.758-2.023-.183-1.484-.241-2.988-.277-4.485a3.868,3.868,0,0,1,.442-1.21l2.727,7.9.39-.118a20.218,20.218,0,0,1-.909-8.16,7.065,7.065,0,0,1,.6-1.678c.421,2.605.62,4.965,1.213,7.221a14.823,14.823,0,0,0,4.248,6.87,7.167,7.167,0,0,1,.578.716Z" transform="translate(-103.037 -182.695)" fill="#fff"/><path d="M336.7,223.864c-10.926-7.077-22.288-8.581-34.238-2.555l-.11-.432c2.188-.915,4.328-1.978,6.574-2.718,9.412-3.1,18.247-1.588,26.528,3.635a7.578,7.578,0,0,1,1.5,1.839Z" transform="translate(-118.909 -113.893)" fill="#fff"/><path d="M445.173,376.578a51.368,51.368,0,0,0,16.253-16.389,3.286,3.286,0,0,1-.02,1.247,34.993,34.993,0,0,1-13.364,15.047c-.713.458-1.809.322-2.727.461Z" transform="translate(-227.779 -223.379)" fill="#fff"/><path d="M333.423,208.84c-10.346-4.884-20.778-5.96-31.354-.653l-.123-.444c2.32-.865,4.6-1.868,6.966-2.57a30.652,30.652,0,0,1,22.738,1.684,11.657,11.657,0,0,1,2.023,1.6Z" transform="translate(-118.6 -104.127)" fill="#fff"/><path d="M356.363,296.7a2.6,2.6,0,0,1,2.654-2.7,2.7,2.7,0,0,1,2.776,2.741,2.78,2.78,0,0,1-2.757,2.69A2.705,2.705,0,0,1,356.363,296.7Z" transform="translate(-160.081 -172.92)" fill="#fff"/><path d="M339.143,194.534c-8.635-3.348-17.34-3.864-26.191-.751a2.679,2.679,0,0,1,.49-.321,34.028,34.028,0,0,1,24.213-.561,7.814,7.814,0,0,1,1.76,1.266Z" transform="translate(-126.989 -94.362)" fill="#fff"/><path d="M480.531,371.336c-.155.378-.281.773-.471,1.132a41.066,41.066,0,0,1-9.466,11.923,4.377,4.377,0,0,1-2.348.83c4.811-4.022,9.047-8.453,11.943-14.043Z" transform="translate(-245.367 -231.755)" fill="#fff"/><path d="M494.846,381.73a10.171,10.171,0,0,1-.426,1.142,39.847,39.847,0,0,1-6.608,9.331,2.47,2.47,0,0,1-2.663.8,47.844,47.844,0,0,0,9.4-11.438Z" transform="translate(-258.252 -239.671)" fill="#fff"/><path d="M267,397.48a6.279,6.279,0,0,1-1.884-.262,40.453,40.453,0,0,1-13.083-10,49.216,49.216,0,0,0,15.058,9.981Z" transform="translate(-80.552 -243.979)" fill="#fff"/><path d="M510.062,392.4a5.141,5.141,0,0,1-.4,1c-1.607,2.436-3.2,4.881-4.89,7.261a2.149,2.149,0,0,1-1.631.594l6.72-8.9Z" transform="translate(-271.97 -247.893)" fill="#fff"/><path d="M337.831,180.071a35.7,35.7,0,0,1,16.851.256,2.334,2.334,0,0,1,1.141.853A44.232,44.232,0,0,0,337.831,180.071Z" transform="translate(-145.954 -85.402)" fill="#fff"/><path d="M269.92,328.041l-3.644-3.437,2.1-1.885,1.728,5.183Z" transform="translate(-91.409 -194.816)" fill="#fff"/><path d="M348.993,167.7a40.506,40.506,0,0,0-17.34-.269C334.031,165.789,347.838,165.78,348.993,167.7Z" transform="translate(-141.245 -75.525)" fill="#fff"/><path d="M453.435,327.695l1.609-5.036,2.115,1.91-3.522,3.285Z" transform="translate(-234.077 -194.77)" fill="#fff"/><path d="M404.47,299.923l-.34-1.738c1.649-.151,3.135-1.334,5.075-.155Z" transform="translate(-196.493 -175.601)" fill="#fff"/><path d="M310.172,298.053c1.843-1.217,3.284.169,4.963.063-.075.642-.131,1.123-.208,1.791Z" transform="translate(-124.87 -175.63)" fill="#fff"/><path d="M353.511,153.815H340.475A31.236,31.236,0,0,1,353.511,153.815Z" transform="translate(-147.97 -65.539)" fill="#fff"/><path d="M246.141,397.732l9.6,7.691c-.381-.088-.859-.058-1.12-.281-2.845-2.44-5.657-4.92-8.474-7.394C246.11,397.715,246.131,397.618,246.141,397.732Z" transform="translate(-76.049 -251.956)" fill="#fff"/><path d="M348.626,140.736a20.066,20.066,0,0,1,9.129,0Z" transform="translate(-154.183 -55.692)" fill="#fff"/><path d="M518.859,409.37l4.432-6.406C523.012,404.748,519.958,409.2,518.859,409.37Z" transform="translate(-283.949 -255.985)" fill="#fff"/><path d="M410.125,338.136l-3.678-4.393,5.337,1.857.171-.342-5.258-3.724,6.661,1.191c-.785,2.021-1.514,4-3.135,5.491A.829.829,0,0,0,410.125,338.136Z" transform="translate(-198.259 -201.535)"/><path d="M405.308,350.472a.822.822,0,0,1,.1.08l-2.09,2.465-3.188-5.3Z" transform="translate(-193.442 -213.871)"/></g></g></svg>