<svg xmlns="http://www.w3.org/2000/svg" width="729" height="446" viewBox="0 0 729 446">
  <g id="Group_2" data-name="Group 2" transform="translate(-52 46)">
    <g id="Polygon_1" data-name="Polygon 1" transform="translate(325 102)" fill="none" opacity="0.397">
      <path d="M138,0l46,75-46,75H46L0,75,46,0Z" stroke="none"/>
      <path d="M 47.11956787109375 2 L 2.346206665039062 75 L 47.11953735351562 148 L 136.8804626464844 148 L 181.6537933349609 75 L 136.8804626464844 2 L 47.11956787109375 2 M 46.00003051757812 0 L 138 0 L 184 75 L 138 150 L 46 150 L 0 75 L 46.00003051757812 0 Z" stroke="none" fill="#fff"/>
    </g>
    <g id="Polygon_5" data-name="Polygon 5" transform="translate(461 28)" fill="none" opacity="0.134">
      <path d="M138,0l46,75-46,75H46L0,75,46,0Z" stroke="none"/>
      <path d="M 47.11956787109375 2 L 2.346206665039062 75 L 47.11953735351562 148 L 136.8804626464844 148 L 181.6537933349609 75 L 136.8804626464844 2 L 47.11956787109375 2 M 46.00003051757812 0 L 138 0 L 184 75 L 138 150 L 46 150 L 0 75 L 46.00003051757812 0 Z" stroke="none" fill="#fff"/>
    </g>
    <g id="Polygon_10" data-name="Polygon 10" transform="translate(461 176)" fill="none" opacity="0.134">
      <path d="M138,0l46,75-46,75H46L0,75,46,0Z" stroke="none"/>
      <path d="M 47.11956787109375 2 L 2.346206665039062 75 L 47.11953735351562 148 L 136.8804626464844 148 L 181.6537933349609 75 L 136.8804626464844 2 L 47.11956787109375 2 M 46.00003051757812 0 L 138 0 L 184 75 L 138 150 L 46 150 L 0 75 L 46.00003051757812 0 Z" stroke="none" fill="#fff"/>
    </g>
    <g id="Polygon_11" data-name="Polygon 11" transform="translate(325 250)" fill="none" opacity="0.134">
      <path d="M138,0l46,75-46,75H46L0,75,46,0Z" stroke="none"/>
      <path d="M 47.11956787109375 2 L 2.346206665039062 75 L 47.11953735351562 148 L 136.8804626464844 148 L 181.6537933349609 75 L 136.8804626464844 2 L 47.11956787109375 2 M 46.00003051757812 0 L 138 0 L 184 75 L 138 150 L 46 150 L 0 75 L 46.00003051757812 0 Z" stroke="none" fill="#fff"/>
    </g>
    <g id="Polygon_6" data-name="Polygon 6" transform="translate(325 -46)" fill="none" opacity="0.134">
      <path d="M138,0l46,75-46,75H46L0,75,46,0Z" stroke="none"/>
      <path d="M 47.11956787109375 2 L 2.346206665039062 75 L 47.11953735351562 148 L 136.8804626464844 148 L 181.6537933349609 75 L 136.8804626464844 2 L 47.11956787109375 2 M 46.00003051757812 0 L 138 0 L 184 75 L 138 150 L 46 150 L 0 75 L 46.00003051757812 0 Z" stroke="none" fill="#fff"/>
    </g>
    <g id="Polygon_7" data-name="Polygon 7" transform="translate(189 176)" fill="none" opacity="0.134">
      <path d="M138,0l46,75-46,75H46L0,75,46,0Z" stroke="none"/>
      <path d="M 47.11956787109375 2 L 2.346206665039062 75 L 47.11953735351562 148 L 136.8804626464844 148 L 181.6537933349609 75 L 136.8804626464844 2 L 47.11956787109375 2 M 46.00003051757812 0 L 138 0 L 184 75 L 138 150 L 46 150 L 0 75 L 46.00003051757812 0 Z" stroke="none" fill="#fff"/>
    </g>
    <g id="Polygon_8" data-name="Polygon 8" transform="translate(189 28)" fill="none" opacity="0.134">
      <path d="M138,0l46,75-46,75H46L0,75,46,0Z" stroke="none"/>
      <path d="M 47.11956787109375 2 L 2.346206665039062 75 L 47.11953735351562 148 L 136.8804626464844 148 L 181.6537933349609 75 L 136.8804626464844 2 L 47.11956787109375 2 M 46.00003051757812 0 L 138 0 L 184 75 L 138 150 L 46 150 L 0 75 L 46.00003051757812 0 Z" stroke="none" fill="#fff"/>
    </g>
    <g id="Polygon_9" data-name="Polygon 9" transform="translate(597 102)" fill="none" opacity="0.134">
      <path d="M138,0l46,75-46,75H46L0,75,46,0Z" stroke="none"/>
      <path d="M 47.11956787109375 2 L 2.346206665039062 75 L 47.11953735351562 148 L 136.8804626464844 148 L 181.6537933349609 75 L 136.8804626464844 2 L 47.11956787109375 2 M 46.00003051757812 0 L 138 0 L 184 75 L 138 150 L 46 150 L 0 75 L 46.00003051757812 0 Z" stroke="none" fill="#fff"/>
    </g>
    <g id="Polygon_19" data-name="Polygon 19" transform="translate(52 102)" fill="none" opacity="0.134">
      <path d="M138,0l46,75-46,75H46L0,75,46,0Z" stroke="none"/>
      <path d="M 47.11956787109375 2 L 2.346206665039062 75 L 47.11953735351562 148 L 136.8804626464844 148 L 181.6537933349609 75 L 136.8804626464844 2 L 47.11956787109375 2 M 46.00003051757812 0 L 138 0 L 184 75 L 138 150 L 46 150 L 0 75 L 46.00003051757812 0 Z" stroke="none" fill="#fff"/>
    </g>
  </g>
</svg>
