<svg xmlns="http://www.w3.org/2000/svg" width="100.374" height="107.197" viewBox="0 0 100.374 107.197">
  <g id="Group_1" data-name="Group 1" transform="translate(-146.361 -67.15)">
    <path id="Path_2" data-name="Path 2" d="M146.361,154.1l5.066-8.808c-6.229-15.351-5.9-30.4,2.43-44.8S174.989,78.176,191.493,75.9l5.066-8.752,5.12,8.834a46.162,46.162,0,0,1,13.307,3.341C231.5,86.5,241.721,98.864,245.1,116.607a47.228,47.228,0,0,1-3.1,27.624,1.736,1.736,0,0,0,.083,1.776c1.56,2.621,3.054,5.282,4.646,8.058H236.476a49.909,49.909,0,0,1-9.651,9.945,47.71,47.71,0,0,1-27.449,10.279c-17.373.765-31.363-5.909-42.185-19.436a2.194,2.194,0,0,0-1.483-.717C152.656,154.07,149.6,154.1,146.361,154.1Zm50.2-84.172-47.772,82.745h95.546Zm-45.233,52.355a47.527,47.527,0,0,0,2.825,18.152,2.212,2.212,0,0,0,.631-2.267,40.413,40.413,0,0,1-.968-22.565c4.438-17.59,15.555-28.708,33.164-33.264.351-.091.827-.169.993-.42.629-.95,1.154-1.969,1.77-3.053-31.284,4.534-47.641,37.631-36.58,63.4l.765-1.33A44.383,44.383,0,0,1,151.328,122.286Zm88.366,19.892h.3c11.114-26.305-5.937-58.982-36.612-63.292l.765,1.389c.725.14,1.395.253,2.057.4A45.214,45.214,0,0,1,232.62,97.23a45.488,45.488,0,0,1,7.1,43.139A5.686,5.686,0,0,0,239.694,142.177Zm-79.784,12.1c9.662,11.318,21.634,17.491,36.471,17.54,14.974.049,27.065-6.122,36.52-17.627a2.279,2.279,0,0,0-1.476.57c-2.165,2.046-4.138,4.328-6.464,6.165a45.414,45.414,0,0,1-62.921-6.163A1.72,1.72,0,0,0,159.911,154.275Zm78.472-14.357.5-.029c4.226-13.18,3.309-25.937-3.851-37.953-6.9-11.583-17.179-18.553-30.477-21.321A2,2,0,0,0,206.34,82.4a43.852,43.852,0,0,1,32.014,55.8A5.508,5.508,0,0,0,238.383,139.919Zm-76.2,14.32c9.377,10.329,20.81,15.751,34.606,15.631,13.473-.117,24.654-5.493,33.494-15.694a2.474,2.474,0,0,0-1.562.619c-10.328,10.755-22.933,15.423-37.713,13.712a42.1,42.1,0,0,1-26.447-13.577A2.059,2.059,0,0,0,162.184,154.238ZM198.339,167.1l.335-.018v-12.9h-1.815ZM172.186,109.35,160.647,103.5l-.109.2,10.639,7.392Zm22.279,44.813v12.908l.3.006c.489-4.277.978-8.555,1.476-12.914Zm-35.694-47.394-.082.2,11.21,6.379.934-1.761Zm75.445.3-.1-.212-11.863,4.734.985,1.74Zm-13.584,1.755,9.7-8.14-.15-.192-10.534,6.586ZM173.483,107.1,162.9,100.49l-.134.2,9.711,8.148Zm58.5-3.012-.153-.259-10.907,5.521,1.045,1.729Zm-29.906,62.591.209-.024c-.27-4.149-.54-8.3-.812-12.482h-1.983Zm-11.252-.191.232.028,2.542-12.328h-1.974Zm44.987-56.023-.079-.205-12.183,3.639,1.023,1.7Zm-67.205,5.172.9-1.762-12.148-3.609-.069.2Zm59.377-17.986-.086-.115-9.594,7.276.9,1.515Zm-54.116,8.77.926-1.619-9.572-7.241-.108.151Zm13.214,59.7.167.11,3.639-12.061h-1.938C188.323,158.189,187.7,162.154,187.083,166.119Zm18.618-.4.249-.055-1.818-11.507H202.2Zm-38.452-47.767.878-1.715-11.784-2.371-.054.223Zm58.639-.015,10.926-3.851-.063-.225-11.791,2.383ZM167.683,94.73l-.162.152,7.673,9.215.962-1.66Zm57.89.148-.18-.128-8.448,7.685.975,1.661Zm-39.389,59.286-2.729,10.9.188.057,4.419-10.959Zm18.849-.008,4.287,10.612.232-.08-2.638-10.532Zm-38.257-35.4-11.41-1.261-.034.216L165.8,120.37Zm60.528,1.617,10.419-2.656-.041-.217L226.4,118.749Zm-4.647-27.842-.206-.134-6.936,7.568.941,1.562Zm-46,9.029.931-1.6-6.955-7.578-.186.144Zm3.323,62,.2.085,4.855-9.474H183.25Zm32.961.138.185-.123-3.282-9.4h-1.78Zm-47.692-42.384H154.742l-.024.1,9.589,1.546Zm63.548,1.644,9.786-1.584H227.9Zm-49.664-25.62-5.521-7.2-.192.132,4.833,8.527Zm40.4-6.853-.229-.137-5.322,6.976.871,1.455Zm-8.19,63.673,4.787,7.593.229-.126-3.382-7.467Zm-31.248.017-3.171,7.041.273.143,4.541-7.184Zm-25.431-29.194.028.229,8.057.534.721-1.395Zm74.98-.632.762,1.4,8.127-.553,0-.2ZM216.5,88.246l-.182-.13-3.983,6.32.749,1.35Zm-35.71,6.227-4-6.324-.188.112,3.4,7.468Zm34.2,59.677,4.5,5.9.191-.133-3.269-5.764Zm-38.31-.009-3.1,5.5.234.141,4.29-5.639ZM160.96,128.866l.545-1.207-6.777,1.077.012.13Zm71.3,0h6.01l.013-.145-6.8-1.067ZM213.131,86.584l-.2-.122c-.743,1.465-1.522,2.914-2.2,4.409-.142.313.1.8.16,1.2l.328-.032Zm-31.236,5.494.258.036c.115-.352.426-.793.313-1.043-.631-1.4-1.365-2.75-2.064-4.118l-.25.114Z"/>
    <path id="Path_3" data-name="Path 3" d="M204.831,79.4,252.6,162.147H157.059Zm0,4.636-43.76,75.807H248.6Zm3.954,3.669c.3,2.245,37.206,66.137,38.884,67.363Zm-45.9,65.806.358.225q19.369-32.4,37.729-65.388l-.347-.2Zm87.658,7.854-.009-.391H159.154v.391Z" transform="translate(-8.27 -9.471)" fill="#fff"/>
    <path id="Path_4" data-name="Path 4" d="M162.721,162.2a44.384,44.384,0,0,0,2.6,18.654l-.765,1.33c-11.061-25.769,5.3-58.866,36.58-63.4-.616,1.084-1.141,2.1-1.77,3.053-.166.251-.642.329-.993.42-17.609,4.556-28.726,15.674-33.164,33.264a40.413,40.413,0,0,0,.968,22.565,2.212,2.212,0,0,1-.631,2.267A47.527,47.527,0,0,1,162.721,162.2Z" transform="translate(-11.393 -39.914)" fill="#fff"/>
    <path id="Path_5" data-name="Path 5" d="M433.9,182.144a5.686,5.686,0,0,1,.025-1.809,45.488,45.488,0,0,0-7.1-43.139,45.214,45.214,0,0,0-26.415-16.556c-.662-.147-1.331-.26-2.057-.4l-.765-1.389c30.674,4.31,47.726,36.987,36.612,63.292Z" transform="translate(-194.21 -39.966)" fill="#fff"/>
    <path id="Path_6" data-name="Path 6" d="M206.059,450.478a1.72,1.72,0,0,1,2.13.485,45.414,45.414,0,0,0,62.921,6.163c2.326-1.837,4.3-4.12,6.464-6.165a2.279,2.279,0,0,1,1.476-.57c-9.455,11.5-21.546,17.676-36.52,17.627C227.693,467.969,215.721,461.8,206.059,450.478Z" transform="translate(-46.148 -296.202)" fill="#fff"/>
    <path id="Path_7" data-name="Path 7" d="M436.568,185.785a5.508,5.508,0,0,1-.03-1.715,43.852,43.852,0,0,0-32.014-55.8,2,2,0,0,1-1.789-1.783c13.3,2.768,23.575,9.737,30.477,21.321,7.16,12.016,8.078,24.772,3.851,37.953Z" transform="translate(-198.184 -45.866)" fill="#fff"/>
    <path id="Path_8" data-name="Path 8" d="M216.074,450.433a2.059,2.059,0,0,1,2.378.691A42.1,42.1,0,0,0,244.9,464.7c14.78,1.711,27.385-2.957,37.713-13.712a2.474,2.474,0,0,1,1.562-.619c-8.84,10.2-20.02,15.577-33.494,15.694C236.884,466.184,225.451,460.762,216.074,450.433Z" transform="translate(-53.89 -296.195)" fill="#fff"/>
    <path id="Path_9" data-name="Path 9" d="M370.327,463.49l-1.481-12.921h1.815v12.9Z" transform="translate(-171.987 -296.394)" fill="#fff"/>
    <path id="Path_10" data-name="Path 10" d="M220.47,233.16l-1.01,1.74-10.639-7.392.109-.2Z" transform="translate(-48.283 -123.81)" fill="#fff"/>
    <path id="Path_11" data-name="Path 11" d="M358.3,450.514h1.772c-.5,4.359-.987,8.637-1.476,12.914l-.3-.006Z" transform="translate(-163.837 -296.351)" fill="#fff"/>
    <path id="Path_12" data-name="Path 12" d="M200.759,241.7l12.062,4.815-.934,1.761-11.21-6.379Z" transform="translate(-41.988 -134.936)" fill="#fff"/>
    <path id="Path_13" data-name="Path 13" d="M492.692,242.308l-10.978,6.262-.985-1.74,11.863-4.734Z" transform="translate(-258.476 -135.238)" fill="#fff"/>
    <path id="Path_14" data-name="Path 14" d="M470.227,222.386l-.986-1.746,10.534-6.586.15.192Z" transform="translate(-249.596 -113.561)" fill="#fff"/>
    <path id="Path_15" data-name="Path 15" d="M229.368,220.647l-1,1.74-9.711-8.148.134-.2Z" transform="translate(-55.885 -113.551)" fill="#fff"/>
    <path id="Path_16" data-name="Path 16" d="M485.932,228.992l-10.015,6.99-1.045-1.729,10.907-5.521Z" transform="translate(-253.949 -124.908)" fill="#fff"/>
    <path id="Path_17" data-name="Path 17" d="M383.033,463.05l-2.586-12.506h1.983c.272,4.185.542,8.333.812,12.482Z" transform="translate(-180.955 -296.375)" fill="#fff"/>
    <path id="Path_18" data-name="Path 18" d="M342.265,462.909l.8-12.3h1.974L342.5,462.937Z" transform="translate(-151.439 -296.425)" fill="#fff"/>
    <path id="Path_19" data-name="Path 19" d="M498.709,257.274,487.47,262.4l-1.023-1.7,12.183-3.639Z" transform="translate(-262.896 -146.813)" fill="#fff"/>
    <path id="Path_20" data-name="Path 20" d="M205.835,262.471,194.519,257.3l.069-.2,12.148,3.609Z" transform="translate(-37.228 -146.837)" fill="#fff"/>
    <path id="Path_21" data-name="Path 21" d="M473.016,201.126,464.24,209.8l-.9-1.515,9.594-7.276Z" transform="translate(-245.031 -103.478)" fill="#fff"/>
    <path id="Path_22" data-name="Path 22" d="M237.742,209.982l-8.754-8.709.108-.151,9.572,7.241Z" transform="translate(-63.873 -103.565)" fill="#fff"/>
    <path id="Path_23" data-name="Path 23" d="M325.776,462.49c.62-3.965,1.24-7.93,1.869-11.951h1.938L325.943,462.6Z" transform="translate(-138.693 -296.372)" fill="#fff"/>
    <path id="Path_24" data-name="Path 24" d="M395.87,462.063l-3.5-11.562H394.3l1.818,11.507Z" transform="translate(-190.169 -296.341)" fill="#fff"/>
    <path id="Path_25" data-name="Path 25" d="M201.064,277.074l-10.96-3.863.054-.223,11.784,2.371Z" transform="translate(-33.815 -159.119)" fill="#fff"/>
    <path id="Path_26" data-name="Path 26" d="M493.585,277.041l-.928-1.693,11.791-2.383.063.225Z" transform="translate(-267.697 -159.101)" fill="#fff"/>
    <path id="Path_27" data-name="Path 27" d="M239.75,188.664l8.473,7.707-.962,1.66-7.673-9.215Z" transform="translate(-72.067 -93.934)" fill="#fff"/>
    <path id="Path_28" data-name="Path 28" d="M465.97,188.879l-7.653,9.218-.975-1.661,8.448-7.685Z" transform="translate(-240.397 -94.001)" fill="#fff"/>
    <path id="Path_29" data-name="Path 29" d="M312.518,450.52H314.4l-4.419,10.959-.188-.057Z" transform="translate(-126.335 -296.356)" fill="#fff"/>
    <path id="Path_30" data-name="Path 30" d="M404.858,450.484h1.88l2.638,10.532-.232.08Z" transform="translate(-199.826 -296.328)" fill="#fff"/>
    <path id="Path_31" data-name="Path 31" d="M197.327,290.231l-.978,1.613-10.466-2.657.034-.216Z" transform="translate(-30.552 -171.473)" fill="#fff"/>
    <path id="Path_32" data-name="Path 32" d="M499.89,291.865l-.907-1.626,11.286-1.247.041.217Z" transform="translate(-272.587 -171.49)" fill="#fff"/>
    <path id="Path_33" data-name="Path 33" d="M458.185,178.527l-6.2,9-.941-1.562,6.936-7.568Z" transform="translate(-235.529 -85.994)" fill="#fff"/>
    <path id="Path_34" data-name="Path 34" d="M258.7,187.516l-6.211-9.032.186-.144,6.955,7.578Z" transform="translate(-82.037 -85.953)" fill="#fff"/>
    <path id="Path_35" data-name="Path 35" d="M294.489,459.941l3.268-9.39h1.786l-4.855,9.474Z" transform="translate(-114.507 -296.38)" fill="#fff"/>
    <path id="Path_36" data-name="Path 36" d="M423.1,460.09l-4.877-9.525H420l3.282,9.4Z" transform="translate(-210.158 -296.391)" fill="#fff"/>
    <path id="Path_37" data-name="Path 37" d="M193.713,305.791l-.945,1.644-9.589-1.546.024-.1Z" transform="translate(-28.462 -184.476)" fill="#fff"/>
    <path id="Path_38" data-name="Path 38" d="M506.522,307.638l-.9-1.584h10.681Z" transform="translate(-277.723 -184.68)" fill="#fff"/>
    <path id="Path_39" data-name="Path 39" d="M271.3,175.617l-.88,1.454-4.833-8.527.192-.132Z" transform="translate(-92.165 -78.278)" fill="#fff"/>
    <path id="Path_40" data-name="Path 40" d="M449.871,169.491l-4.679,8.294-.871-1.455,5.322-6.976Z" transform="translate(-230.331 -79.007)" fill="#fff"/>
    <path id="Path_41" data-name="Path 41" d="M432.689,450.494h1.635l3.382,7.467-.229.126Z" transform="translate(-221.34 -296.336)" fill="#fff"/>
    <path id="Path_42" data-name="Path 42" d="M284.215,450.568h1.643l-4.541,7.184-.273-.143Z" transform="translate(-104.114 -296.393)" fill="#fff"/>
    <path id="Path_43" data-name="Path 43" d="M182.966,319.792l8.806-.632-.721,1.395-8.057-.534Z" transform="translate(-28.297 -194.811)" fill="#fff"/>
    <path id="Path_44" data-name="Path 44" d="M513.318,319.16l8.891.643,0,.2-8.127.553Z" transform="translate(-283.668 -194.811)" fill="#fff"/>
    <path id="Path_45" data-name="Path 45" d="M441.2,159.652l-3.416,7.541-.749-1.35,3.983-6.32Z" transform="translate(-224.702 -71.406)" fill="#fff"/>
    <path id="Path_46" data-name="Path 46" d="M283.79,165.989,283,167.245l-3.4-7.468.188-.112Z" transform="translate(-102.998 -71.517)" fill="#fff"/>
    <path id="Path_47" data-name="Path 47" d="M448.722,450.454h1.424l3.269,5.764-.191.133Z" transform="translate(-233.734 -296.305)" fill="#fff"/>
    <path id="Path_48" data-name="Path 48" d="M269.367,450.416h1.421l-4.29,5.639-.234-.141Z" transform="translate(-92.688 -296.276)" fill="#fff"/>
    <path id="Path_49" data-name="Path 49" d="M189.456,334.953h-6.219l-.012-.13L190,333.746Z" transform="translate(-28.496 -206.086)" fill="#fff"/>
    <path id="Path_50" data-name="Path 50" d="M522.184,334.936l-.773-1.212,6.8,1.067-.013.145Z" transform="translate(-289.924 -206.069)" fill="#fff"/>
    <path id="Path_51" data-name="Path 51" d="M432.212,152.356l-1.913,5.457-.328.032c-.063-.405-.3-.89-.16-1.2.676-1.5,1.456-2.944,2.2-4.409Z" transform="translate(-219.081 -65.772)" fill="#fff"/>
    <path id="Path_52" data-name="Path 52" d="M296.981,159.522l-1.742-5.011.25-.114c.7,1.368,1.432,2.72,2.064,4.118.113.25-.2.691-.313,1.043Z" transform="translate(-115.087 -67.444)" fill="#fff"/>
    <path id="Path_53" data-name="Path 53" d="M218.488,99.828l43.766,75.807H174.728Zm-10.653,61.119a6.826,6.826,0,0,0-.552-.684,14.154,14.154,0,0,1-4.056-6.559c-.566-2.154-.757-4.407-1.158-6.895a6.745,6.745,0,0,0-.571,1.6,19.3,19.3,0,0,0,.868,7.791l-.373.113-2.6-7.547a3.692,3.692,0,0,0-.422,1.156c.035,1.429.09,2.865.265,4.282.084.678.254,1.617.724,1.932,2.55,1.71,5.207,3.262,7.827,4.869.976.752,1.542-.151,2.069-.635,1.018-.935,1.9-2.015,2.979-3.183L210.57,162.2l1.355.475,2.2-3.335-.785,3.729,1.949.3.552-1.428.162.021v1.56h5.129c.049-.417.081-.686.124-1.048l.571.944,1.943-.434c-.179-.968-.336-1.816-.531-2.868l1.846,2.568,1.437-.529-2.193-4.741,4.2,4.347c2.761-1.752,5.3-3.376,7.848-4.971a2.726,2.726,0,0,0,1.375-2.2c.123-1.577.239-3.157.289-4.738.011-.342-.273-.693-.455-1.118l-2.24,6.846c.069-2.64.154-5.037.181-7.434.009-.835-.056-.836-.773-1l-.581,6.19-6.024-2.718.012-.207h6.063l.039-.351-6.34-1.374,6.193-1.357-.035-.292h-6.9c-.515,5.142-2.726,8.14-6.458,8.9-1.048-2.356-3.389-2.241-4.489.085-4.23-1.443-6.226-4.48-6.364-8.963h-6.513l-.032.285,5.926,1.343-6.022,1.366.039.344h5.813l.007.2L203.71,153l.1.337,5.628-.9-4.79,3.531.169.266,5.492-2.061-4.054,4.347.2.239,4.631-2.633c-.9,1.577-1.66,2.963-2.477,4.317C208.464,160.683,208.1,160.783,207.835,160.947Zm-13.956-5.318-.091.076a5.938,5.938,0,0,0,.5.69,52.1,52.1,0,0,0,11.795,9.669c7.925,4.436,16,4.8,24.167.745A39.252,39.252,0,0,0,244.2,155.3a5.2,5.2,0,0,0,.673-6.121,31.807,31.807,0,0,0-7.144-9.14c-4.985-4.623-10.758-7.5-17.629-7.857a25.694,25.694,0,0,0-15.607,4.534c-.653.424-1.271.9-1.906,1.35l.172.229c.435-.279.866-.565,1.307-.836,6.04-3.72,12.511-5.229,19.506-3.55,9.617,2.309,15.852,8.959,21.108,16.776.835,1.242.638,1.929-.469,2.99-1.146,1.1-2.361,2.124-3.508,3.222a48.838,48.838,0,0,1-10.7,8.144c-5.161,2.746-10.579,3.963-16.4,2.726-5.851-1.244-10.744-4.323-15.255-8.089C196.812,158.392,195.368,156.983,193.879,155.628Zm49.58-3.872a2.209,2.209,0,0,0-.081-.491,31.3,31.3,0,0,0-15.249-14.291A22.111,22.111,0,0,0,216.4,135.2a26.047,26.047,0,0,0-14.718,7.161c-1.9,1.776-3.577,3.8-5.354,5.712l.275.3c6.7-6.539,14.4-10.8,24.049-9.983C230.237,139.2,237.36,144.5,243.459,151.757Zm-47.371,9.8a34.041,34.041,0,0,0,7.442,6.17c7.3,4.5,15.076,6.062,23.4,3.419a37.87,37.87,0,0,0,15.811-10.223,17.259,17.259,0,0,0,4.715-7.61,8.293,8.293,0,0,0,.108-1.545l-.317-.026a10.209,10.209,0,0,1-.427,1.445,7.051,7.051,0,0,1-.835,1.34,46.664,46.664,0,0,1-15.246,13.3,25.8,25.8,0,0,1-14.152,3.241,28.793,28.793,0,0,1-13.279-4.477C200.824,165.033,198.489,163.241,196.088,161.554Zm.089,3.439-.178.2a7.309,7.309,0,0,0,.528.569c6.453,5.662,13.52,9.777,22.548,9.052,1.726-.138,3.515.148,5.193-.18,7.956-1.557,14.416-5.782,19.921-11.587a22.269,22.269,0,0,0,4.665-7.044,7.987,7.987,0,0,0,.292-1.445c-.971,1.086-1.565,2.286-2.4,3.286-4.841,5.81-10.393,10.745-17.428,13.788a27.024,27.024,0,0,1-14.711,2.107c-6.185-.863-11.544-3.6-16.489-7.279C197.469,165.978,196.825,165.483,196.177,164.993Zm46.732-11.464-.3-.268c-.276.256-.551.513-.828.767a45.549,45.549,0,0,1-11.049,7.633,26.619,26.619,0,0,1-15.932,2.7,34.317,34.317,0,0,1-14.514-6.272c-.465-.326-.919-.667-1.379-1l-.163.229c.967.84,1.882,1.751,2.911,2.506a56.74,56.74,0,0,0,5.329,3.632c6.182,3.526,12.682,4.416,19.49,1.992a34.193,34.193,0,0,0,11.824-7.18C239.92,156.774,241.379,155.113,242.91,153.528Zm-38.9-19.692c14.025-7.126,26.007-3.2,36.925,6.824-2.147-4.7-10.423-9.982-17.918-11.159C216.159,128.425,209.85,130.21,204.012,133.837Zm46.478,22.957-.317-.046A46.441,46.441,0,0,1,229.6,174.7a6.983,6.983,0,0,0,5.336-1.039c1.807-1.231,3.719-2.32,5.449-3.648a31.8,31.8,0,0,0,9.831-11.945A5.861,5.861,0,0,0,250.489,156.794Zm-14-23.5.243-.221a7.235,7.235,0,0,0-1.433-1.756c-7.907-4.987-16.342-6.429-25.329-3.471-2.144.706-4.187,1.722-6.276,2.6l.105.413C215.21,125.1,226.058,126.54,236.49,133.3Zm-.379,41.274.135.35a7.027,7.027,0,0,0,2.6-.44,33.411,33.411,0,0,0,12.76-14.366,3.138,3.138,0,0,0,.02-1.191A49.045,49.045,0,0,1,236.111,174.57Zm-2.454-46.294.239-.369a11.133,11.133,0,0,0-1.932-1.525,29.266,29.266,0,0,0-21.71-1.608c-2.261.67-4.437,1.628-6.651,2.454l.117.424C213.818,122.586,223.779,123.613,233.657,128.277Zm-17.7,18.2a2.583,2.583,0,0,0,2.553,2.6,2.654,2.654,0,0,0,2.632-2.568,2.575,2.575,0,0,0-2.65-2.617A2.481,2.481,0,0,0,215.954,146.481Zm15.154-22.541.26-.35a7.461,7.461,0,0,0-1.68-1.209,32.49,32.49,0,0,0-23.119.536,2.558,2.558,0,0,0-.468.306C214.552,120.25,222.863,120.743,231.108,123.94Zm21.97,37.628-.327-.151c-2.766,5.337-6.81,9.568-11.4,13.409a4.18,4.18,0,0,0,2.242-.793,39.209,39.209,0,0,0,9.038-11.384C252.81,162.3,252.93,161.928,253.078,161.567Zm1.365,2.367-.28-.16a45.682,45.682,0,0,1-8.979,10.921,2.359,2.359,0,0,0,2.543-.761,38.051,38.051,0,0,0,6.309-8.909A9.711,9.711,0,0,0,254.443,163.934Zm-47.879,10.924.087-.272a46.992,46.992,0,0,1-14.377-9.53,38.624,38.624,0,0,0,12.491,9.551A6,6,0,0,0,206.564,174.858Zm49.309-8.586-.188-.05-6.416,8.5a2.052,2.052,0,0,0,1.557-.567c1.611-2.272,3.134-4.607,4.669-6.933A4.914,4.914,0,0,0,255.873,166.272Zm-44.125-47.587a42.232,42.232,0,0,1,17.179,1.058,2.229,2.229,0,0,0-1.089-.814A34.081,34.081,0,0,0,211.748,118.685ZM198.986,155.5l.18-.133-1.65-4.949-2.01,1.8ZM226.9,116.3c-1.1-1.829-14.286-1.82-16.556-.257A38.675,38.675,0,0,1,226.9,116.3Zm11.085,38.911.193.152,3.363-3.137-2.02-1.823ZM227.12,147l4.52-1.808c-1.852-1.126-3.271,0-4.845.148Zm-21.651-1.813,4.54,1.77.2-1.71C208.606,145.348,207.23,144.024,205.47,145.186Zm19.325-32.6a29.823,29.823,0,0,0-12.447,0Zm-33.847,54.9c-.01-.109-.03-.016.005.015,2.689,2.362,5.374,4.73,8.091,7.06.249.213.706.184,1.069.269ZM214.2,109.5h8.716A19.159,19.159,0,0,0,214.2,109.5Zm38.638,65.251c1.049-.158,3.965-4.412,4.232-6.116Z" transform="translate(-21.929 -25.261)"/>
    <path id="Path_54" data-name="Path 54" d="M384.95,115.991l38.884,67.363C422.156,182.128,385.251,118.236,384.95,115.991Z" transform="translate(-184.436 -37.756)"/>
    <path id="Path_55" data-name="Path 55" d="M182.734,183.306l37.74-65.363.347.2q-18.333,33-37.729,65.388Z" transform="translate(-28.117 -39.264)"/>
    <path id="Path_56" data-name="Path 56" d="M257.678,439.2H166.287v-.391h91.382Z" transform="translate(-15.403 -287.302)"/>
    <path id="Path_57" data-name="Path 57" d="M304.9,321.737c.263-.163.629-.263.771-.5.817-1.354,1.58-2.74,2.476-4.317l-4.631,2.633-.2-.239,4.054-4.347-5.492,2.061-.169-.266,4.79-3.531-5.628.9-.1-.337,5.377-2.4-.007-.2h-5.813l-.039-.344,6.022-1.366-5.926-1.343.032-.285h6.513c.139,4.483,2.134,7.52,6.364,8.963,1.1-2.327,3.441-2.441,4.489-.085,3.732-.764,5.943-3.762,6.458-8.9h6.9l.035.292-6.193,1.357,6.34,1.374-.039.351h-6.063l-.012.207,6.024,2.718.581-6.19c.717.162.782.163.773,1-.027,2.4-.112,4.794-.181,7.434l2.24-6.846c.182.425.465.776.455,1.118-.05,1.581-.166,3.16-.289,4.738a2.726,2.726,0,0,1-1.375,2.2c-2.553,1.594-5.087,3.219-7.848,4.971l-4.2-4.347,2.193,4.741-1.437.529-1.846-2.568c.195,1.052.352,1.9.531,2.868l-1.943.434-.571-.944-.124,1.048h-5.129v-1.56l-.162-.021-.552,1.428-1.949-.3.785-3.729-2.2,3.335-1.355-.475,2.262-5.007c-1.077,1.168-1.961,2.249-2.979,3.183-.527.484-1.093,1.386-2.069.635Zm23.091-2.147c1.548-1.419,2.244-3.314,2.994-5.243l-6.359-1.138,5.02,3.556-.164.326-5.1-1.773,3.512,4.195-4.946-2.631L326,321.943Z" transform="translate(-118.996 -186.052)" fill="#fff"/>
    <path id="Path_58" data-name="Path 58" d="M258.795,265.718c1.489,1.354,2.933,2.764,4.477,4.053,4.511,3.766,9.4,6.845,15.255,8.089,5.818,1.237,11.236.02,16.4-2.726a48.839,48.839,0,0,0,10.7-8.144c1.146-1.1,2.362-2.123,3.508-3.222,1.107-1.062,1.3-1.748.469-2.99-5.256-7.817-11.491-14.467-21.108-16.776-7-1.68-13.466-.17-19.506,3.55-.44.271-.871.557-1.307.836l-.172-.229c.635-.451,1.254-.926,1.906-1.35a25.694,25.694,0,0,1,15.607-4.534c6.87.362,12.644,3.234,17.629,7.857a31.808,31.808,0,0,1,7.144,9.14,5.2,5.2,0,0,1-.673,6.121,39.252,39.252,0,0,1-13.954,11.5c-8.17,4.052-16.241,3.691-24.167-.745a52.1,52.1,0,0,1-11.795-9.669,5.941,5.941,0,0,1-.5-.69Z" transform="translate(-86.844 -135.351)" fill="#fff"/>
    <path id="Path_59" data-name="Path 59" d="M317.03,271.65c-6.1-7.255-13.222-12.556-22.806-13.366-9.647-.815-17.351,3.444-24.049,9.983l-.275-.3c1.778-1.912,3.45-3.936,5.354-5.712a26.047,26.047,0,0,1,14.718-7.161,22.111,22.111,0,0,1,11.727,1.774,31.3,31.3,0,0,1,15.249,14.291A2.208,2.208,0,0,1,317.03,271.65Z" transform="translate(-95.499 -145.154)" fill="#fff"/>
    <path id="Path_60" data-name="Path 60" d="M268.837,338.353c2.4,1.687,4.736,3.479,7.219,5.036a28.793,28.793,0,0,0,13.279,4.477,25.8,25.8,0,0,0,14.152-3.241,46.663,46.663,0,0,0,15.246-13.3,7.053,7.053,0,0,0,.836-1.34,10.215,10.215,0,0,0,.427-1.445l.317.026a8.3,8.3,0,0,1-.108,1.545,17.259,17.259,0,0,1-4.715,7.61,37.871,37.871,0,0,1-15.811,10.223c-8.323,2.643-16.095,1.082-23.4-3.419A34.041,34.041,0,0,1,268.837,338.353Z" transform="translate(-94.677 -202.06)" fill="#fff"/>
    <path id="Path_61" data-name="Path 61" d="M268.626,351.4c.648.49,1.292.985,1.944,1.469,4.945,3.674,10.3,6.416,16.489,7.279a27.024,27.024,0,0,0,14.711-2.107c7.035-3.043,12.587-7.978,17.428-13.788.833-1,1.426-2.2,2.4-3.286a7.987,7.987,0,0,1-.292,1.445,22.268,22.268,0,0,1-4.665,7.044c-5.5,5.8-11.965,10.03-19.921,11.587-1.678.328-3.467.041-5.193.18-9.028.724-16.095-3.39-22.548-9.052a7.309,7.309,0,0,1-.528-.569Z" transform="translate(-94.377 -211.672)" fill="#fff"/>
    <path id="Path_62" data-name="Path 62" d="M324.723,335.511c-1.53,1.585-2.99,3.246-4.605,4.738a34.193,34.193,0,0,1-11.824,7.18c-6.809,2.424-13.308,1.534-19.49-1.992a56.751,56.751,0,0,1-5.329-3.632c-1.03-.755-1.945-1.666-2.911-2.506l.163-.229c.459.334.914.675,1.379,1a34.317,34.317,0,0,0,14.514,6.272,26.619,26.619,0,0,0,15.932-2.7A45.549,45.549,0,0,0,323.6,336.01c.277-.255.552-.512.828-.767Z" transform="translate(-103.742 -207.244)" fill="#fff"/>
    <path id="Path_63" data-name="Path 63" d="M303.747,233.842c5.838-3.627,12.148-5.412,19.007-4.335,7.5,1.177,15.771,6.46,17.918,11.159C329.754,230.641,317.772,226.716,303.747,233.842Z" transform="translate(-121.664 -125.266)" fill="#fff"/>
    <path id="Path_64" data-name="Path 64" d="M437.375,350.657a5.861,5.861,0,0,1-.273,1.269,31.8,31.8,0,0,1-9.831,11.945c-1.73,1.328-3.642,2.417-5.449,3.648a6.983,6.983,0,0,1-5.336,1.039,46.441,46.441,0,0,0,20.572-17.947Z" transform="translate(-208.814 -219.124)" fill="#fff"/>
    <path id="Path_65" data-name="Path 65" d="M290.346,321.015c-2.62-1.607-5.277-3.159-7.827-4.869-.47-.315-.64-1.253-.724-1.932-.175-1.417-.23-2.853-.265-4.282a3.692,3.692,0,0,1,.422-1.155l2.6,7.547.373-.113a19.3,19.3,0,0,1-.868-7.791,6.745,6.745,0,0,1,.571-1.6c.4,2.488.592,4.741,1.158,6.895a14.154,14.154,0,0,0,4.056,6.559,6.847,6.847,0,0,1,.552.684Z" transform="translate(-104.49 -185.27)" fill="#fff"/>
    <path id="Path_66" data-name="Path 66" d="M335.147,223.534c-10.432-6.757-21.28-8.193-32.691-2.439l-.105-.413c2.089-.873,4.132-1.889,6.276-2.6,8.987-2.959,17.422-1.517,25.329,3.471a7.236,7.236,0,0,1,1.433,1.756Z" transform="translate(-120.585 -115.499)" fill="#fff"/>
    <path id="Path_67" data-name="Path 67" d="M445.173,375.837a49.046,49.046,0,0,0,15.518-15.648,3.138,3.138,0,0,1-.02,1.191,33.411,33.411,0,0,1-12.76,14.366,7.027,7.027,0,0,1-2.6.44Z" transform="translate(-230.99 -226.528)" fill="#fff"/>
    <path id="Path_68" data-name="Path 68" d="M332,208.61c-9.878-4.664-19.839-5.691-29.937-.624l-.117-.424c2.215-.826,4.391-1.784,6.651-2.454a29.266,29.266,0,0,1,21.71,1.608,11.133,11.133,0,0,1,1.932,1.525Z" transform="translate(-120.272 -105.595)" fill="#fff"/>
    <path id="Path_69" data-name="Path 69" d="M356.363,296.578A2.481,2.481,0,0,1,358.9,294a2.575,2.575,0,0,1,2.65,2.617,2.654,2.654,0,0,1-2.632,2.568A2.583,2.583,0,0,1,356.363,296.578Z" transform="translate(-162.337 -175.358)" fill="#fff"/>
    <path id="Path_70" data-name="Path 70" d="M337.959,194.371c-8.245-3.2-16.556-3.689-25.007-.717a2.558,2.558,0,0,1,.468-.306,32.49,32.49,0,0,1,23.119-.536,7.46,7.46,0,0,1,1.681,1.209Z" transform="translate(-128.78 -95.692)" fill="#fff"/>
    <path id="Path_71" data-name="Path 71" d="M479.976,371.329c-.148.361-.268.738-.45,1.081a39.209,39.209,0,0,1-9.038,11.384,4.18,4.18,0,0,1-2.242.793c4.594-3.84,8.638-8.071,11.4-13.409Z" transform="translate(-248.826 -235.022)" fill="#fff"/>
    <path id="Path_72" data-name="Path 72" d="M494.407,381.722a9.71,9.71,0,0,1-.407,1.091,38.051,38.051,0,0,1-6.309,8.909,2.359,2.359,0,0,1-2.543.761,45.682,45.682,0,0,0,8.979-10.921Z" transform="translate(-261.893 -243.05)" fill="#fff"/>
    <path id="Path_73" data-name="Path 73" d="M266.323,397.016a6,6,0,0,1-1.8-.251,38.624,38.624,0,0,1-12.491-9.551,46.992,46.992,0,0,0,14.377,9.53Z" transform="translate(-81.688 -247.419)" fill="#fff"/>
    <path id="Path_74" data-name="Path 74" d="M509.749,392.4a4.913,4.913,0,0,1-.378.952c-1.535,2.326-3.058,4.661-4.669,6.933a2.052,2.052,0,0,1-1.557.567l6.416-8.5Z" transform="translate(-275.804 -251.387)" fill="#fff"/>
    <path id="Path_75" data-name="Path 75" d="M337.831,180.031a34.081,34.081,0,0,1,16.09.244,2.229,2.229,0,0,1,1.089.814A42.232,42.232,0,0,0,337.831,180.031Z" transform="translate(-148.012 -86.606)" fill="#fff"/>
    <path id="Path_76" data-name="Path 76" d="M269.756,327.8l-3.48-3.282,2.01-1.8,1.65,4.949Z" transform="translate(-92.698 -197.562)" fill="#fff"/>
    <path id="Path_77" data-name="Path 77" d="M348.209,167.629a38.675,38.675,0,0,0-16.556-.257C333.924,165.809,347.107,165.8,348.209,167.629Z" transform="translate(-143.236 -76.589)" fill="#fff"/>
    <path id="Path_78" data-name="Path 78" d="M453.435,327.467l1.536-4.808,2.02,1.823-3.363,3.137Z" transform="translate(-237.377 -197.516)" fill="#fff"/>
    <path id="Path_79" data-name="Path 79" d="M404.455,299.814l-.325-1.66c1.574-.144,2.993-1.274,4.845-.148Z" transform="translate(-199.263 -178.077)" fill="#fff"/>
    <path id="Path_80" data-name="Path 80" d="M310.172,298.03c1.76-1.162,3.136.162,4.739.061l-.2,1.71Z" transform="translate(-126.631 -178.106)" fill="#fff"/>
    <path id="Path_81" data-name="Path 81" d="M352.922,153.784H340.475A29.823,29.823,0,0,1,352.922,153.784Z" transform="translate(-150.056 -66.463)" fill="#fff"/>
    <path id="Path_82" data-name="Path 82" d="M246.141,397.73l9.166,7.343c-.364-.084-.82-.055-1.069-.269-2.717-2.33-5.4-4.7-8.091-7.06C246.111,397.714,246.13,397.621,246.141,397.73Z" transform="translate(-77.121 -255.508)" fill="#fff"/>
    <path id="Path_83" data-name="Path 83" d="M348.626,140.712a19.159,19.159,0,0,1,8.716,0Z" transform="translate(-156.357 -56.477)" fill="#fff"/>
    <path id="Path_84" data-name="Path 84" d="M518.859,409.08l4.232-6.116C522.824,404.668,519.908,408.922,518.859,409.08Z" transform="translate(-287.952 -259.594)" fill="#fff"/>
    <path id="Path_85" data-name="Path 85" d="M409.959,337.838l-3.512-4.195,5.1,1.773.164-.326-5.02-3.555,6.359,1.138c-.75,1.929-1.446,3.824-2.993,5.243A.8.8,0,0,0,409.959,337.838Z" transform="translate(-201.054 -204.376)"/>
    <path id="Path_86" data-name="Path 86" d="M405.074,350.347a.8.8,0,0,1,.093.076l-2,2.353-3.044-5.061Z" transform="translate(-196.169 -216.886)"/>
  </g>
</svg>
