<svg xmlns="http://www.w3.org/2000/svg" width="144" height="152" viewBox="0 0 144 152">
  <g id="Group_3" data-name="Group 3" transform="translate(-345 -1070)">
    <g id="Polygon_12" data-name="Polygon 12" transform="translate(453 1070) rotate(90)" fill="none">
      <path d="M66.75,0,89,36,66.75,72H22.25L0,36,22.25,0Z" stroke="none"/>
      <path d="M 23.36506652832031 2 L 2.351158142089844 36 L 23.36505126953125 70 L 65.63494873046875 70 L 86.64884185791016 36 L 65.63494873046875 2 L 23.36506652832031 2 M 22.25001525878906 0 L 66.75 0 L 89 36 L 66.75 72 L 22.25 72 L 0 36 L 22.25001525878906 0 Z" stroke="none" fill="#fff"/>
    </g>
    <g id="Polygon_13" data-name="Polygon 13" transform="translate(489 1133) rotate(90)" fill="none">
      <path d="M66.75,0,89,36,66.75,72H22.25L0,36,22.25,0Z" stroke="none"/>
      <path d="M 23.36506652832031 2 L 2.351158142089844 36 L 23.36505126953125 70 L 65.63494873046875 70 L 86.64884185791016 36 L 65.63494873046875 2 L 23.36506652832031 2 M 22.25001525878906 0 L 66.75 0 L 89 36 L 66.75 72 L 22.25 72 L 0 36 L 22.25001525878906 0 Z" stroke="none" fill="#fff"/>
    </g>
    <g id="Polygon_14" data-name="Polygon 14" transform="translate(417 1133) rotate(90)" fill="none">
      <path d="M66.75,0,89,36,66.75,72H22.25L0,36,22.25,0Z" stroke="none"/>
      <path d="M 23.36506652832031 2 L 2.351158142089844 36 L 23.36505126953125 70 L 65.63494873046875 70 L 86.64884185791016 36 L 65.63494873046875 2 L 23.36506652832031 2 M 22.25001525878906 0 L 66.75 0 L 89 36 L 66.75 72 L 22.25 72 L 0 36 L 22.25001525878906 0 Z" stroke="none" fill="#fff"/>
    </g>
  </g>
</svg>
