<svg xmlns="http://www.w3.org/2000/svg" xmlns:xlink="http://www.w3.org/1999/xlink" width="234.52" height="234.522" viewBox="0 0 234.52 234.522"><defs><clipPath id="a"><rect width="182.692" height="159.987" fill="none"/></clipPath><clipPath id="c"><rect width="8.987" height="8.987" fill="none"/></clipPath><clipPath id="d"><rect width="13.48" height="13.482" fill="none"/></clipPath><clipPath id="f"><rect width="13.48" height="13.483" fill="none"/></clipPath><clipPath id="h"><rect width="13.481" height="13.483" fill="none"/></clipPath><clipPath id="j"><rect width="13.481" height="13.482" fill="none"/></clipPath></defs><g transform="translate(-488.542 -299.591)"><path d="M218.173,140.133A85.339,85.339,0,1,1,132.837,54.8,85.347,85.347,0,0,1,218.173,140.133Z" transform="translate(420.694 361.905) rotate(-30)" fill="none" stroke="#fff" stroke-miterlimit="10" stroke-width="1"/><g transform="translate(514.456 336.667)"><g clip-path="url(#a)"><path d="M139.271,158.9H53.9l-.147-.254L11.221,84.969l.147-.255L53.9,11.04h85.367l.147.254,42.535,73.675-.147.255ZM54.492,157.88h84.191l42.1-72.911-42.1-72.911H54.492L12.4,84.969Z" transform="translate(-5.123 -5.04)" fill="#fff"/><path d="M133.986,158.885l-.277-.027-80.432-7.9L19.788,77.1l.162-.227,47.059-65.7.278.027,80.433,7.9,33.487,73.86-.162.227Zm-80.059-8.836,79.6,7.819L180.1,92.846,147.069,20l-79.6-7.821L20.9,77.205Z" transform="translate(-9.034 -5.098)" fill="#fff"/><path d="M129.617,158.737l-.26-.052-75.31-14.942-.085-.251L29.245,70.8l.174-.2,50.6-57.75.26.052,75.31,14.942.085.251,24.715,72.691-.174.2ZM54.746,142.945l74.53,14.787,50.07-57.15-24.46-71.937L80.357,13.857,30.285,71.009Z" transform="translate(-13.352 -5.868)" fill="#fff"/><path d="M126.124,158.469l-.241-.073L56.068,137.275l-.057-.246L39.4,66.008l.184-.172,53.2-49.9.241.073,69.813,21.122.058.246L179.5,108.4l-.184.172ZM56.8,136.585l69.091,20.9,52.646-49.382L162.1,37.822l-69.09-20.9L40.36,66.3Z" transform="translate(-17.986 -7.276)" fill="#fff"/><path d="M123.458,158.1l-.221-.091L59.193,131.55l-.032-.237-9.115-68.69.19-.146L105.17,20.241l.221.091,64.043,26.454.031.237,9.113,68.689-.19.146ZM59.952,130.966l63.38,26.181,54.361-41.8L168.675,47.37,105.3,21.19l-54.364,41.8Z" transform="translate(-22.85 -9.241)" fill="#fff"/><path d="M121.574,157.63l-.2-.107L63.281,126.564l-.008-.227L61.037,60.547l.193-.12L117.089,25.6l.2.107,58.093,30.959.008.227,2.234,65.788-.192.121ZM64.053,126.083l57.491,30.638,55.279-34.47-2.212-65.107L117.119,26.507,61.84,60.975Z" transform="translate(-27.867 -11.687)" fill="#fff"/><path d="M117.047,157.086l-.18-.12L64.818,122.3l4.011-62.624.194-.1L125.069,31.84l.18.12L177.3,66.626l-4.012,62.623-.194.1ZM65.593,121.918,117.1,156.224l55.464-27.454,3.957-61.761L125.014,32.7,69.548,60.156Z" transform="translate(-29.594 -14.537)" fill="#fff"/><path d="M111.854,156.48l-.159-.13L65.707,118.741l.033-.2,9.575-58.632.192-.072,55.567-21.022.159.13,45.988,37.61-.033.2-9.577,58.631-.192.072Zm-45.38-38.03,45.513,37.219,54.988-20.8,9.478-58.023L130.941,39.621,75.95,60.426Z" transform="translate(-29.999 -17.72)" fill="#fff"/><path d="M107.824,155.823,67.7,115.858l.05-.189,14.5-54.546,54.678-14.765,40.122,39.966-.05.189-14.5,54.545ZM68.451,115.654l39.574,39.415,53.92-14.561,14.35-53.979-39.57-39.416L82.8,61.674Z" transform="translate(-30.908 -21.166)" fill="#fff"/><path d="M104.888,155.128,70.662,113.614l.065-.174L89.5,63.218l.183-.03,52.883-8.851.118.143,34.1,41.372-.065.173-18.775,50.22-.183.03Zm-33.5-41.636,33.754,40.942,52.332-8.76,18.581-49.7L142.307,55.032,89.972,63.79Z" transform="translate(-32.262 -24.808)" fill="#fff"/><path d="M102.973,154.408l-.1-.146-28.4-42.281,22.492-45.9.176-.012,50.82-3.455.1.146,28.4,42.282L153.965,150.94l-.176.012Zm-27.8-42.474,28.11,41.843,50.29-3.42,22.184-45.263L147.649,63.248,97.356,66.668Z" transform="translate(-34.001 -28.589)" fill="#fff"/><path d="M150.537,153.905l-.167-.005L102,152.449l-.079-.148L79,109.688l.089-.142,25.441-41.163.167,0,48.368,1.454.079.148L176.065,112.6l-.087.142Zm-48.182-2.025,47.866,1.436L175.4,112.582,152.709,70.411l-47.868-1.438L79.665,109.708Z" transform="translate(-36.067 -31.221)" fill="#fff"/><path d="M147.647,153.873l-.158-.02L101.9,147.988l-.061-.147-17.72-42.418.1-.127,27.877-36.554.158.021L157.84,74.63l.061.147,17.718,42.417-.1.126Zm-45.366-6.39,45.121,5.8,27.588-36.174L157.455,75.135l-45.122-5.806L84.744,105.5Z" transform="translate(-38.403 -31.386)" fill="#fff"/><path d="M145.281,153.767l-.147-.033-42.563-9.781-.045-.144-12.811-41.75.1-.11,29.751-31.97.147.034,42.562,9.782.045.145,12.812,41.748-.1.11Zm-42.3-10.255L145.1,153.19l29.443-31.639L161.868,80.235l-42.121-9.68L90.3,102.193Z" transform="translate(-40.961 -31.949)" fill="#fff"/><path d="M143.412,153.592l-39.468-13.247-.028-.14L95.68,99.543l.107-.1,31.1-27.463,39.469,13.247.028.14,8.235,40.661-.107.1Zm-39.038-13.626L143.3,153.03l30.776-27.18-8.149-40.239L127,72.546,96.223,99.725Z" transform="translate(-43.684 -32.866)" fill="#fff"/><path d="M142.013,153.356l-36.084-16.189L101.9,97.823l.11-.079,31.953-23.078,36.084,16.192,4.023,39.342-.11.079ZM106.37,136.848l35.587,15.967,31.621-22.838-3.968-38.8L134.024,75.207,102.4,98.046Z" transform="translate(-46.526 -34.09)" fill="#fff"/><path d="M141.057,153.073l-.113-.065-32.5-18.592-.151-37.572,32.466-18.915.112.064,32.5,18.594.152,37.572Zm-32.165-18.917,32.163,18.4L173.073,133.9l-.149-37.054-32.161-18.4L108.744,97.1Z" transform="translate(-49.444 -35.58)" fill="#fff"/><path d="M137.7,152.747l-.1-.071-29-20.6.011-.123,3.337-35.414.112-.051L144.4,81.673l.1.071,29,20.6-.012.123-3.336,35.414-.112.051Zm-28.654-20.874,28.7,20.385,32-14.663,3.3-35.047-28.7-20.386-32,14.664Z" transform="translate(-49.582 -37.289)" fill="#fff"/><path d="M137.7,152.747l-.1-.071-29-20.6.011-.123,3.337-35.414.112-.051L144.4,81.673l.1.071,29,20.6-.012.123-3.336,35.414-.112.051Zm-28.654-20.874,28.7,20.385,32-14.663,3.3-35.047-28.7-20.386-32,14.664Z" transform="translate(-49.582 -37.289)" fill="#fff"/><path d="M134.906,152.387l-.088-.077-25.5-22.167,6.466-33.287.11-.037,31.952-11.005.088.077,25.5,22.169-6.467,33.285-.11.037Zm-25.151-22.395,25.24,21.936,31.619-10.89,6.377-32.827L147.752,86.273,116.131,97.164Z" transform="translate(-49.908 -39.18)" fill="#fff"/><path d="M132.775,152l-.077-.08-22.054-23.327.032-.106,9.174-30.765.108-.026,31.23-7.436.077.08,22.053,23.329-.031.106-9.174,30.763-.108.026Zm-21.7-23.51L132.9,151.576l30.9-7.36,9.079-30.444L151.062,90.686l-30.907,7.36Z" transform="translate(-50.517 -41.21)" fill="#fff"/><path d="M131.262,151.593l-.065-.083-18.683-24.1,11.571-28.33.1-.015,30.216-4.131.065.084,18.683,24.1-11.571,28.33-.1.015ZM112.931,127.35l18.49,23.853,29.9-4.087,11.412-27.94L154.246,95.321l-29.9,4.089Z" transform="translate(-51.37 -43.342)" fill="#fff"/><path d="M130.33,151.174l-.053-.085-15.425-24.522.047-.088,13.523-25.624.1,0,28.952-1.1.053.085,15.425,24.526-.047.088-13.523,25.621-.1,0Zm-15.079-24.622,15.266,24.267,28.651-1.086,13.383-25.356-15.264-24.271-28.653,1.087Z" transform="translate(-52.437 -45.543)" fill="#fff"/><path d="M157.5,151.014l-.1-.005-27.472-1.65-.043-.085-12.308-24.618L132.8,101.608l.095.005,27.476,1.649.043.085,12.3,24.621-.052.079Zm-27.358-1.973,27.188,1.633,15.009-22.73L160.157,103.58l-27.192-1.632-15.009,22.73Z" transform="translate(-53.681 -46.391)" fill="#fff"/><path d="M155.92,150.981l-.089-.014-25.822-4.112-9.382-24.5,16.529-20.377.089.014,25.824,4.109.033.085,9.347,24.421Zm-25.684-4.406,25.555,4.069,16.3-20.095-9.25-24.168-25.556-4.067-16.3,20.1Z" transform="translate(-55.074 -46.559)" fill="#fff"/><path d="M154.643,150.908,130.528,144.6l-.023-.083-6.57-23.955.06-.061,17.458-17.669,24.117,6.308.023.083,6.569,23.957-.06.061Zm-23.874-6.553,23.783,6.221,17.279-17.485-6.5-23.708-23.785-6.221-17.278,17.486Z" transform="translate(-56.584 -46.949)" fill="#fff"/><path d="M153.647,150.794l-.077-.028-22.138-8.176-.014-.08-3.986-23.257.063-.052,18.148-15.085.077.028,22.14,8.176.014.08,3.983,23.26-.063.053Zm-21.964-8.412,21.909,8.091,17.959-14.926-3.942-23.019-21.91-8.09-17.961,14.928Z" transform="translate(-58.181 -47.536)" fill="#fff"/><path d="M152.919,150.65l-.07-.034-20.172-9.786,0-.077-1.609-22.359,18.625-12.619.07.035,20.171,9.785.005.077,1.608,22.361Zm-19.984-9.994,19.962,9.685L171.263,137.9l-1.59-22.129-19.962-9.684-18.368,12.445Z" transform="translate(-59.839 -48.293)" fill="#fff"/><path d="M151.973,150.479l-.063-.039-18.161-11.125,0-.073.555-21.289.064-.035,18.715-10.165.063.038,18.163,11.125,0,.073-.558,21.291-.064.035Zm-17.964-11.3,17.971,11.01L170.5,140.126l.551-21.07-17.974-11.009-18.522,10.06Z" transform="translate(-61.065 -49.196)" fill="#fff"/><path d="M150.082,150.284l-.055-.042L133.89,138.037l.009-.069,2.5-20.076,18.7-7.9.056.042,16.137,12.2-.009.069-2.505,20.078Zm-15.934-12.356,15.969,12.079,18.444-7.791,2.479-19.87-15.97-12.077-18.446,7.791Z" transform="translate(-61.129 -50.219)" fill="#fff"/><path d="M148.59,150.071l-14.171-13.083.015-.065,4.231-18.748.064-.02,18.352-5.712,14.173,13.083-.015.065-4.233,18.749-.064.02Zm-13.917-13.161,13.976,12.9,18.162-5.653L171,125.6l-13.978-12.9-18.162,5.652Z" transform="translate(-61.371 -51.337)" fill="#fff"/><path d="M147.471,149.843l-.042-.047-12.142-13.639.02-.06,5.741-17.331,17.945-3.708.042.047,12.142,13.638-.02.06-5.745,17.333Zm-11.937-13.737,12.016,13.5,17.695-3.657,5.685-17.153-12.017-13.5-17.7,3.657Z" transform="translate(-61.767 -52.531)" fill="#fff"/><path d="M146.7,149.607l-.035-.048-10.213-14.023.024-.055,7.04-15.854.059-.005,17.251-1.833.035.048,10.213,14.022-.024.055-7.041,15.853-.06.005Zm-10.01-14.1L146.8,149.388l17.07-1.816,6.967-15.687L160.73,118.007l-17.071,1.815Z" transform="translate(-62.3 -53.778)" fill="#fff"/><path d="M146.26,149.362l-.029-.049-8.355-14.205.028-.049,8.129-14.334h.057l16.48-.13.028.049,8.353,14.2-.028.049-8.129,14.334h-.058ZM138.1,135.106l8.268,14.058,16.307-.129,8.044-14.186-8.266-14.058-16.309.129Z" transform="translate(-62.949 -55.059)" fill="#fff"/><path d="M161.762,149.341l-.054,0-15.592-1.408-6.6-14.255.031-.045,9.016-12.8.054,0,15.592,1.407,6.6,14.255-.032.045Zm-15.522-1.59,15.431,1.393,8.923-12.664-6.509-14.059-15.431-1.393-8.923,12.665Z" transform="translate(-63.698 -55.168)" fill="#fff"/><path d="M160.9,149.314l-14.66-2.788-.017-.049-4.9-14.042.034-.039,9.713-11.262,14.662,2.789.017.049,4.9,14.042-.034.039Zm-14.526-2.944,14.458,2.75,9.614-11.144-4.848-13.9-14.46-2.751-9.613,11.146Z" transform="translate(-64.525 -55.305)" fill="#fff"/><path d="M160.219,149.264l-.047-.014-13.555-3.984-.011-.047-3.329-13.732.035-.034,10.23-9.744.047.014,13.556,3.982.011.047,3.327,13.733-.035.034Zm-13.46-4.133,13.415,3.943L170.3,139.43,167,125.84,153.588,121.9l-10.124,9.643Z" transform="translate(-65.415 -55.568)" fill="#fff"/><path d="M159.69,149.191l-.043-.017L147.2,144.15l-.006-.046-1.872-13.292.037-.029,10.577-8.263.043.017,12.446,5.026.007.046L170.3,140.9l-.036.029Zm-12.341-5.156,12.316,4.972,10.468-8.177-1.852-13.154L155.963,122.7,145.5,130.88Z" transform="translate(-66.35 -55.938)" fill="#fff"/><path d="M159.317,149.1l-.039-.021-11.3-5.906,0-.044-.535-12.741.038-.023,10.767-6.83.039.021,11.3,5.907,0,.044.535,12.742-.037.023Zm-11.19-6.021,11.182,5.845,10.656-6.758-.529-12.609-11.183-5.846-10.656,6.76Z" transform="translate(-67.316 -56.402)" fill="#fff"/><path d="M158.51,149l-.035-.023-10.134-6.634,0-.042.678-12.094.037-.02,10.816-5.457.035.023,10.135,6.634,0,.042-.678,12.095-.037.019Zm-10.019-6.732,10.029,6.565,10.7-5.4.671-11.97-10.03-6.566-10.7,5.4Z" transform="translate(-67.727 -56.947)" fill="#fff"/><path d="M157.49,148.88l-.03-.025-8.966-7.213.006-.039,1.764-11.373.037-.014,10.733-4.155.03.024,8.966,7.215-.006.039-1.764,11.372-.038.014Zm-8.848-7.3,8.873,7.138,10.621-4.112,1.746-11.254-8.872-7.139-10.621,4.112Z" transform="translate(-67.797 -57.555)" fill="#fff"/><path d="M156.7,148.754l-7.834-7.679.01-.036,2.723-10.589.036-.01,10.533-2.931,7.833,7.68-.01.037-2.724,10.588-.037.01Zm-7.688-7.72,7.725,7.573,10.423-2.9,2.7-10.479-7.724-7.573-10.424,2.9Z" transform="translate(-67.965 -58.216)" fill="#fff"/><path d="M156.113,148.62l-.023-.028-6.668-7.96,3.57-9.793.035-.005,10.231-1.793.023.028,6.67,7.962-3.571,9.791-.035.005Zm-6.551-8.012,6.6,7.877,10.124-1.774,3.523-9.656-6.6-7.879-10.125,1.774Z" transform="translate(-68.22 -58.915)" fill="#fff"/><path d="M155.728,148.482l-.019-.028-5.566-8.145.015-.031,4.27-8.9.034,0,9.841-.745.019.028,5.565,8.146-.015.03-4.27,8.894-.034,0Zm-5.449-8.184,5.509,8.061,9.737-.738,4.225-8.8-5.508-8.062-9.739.737Z" transform="translate(-68.55 -59.643)" fill="#fff"/><path d="M164.931,148.371H164.9l-9.372-.21-.016-.028-4.506-8.217.017-.028,4.864-8.015h.033l9.372.21.016.028,4.5,8.22-.017.028Zm-9.337-.321,9.274.207,4.813-7.929-4.457-8.135-9.275-.208-4.814,7.932Z" transform="translate(-68.943 -60.209)" fill="#fff"/><path d="M164.364,148.366l-8.872-1.072-.011-.029-3.5-8.188.018-.024,5.343-7.126L166.217,133l.011.029,3.5,8.19-.018.024Zm-8.8-1.171,8.749,1.057,5.288-7.048-3.461-8.1-8.749-1.059-5.288,7.052Z" transform="translate(-69.39 -60.234)" fill="#fff"/><path d="M163.9,148.346l-8.289-1.838-.009-.028-2.545-8.065.02-.021,5.714-6.243,8.288,1.84.009.028,2.544,8.067-.02.021Zm-8.21-1.924,8.175,1.812,5.652-6.174L167,134.077l-8.174-1.814-5.654,6.178Z" transform="translate(-69.88 -60.336)" fill="#fff"/><path d="M163.532,148.313l-.027-.009-7.639-2.5-.006-.027-1.657-7.862.02-.018,5.982-5.371.027.009,7.639,2.5.005.027,1.656,7.865-.02.018Zm-7.583-2.58,7.56,2.472,5.919-5.311-1.64-7.783-7.559-2.475-5.92,5.315Z" transform="translate(-70.404 -60.508)" fill="#fff"/><path d="M163.254,148.269l-.024-.01-6.99-3.072,0-.027-.839-7.587.022-.015,6.154-4.522.024.01,6.99,3.075,0,.026.835,7.587-.021.016Zm-6.929-3.145,6.917,3.04,6.088-4.472-.827-7.509-6.917-3.043-6.091,4.476Z" transform="translate(-70.949 -60.739)" fill="#fff"/><path d="M162.786,148.277l-.023-.013-6.657-3.74V144.5l-.092-7.633.023-.014,6.567-3.9.023.013,6.655,3.741v.027l.091,7.634-.023.014Zm-6.589-3.808,6.588,3.7,6.5-3.856-.089-7.555-6.587-3.7-6.5,3.857Z" transform="translate(-71.23 -60.702)" fill="#fff"/><path d="M162.145,148.211l-.021-.014-5.946-4.155,0-.025.621-7.226.022-.01,6.571-3.074.021.014,5.945,4.156,0,.025-.623,7.226-.022.011ZM156.269,144l5.884,4.112,6.5-3.041.616-7.151-5.882-4.113-6.5,3.043Z" transform="translate(-71.305 -61.045)" fill="#fff"/><path d="M161.566,148.139l-.018-.015-5.235-4.481,0-.023,1.258-6.775.022-.008,6.5-2.3.018.015,5.233,4.481,0,.023-1.26,6.774-.022.008Zm-5.163-4.528,5.181,4.434,6.428-2.273,1.247-6.7-5.179-4.435-6.431,2.272Z" transform="translate(-71.367 -61.427)" fill="#fff"/><path d="M161.122,148.06l-.015-.017-4.534-4.724.007-.022,1.819-6.286.022-.006,6.358-1.568.015.016,4.533,4.723-.007.022-1.821,6.287-.022.006Zm-4.461-4.762,4.487,4.675,6.288-1.552,1.8-6.223-4.486-4.674-6.291,1.551Z" transform="translate(-71.486 -61.836)" fill="#fff"/><path d="M160.807,147.977l-.013-.017-3.848-4.887.008-.02,2.3-5.776.021,0,6.156-.891.013.017,3.847,4.885-.008.02-2.306,5.776-.022,0Zm-3.776-4.916,3.808,4.837,6.09-.883,2.282-5.715-3.807-4.836-6.092.882Z" transform="translate(-71.656 -62.268)" fill="#fff"/><path d="M160.606,147.892l-.011-.017-3.184-4.977.009-.018,2.715-5.247h.021l5.9-.271.011.017,3.182,4.976-.01.018-2.716,5.247h-.02Zm-3.113-5,3.151,4.926,5.841-.269,2.687-5.192-3.149-4.926-5.843.268Z" transform="translate(-71.868 -62.714)" fill="#fff"/><path d="M166.141,147.85h-.019l-5.606-.291-.009-.017-2.548-5,.01-.016,3.055-4.709h.02l5.606.293.009.017,2.547,5-.01.016Zm-5.582-.357,5.547.288,3.022-4.659-2.52-4.949-5.548-.29-3.023,4.661Z" transform="translate(-72.119 -62.921)" fill="#fff"/><path d="M165.816,147.844l-.018,0-5.272-.8-.007-.017-1.944-4.964.012-.014,3.325-4.168.018,0,5.272.8.007.017,1.943,4.965-.011.014Zm-5.245-.857,5.219.788,3.289-4.124-1.923-4.914-5.218-.788-3.29,4.124Z" transform="translate(-72.4 -62.952)" fill="#fff"/><path d="M165.551,147.83l-.017,0-4.91-1.243,0-.016-1.377-4.874.013-.013,3.531-3.632.017,0,4.912,1.244,0,.016,1.375,4.873-.012.012Zm-4.879-1.3,4.859,1.23,3.5-3.595-1.361-4.822-4.861-1.231-3.495,3.595Z" transform="translate(-72.704 -63.028)" fill="#fff"/><path d="M165.345,147.807l-.016-.006-4.528-1.63,0-.016-.848-4.737.012-.011,3.675-3.106.015.005,4.53,1.632,0,.016.848,4.736-.013.011Zm-4.493-1.678,4.481,1.612,3.638-3.073-.839-4.687-4.483-1.614-3.637,3.073Z" transform="translate(-73.027 -63.144)" fill="#fff"/><path d="M165.192,147.777l-.014-.006-4.13-1.963v-.016l-.362-4.557.014-.008,3.764-2.595.014.007,4.13,1.963v.016l.362,4.555-.013.009Zm-4.092-2,4.087,1.942,3.725-2.568-.358-4.508-4.087-1.943-3.725,2.568Z" transform="translate(-73.363 -63.295)" fill="#fff"/><path d="M165.023,147.744l-.012-.008-3.722-2.24v-.015l.08-4.342.012-.008,3.8-2.1.013.008,3.721,2.241v.015l-.08,4.34-.012.007Zm-3.682-2.276,3.683,2.216,3.761-2.082.08-4.3-3.683-2.217-3.761,2.081Z" transform="translate(-73.639 -63.476)" fill="#fff"/><path d="M164.633,147.7l-.012-.009-3.311-2.463,0-.014.48-4.1.013-.006,3.788-1.636.012.009,3.31,2.464,0,.014-.479,4.1-.014.006Zm-3.271-2.494,3.277,2.438,3.748-1.62.474-4.054-3.276-2.438-3.749,1.619Z" transform="translate(-73.648 -63.681)" fill="#fff"/><path d="M164.323,147.66l-.01-.009-2.9-2.636,0-.013.833-3.83,3.746-1.2.01.009,2.9,2.636,0,.014-.833,3.828ZM161.464,145l2.87,2.609,3.695-1.183.824-3.789-2.872-2.609-3.693,1.182Z" transform="translate(-73.695 -63.907)" fill="#fff"/><path d="M164.09,147.613l-.009-.009-2.5-2.761,0-.013,1.144-3.542.012,0,3.641-.785.009.01,2.5,2.762,0,.012-1.143,3.543-.012,0Zm-2.457-2.781,2.473,2.732,3.6-.774,1.131-3.506-2.472-2.733-3.6.777Z" transform="translate(-73.773 -64.148)" fill="#fff"/><path d="M163.926,147.566l-.008-.01-2.106-2.843,0-.011,1.412-3.243h.011l3.516-.4.007.01,2.1,2.844,0,.011-1.41,3.243-.011,0Zm-2.065-2.858,2.084,2.813,3.48-.4,1.395-3.21-2.082-2.814-3.48.4Z" transform="translate(-73.878 -64.401)" fill="#fff"/><g clip-path="url(#a)"><g transform="translate(129.486 2.247)" opacity="0.2"><g clip-path="url(#c)"><path d="M247.26,8.628a4.494,4.494,0,1,1-4.493-4.493,4.494,4.494,0,0,1,4.493,4.493" transform="translate(-238.273 -4.134)" fill="#fff"/></g></g><g transform="translate(127.241)" opacity="0.1"><g clip-path="url(#d)"><path d="M247.621,6.74A6.741,6.741,0,1,1,240.882,0a6.741,6.741,0,0,1,6.739,6.74" transform="translate(-234.141)" fill="#fff"/></g></g><path d="M246.966,10.184a2.643,2.643,0,1,1-2.642-2.644,2.643,2.643,0,0,1,2.642,2.644" transform="translate(-110.342 -3.442)" fill="#fff"/><g transform="translate(171.457 75.5)" opacity="0.2"><g clip-path="url(#c)"><path d="M324.493,143.423A4.493,4.493,0,1,1,320,138.93a4.494,4.494,0,0,1,4.493,4.493" transform="translate(-315.506 -138.93)" fill="#fff"/></g></g><g transform="translate(169.211 73.252)" opacity="0.1"><g clip-path="url(#f)"><path d="M324.853,141.535a6.74,6.74,0,1,1-6.74-6.74,6.742,6.742,0,0,1,6.74,6.74" transform="translate(-311.373 -134.795)" fill="#fff"/></g></g><path d="M324.2,144.979a2.643,2.643,0,1,1-2.643-2.643,2.644,2.644,0,0,1,2.643,2.643" transform="translate(-145.603 -64.986)" fill="#fff"/><g transform="translate(2.246 75.5)" opacity="0.2"><g clip-path="url(#c)"><path d="M13.121,143.423a4.493,4.493,0,1,1-4.493-4.493,4.494,4.494,0,0,1,4.493,4.493" transform="translate(-4.134 -138.93)" fill="#fff"/></g></g><g transform="translate(0 73.252)" opacity="0.1"><g clip-path="url(#h)"><path d="M13.481,141.535a6.741,6.741,0,1,1-6.739-6.74,6.742,6.742,0,0,1,6.739,6.74" transform="translate(0 -134.795)" fill="#fff"/></g></g><path d="M12.826,144.979a2.643,2.643,0,1,1-2.642-2.643,2.644,2.644,0,0,1,2.642,2.643" transform="translate(-3.442 -64.986)" fill="#fff"/><g transform="translate(44.503 2.247)" opacity="0.2"><g clip-path="url(#c)"><path d="M90.879,8.628a4.494,4.494,0,1,1-4.493-4.493,4.495,4.495,0,0,1,4.493,4.493" transform="translate(-81.892 -4.134)" fill="#fff"/></g></g><g transform="translate(42.256)" opacity="0.1"><g clip-path="url(#j)"><path d="M91.239,6.74A6.741,6.741,0,1,1,84.5,0a6.742,6.742,0,0,1,6.74,6.74" transform="translate(-77.757)" fill="#fff"/></g></g><path d="M90.583,10.184A2.643,2.643,0,1,1,87.941,7.54a2.643,2.643,0,0,1,2.642,2.644" transform="translate(-38.944 -3.442)" fill="#fff"/><g transform="translate(129.486 148.753)" opacity="0.2"><g clip-path="url(#c)"><path d="M247.26,278.219a4.494,4.494,0,1,1-4.493-4.493,4.494,4.494,0,0,1,4.493,4.493" transform="translate(-238.273 -273.726)" fill="#fff"/></g></g><g transform="translate(127.241 146.505)" opacity="0.1"><g clip-path="url(#d)"><path d="M247.621,276.331a6.741,6.741,0,1,1-6.739-6.74,6.742,6.742,0,0,1,6.739,6.74" transform="translate(-234.141 -269.591)" fill="#fff"/></g></g><path d="M246.966,279.775a2.643,2.643,0,1,1-2.642-2.643,2.643,2.643,0,0,1,2.642,2.643" transform="translate(-110.342 -126.529)" fill="#fff"/><g transform="translate(44.503 148.753)" opacity="0.2"><g clip-path="url(#c)"><path d="M90.879,278.219a4.494,4.494,0,1,1-4.493-4.493,4.5,4.5,0,0,1,4.493,4.493" transform="translate(-81.892 -273.726)" fill="#fff"/></g></g><g transform="translate(42.256 146.505)" opacity="0.1"><g clip-path="url(#j)"><path d="M91.239,276.331a6.741,6.741,0,1,1-6.74-6.74,6.742,6.742,0,0,1,6.74,6.74" transform="translate(-77.757 -269.591)" fill="#fff"/></g></g><path d="M90.583,279.775a2.643,2.643,0,1,1-2.642-2.643,2.643,2.643,0,0,1,2.642,2.643" transform="translate(-38.944 -126.529)" fill="#fff"/></g></g></g></g></svg>