<svg xmlns="http://www.w3.org/2000/svg" width="855.166" height="888.915" viewBox="0 0 855.166 888.915"><g transform="translate(-178.268 27.573)"><path d="M0,0V341.376" transform="translate(264.474 416.879) rotate(-30)" fill="none" stroke="#fff" stroke-width="2"/><path d="M0,0V341.376" transform="translate(776.538 121.36) rotate(-30)" fill="none" stroke="#fff" stroke-width="2"/><line y1="170.678" x2="295.638" transform="translate(179.134 269.067) rotate(-30)" fill="none" stroke="#fff" stroke-miterlimit="10" stroke-width="2"/><line x2="295.638" y2="170.691" transform="translate(435.163 121.246) rotate(-30)" fill="none" stroke="#fff" stroke-miterlimit="10" stroke-width="2"/><line x1="295.638" y2="170.678" transform="translate(691.198 564.708) rotate(-30)" fill="none" stroke="#fff" stroke-miterlimit="10" stroke-width="2"/><line x1="295.638" y1="170.691" transform="translate(435.162 712.519) rotate(-30)" fill="none" stroke="#fff" stroke-miterlimit="10" stroke-width="2"/><line y2="341.376" transform="translate(264.474 416.879) rotate(-30)" fill="none" stroke="#fff" stroke-miterlimit="10" stroke-width="0.5" stroke-dasharray="0.75 1.5"/><line y1="170.678" x2="295.638" transform="translate(179.134 269.067) rotate(-30)" fill="none" stroke="#fff" stroke-miterlimit="10" stroke-width="0.5" stroke-dasharray="0.75 1.5"/><line x2="295.638" y2="170.691" transform="translate(435.163 121.246) rotate(-30)" fill="none" stroke="#fff" stroke-miterlimit="10" stroke-width="0.5" stroke-dasharray="0.75 1.5"/><line x1="295.638" y2="170.678" transform="translate(691.198 564.708) rotate(-30)" fill="none" stroke="#fff" stroke-miterlimit="10" stroke-width="0.5" stroke-dasharray="0.75 1.5"/><line x1="295.638" y1="170.691" transform="translate(435.162 712.519) rotate(-30)" fill="none" stroke="#fff" stroke-miterlimit="10" stroke-width="0.5" stroke-dasharray="0.75 1.5"/></g></svg>