<svg xmlns="http://www.w3.org/2000/svg" width="937.322" height="937.331" viewBox="0 0 937.322 937.331"><g transform="translate(-136.915 51.665)"><path d="M669.388,362.123c0,184.758-149.774,334.557-334.606,334.557C149.975,696.68.25,546.881.25,362.123S149.975,27.517,334.782,27.517C519.614,27.517,669.388,177.365,669.388,362.123Z" transform="translate(134.565 270.823) rotate(-30)" fill="none" stroke="#fff" stroke-miterlimit="10" stroke-width="0.5"/><path d="M683.408,369.134C683.408,557.763,530.5,710.7,341.791,710.7,153.112,710.7.25,557.763.25,369.134S153.112,27.517,341.791,27.517C530.5,27.517,683.408,180.5,683.408,369.134Z" transform="translate(124.989 268.257) rotate(-30)" fill="none" stroke="#fff" stroke-miterlimit="10" stroke-width="3"/><path d="M170.928,112.866A85.339,85.339,0,1,1,85.58,27.517,85.339,85.339,0,0,1,170.928,112.866Z" transform="translate(133.859 361.891) rotate(-30)" stroke="#fff" stroke-miterlimit="10" stroke-width="3"/><path d="M218.189,85.6A85.345,85.345,0,1,1,132.84.25,85.347,85.347,0,0,1,218.189,85.6Z" transform="translate(277.313 113.529) rotate(-30)" stroke="#fff" stroke-miterlimit="10" stroke-width="3"/><path d="M218.189,85.6A85.345,85.345,0,1,1,132.84.25,85.347,85.347,0,0,1,218.189,85.6Z" transform="translate(788.188 409.296) rotate(-30)" stroke="#fff" stroke-miterlimit="10" stroke-width="3"/><path d="M218.173,194.685a85.339,85.339,0,1,1-85.336-85.336A85.339,85.339,0,0,1,218.173,194.685Z" transform="translate(564.103 610.296) rotate(-30)" stroke="#fff" stroke-miterlimit="10" stroke-width="3"/><path d="M218.173,194.685a85.339,85.339,0,1,1-85.336-85.336A85.339,85.339,0,0,1,218.173,194.685Z" transform="translate(564.103 19.216) rotate(-30)" stroke="#fff" stroke-miterlimit="10" stroke-width="3"/><g transform="translate(-461.788 574.828) rotate(-30)"><path d="M170.928,167.408A85.339,85.339,0,1,1,85.58,82.072,85.35,85.35,0,0,1,170.928,167.408Z" transform="translate(622.314 400.248)" stroke="#fff" stroke-miterlimit="10" stroke-width="2"/></g></g></svg>