<svg xmlns="http://www.w3.org/2000/svg" width="427.378" height="444.245" viewBox="0 0 427.378 444.245"><g transform="translate(-392.108 -194.696)"><line x2="0.038" y2="170.703" transform="translate(435.12 416.821) rotate(-30)" fill="none" stroke="#fff" stroke-miterlimit="10" stroke-width="0.8"/><line x2="147.738" y2="85.336" transform="translate(520.505 564.638) rotate(-30)" fill="none" stroke="#fff" stroke-miterlimit="10" stroke-width="0.8"/><line y1="85.336" x2="147.825" transform="translate(648.45 490.767) rotate(-30)" fill="none" stroke="#fff" stroke-miterlimit="10" stroke-width="0.8"/><line y1="170.622" x2="0.05" transform="translate(691.161 269.092) rotate(-30)" fill="none" stroke="#fff" stroke-miterlimit="10" stroke-width="0.8"/><line x1="147.875" y1="85.417" transform="translate(520.432 269.034) rotate(-30)" fill="none" stroke="#fff" stroke-miterlimit="10" stroke-width="0.8"/><line x1="147.775" y2="85.336" transform="translate(392.454 342.919) rotate(-30)" fill="none" stroke="#fff" stroke-miterlimit="10" stroke-width="0.8"/><path d="M80.6,49.979A10.56,10.56,0,1,1,70.048,39.422,10.558,10.558,0,0,1,80.6,49.979" transform="translate(434.87 260.378) rotate(-30)" fill="#fff"/><path d="M104.147,63.6A10.56,10.56,0,1,1,93.59,53.047,10.558,10.558,0,0,1,104.147,63.6" transform="translate(577.881 260.528) rotate(-30)" fill="#fff"/><path d="M104.168,90.927A10.56,10.56,0,1,1,93.611,80.37a10.558,10.558,0,0,1,10.557,10.557" transform="translate(649.805 384.883) rotate(-30)" fill="#fff"/><path d="M80.543,104.583A10.56,10.56,0,1,1,69.986,94.026a10.558,10.558,0,0,1,10.557,10.557" transform="translate(578.133 509.169) rotate(-30)" fill="#fff"/><path d="M56.949,90.927A10.56,10.56,0,1,1,46.392,80.37,10.558,10.558,0,0,1,56.949,90.927" transform="translate(434.803 509.014) rotate(-30)" fill="#fff"/><path d="M56.887,63.708A10.56,10.56,0,1,1,46.33,53.151,10.558,10.558,0,0,1,56.887,63.708" transform="translate(362.966 385.241) rotate(-30)" fill="#fff"/><path d="M92.409,55.879A16.462,16.462,0,1,1,75.952,39.422,16.46,16.46,0,0,1,92.409,55.879" transform="translate(426.808 258.219) rotate(-30)" fill="#fff" opacity="0.33"/><path d="M92.409,55.879A16.462,16.462,0,1,1,75.952,39.422,16.46,16.46,0,0,1,92.409,55.879" transform="translate(341.804 406.864) rotate(-30)" fill="#fff" opacity="0.33"/><path d="M92.409,55.879A16.462,16.462,0,1,1,75.952,39.422,16.46,16.46,0,0,1,92.409,55.879" transform="translate(426.721 554.145) rotate(-30)" fill="#fff" opacity="0.33"/><path d="M92.409,55.879A16.462,16.462,0,1,1,75.952,39.422,16.46,16.46,0,0,1,92.409,55.879" transform="translate(597.493 554.145) rotate(-30)" fill="#fff" opacity="0.33"/><path d="M92.409,55.879A16.462,16.462,0,1,1,75.952,39.422,16.46,16.46,0,0,1,92.409,55.879" transform="translate(682.722 406.864) rotate(-30)" fill="#fff" opacity="0.33"/><path d="M92.409,55.879A16.462,16.462,0,1,1,75.952,39.422,16.46,16.46,0,0,1,92.409,55.879" transform="translate(597.02 258.219) rotate(-30)" fill="#fff" opacity="0.33"/></g></svg>