<svg xmlns="http://www.w3.org/2000/svg" xmlns:xlink="http://www.w3.org/1999/xlink" width="175.152" height="179.449" viewBox="0 0 175.152 179.449">
  <defs>
    <clipPath id="clip-path">
      <rect id="Rectangle_452" data-name="Rectangle 452" width="15.181" height="19.855" fill="none" stroke="#fff" stroke-width="3"/>
    </clipPath>
  </defs>
  <g id="Group_1439" data-name="Group 1439" transform="translate(-333.874 -147.419)">
    <g id="Group_1323" data-name="Group 1323" transform="translate(333.874 147.419)" opacity="0.135">
      <path id="Path_41" data-name="Path 41" d="M432.689,450.494h2.737l5.661,12.5-.384.211Z" transform="translate(-323.899 -304.842)" fill="#fff"/>
      <path id="Path_53" data-name="Path 53" d="M247.983,99.828l73.264,126.9H174.728ZM230.149,202.141a11.424,11.424,0,0,0-.924-1.145,23.693,23.693,0,0,1-6.789-10.98c-.947-3.606-1.266-7.378-1.939-11.542a11.292,11.292,0,0,0-.956,2.682A32.317,32.317,0,0,0,221,194.2l-.624.188-4.358-12.634a6.181,6.181,0,0,0-.706,1.934c.058,2.393.15,4.8.443,7.169.14,1.136.425,2.706,1.211,3.234,4.27,2.863,8.716,5.461,13.1,8.151,1.633,1.258,2.581-.253,3.463-1.062,1.7-1.565,3.184-3.373,4.986-5.329l-3.787,8.382,2.269.8,3.683-5.583-1.314,6.242,3.263.508.924-2.39.271.035v2.611h8.586c.083-.7.136-1.149.208-1.755l.955,1.58,3.253-.727c-.3-1.621-.563-3.04-.889-4.8l3.091,4.3,2.405-.886-3.672-7.936,7.031,7.278c4.622-2.933,8.864-5.652,13.138-8.321a4.563,4.563,0,0,0,2.3-3.685c.206-2.641.4-5.285.484-7.931.018-.572-.457-1.16-.761-1.871l-3.75,11.461c.115-4.42.257-8.432.3-12.445.016-1.4-.094-1.4-1.294-1.67-.316,3.37-.635,6.768-.972,10.363l-10.085-4.55.019-.347h10.149l.065-.588-10.613-2.3,10.368-2.271-.058-.489H262.534c-.862,8.607-4.563,13.627-10.811,14.905-1.754-3.944-5.673-3.752-7.515.143-7.081-2.416-10.422-7.5-10.654-15h-10.9l-.054.477,9.92,2.249-10.08,2.286.065.576h9.731l.012.335-9,4.018.16.565,9.422-1.5-8.018,5.91.282.445,9.193-3.45-6.786,7.278.338.4,7.752-4.408c-1.5,2.64-2.778,4.96-4.146,7.226C231.2,201.7,230.589,201.867,230.149,202.141Zm-23.363-8.9-.152.127a9.94,9.94,0,0,0,.84,1.154c5.955,6.158,12.2,11.964,19.744,16.185,13.267,7.425,26.779,8.03,40.455,1.247a65.708,65.708,0,0,0,23.359-19.257c2.616-3.425,3-6.467,1.126-10.247a53.245,53.245,0,0,0-11.958-15.3c-8.344-7.739-18.009-12.548-29.51-13.153-9.569-.5-18.182,2.436-26.125,7.59-1.092.709-2.129,1.5-3.191,2.259l.287.384c.729-.467,1.45-.946,2.187-1.4,10.112-6.227,20.944-8.754,32.654-5.942,16.1,3.865,26.536,15,35.334,28.083,1.4,2.079,1.068,3.228-.785,5.005-1.918,1.839-3.953,3.556-5.872,5.393-5.456,5.224-11.2,10.062-17.912,13.634-8.64,4.6-17.709,6.634-27.449,4.563-9.795-2.083-17.986-7.237-25.537-13.541C211.7,197.864,209.28,195.505,206.787,193.238Zm83-6.481a3.7,3.7,0,0,0-.136-.821c-5.877-10.782-14.183-19.007-25.527-23.924a37.014,37.014,0,0,0-19.631-2.97c-9.564,1.207-17.681,5.5-24.637,11.987-3.188,2.973-5.988,6.362-8.963,9.562l.461.5c11.212-10.946,24.108-18.076,40.258-16.712C267.65,165.737,279.573,174.612,289.784,186.757Zm-79.3,16.4a56.984,56.984,0,0,0,12.458,10.328c12.227,7.535,25.237,10.147,39.17,5.723,10.342-3.284,18.976-9.353,26.468-17.114,3.548-3.676,6.589-7.681,7.893-12.739a13.886,13.886,0,0,0,.181-2.586l-.53-.044a17.092,17.092,0,0,1-.714,2.419,11.809,11.809,0,0,1-1.4,2.244c-7,9.153-15.275,16.853-25.522,22.267-7.4,3.911-15.26,6.052-23.691,5.426a48.2,48.2,0,0,1-22.229-7.495C218.413,208.981,214.5,205.981,210.485,203.157Zm.15,5.756-.3.337a12.218,12.218,0,0,0,.885.953c10.8,9.478,22.632,16.366,37.745,15.153,2.89-.232,5.884.249,8.693-.3,13.318-2.606,24.132-9.679,33.347-19.4a37.278,37.278,0,0,0,7.809-11.791,13.364,13.364,0,0,0,.488-2.419c-1.626,1.818-2.619,3.827-4.013,5.5-8.1,9.725-17.4,17.987-29.174,23.081a45.239,45.239,0,0,1-24.626,3.526c-10.354-1.445-19.324-6.035-27.6-12.185C212.8,210.562,211.719,209.734,210.634,208.913Zm78.23-19.191-.494-.449c-.462.428-.922.858-1.385,1.285a76.249,76.249,0,0,1-18.5,12.777c-8.453,4.08-17.282,5.97-26.671,4.522-9.008-1.389-16.921-5.327-24.3-10.5-.778-.546-1.539-1.117-2.308-1.676l-.272.383c1.618,1.407,3.15,2.932,4.874,4.2a94.987,94.987,0,0,0,8.921,6.079c10.349,5.9,21.229,7.393,32.627,3.335a57.238,57.238,0,0,0,19.794-12.019C283.859,195.156,286.3,192.375,288.864,189.723Zm-65.115-32.964c23.477-11.929,43.536-5.358,61.813,11.424-3.594-7.867-17.448-16.71-30-18.68C244.084,147.7,233.522,150.687,223.749,156.759Zm77.8,38.431-.531-.076c-8.5,13.22-19.634,23.472-34.437,30.043a11.689,11.689,0,0,0,8.932-1.74c3.025-2.06,6.226-3.883,9.122-6.107a53.239,53.239,0,0,0,16.457-20A9.811,9.811,0,0,0,301.552,195.189Zm-23.434-39.336.406-.37c-.79-1-1.385-2.3-2.4-2.939-13.236-8.349-27.356-10.762-42.4-5.81-3.59,1.182-7.009,2.882-10.507,4.344l.176.691C242.495,142.139,260.655,144.543,278.118,155.854Zm-.635,69.093.226.585c1.467-.222,3.219,0,4.358-.737,9.346-6.006,16.713-13.848,21.36-24.049a5.254,5.254,0,0,0,.033-1.994A82.1,82.1,0,0,1,277.483,224.947Zm-4.108-77.5.4-.618a18.634,18.634,0,0,0-3.234-2.553c-11.746-5.664-23.919-6.376-36.343-2.692-3.785,1.122-7.427,2.725-11.134,4.108q.1.355.2.71C240.165,137.924,256.839,139.644,273.375,147.451ZM243.74,177.924a4.324,4.324,0,0,0,4.273,4.358,4.443,4.443,0,0,0,4.406-4.3,4.31,4.31,0,0,0-4.436-4.381A4.153,4.153,0,0,0,243.74,177.924Zm25.368-37.734.435-.585a12.487,12.487,0,0,0-2.813-2.024c-13-4.635-25.907-3.961-38.7.9a4.28,4.28,0,0,0-.783.513C241.393,134.015,255.306,134.84,269.108,140.191Zm36.778,62.989-.547-.252c-4.63,8.935-11.4,16.017-19.089,22.446A7,7,0,0,0,290,224.047a65.637,65.637,0,0,0,15.129-19.057C305.437,204.415,305.638,203.784,305.886,203.18Zm2.285,3.962-.468-.269a76.472,76.472,0,0,1-15.03,18.282,3.948,3.948,0,0,0,4.256-1.274,63.7,63.7,0,0,0,10.561-14.913A16.259,16.259,0,0,0,308.171,207.141Zm-80.149,18.287.145-.455c-9.107-3.7-16.939-9.295-24.067-15.953a64.657,64.657,0,0,0,20.911,15.988A10.041,10.041,0,0,0,228.022,225.428Zm82.543-14.373-.314-.084L299.51,225.2a3.435,3.435,0,0,0,2.607-.949c2.7-3.8,5.247-7.712,7.816-11.606A8.222,8.222,0,0,0,310.565,211.055ZM236.7,131.395a70.7,70.7,0,0,1,28.757,1.772,3.731,3.731,0,0,0-1.823-1.363A57.051,57.051,0,0,0,236.7,131.395Zm-21.362,61.627.3-.222-2.761-8.285-3.364,3.013Zm46.73-65.618c-1.846-3.061-23.914-3.047-27.715-.43A64.742,64.742,0,0,1,262.067,127.4Zm18.556,65.138.323.255,5.629-5.251-3.381-3.053Zm-18.19-13.75L270,175.765c-3.1-1.884-5.475.006-8.111.248Zm-36.243-3.035,7.6,2.963c.124-1.067.213-1.836.332-2.862C231.439,176.028,229.136,173.811,226.19,175.757Zm32.35-54.579a49.924,49.924,0,0,0-20.836,0Zm-56.659,91.9c-.017-.183-.05-.027.009.024,4.5,3.954,9,7.918,13.544,11.818.417.357,1.181.309,1.79.45Zm38.92-97.071h14.591A32.073,32.073,0,0,0,240.8,116.012Zm64.68,109.231c1.756-.265,6.637-7.386,7.084-10.238Z" transform="translate(-163.95 -87.412)"/>
      <path id="Path_2" data-name="Path 2" d="M146.361,212.709l8.481-14.744c-10.427-25.7-9.873-50.9,4.068-75s35.374-37.357,63-41.165l8.48-14.65,8.571,14.788a77.274,77.274,0,0,1,22.276,5.594c27.647,12.013,44.754,32.708,50.415,62.411a79.059,79.059,0,0,1-5.183,46.242,2.907,2.907,0,0,0,.138,2.973c2.611,4.388,5.112,8.842,7.778,13.489H297.214a83.546,83.546,0,0,1-16.155,16.648C267.5,239.7,252.245,245.745,235.109,246.5c-29.083,1.281-52.5-9.891-70.617-32.536a3.673,3.673,0,0,0-2.482-1.2C156.9,212.654,151.785,212.709,146.361,212.709ZM230.4,71.805l-79.97,138.516H310.37Zm-75.719,87.642a79.559,79.559,0,0,0,4.729,30.386c1.005-1.283,1.55-2.261,1.056-3.795-4-12.432-4.8-25.159-1.62-37.775,7.43-29.446,26.04-48.057,55.517-55.683.587-.152,1.384-.283,1.662-.7,1.052-1.59,1.931-3.3,2.962-5.111-52.369,7.591-79.751,62.994-61.235,106.132l1.281-2.226A74.3,74.3,0,0,1,154.677,159.447Zm147.924,33.3h.5c18.605-44.035-9.939-98.736-61.288-105.952l1.281,2.325c1.214.235,2.335.423,3.443.67A75.689,75.689,0,0,1,290.759,117.5a76.146,76.146,0,0,1,11.885,72.214A9.519,9.519,0,0,0,302.6,192.746ZM169.043,213c16.175,18.946,36.216,29.28,61.052,29.362,25.067.082,45.307-10.248,61.134-29.507a3.814,3.814,0,0,0-2.472.954c-3.625,3.424-6.926,7.245-10.82,10.321-17.208,13.595-36.86,18.845-58.506,15.717-18.8-2.717-34.418-11.613-46.823-26.035C171.685,212.737,170.755,212.471,169.043,213Zm131.363-24.033.831-.048c7.075-22.064,5.538-43.418-6.447-63.533-11.555-19.391-28.758-31.057-51.019-35.691a3.349,3.349,0,0,0,3,2.984c41.559,9.4,66.366,52.7,53.591,93.416A9.221,9.221,0,0,0,300.406,188.965ZM172.848,212.936c15.7,17.291,34.835,26.367,57.93,26.166,22.555-.2,41.271-9.2,56.069-26.272a4.141,4.141,0,0,0-2.614,1.037c-17.29,18-38.389,25.818-63.131,22.954-17.465-2.022-32.228-9.882-44.273-22.728A3.447,3.447,0,0,0,172.848,212.936Zm60.524,21.524.56-.03v-21.6h-3.039Zm-43.78-96.668L170.275,128l-.183.328,17.81,12.374Zm37.3,75.017v21.608l.5.01c.818-7.161,1.637-14.321,2.47-21.618Zm-59.752-79.337L167,133.8l18.766,10.678,1.563-2.947Zm126.294.5-.168-.354L273.4,141.546l1.649,2.912Zm-22.74,2.939,16.235-13.626-.252-.321L269.039,133.99Zm-78.927-2.894-17.709-11.058-.225.331,16.255,13.639Zm97.93-5.042-.256-.434-18.259,9.242,1.749,2.894ZM239.631,233.755l.35-.04c-.452-6.945-.9-13.889-1.36-20.895H235.3Zm-18.836-.32.389.046,4.256-20.637h-3.3ZM296.1,139.654l-.131-.344L275.576,145.4l1.713,2.839Zm-112.5,8.658,1.508-2.95-20.336-6.041-.115.335ZM283,118.2l-.144-.192L266.8,130.191l1.514,2.536Zm-90.59,14.681,1.549-2.709-16.023-12.121-.18.252Zm22.121,99.94.28.184,6.092-20.189h-3.244C216.606,219.549,215.568,226.186,214.53,232.824Zm31.166-.665.416-.093c-1.019-6.45-2.038-12.9-3.043-19.262H239.83ZM181.327,152.2l1.47-2.87-19.726-3.969-.09.373Zm98.161-.025,18.29-6.446-.106-.377-19.738,3.989Zm-97.435-38.853-.271.254L194.626,129l1.611-2.779Zm96.908.247-.3-.214-14.142,12.864L266.15,129Zm-65.938,99.245-4.568,18.25.315.1,7.4-18.346Zm31.553-.014,7.176,17.764.388-.133-4.417-17.63Zm-64.042-59.257-19.1-2.11-.057.362,17.52,4.448Zm101.323,2.708L299.3,151.8l-.068-.363-18.892,2.088Zm-7.779-46.607-.344-.225-11.61,12.669L263.7,124.7Zm-77,15.115,1.558-2.674L186.994,109.4l-.312.241Zm5.563,103.785.332.142,8.127-15.86h-2.989Zm55.177.232.31-.207-5.495-15.738h-2.98Zm-79.836-70.951H160.39l-.04.164,16.051,2.587Zm106.38,2.752,16.381-2.652h-17.88Zm-83.138-42.888-9.242-12.06-.321.221,8.09,14.274Zm67.637-11.473-.383-.23-8.909,11.678,1.459,2.435ZM255.151,212.8l8.014,12.71.384-.211-5.661-12.5Zm-52.31.028-5.308,11.787.457.239,7.6-12.026Zm-42.572-48.87.048.383,13.487.894,1.207-2.335ZM285.786,162.9l1.275,2.339,13.6-.926,0-.336Zm-22.01-60.437-.3-.217-6.667,10.58,1.253,2.26ZM204,112.888,197.3,102.3l-.315.188,5.686,12.5Zm57.246,99.9,7.536,9.871.32-.222-5.472-9.65Zm-64.13-.014-5.194,9.2.392.236,7.181-9.439ZM170.8,170.463l.912-2.02-11.344,1.8.021.218Zm119.356,0h10.061l.022-.243-11.377-1.785ZM258.133,99.682l-.338-.2c-1.243,2.453-2.548,4.877-3.68,7.38-.237.524.162,1.335.267,2.014l.549-.054Zm-52.289,9.2.431.061c.193-.59.714-1.328.525-1.746-1.057-2.34-2.285-4.6-3.454-6.893l-.418.19Z" transform="translate(-146.361 -67.15)"/>
      <path id="Path_3" data-name="Path 3" d="M237.029,79.4,317,217.918H157.059Zm0,7.761-73.255,126.9H310.291Zm6.619,6.141c.5,3.758,62.283,110.713,65.093,112.766Zm-76.832,110.16.6.376Q199.838,149.6,230.572,94.381l-.582-.335Zm146.739,13.148-.015-.654H160.565v.654Z" transform="translate(-152.994 -74.747)" fill="#fff"/>
      <path id="Path_4" data-name="Path 4" d="M163.815,191.462a74.3,74.3,0,0,0,4.352,31.227l-1.281,2.226c-18.516-43.137,8.866-98.541,61.235-106.132-1.031,1.815-1.91,3.521-2.962,5.111-.278.419-1.075.551-1.662.7-29.477,7.626-48.087,26.237-55.517,55.683-3.183,12.616-2.382,25.343,1.62,37.775.494,1.533-.051,2.512-1.056,3.795A79.56,79.56,0,0,1,163.815,191.462Z" transform="translate(-155.499 -99.165)" fill="#fff"/>
      <path id="Path_5" data-name="Path 5" d="M458.378,224.8a9.519,9.519,0,0,1,.043-3.028,76.146,76.146,0,0,0-11.885-72.214,75.688,75.688,0,0,0-44.219-27.715c-1.108-.247-2.228-.435-3.443-.67l-1.281-2.325c51.349,7.216,79.894,61.917,61.288,105.952Z" transform="translate(-302.138 -99.207)" fill="#fff"/>
      <path id="Path_6" data-name="Path 6" d="M206.059,450.583c1.711-.527,2.641-.261,3.565.813,12.405,14.421,28.019,23.318,46.823,26.034,21.646,3.128,41.3-2.122,58.506-15.717,3.894-3.076,7.2-6.9,10.82-10.321a3.815,3.815,0,0,1,2.472-.954c-15.828,19.258-36.067,29.589-61.134,29.507C242.275,479.864,222.234,469.53,206.059,450.583Z" transform="translate(-183.377 -304.735)" fill="#fff"/>
      <path id="Path_7" data-name="Path 7" d="M459.371,225.754a9.219,9.219,0,0,1-.05-2.871c12.775-40.712-12.032-84.018-53.591-93.416a3.349,3.349,0,0,1-3-2.985c22.262,4.633,39.465,16.3,51.019,35.691,11.986,20.115,13.522,41.468,6.447,63.533Z" transform="translate(-305.326 -103.939)" fill="#fff"/>
      <path id="Path_8" data-name="Path 8" d="M216.074,450.515a3.447,3.447,0,0,1,3.98,1.157c12.045,12.846,26.807,20.706,44.273,22.728,24.742,2.865,45.842-4.95,63.131-22.953a4.141,4.141,0,0,1,2.614-1.037c-14.8,17.076-33.514,26.075-56.069,26.272C250.909,476.882,231.771,467.806,216.074,450.515Z" transform="translate(-189.587 -304.729)" fill="#fff"/>
      <path id="Path_9" data-name="Path 9" d="M371.324,472.2l-2.478-21.631h3.039v21.6Z" transform="translate(-284.313 -304.889)" fill="#fff"/>
      <path id="Path_10" data-name="Path 10" d="M228.321,237.1l-1.69,2.913-17.81-12.374.183-.328Z" transform="translate(-185.089 -166.458)" fill="#fff"/>
      <path id="Path_11" data-name="Path 11" d="M358.3,450.514h2.967c-.834,7.3-1.652,14.458-2.47,21.618l-.5-.01Z" transform="translate(-277.775 -304.855)" fill="#fff"/>
      <path id="Path_12" data-name="Path 12" d="M200.814,241.7l20.191,8.061-1.563,2.947-18.766-10.678Z" transform="translate(-180.04 -175.383)" fill="#fff"/>
      <path id="Path_13" data-name="Path 13" d="M500.755,242.45l-18.377,10.483-1.649-2.912,19.858-7.925Z" transform="translate(-353.686 -175.625)" fill="#fff"/>
      <path id="Path_14" data-name="Path 14" d="M470.892,228l-1.651-2.923,17.634-11.024.252.321Z" transform="translate(-346.563 -158.238)" fill="#fff"/>
      <path id="Path_15" data-name="Path 15" d="M236.589,225.1l-1.679,2.913-16.255-13.639.225-.331Z" transform="translate(-191.187 -158.23)" fill="#fff"/>
      <path id="Path_16" data-name="Path 16" d="M493.387,229.167l-16.766,11.7-1.749-2.894,18.259-9.242Z" transform="translate(-350.054 -167.34)" fill="#fff"/>
      <path id="Path_17" data-name="Path 17" d="M384.776,471.479l-4.329-20.935h3.32c.456,7.006.908,13.95,1.36,20.9Z" transform="translate(-291.506 -304.873)" fill="#fff"/>
      <path id="Path_18" data-name="Path 18" d="M342.265,471.2l1.341-20.59h3.3l-4.256,20.637Z" transform="translate(-267.831 -304.914)" fill="#fff"/>
      <path id="Path_19" data-name="Path 19" d="M506.973,257.413,488.16,266l-1.713-2.839,20.395-6.091Z" transform="translate(-357.231 -184.909)" fill="#fff"/>
      <path id="Path_20" data-name="Path 20" d="M213.462,266.09l-18.943-8.656.115-.335,20.336,6.041Z" transform="translate(-176.221 -184.928)" fill="#fff"/>
      <path id="Path_21" data-name="Path 21" d="M479.54,201.2l-14.69,14.525-1.514-2.536,16.06-12.181Z" transform="translate(-342.901 -150.15)" fill="#fff"/>
      <path id="Path_22" data-name="Path 22" d="M243.642,215.954l-14.654-14.578.18-.252,16.023,12.121Z" transform="translate(-197.594 -150.22)" fill="#fff"/>
      <path id="Path_23" data-name="Path 23" d="M325.776,470.545c1.038-6.638,2.076-13.275,3.128-20.005h3.244c-2.057,6.819-4.075,13.5-6.092,20.189Z" transform="translate(-257.607 -304.871)" fill="#fff"/>
      <path id="Path_24" data-name="Path 24" d="M398.232,469.855,392.366,450.5H395.6c1.005,6.361,2.024,12.812,3.043,19.262Z" transform="translate(-298.896 -304.847)" fill="#fff"/>
      <path id="Path_25" data-name="Path 25" d="M208.45,279.827,190.1,273.361l.09-.373,19.726,3.969Z" transform="translate(-173.484 -194.78)" fill="#fff"/>
      <path id="Path_26" data-name="Path 26" d="M494.21,279.788l-1.553-2.834,19.738-3.989.106.377Z" transform="translate(-361.082 -194.766)" fill="#fff"/>
      <path id="Path_27" data-name="Path 27" d="M239.859,188.664l14.184,12.9-1.611,2.779-12.844-15.427Z" transform="translate(-204.166 -142.495)" fill="#fff"/>
      <path id="Path_28" data-name="Path 28" d="M471.785,188.965,458.974,204.4l-1.632-2.78,14.142-12.864Z" transform="translate(-339.185 -142.549)" fill="#fff"/>
      <path id="Path_29" data-name="Path 29" d="M314.357,450.52H317.5l-7.4,18.346-.315-.1C311.3,462.719,312.818,456.667,314.357,450.52Z" transform="translate(-247.694 -304.859)" fill="#fff"/>
      <path id="Path_30" data-name="Path 30" d="M404.858,450.484h3.147l4.417,17.63-.388.133Z" transform="translate(-306.642 -304.836)" fill="#fff"/>
      <path id="Path_31" data-name="Path 31" d="M205.041,291.08l-1.638,2.7-17.52-4.448.057-.362Z" transform="translate(-170.867 -204.689)" fill="#fff"/>
      <path id="Path_32" data-name="Path 32" d="M500.5,293.8l-1.519-2.722,18.892-2.088.068.363Z" transform="translate(-365.004 -204.703)" fill="#fff"/>
      <path id="Path_33" data-name="Path 33" d="M463,178.618l-10.379,15.06-1.575-2.616,11.61-12.669Z" transform="translate(-335.28 -136.126)" fill="#fff"/>
      <path id="Path_34" data-name="Path 34" d="M262.882,193.7l-10.4-15.119.312-.241,11.643,12.686Z" transform="translate(-212.163 -136.093)" fill="#fff"/>
      <path id="Path_35" data-name="Path 35" d="M294.489,466.269l5.471-15.718h2.989l-8.127,15.86Z" transform="translate(-238.208 -304.878)" fill="#fff"/>
      <path id="Path_36" data-name="Path 36" d="M426.388,466.509l-8.164-15.945h2.98L426.7,466.3Z" transform="translate(-314.93 -304.886)" fill="#fff"/>
      <path id="Path_37" data-name="Path 37" d="M200.813,305.791l-1.581,2.752-16.051-2.587.04-.164Z" transform="translate(-169.191 -215.119)" fill="#fff"/>
      <path id="Path_38" data-name="Path 38" d="M507.126,308.706l-1.5-2.652h17.88Z" transform="translate(-369.124 -215.282)" fill="#fff"/>
      <path id="Path_39" data-name="Path 39" d="M275.151,180.472l-1.473,2.435-8.09-14.274.321-.221Z" transform="translate(-220.287 -129.937)" fill="#fff"/>
      <path id="Path_40" data-name="Path 40" d="M453.612,169.584l-7.833,13.884-1.459-2.435,8.909-11.678Z" transform="translate(-331.111 -130.522)" fill="#fff"/>
      <path id="Path_42" data-name="Path 42" d="M286.351,450.568H289.1l-7.6,12.026-.457-.239Z" transform="translate(-229.871 -304.888)" fill="#fff"/>
      <path id="Path_43" data-name="Path 43" d="M182.966,320.218l14.742-1.058L196.5,321.5l-13.487-.894Z" transform="translate(-169.058 -223.409)" fill="#fff"/>
      <path id="Path_44" data-name="Path 44" d="M513.318,319.16l14.883,1.076,0,.336-13.6.926Z" transform="translate(-373.893 -223.409)" fill="#fff"/>
      <path id="Path_45" data-name="Path 45" d="M444.011,159.739l-5.719,12.623-1.253-2.26,6.667-10.58Z" transform="translate(-326.596 -124.425)" fill="#fff"/>
      <path id="Path_46" data-name="Path 46" d="M286.613,170.251l-1.325,2.1-5.686-12.5.315-.188Z" transform="translate(-228.977 -124.514)" fill="#fff"/>
      <path id="Path_47" data-name="Path 47" d="M448.722,450.454h2.385l5.472,9.65-.32.222Z" transform="translate(-333.84 -304.818)" fill="#fff"/>
      <path id="Path_48" data-name="Path 48" d="M271.458,450.416h2.379l-7.181,9.439-.392-.236Z" transform="translate(-220.707 -304.794)" fill="#fff"/>
      <path id="Path_49" data-name="Path 49" d="M193.656,335.766H183.245l-.021-.218,11.344-1.8Z" transform="translate(-169.218 -232.453)" fill="#fff"/>
      <path id="Path_50" data-name="Path 50" d="M522.705,335.753l-1.294-2.029,11.377,1.785-.022.243Z" transform="translate(-378.911 -232.439)" fill="#fff"/>
      <path id="Path_51" data-name="Path 51" d="M433.859,152.438l-3.2,9.135-.549.054c-.106-.679-.5-1.49-.268-2.014,1.132-2.5,2.437-4.928,3.68-7.38Z" transform="translate(-322.087 -119.906)" fill="#fff"/>
      <path id="Path_52" data-name="Path 52" d="M298.156,162.976l-2.917-8.389.418-.19c1.169,2.29,2.4,4.553,3.455,6.893.189.418-.332,1.156-.525,1.746Z" transform="translate(-238.673 -121.247)" fill="#fff"/>
      <path id="Path_54" data-name="Path 54" d="M384.95,115.991l65.093,112.766C447.233,226.7,385.454,119.749,384.95,115.991Z" transform="translate(-294.298 -97.434)"/>
      <path id="Path_55" data-name="Path 55" d="M182.734,227.361,245.91,117.943l.582.335Q215.8,173.519,183.334,227.737Z" transform="translate(-168.914 -98.644)"/>
      <path id="Path_56" data-name="Path 56" d="M319.275,439.461H166.287v-.654H319.26Z" transform="translate(-158.716 -297.596)"/>
      <path id="Path_57" data-name="Path 57" d="M308.008,331.111c.44-.273,1.053-.441,1.291-.836,1.367-2.266,2.646-4.586,4.146-7.226l-7.752,4.408-.338-.4,6.786-7.277-9.193,3.45-.282-.445,8.018-5.911-9.422,1.5-.16-.564,9-4.018-.012-.335h-9.731l-.065-.576,10.08-2.286-9.92-2.249.054-.477h10.9c.232,7.5,3.573,12.588,10.654,15,1.841-3.895,5.76-4.086,7.515-.143,6.248-1.278,9.949-6.3,10.811-14.9h11.551l.058.489-10.368,2.271,10.613,2.3-.065.588H342.033l-.019.347,10.085,4.55c.337-3.595.656-6.993.972-10.363,1.2.271,1.31.272,1.294,1.67-.046,4.013-.188,8.025-.3,12.445l3.75-11.461c.3.712.779,1.3.761,1.871-.083,2.646-.278,5.29-.484,7.931a4.563,4.563,0,0,1-2.3,3.685c-4.274,2.669-8.516,5.388-13.138,8.321l-7.031-7.278,3.672,7.936-2.405.886-3.091-4.3c.326,1.761.589,3.18.889,4.8l-3.253.727-.955-1.58c-.072.606-.125,1.057-.208,1.755h-8.587V332.81l-.271-.035-.924,2.39-3.263-.508,1.314-6.242L314.855,334l-2.269-.8,3.787-8.382c-1.8,1.956-3.282,3.764-4.986,5.329-.882.81-1.83,2.321-3.463,1.062Zm38.655-3.595c2.591-2.375,3.756-5.547,5.011-8.776l-10.646-1.9,8.4,5.952-.274.546-8.53-2.967,5.879,7.022-8.28-4.4,5.1,8.472Z" transform="translate(-241.808 -216.383)" fill="#fff"/>
      <path id="Path_58" data-name="Path 58" d="M258.856,281.541c2.493,2.267,4.91,4.626,7.494,6.784,7.551,6.3,15.742,11.459,25.537,13.541,9.74,2.071,18.809.033,27.449-4.563,6.713-3.572,12.456-8.409,17.912-13.634,1.919-1.838,3.954-3.554,5.872-5.393,1.853-1.777,2.184-2.926.785-5.006-8.8-13.085-19.236-24.218-35.334-28.083-11.71-2.812-22.542-.285-32.654,5.942-.737.454-1.459.933-2.187,1.4l-.287-.384c1.062-.755,2.1-1.55,3.191-2.259,7.943-5.154,16.556-8.094,26.125-7.59,11.5.605,21.166,5.414,29.51,13.153a53.247,53.247,0,0,1,11.958,15.3c1.875,3.78,1.49,6.822-1.126,10.247a65.71,65.71,0,0,1-23.359,19.257c-13.676,6.782-27.188,6.178-40.455-1.247-7.542-4.221-13.789-10.027-19.744-16.185a9.943,9.943,0,0,1-.84-1.154Z" transform="translate(-216.019 -175.715)" fill="#fff"/>
      <path id="Path_59" data-name="Path 59" d="M348.8,282.924c-10.211-12.145-22.134-21.02-38.177-22.375-16.15-1.364-29.046,5.766-40.258,16.712l-.461-.5c2.976-3.2,5.776-6.589,8.963-9.562,6.956-6.486,15.073-10.78,24.637-11.987a37.014,37.014,0,0,1,19.631,2.971c11.344,4.917,19.65,13.142,25.527,23.923A3.692,3.692,0,0,1,348.8,282.924Z" transform="translate(-222.961 -183.579)" fill="#fff"/>
      <path id="Path_60" data-name="Path 60" d="M268.837,344.969c4.02,2.823,7.929,5.824,12.085,8.43a48.2,48.2,0,0,0,22.229,7.495c8.432.626,16.289-1.514,23.691-5.426,10.247-5.415,18.526-13.115,25.522-22.267a11.811,11.811,0,0,0,1.4-2.244,17.1,17.1,0,0,0,.714-2.419l.53.044a13.881,13.881,0,0,1-.181,2.586c-1.3,5.058-4.345,9.063-7.893,12.739-7.492,7.761-16.126,13.83-26.468,17.114-13.933,4.424-26.943,1.812-39.17-5.723A56.982,56.982,0,0,1,268.837,344.969Z" transform="translate(-222.302 -229.224)" fill="#fff"/>
      <path id="Path_61" data-name="Path 61" d="M268.745,358.434c1.084.82,2.163,1.649,3.254,2.46,8.278,6.15,17.249,10.74,27.6,12.185a45.239,45.239,0,0,0,24.626-3.526C336,364.458,345.3,356.2,353.4,346.471c1.394-1.674,2.387-3.682,4.013-5.5a13.369,13.369,0,0,1-.488,2.419,37.275,37.275,0,0,1-7.809,11.791c-9.215,9.717-20.029,16.79-33.347,19.4-2.809.549-5.8.069-8.693.3-15.112,1.213-26.943-5.675-37.745-15.153a12.24,12.24,0,0,1-.885-.953Z" transform="translate(-222.061 -236.933)" fill="#fff"/>
      <path id="Path_62" data-name="Path 62" d="M354.487,335.692c-2.562,2.653-5,5.434-7.709,7.932a57.239,57.239,0,0,1-19.793,12.019c-11.4,4.058-22.278,2.568-32.627-3.335a95,95,0,0,1-8.921-6.079c-1.723-1.263-3.255-2.788-4.874-4.2l.272-.383c.769.559,1.53,1.13,2.308,1.676,7.376,5.173,15.288,9.11,24.3,10.5,9.389,1.448,18.218-.442,26.671-4.522a76.252,76.252,0,0,0,18.5-12.777c.464-.426.924-.856,1.385-1.285Z" transform="translate(-229.573 -233.381)" fill="#fff"/>
      <path id="Path_63" data-name="Path 63" d="M303.747,236.973c9.773-6.072,20.335-9.06,31.818-7.256,12.547,1.97,26.4,10.813,30,18.68C347.283,231.615,327.224,225.044,303.747,236.973Z" transform="translate(-243.948 -167.626)" fill="#fff"/>
      <path id="Path_64" data-name="Path 64" d="M451.454,350.687a9.815,9.815,0,0,1-.457,2.124,53.239,53.239,0,0,1-16.457,20c-2.9,2.223-6.1,4.046-9.122,6.107a11.689,11.689,0,0,1-8.932,1.74c14.8-6.571,25.942-16.823,34.437-30.043Z" transform="translate(-313.852 -242.91)" fill="#fff"/>
      <path id="Path_65" data-name="Path 65" d="M296.287,330.584c-4.386-2.689-8.833-5.288-13.1-8.151-.786-.527-1.071-2.1-1.211-3.234-.293-2.373-.385-4.776-.443-7.169a6.177,6.177,0,0,1,.706-1.934l4.358,12.634.624-.188a32.316,32.316,0,0,1-1.453-13.043,11.293,11.293,0,0,1,.956-2.682c.672,4.164.992,7.936,1.938,11.542a23.693,23.693,0,0,0,6.789,10.98,11.472,11.472,0,0,1,.924,1.144Z" transform="translate(-230.173 -215.756)" fill="#fff"/>
      <path id="Path_66" data-name="Path 66" d="M357.251,228.234c-17.464-11.311-35.623-13.715-54.724-4.084l-.176-.691c3.5-1.462,6.917-3.162,10.507-4.344,15.044-4.953,29.164-2.539,42.4,5.81,1.014.64,1.609,1.944,2.4,2.939Z" transform="translate(-243.083 -159.792)" fill="#fff"/>
      <path id="Path_67" data-name="Path 67" d="M445.173,386.383a82.1,82.1,0,0,0,25.977-26.195,5.252,5.252,0,0,1-.033,1.994c-4.647,10.2-12.014,18.043-21.36,24.049-1.14.733-2.891.515-4.358.737Z" transform="translate(-331.64 -248.849)" fill="#fff"/>
      <path id="Path_68" data-name="Path 68" d="M352.257,211.887c-16.536-7.807-33.21-9.526-50.114-1.044q-.1-.355-.2-.71c3.708-1.383,7.35-2.986,11.134-4.108,12.424-3.684,24.6-2.972,36.343,2.692a18.634,18.634,0,0,1,3.234,2.553Z" transform="translate(-242.831 -151.848)" fill="#fff"/>
      <path id="Path_69" data-name="Path 69" d="M356.363,298.318A4.153,4.153,0,0,1,360.605,294a4.31,4.31,0,0,1,4.436,4.381,4.443,4.443,0,0,1-4.406,4.3A4.324,4.324,0,0,1,356.363,298.318Z" transform="translate(-276.573 -207.805)" fill="#fff"/>
      <path id="Path_70" data-name="Path 70" d="M354.814,196.684c-13.8-5.35-27.715-6.176-41.862-1.2a4.283,4.283,0,0,1,.783-.513c12.794-4.857,25.7-5.532,38.7-.9a12.489,12.489,0,0,1,2.813,2.024Z" transform="translate(-249.656 -143.905)" fill="#fff"/>
      <path id="Path_71" data-name="Path 71" d="M487.882,371.43c-.249.6-.449,1.235-.753,1.81A65.633,65.633,0,0,1,472,392.3a7,7,0,0,1-3.754,1.327c7.69-6.429,14.46-13.512,19.089-22.446Z" transform="translate(-345.946 -255.663)" fill="#fff"/>
      <path id="Path_72" data-name="Path 72" d="M500.647,381.831a16.234,16.234,0,0,1-.681,1.826,63.7,63.7,0,0,1-10.561,14.913,3.949,3.949,0,0,1-4.256,1.274,76.468,76.468,0,0,0,15.03-18.282Z" transform="translate(-356.427 -262.101)" fill="#fff"/>
      <path id="Path_73" data-name="Path 73" d="M275.955,403.622a10.047,10.047,0,0,1-3.011-.419,64.659,64.659,0,0,1-20.911-15.988c7.128,6.658,14.96,12.258,24.067,15.953Z" transform="translate(-211.883 -265.606)" fill="#fff"/>
      <path id="Path_74" data-name="Path 74" d="M514.2,392.432a8.213,8.213,0,0,1-.633,1.593c-2.569,3.893-5.118,7.8-7.816,11.606a3.435,3.435,0,0,1-2.607.949l10.741-14.232Z" transform="translate(-367.585 -268.789)" fill="#fff"/>
      <path id="Path_75" data-name="Path 75" d="M337.831,180.6a57.052,57.052,0,0,1,26.934.409,3.731,3.731,0,0,1,1.823,1.363A70.7,70.7,0,0,0,337.831,180.6Z" transform="translate(-265.082 -136.617)" fill="#fff"/>
      <path id="Path_76" data-name="Path 76" d="M272.1,331.226l-5.825-5.494,3.364-3.013L272.4,331Z" transform="translate(-220.714 -225.616)" fill="#fff"/>
      <path id="Path_77" data-name="Path 77" d="M359.368,168.574a64.742,64.742,0,0,0-27.715-.43C335.454,165.527,357.522,165.513,359.368,168.574Z" transform="translate(-261.251 -128.583)" fill="#fff"/>
      <path id="Path_78" data-name="Path 78" d="M453.435,330.708l2.571-8.049,3.381,3.053-5.629,5.251Z" transform="translate(-336.762 -225.578)" fill="#fff"/>
      <path id="Path_79" data-name="Path 79" d="M404.674,301.365c-.2-1.01-.341-1.742-.544-2.779,2.636-.241,5.01-2.132,8.111-.248Z" transform="translate(-306.191 -209.986)" fill="#fff"/>
      <path id="Path_80" data-name="Path 80" d="M310.172,298.354c2.946-1.945,5.249.271,7.933.1-.119,1.026-.209,1.8-.332,2.862Z" transform="translate(-247.932 -210.009)" fill="#fff"/>
      <path id="Path_81" data-name="Path 81" d="M361.311,154.226H340.475A49.924,49.924,0,0,1,361.311,154.226Z" transform="translate(-266.721 -120.46)" fill="#fff"/>
      <path id="Path_82" data-name="Path 82" d="M246.151,397.765l15.343,12.292c-.609-.141-1.374-.093-1.79-.45-4.548-3.9-9.042-7.864-13.544-11.818C246.1,397.737,246.133,397.582,246.151,397.765Z" transform="translate(-208.22 -272.094)" fill="#fff"/>
      <path id="Path_83" data-name="Path 83" d="M348.626,141.051a32.072,32.072,0,0,1,14.591,0Z" transform="translate(-271.775 -112.451)" fill="#fff"/>
      <path id="Path_84" data-name="Path 84" d="M518.859,413.2l7.084-10.238C525.5,405.816,520.615,412.937,518.859,413.2Z" transform="translate(-377.328 -275.371)" fill="#fff"/>
      <path id="Path_85" data-name="Path 85" d="M412.326,342.087l-5.879-7.022,8.53,2.967.274-.546-8.4-5.952,10.646,1.9c-1.255,3.229-2.42,6.4-5.011,8.776A1.327,1.327,0,0,0,412.326,342.087Z" transform="translate(-307.627 -231.081)"/>
      <path id="Path_86" data-name="Path 86" d="M408.407,352.12a1.327,1.327,0,0,1,.156.128l-3.34,3.939-5.1-8.472Z" transform="translate(-303.709 -241.115)"/>
    </g>
    <path id="Line_283" data-name="Line 283" d="M8.784-.606H-1.053A.447.447,0,0,1-1.5-1.053.447.447,0,0,1-1.053-1.5H8.784a.447.447,0,0,1,.447.447A.447.447,0,0,1,8.784-.606Z" transform="translate(433.08 272.181)" fill="#fff"/>
    <g id="Group_1326" data-name="Group 1326" transform="translate(383.637 188.302)">
      <path id="Line_265" data-name="Line 265" d="M-1.053,19.25A.447.447,0,0,1-1.5,18.8V-1.053A.447.447,0,0,1-1.053-1.5a.447.447,0,0,1,.447.447V18.8A.447.447,0,0,1-1.053,19.25Z" transform="translate(10.364 4.28)" fill="#fff"/>
      <path id="Line_266" data-name="Line 266" d="M16.675-.606H-1.053A.447.447,0,0,1-1.5-1.053.447.447,0,0,1-1.053-1.5H16.675a.447.447,0,0,1,.447.447A.447.447,0,0,1,16.675-.606Z" transform="translate(1.5 14.207)" fill="#fff"/>
      <path id="Line_269" data-name="Line 269" d="M-1.053,19.25A.447.447,0,0,1-1.5,18.8V-1.053A.447.447,0,0,1-1.053-1.5a.447.447,0,0,1,.447.447V18.8A.447.447,0,0,1-1.053,19.25Z" transform="translate(30.929 4.28)" fill="#fff"/>
      <path id="Line_273" data-name="Line 273" d="M-1.053,19.25A.447.447,0,0,1-1.5,18.8V-1.053A.447.447,0,0,1-1.053-1.5a.447.447,0,0,1,.447.447V18.8A.447.447,0,0,1-1.053,19.25Z" transform="translate(39.792 4.28)" fill="#fff"/>
      <path id="Line_277" data-name="Line 277" d="M16.675-.606H-1.053A.447.447,0,0,1-1.5-1.053.447.447,0,0,1-1.053-1.5H16.675a.447.447,0,0,1,.447.447A.447.447,0,0,1,16.675-.606Z" transform="translate(26.319 18.817)" fill="#fff"/>
      <path id="Line_280" data-name="Line 280" d="M16.675-.606H-1.053A.447.447,0,0,1-1.5-1.053.447.447,0,0,1-1.053-1.5H16.675a.447.447,0,0,1,.447.447A.447.447,0,0,1,16.675-.606Z" transform="translate(26.319 15.98)" fill="#fff"/>
      <path id="Line_302" data-name="Line 302" d="M16.675-.606H-1.053A.447.447,0,0,1-1.5-1.053.447.447,0,0,1-1.053-1.5H16.675a.447.447,0,0,1,.447.447A.447.447,0,0,1,16.675-.606Z" transform="translate(50.802 14.654)" fill="#fff"/>
      <path id="Path_1285" data-name="Path 1285" d="M9.976,19.846a9.98,9.98,0,0,1-9.192-6.06A9.892,9.892,0,0,1,.762,6.119a.447.447,0,1,1,.827.34,8.982,8.982,0,0,0,1.964,9.848,9.142,9.142,0,0,0,11.18,1.315,8.9,8.9,0,0,0,3.247-3.428,9.045,9.045,0,0,0,1.078-4.271,8.847,8.847,0,0,0-1.016-4.154,9.267,9.267,0,0,0-3.314-3.536A9.064,9.064,0,0,0,9.976.894a.447.447,0,1,1,0-.894A9.958,9.958,0,0,1,15.2,1.471a10.162,10.162,0,0,1,3.634,3.877,9.744,9.744,0,0,1,1.121,4.575,9.93,9.93,0,0,1-1.182,4.689A9.8,9.8,0,0,1,15.2,18.386,10.036,10.036,0,0,1,9.976,19.846Z" transform="translate(75.47 9.923) rotate(120)" fill="#fff"/>
    </g>
    <g id="Group_1325" data-name="Group 1325" transform="translate(333.874 222.184)">
      <path id="Line_262" data-name="Line 262" d="M16.675-.606H-1.053A.447.447,0,0,1-1.5-1.053.447.447,0,0,1-1.053-1.5H16.675a.447.447,0,0,1,.447.447A.447.447,0,0,1,16.675-.606Z" transform="translate(3.453 18.795)" fill="#fff"/>
      <path id="Line_270" data-name="Line 270" d="M-1.053,19.25A.447.447,0,0,1-1.5,18.8V-1.053A.447.447,0,0,1-1.053-1.5a.447.447,0,0,1,.447.447V18.8A.447.447,0,0,1-1.053,19.25Z" transform="translate(80.42 8.867)" fill="#fff"/>
      <path id="Line_263" data-name="Line 263" d="M-1.053,19.25A.447.447,0,0,1-1.5,18.8V-1.053A.447.447,0,0,1-1.053-1.5a.447.447,0,0,1,.447.447V18.8A.447.447,0,0,1-1.053,19.25Z" transform="translate(35.977 8.867)" fill="#fff"/>
      <path id="Line_274" data-name="Line 274" d="M-1.053,19.25A.447.447,0,0,1-1.5,18.8V-1.053A.447.447,0,0,1-1.053-1.5a.447.447,0,0,1,.447.447V18.8A.447.447,0,0,1-1.053,19.25Z" transform="translate(89.284 8.867)" fill="#fff"/>
      <path id="Line_278" data-name="Line 278" d="M16.675-.606H-1.053A.447.447,0,0,1-1.5-1.053.447.447,0,0,1-1.053-1.5H16.675a.447.447,0,0,1,.447.447A.447.447,0,0,1,16.675-.606Z" transform="translate(75.811 23.404)" fill="#fff"/>
      <path id="Line_281" data-name="Line 281" d="M16.675-.606H-1.053A.447.447,0,0,1-1.5-1.053.447.447,0,0,1-1.053-1.5H16.675a.447.447,0,0,1,.447.447A.447.447,0,0,1,16.675-.606Z" transform="translate(75.811 20.567)" fill="#fff"/>
      <path id="Line_264" data-name="Line 264" d="M16.675-.606H-1.053A.447.447,0,0,1-1.5-1.053.447.447,0,0,1-1.053-1.5H16.675a.447.447,0,0,1,.447.447A.447.447,0,0,1,16.675-.606Z" transform="translate(31.722 25.531)" fill="#fff"/>
      <path id="Polygon_46" data-name="Polygon 46" d="M11.264,1.812,1.535,18.961H20.993L11.264,1.812m0-1.812L22.528,19.855H0Z" transform="translate(0 7.814)" fill="#fff"/>
      <path id="Line_301" data-name="Line 301" d="M16.675-.606H-1.053A.447.447,0,0,1-1.5-1.053.447.447,0,0,1-1.053-1.5H16.675a.447.447,0,0,1,.447.447A.447.447,0,0,1,16.675-.606Z" transform="translate(100.073 19.1)" fill="#fff"/>
      <path id="Line_297" data-name="Line 297" d="M9.939-.606H-1.053A.447.447,0,0,1-1.5-1.053.447.447,0,0,1-1.053-1.5H9.939a.447.447,0,0,1,.447.447A.447.447,0,0,1,9.939-.606Z" transform="translate(159.345 25.62)" fill="#fff"/>
      <path id="Line_291" data-name="Line 291" d="M-1.053,19.25A.447.447,0,0,1-1.5,18.8V-1.053A.447.447,0,0,1-1.053-1.5a.447.447,0,0,1,.447.447V18.8A.447.447,0,0,1-1.053,19.25Z" transform="translate(130.448 8.867)" fill="#fff"/>
      <path id="Line_292" data-name="Line 292" d="M-1.053,19.25A.447.447,0,0,1-1.5,18.8V-1.053A.447.447,0,0,1-1.053-1.5a.447.447,0,0,1,.447.447V18.8A.447.447,0,0,1-1.053,19.25Z" transform="translate(139.312 8.867)" fill="#fff"/>
      <path id="Line_293" data-name="Line 293" d="M-1.053,19.25A.447.447,0,0,1-1.5,18.8V-1.053A.447.447,0,0,1-1.053-1.5a.447.447,0,0,1,.447.447V18.8A.447.447,0,0,1-1.053,19.25Z" transform="translate(148.176 8.867)" fill="#fff"/>
      <path id="Line_294" data-name="Line 294" d="M-1.053,8.336a.446.446,0,0,1-.311-.126.447.447,0,0,1-.011-.632L7.27-1.364A.447.447,0,0,1,7.9-1.374a.447.447,0,0,1,.011.632L-.731,8.2A.446.446,0,0,1-1.053,8.336Z" transform="translate(139.442 8.793)" fill="#fff"/>
      <path id="Line_295" data-name="Line 295" d="M21.038-.606H-1.053A.447.447,0,0,1-1.5-1.053.447.447,0,0,1-1.053-1.5H21.038a.447.447,0,0,1,.447.447A.447.447,0,0,1,21.038-.606Z" transform="translate(128.266 25.531)" fill="#fff"/>
      <path id="Line_296" data-name="Line 296" d="M7.651,8.509a.446.446,0,0,1-.323-.138l-8.7-9.115a.447.447,0,0,1,.015-.632.447.447,0,0,1,.632.015l8.7,9.115a.447.447,0,0,1-.323.756Z" transform="translate(130.5 8.793)" fill="#fff"/>
      <path id="Path_1280" data-name="Path 1280" d="M7.843,16.071A8.149,8.149,0,0,1,3.013,14.5a8.338,8.338,0,0,1-1.788-1.775,8.5,8.5,0,0,1-1.2-2.27.447.447,0,1,1,.844-.294,7.611,7.611,0,0,0,1.074,2.031,7.445,7.445,0,0,0,1.6,1.585,7.336,7.336,0,0,0,9.5-.756A7.37,7.37,0,0,0,12.214,1.9,7.025,7.025,0,0,0,10.245.872a.447.447,0,1,1,.281-.849,7.918,7.918,0,0,1,2.22,1.154,8.261,8.261,0,0,1-1.692,14.247A8.2,8.2,0,0,1,7.843,16.071Z" transform="translate(163.774 0) rotate(45)" fill="#fff"/>
      <path id="Path_1284" data-name="Path 1284" d="M9.976,19.846a9.98,9.98,0,0,1-9.192-6.06A9.892,9.892,0,0,1,.762,6.119a.447.447,0,1,1,.827.34,8.982,8.982,0,0,0,1.964,9.848,9.142,9.142,0,0,0,11.18,1.315,8.9,8.9,0,0,0,3.247-3.428,9.045,9.045,0,0,0,1.078-4.271,8.847,8.847,0,0,0-1.016-4.154,9.267,9.267,0,0,0-3.314-3.536A9.064,9.064,0,0,0,9.976.894a.447.447,0,1,1,0-.894A9.958,9.958,0,0,1,15.2,1.471a10.162,10.162,0,0,1,3.634,3.877,9.744,9.744,0,0,1,1.121,4.575,9.93,9.93,0,0,1-1.182,4.689A9.8,9.8,0,0,1,15.2,18.386,10.036,10.036,0,0,1,9.976,19.846Z" transform="translate(124.741 14.369) rotate(120)" fill="#fff"/>
      <path id="Line_298" data-name="Line 298" d="M-1.053,19.25A.447.447,0,0,1-1.5,18.8V-1.053A.447.447,0,0,1-1.053-1.5a.447.447,0,0,1,.447.447V18.8A.447.447,0,0,1-1.053,19.25Z" transform="translate(164.771 11.615)" fill="#fff"/>
      <g id="Group_1317" data-name="Group 1317" transform="translate(54.103 7.814)" clip-path="url(#clip-path)">
        <path id="Path_1278" data-name="Path 1278" d="M11.207,2.274a8.937,8.937,0,1,0,2.163,17.611,9.278,9.278,0,0,1,0-17.347,8.983,8.983,0,0,0-2.163-.264h0m0-.894a9.827,9.827,0,0,1,5.157,1.457,8.38,8.38,0,0,0,0,16.749A9.834,9.834,0,1,1,11.208,1.379Z" transform="translate(-1.283 -1.283)" fill="#fff"/>
      </g>
    </g>
    <g id="Group_1324" data-name="Group 1324" transform="translate(344.798 265.15)">
      <path id="Line_267" data-name="Line 267" d="M18.175.894H.447A.447.447,0,0,1,.447,0H18.175a.447.447,0,0,1,0,.894Z" transform="translate(121.728 14.242) rotate(180)" fill="#fff"/>
      <path id="Line_268" data-name="Line 268" d="M16.675-.606H-1.053A.447.447,0,0,1-1.5-1.053.447.447,0,0,1-1.053-1.5H16.675a.447.447,0,0,1,.447.447A.447.447,0,0,1,16.675-.606Z" transform="translate(3.453 14.122)" fill="#fff"/>
      <path id="Line_271" data-name="Line 271" d="M-1.053,19.25A.447.447,0,0,1-1.5,18.8V-1.053A.447.447,0,0,1-1.053-1.5a.447.447,0,0,1,.447.447V18.8A.447.447,0,0,1-1.053,19.25Z" transform="translate(68.844 4.195)" fill="#fff"/>
      <path id="Line_272" data-name="Line 272" d="M-1.053,19.25A.447.447,0,0,1-1.5,18.8V-1.053A.447.447,0,0,1-1.053-1.5a.447.447,0,0,1,.447.447V18.8A.447.447,0,0,1-1.053,19.25Z" transform="translate(30.141 4.727)" fill="#fff"/>
      <path id="Line_275" data-name="Line 275" d="M-1.053,19.25A.447.447,0,0,1-1.5,18.8V-1.053A.447.447,0,0,1-1.053-1.5a.447.447,0,0,1,.447.447V18.8A.447.447,0,0,1-1.053,19.25Z" transform="translate(77.708 4.195)" fill="#fff"/>
      <path id="Line_276" data-name="Line 276" d="M-1.053,19.25A.447.447,0,0,1-1.5,18.8V-1.053A.447.447,0,0,1-1.053-1.5a.447.447,0,0,1,.447.447V18.8A.447.447,0,0,1-1.053,19.25Z" transform="translate(93.137 4.195)" fill="#fff"/>
      <path id="Line_279" data-name="Line 279" d="M16.675-.606H-1.053A.447.447,0,0,1-1.5-1.053.447.447,0,0,1-1.053-1.5H16.675a.447.447,0,0,1,.447.447A.447.447,0,0,1,16.675-.606Z" transform="translate(64.235 18.732)" fill="#fff"/>
      <path id="Line_282" data-name="Line 282" d="M16.675-.606H-1.053A.447.447,0,0,1-1.5-1.053.447.447,0,0,1-1.053-1.5H16.675a.447.447,0,0,1,.447.447A.447.447,0,0,1,16.675-.606Z" transform="translate(64.235 15.895)" fill="#fff"/>
      <path id="Line_284" data-name="Line 284" d="M8.784-.606H-1.053A.447.447,0,0,1-1.5-1.053.447.447,0,0,1-1.053-1.5H8.784a.447.447,0,0,1,.447.447A.447.447,0,0,1,8.784-.606Z" transform="translate(88.282 21.568)" fill="#fff"/>
      <path id="Polygon_47" data-name="Polygon 47" d="M11.264,1.812,1.535,18.961H20.993L11.264,1.812m0-1.812L22.528,19.855H0Z" transform="translate(0 3.142)" fill="#fff"/>
      <path id="Line_285" data-name="Line 285" d="M16.675-.606H-1.053A.447.447,0,0,1-1.5-1.053.447.447,0,0,1-1.053-1.5H16.675a.447.447,0,0,1,.447.447A.447.447,0,0,1,16.675-.606Z" transform="translate(128.668 14.654)" fill="#fff"/>
      <path id="Path_1282" data-name="Path 1282" d="M9.976,19.846a9.98,9.98,0,0,1-9.192-6.06A9.892,9.892,0,0,1,.762,6.119a.447.447,0,1,1,.827.34,8.982,8.982,0,0,0,1.964,9.848,9.142,9.142,0,0,0,11.18,1.315,8.9,8.9,0,0,0,3.247-3.428,9.045,9.045,0,0,0,1.078-4.271,8.847,8.847,0,0,0-1.016-4.154,9.267,9.267,0,0,0-3.314-3.536A9.064,9.064,0,0,0,9.976.894a.447.447,0,1,1,0-.894A9.958,9.958,0,0,1,15.2,1.471a10.162,10.162,0,0,1,3.634,3.877,9.744,9.744,0,0,1,1.121,4.575,9.93,9.93,0,0,1-1.182,4.689A9.8,9.8,0,0,1,15.2,18.386,10.036,10.036,0,0,1,9.976,19.846Z" transform="translate(153.336 9.923) rotate(120)" fill="#fff"/>
      <g id="Group_1318" data-name="Group 1318" transform="translate(43.264 3.142)" clip-path="url(#clip-path)">
        <path id="Path_1279" data-name="Path 1279" d="M11.207,2.274a8.937,8.937,0,1,0,2.163,17.611,9.278,9.278,0,0,1,0-17.347,8.983,8.983,0,0,0-2.163-.264h0m0-.894a9.827,9.827,0,0,1,5.157,1.457,8.38,8.38,0,0,0,0,16.749A9.834,9.834,0,1,1,11.208,1.379Z" transform="translate(-1.283 -1.283)" fill="#fff"/>
      </g>
      <path id="Line_287" data-name="Line 287" d="M6.641,4.741a.445.445,0,0,1-.255-.08L-1.308-.686a.447.447,0,0,1-.112-.622A.447.447,0,0,1-.8-1.42L6.9,3.927a.447.447,0,0,1-.256.814Z" transform="translate(30.178 4.876)" fill="#fff"/>
      <path id="Line_288" data-name="Line 288" d="M-1.053,6.131a.446.446,0,0,1-.337-.153.447.447,0,0,1,.043-.631L6.385-1.39a.447.447,0,0,1,.631.043.447.447,0,0,1-.043.631L-.759,6.021A.445.445,0,0,1-1.053,6.131Z" transform="translate(30.141 10.222)" fill="#fff"/>
      <path id="Line_289" data-name="Line 289" d="M7.33,6.984a.445.445,0,0,1-.3-.116L-1.353-.721a.447.447,0,0,1-.031-.632.447.447,0,0,1,.632-.031L7.631,6.205a.447.447,0,0,1-.3.779Z" transform="translate(30.141 16.959)" fill="#fff"/>
      <path id="Line_299" data-name="Line 299" d="M8.784,16.682a.447.447,0,0,1-.389-.226L-1.442-.832a.447.447,0,0,1,.168-.61.447.447,0,0,1,.61.168L9.172,16.014a.447.447,0,0,1-.388.668Z" transform="translate(103.59 6.664)" fill="#fff"/>
      <path id="Line_300" data-name="Line 300" d="M-1.053,16.682a.445.445,0,0,1-.221-.059.447.447,0,0,1-.168-.61L8.395-1.274A.447.447,0,0,1,9-1.442a.447.447,0,0,1,.168.61L-.664,16.456A.447.447,0,0,1-1.053,16.682Z" transform="translate(113.427 6.664)" fill="#fff"/>
    </g>
  </g>
</svg>
